<svg xmlns="http://www.w3.org/2000/svg" width="200" height="160" viewBox="0 0 200 160">
    <defs>
        <linearGradient id="m159b8qmsa" x1="50%" x2="50%" y1="0%" y2="100%">
            <stop offset="0%" stop-color="#FD2"/>
            <stop offset="100%" stop-color="#FFB90F"/>
        </linearGradient>
        <linearGradient id="l08wchd2yb" x1="50%" x2="50%" y1="0%" y2="140.24%">
            <stop offset="0%" stop-color="#FDBC47"/>
            <stop offset="100%" stop-color="#F98722"/>
        </linearGradient>
    </defs>
    <g fill="none" fill-rule="evenodd" transform="translate(20 17)">
        <path fill="#FFF6D9" d="M100.32 0c25.394 0 45.98 20.586 45.98 45.98 0 10.114-3.266 19.466-8.8 27.058.29 2.085.44 4.216.44 6.382 0 25.394-20.586 45.98-45.98 45.98-12.71 0-24.215-5.157-32.538-13.492-4.251 1.299-8.765 1.997-13.442 1.997C20.586 113.905 0 93.319 0 67.925s20.586-45.98 45.98-45.98c4.844 0 9.514.75 13.899 2.138C67.662 9.739 82.853 0 100.32 0z"/>
        <path fill="url(#m159b8qmsa)" fill-rule="nonzero" d="M63.133 29.26H38.21c-3.206 0-5.815 2.609-5.815 5.815V50.03c0 3.207 2.609 5.816 5.815 5.816h24.923c3.208 0 5.816-2.609 5.816-5.816V35.075c0-3.206-2.608-5.815-5.816-5.815z"/>
        <path fill="url(#l08wchd2yb)" fill-rule="nonzero" d="M63.133 62.49H38.21c-3.206 0-5.815 2.61-5.815 5.817v34.892c0 3.207 2.609 5.815 5.815 5.815h24.923c3.208 0 5.816-2.608 5.816-5.815V68.307c0-3.208-2.608-5.816-5.816-5.816z"/>
        <path fill="url(#m159b8qmsa)" fill-rule="nonzero" d="M106.334 82.43H81.411c-3.207 0-5.816 2.608-5.816 5.815V103.2c0 3.207 2.609 5.815 5.816 5.815h24.923c3.207 0 5.815-2.608 5.815-5.815V88.245c0-3.207-2.608-5.816-5.815-5.816z"/>
        <path fill="#FFF1C6" fill-rule="nonzero" d="M49.026 91.314v-9.03c0-.294-.24-.534-.533-.534h-3.23c-.293 0-.533.24-.533.533v9.031h4.296zM42.077 91.314V78.908c0-.293-.24-.533-.533-.533h-3.23c-.294 0-.533.24-.533.533v12.406h4.296zM55.975 91.314v-4.945c0-.293-.24-.533-.533-.533h-3.23c-.293 0-.533.24-.533.533v4.945h4.296zM62.924 91.314V78.908c0-.293-.24-.533-.533-.533h-3.23c-.293 0-.533.24-.533.533v12.406h4.296z"/>
        <path fill="#FFF1C6" fill-rule="nonzero" d="M63.842 93.475h-26.98c-.736 0-1.332-.596-1.332-1.332 0-.736.596-1.332 1.332-1.332h26.98c.736 0 1.333.596 1.333 1.332 0 .736-.597 1.332-1.333 1.332z"/>
        <path fill="url(#l08wchd2yb)" fill-rule="nonzero" d="M106.334 29.26H81.411c-3.207 0-5.816 2.609-5.816 5.815v34.893c0 3.207 2.609 5.816 5.816 5.816h24.923c3.207 0 5.815-2.609 5.815-5.816V35.075c0-3.206-2.608-5.815-5.815-5.815z"/>
        <path fill="#FFD84F" fill-rule="nonzero" d="M82.555 53.041h4.89c0-2.7 2.188-4.89 4.888-4.89v-4.888c-5.4 0-9.778 4.378-9.778 9.778z"/>
        <path fill="#FFF1C6" fill-rule="nonzero" d="M94.813 40.783v4.89c2.7 0 4.89 2.188 4.89 4.889h4.889c0-5.4-4.379-9.779-9.779-9.779z"/>
        <path fill="#FFEDCA" fill-rule="nonzero" d="M97.222 53.041c0 2.7-2.188 4.89-4.888 4.89-2.7 0-4.89-2.19-4.89-4.89h-4.889c0 5.4 4.378 9.779 9.778 9.779s9.779-4.378 9.779-9.779h-4.89z"/>
        <path fill="#FFF1C6" fill-rule="nonzero" d="M104.129 94.05H83.97c-.782 0-1.416-.702-1.416-1.567 0-.866.634-1.568 1.416-1.568h20.158c.782 0 1.416.702 1.416 1.567 0 .866-.634 1.568-1.416 1.568z"/>
        <path fill="#FFF" fill-rule="nonzero" d="M60.239 40.755H40.08c-.782 0-1.416-.702-1.416-1.568 0-.865.634-1.567 1.416-1.567H60.24c.782 0 1.416.702 1.416 1.568 0 .865-.634 1.567-1.416 1.567z" opacity=".758"/>
        <path fill="#FFF1C6" fill-rule="nonzero" d="M104.129 100.32H83.97c-.782 0-1.416-.702-1.416-1.567 0-.866.634-1.568 1.416-1.568h20.158c.782 0 1.416.702 1.416 1.567 0 .866-.634 1.568-1.416 1.568z"/>
        <path fill="#FFF" fill-rule="nonzero" d="M60.239 47.025H40.08c-.782 0-1.416-.702-1.416-1.567 0-.866.634-1.568 1.416-1.568H60.24c.782 0 1.416.702 1.416 1.568 0 .865-.634 1.567-1.416 1.567z" opacity=".758"/>
        <circle cx="152.048" cy="73.672" r="5.747" fill="#FFF6D9"/>
    </g>
</svg>
