<svg xmlns="http://www.w3.org/2000/svg" xmlns:xlink="http://www.w3.org/1999/xlink" width="200" height="160" viewBox="0 0 200 160">
    <defs>
        <linearGradient id="z0iteoxq5c" x1="50%" x2="59.532%" y1="0%" y2="100%">
            <stop offset="0%" stop-color="#FFDA41"/>
            <stop offset="100%" stop-color="#FFBB17"/>
        </linearGradient>
        <linearGradient id="4w8e5vxykf" x1="58.901%" x2="58.901%" y1="116.05%" y2="0%">
            <stop offset="0%" stop-color="#FDB220"/>
            <stop offset="100%" stop-color="#FFA644"/>
        </linearGradient>
        <linearGradient id="c7g9m36u4g" x1="50%" x2="65.172%" y1="158.491%" y2="0%">
            <stop offset="0%" stop-color="#FEC203"/>
            <stop offset="100%" stop-color="#FDC302"/>
        </linearGradient>
        <filter id="iu1p86lt8a" width="111.6%" height="111.4%" x="-4.1%" y="-4.1%" filterUnits="objectBoundingBox">
            <feOffset dx="1" dy="1" in="SourceAlpha" result="shadowOffsetOuter1"/>
            <feGaussianBlur in="shadowOffsetOuter1" result="shadowBlurOuter1" stdDeviation="1"/>
            <feColorMatrix in="shadowBlurOuter1" values="0 0 0 0 1 0 0 0 0 0.760256495 0 0 0 0 0.531821646 0 0 0 0.659664554 0"/>
        </filter>
        <filter id="ulrkhlxnbd" width="111.7%" height="117.1%" x="-5.9%" y="-6.1%" filterUnits="objectBoundingBox">
            <feOffset dy="2" in="SourceAlpha" result="shadowOffsetOuter1"/>
            <feGaussianBlur in="shadowOffsetOuter1" result="shadowBlurOuter1" stdDeviation="2"/>
            <feColorMatrix in="shadowBlurOuter1" values="0 0 0 0 1 0 0 0 0 0.658823529 0 0 0 0 0.254901961 0 0 0 0.281905594 0"/>
        </filter>
        <path id="5wc367wyvb" d="M142.246 37.503l-5.691-4.422c.176-1.543.176-3.102 0-4.645l5.696-4.424c1.067-.855 1.352-2.353.673-3.535l-5.92-10.17c-.682-1.19-2.135-1.71-3.424-1.225l-6.707 2.682c-1.26-.909-2.61-1.688-4.03-2.325l-1.029-7.08c-.185-1.36-1.359-2.37-2.74-2.359h-11.866c-1.369-.008-2.533.991-2.724 2.338l-1.032 7.1c-1.414.644-2.762 1.424-4.024 2.328L92.702 9.08c-1.275-.5-2.726.014-3.397 1.202l-5.926 10.187c-.697 1.185-.41 2.699.674 3.55l5.69 4.422c-.178 1.543-.178 3.102 0 4.645l-5.695 4.422c-1.07.853-1.356 2.352-.676 3.535l5.918 10.172c.68 1.19 2.134 1.71 3.423 1.225l6.707-2.682c1.261.91 2.612 1.69 4.032 2.328l1.032 7.075c.182 1.356 1.348 2.366 2.724 2.361h11.867c1.371.01 2.539-.989 2.732-2.338l1.031-7.1c1.415-.644 2.763-1.424 4.025-2.328l6.733 2.689c1.275.498 2.726-.015 3.397-1.202l5.944-10.228c.665-1.181.373-2.667-.691-3.512zm-29.105 6.075c-7.123 0-12.898-5.738-12.898-12.817s5.775-12.817 12.898-12.817c7.124 0 12.899 5.738 12.899 12.817-.009 7.075-5.779 12.809-12.899 12.817z"/>
        <path id="6yncskhr8e" d="M108.43 61.958V4.424C108.43 1.994 106.436 0 104 0H15.492c-2.434 0-4.433 1.984-4.433 4.424v57.534L0 75.236c0 3.658 2.97 6.633 6.633 6.633h106.221c3.662 0 6.633-2.976 6.633-6.633L108.43 61.958zM42.868 73.601l1.71-2.053c.19-.228.472-.36.769-.36h28.795c.297 0 .578.132.768.36l1.71 2.053c.354.425.297 1.055-.128 1.409-.18.15-.406.232-.64.232H43.636c-.552 0-1-.448-1-1 0-.234.082-.46.232-.64zm59.33-19.469c0 2.135-1.74 3.863-3.86 3.863h-77.19c-2.12 0-3.858-1.743-3.858-3.863V7.836c0-2.135 1.739-3.863 3.858-3.863h77.19c2.12 0 3.86 1.739 3.86 3.863v46.296z"/>
    </defs>
    <g fill="none" fill-rule="evenodd" transform="translate(21 18)">
        <circle cx="8" cy="53" r="8" fill="#FFF6D9"/>
        <path fill="#FFF6D9" d="M60 13c9.67 0 18.475 3.71 25.067 9.785C92.367 19.139 99.735 17 106.5 17c28.443 0 51.5 23.057 51.5 51.5S143.51 120 111 124c-14.54 1.79-30.483-.483-43.665-6.086C61.501 121.761 54.512 124 47 124c-20.435 0-37-16.565-37-37 0-11.455 5.205-21.694 13.38-28.481C23.12 55.624 23 52.758 23 50c0-20.435 16.565-37 37-37z"/>
        <g fill-rule="nonzero">
            <use fill="#000" filter="url(#iu1p86lt8a)" xlink:href="#5wc367wyvb"/>
            <use fill="url(#z0iteoxq5c)" xlink:href="#5wc367wyvb"/>
        </g>
        <g fill-rule="nonzero" transform="translate(11 28)">
            <path fill="#FFF" d="M108.43 61.958V4.424C108.43 1.994 106.436 0 104 0H15.492c-2.434 0-4.433 1.984-4.433 4.424v57.534L0 75.236c0 3.658 2.97 6.633 6.633 6.633h106.221c3.662 0 6.633-2.976 6.633-6.633L108.43 61.958zM42.868 73.601l1.71-2.053c.19-.228.472-.36.769-.36h28.795c.297 0 .578.132.768.36l1.71 2.053c.354.425.297 1.055-.128 1.409-.18.15-.406.232-.64.232H43.636c-.552 0-1-.448-1-1 0-.234.082-.46.232-.64z"/>
            <use fill="#000" filter="url(#ulrkhlxnbd)" xlink:href="#6yncskhr8e"/>
            <use fill="url(#4w8e5vxykf)" xlink:href="#6yncskhr8e"/>
            <g fill="url(#c7g9m36u4g)" transform="translate(42 13)">
                <path d="M34.167 19.78c.899 0 1.798-.898 1.798-1.798 0-1.079-.9-1.798-1.798-1.798H30.57v-3.596h3.597c.899 0 1.798-.9 1.798-1.799 0-1.078-.9-1.798-1.798-1.798H30.57V7.193c0-1.079-.899-1.798-1.798-1.798h-1.798V1.798C26.974.72 26.074 0 25.175 0c-.899 0-1.798.72-1.798 1.798v3.597h-3.596V1.798C19.78.72 18.88 0 17.982 0c-.899 0-1.798.72-1.798 1.798v3.597h-3.596V1.798C12.588.72 11.688 0 10.789 0 9.89 0 8.991.72 8.991 1.798v3.597H7.193c-.9 0-1.798.719-1.798 1.798v1.798H1.798C.9 8.991 0 9.711 0 10.79c0 .9.9 1.799 1.798 1.799h3.597v3.596H1.798C.9 16.184 0 16.904 0 17.982c0 .9.9 1.799 1.798 1.799h3.597v3.596H1.798C.9 23.377 0 24.097 0 25.175c0 .9.9 1.799 1.798 1.799h3.597v1.798c0 .899.899 1.798 1.798 1.798h1.798v3.597c0 .899.9 1.798 1.798 1.798.9 0 1.799-.9 1.799-1.798V30.57h3.596v3.597c0 .899.9 1.798 1.798 1.798.9 0 1.799-.9 1.799-1.798V30.57h3.596v3.597c0 .899.9 1.798 1.798 1.798.9 0 1.799-.9 1.799-1.798V30.57h1.798c.899 0 1.798-.899 1.798-1.798v-1.798h3.597c.899 0 1.798-.9 1.798-1.799 0-1.079-.9-1.798-1.798-1.798H30.57v-3.596h3.597z"/>
            </g>
        </g>
    </g>
</svg>
