<svg xmlns="http://www.w3.org/2000/svg" xmlns:xlink="http://www.w3.org/1999/xlink" width="200" height="160" viewBox="0 0 200 160">
    <defs>
        <linearGradient id="0e6u5pp2na" x1="675.197%" x2="50%" y1="50%" y2="60.648%">
            <stop offset="0%" stop-color="#FD2"/>
            <stop offset="100%" stop-color="#FFB90F"/>
        </linearGradient>
        <linearGradient id="8r26g1992b" x1="675.197%" x2="50%" y1="50%" y2="51.758%">
            <stop offset="0%" stop-color="#FD2"/>
            <stop offset="100%" stop-color="#FFB90F"/>
        </linearGradient>
        <linearGradient id="c8tmnblcnc" x1="675.197%" x2="50%" y1="50%" y2="50.439%">
            <stop offset="0%" stop-color="#FD2"/>
            <stop offset="100%" stop-color="#FFB90F"/>
        </linearGradient>
        <linearGradient id="susqkhlxud" x1="50%" x2="50%" y1="0%" y2="100%">
            <stop offset="0%" stop-color="#FFB90F"/>
            <stop offset="100%" stop-color="#FC962A"/>
        </linearGradient>
        <linearGradient id="4zaeezp0qe" x1="50%" x2="50%" y1="0%" y2="100%">
            <stop offset="0%" stop-color="#FFB90F"/>
            <stop offset="100%" stop-color="#FBA83B"/>
        </linearGradient>
        <linearGradient id="p3pn1pco3h" x1="100%" x2="29.91%" y1="117.151%" y2="10.053%">
            <stop offset="0%" stop-color="#FFC740"/>
            <stop offset="100%" stop-color="#FBA537"/>
        </linearGradient>
        <filter id="90nsi3179f" width="108.4%" height="108.4%" x="-4.2%" y="-2.1%" filterUnits="objectBoundingBox">
            <feOffset dy="1" in="SourceAlpha" result="shadowOffsetOuter1"/>
            <feGaussianBlur in="shadowOffsetOuter1" result="shadowBlurOuter1" stdDeviation=".5"/>
            <feColorMatrix in="shadowBlurOuter1" values="0 0 0 0 1 0 0 0 0 0.728629993 0 0 0 0 0.015777439 0 0 0 0.392509834 0"/>
        </filter>
        <circle id="mpfuml4nwg" cx="84.364" cy="74.914" r="23.884"/>
    </defs>
    <g fill="none" fill-rule="evenodd" transform="translate(25 15)">
        <path fill="#FFF6D9" d="M60.008 0c27.466 0 50.623 18.454 57.747 43.64 17.75 5.644 30.61 22.262 30.61 41.882 0 24.27-19.674 43.943-43.943 43.943-11.33 0-21.66-4.289-29.453-11.331-4.781 1.228-9.795 1.881-14.961 1.881C26.865 120.015 0 93.149 0 60.007 0 26.867 26.866 0 60.008 0z"/>
        <path fill="#FFF9DD" fill-rule="nonzero" d="M77.31 92.95H33.888c-7.195 0-13.026-5.473-13.026-12.226V39.971c0-6.753 5.831-12.226 13.026-12.226H77.31c7.195 0 13.026 5.473 13.026 12.226v40.753c0 6.753-5.831 12.226-13.026 12.226z"/>
        <path fill="url(#0e6u5pp2na)" fill-rule="nonzero" d="M35.01 52.346h-5.428c-1.283 0-2.325-1.042-2.325-2.326s1.042-2.325 2.325-2.325h5.428c1.284 0 2.326 1.041 2.326 2.325 0 1.284-1.042 2.326-2.326 2.326zM35.01 84.903h-5.428c-1.283 0-2.325-1.042-2.325-2.326s1.042-2.325 2.325-2.325h5.428c1.284 0 2.326 1.041 2.326 2.325 0 1.284-1.042 2.326-2.326 2.326z"/>
        <path fill="url(#8r26g1992b)" fill-rule="nonzero" d="M52.837 60.099H32.685c-1.284 0-2.326-1.042-2.326-2.326 0-1.283 1.042-2.325 2.326-2.325h20.152c1.284 0 2.326 1.042 2.326 2.325 0 1.284-1.042 2.326-2.326 2.326z"/>
        <path fill="url(#c8tmnblcnc)" fill-rule="nonzero" d="M80.743 67.852h-44.96c-1.284 0-2.326-1.042-2.326-2.326 0-1.283 1.042-2.325 2.325-2.325h44.961c1.284 0 2.326 1.042 2.326 2.325 0 1.284-1.042 2.326-2.326 2.326z"/>
        <path fill="url(#8r26g1992b)" fill-rule="nonzero" d="M52.837 77.154H32.685c-1.284 0-2.326-1.042-2.326-2.326 0-1.283 1.042-2.325 2.326-2.325h20.152c1.284 0 2.326 1.042 2.326 2.325 0 1.284-1.042 2.326-2.326 2.326z"/>
        <path fill="url(#susqkhlxud)" fill-rule="nonzero" d="M83.278 25.515H27.287c-5.133 0-9.332 4.55-9.332 10.113v53.937c0 5.562 4.2 6.825 9.332 6.825h55.991c5.133 0 9.332-1.263 9.332-6.825V35.628c0-5.562-4.2-10.113-9.332-10.113zm2.712 63.722c0 1.856 2.39 3.373.68 3.373H23.9c-1.711 0-3.11-1.517-3.11-3.373V38.745h68.985v50.492H85.99z"/>
        <path fill="url(#4zaeezp0qe)" fill-rule="nonzero" d="M109.07 92.993l-6.627 6.627c-.502.501-1.316.501-1.818 0l-4.158-4.158 8.445-8.445 4.157 4.158c.502.502.502 1.316 0 1.818z"/>
        <path fill="#FDB222" fill-rule="nonzero" d="M103.213 98.84l5.066-5.066 9.963 9.962c1.399 1.4 1.399 3.667 0 5.066s-3.667 1.399-5.066 0l-9.963-9.963z"/>
        <g fill-rule="nonzero">
            <use fill="#000" filter="url(#90nsi3179f)" xlink:href="#mpfuml4nwg"/>
            <use fill="url(#p3pn1pco3h)" xlink:href="#mpfuml4nwg"/>
        </g>
        <path fill="#FFDC7B" fill-rule="nonzero" d="M98.808 55.893c3.05 4.01 4.862 9.015 4.862 14.443 0 13.191-10.693 23.884-23.884 23.884-5.428 0-10.432-1.812-14.443-4.862 4.362 5.736 11.258 9.44 19.021 9.44 13.19 0 23.884-10.693 23.884-23.884 0-7.763-3.704-14.66-9.44-19.021z" opacity=".32"/>
        <circle cx="84.364" cy="74.914" r="17.515" fill="#FFFAEB" fill-rule="nonzero"/>
        <path fill="#FFC013" fill-rule="nonzero" d="M94.94 60.953c2.231 2.94 3.555 6.604 3.555 10.577 0 9.674-7.841 17.515-17.515 17.515-3.973 0-7.638-1.324-10.577-3.554 3.199 4.215 8.262 6.938 13.961 6.938 9.673 0 17.515-7.842 17.515-17.515 0-5.7-2.723-10.762-6.938-13.96z" opacity=".081"/>
        <path fill="#FFB90F" fill-rule="nonzero" stroke="#FFBA10" stroke-width=".898" d="M82.018 84.3c-.084 0-.168-.01-.252-.035-.486-.139-.768-.646-.63-1.132L86.07 65.87c.14-.486.646-.767 1.132-.629.487.14.768.646.63 1.132l-4.933 17.264c-.115.403-.482.665-.88.665h0zM91.258 81.834c-.229 0-.457-.084-.634-.255-.365-.35-.377-.93-.027-1.295l5.31-5.531-5.31-5.532c-.35-.364-.338-.944.027-1.294.364-.35.944-.339 1.294.026l5.92 6.166c.34.354.34.913 0 1.268l-5.92 6.166c-.18.187-.42.281-.66.281h0zM77.71 81.834c-.24 0-.481-.094-.66-.281l-5.92-6.166c-.34-.354-.34-.914 0-1.268l5.92-6.166c.35-.364.929-.376 1.294-.026.364.35.376.93.026 1.295l-5.31 5.53 5.31 5.533c.35.364.338.944-.026 1.294-.178.17-.406.255-.634.255z"/>
        <circle cx="126.157" cy="33.547" r="5.197" fill="#FFF6D9"/>
    </g>
</svg>
