<svg xmlns="http://www.w3.org/2000/svg" xmlns:xlink="http://www.w3.org/1999/xlink" width="2880" height="1163" viewBox="0 0 2880 1163">
    <defs>
        <linearGradient id="bbv39cq8nb" x1="103.563%" x2="5.84%" y1="47.318%" y2="53.042%">
            <stop offset="0%" stop-color="#FFB248"/>
            <stop offset="100%" stop-color="#FFCE36"/>
        </linearGradient>
        <linearGradient id="4flk653cig" x1="103.563%" x2="5.84%" y1="48.121%" y2="52.131%">
            <stop offset="0%" stop-color="#FFECB1"/>
            <stop offset="100%" stop-color="#FFCE36"/>
        </linearGradient>
        <linearGradient id="p6ns01njqh" x1="-21.056%" x2="87.01%" y1="45.583%" y2="50.327%">
            <stop offset="0%" stop-color="#FAD69B"/>
            <stop offset="100%" stop-color="#FFCF3B"/>
        </linearGradient>
        <path id="z8rkeabvea" d="M943.739 230.031c215.565 0 860.756-105.164 1267.171-83.87 270.944 14.196 494.2 75.817 669.772 184.864V810c-406.657-113.82-760.047-166.86-1060.172-159.124-450.186 11.606-855.8 120.56-1401.208 41.05-105.83-15.429-245.37-49.313-418.62-101.655V0c345 153.354 659.352 230.031 943.057 230.031z"/>
        <path id="4j3479b7cf" d="M949.343 176.796c207.159 14.72 855.152-51.929 1261.567-30.635 270.944 14.196 494.2 75.817 669.772 184.864V518c-206.012-148.37-442.962-237.04-710.85-266.009-401.831-43.455-1065.254 148.11-1379.978 150.394-240.191 1.743-503.25-73.453-789.172-225.589V-160c345 204.107 661.22 316.373 948.66 336.796z"/>
        <ellipse id="enzk7d1yld" cx="2019.839" cy="902.587" rx="645.327" ry="619.95"/>
        <filter id="ckogbxpzxe" width="105%" height="105.2%" x="-2.5%" y="-2.6%" filterUnits="objectBoundingBox">
            <feMorphology in="SourceAlpha" radius="30" result="shadowSpreadInner1"/>
            <feGaussianBlur in="shadowSpreadInner1" result="shadowBlurInner1" stdDeviation="16.5"/>
            <feOffset dy="1" in="shadowBlurInner1" result="shadowOffsetInner1"/>
            <feComposite in="shadowOffsetInner1" in2="SourceAlpha" k2="-1" k3="1" operator="arithmetic" result="shadowInnerInner1"/>
            <feColorMatrix in="shadowInnerInner1" values="0 0 0 0 1 0 0 0 0 0.885858341 0 0 0 0 0.689005335 0 0 0 0.510216346 0"/>
        </filter>
    </defs>
    <g fill="none" fill-rule="evenodd">
        <g>
            <g>
                <g>
                    <g transform="translate(0 -4501) translate(-4 4501) translate(.625 158) translate(1.039 .655)">
                        <g>
                            <g transform="translate(.997 .702) translate(.658 .643)">
                                <mask id="4bvyen0cmc" fill="#fff">
                                    <use xlink:href="#z8rkeabvea"/>
                                </mask>
                                <use fill="url(#bbv39cq8nb)" xlink:href="#z8rkeabvea"/>
                                <g mask="url(#4bvyen0cmc)" opacity=".071" transform="rotate(35 2019.839 902.587)">
                                    <use fill="#FFF" xlink:href="#enzk7d1yld"/>
                                    <use fill="#000" filter="url(#ckogbxpzxe)" xlink:href="#enzk7d1yld"/>
                                </g>
                                <use fill="url(#4flk653cig)" opacity=".34" xlink:href="#4j3479b7cf"/>
                            </g>
                        </g>
                        <path fill="url(#p6ns01njqh)" d="M1168.524 652.222c67.826-9.136 295.093-84.877 774.151-84.877 319.373 0 632.593 72.364 939.661 217.092v176.57c-286.834-144.336-566.772-227.149-839.812-248.44-409.56-31.934-865.765 22.27-1331.436 7.635-146.23-4.596-276.79-21.203-362.503-39.57-88.395-18.94-203.81-48.612-346.249-89.015V403.73c299.406 144.914 512.741 228.293 640.005 250.135 215.77 37.032 471.42 5.732 526.183-1.644z" opacity=".4"/>
                        <ellipse cx="573.836" cy="567.345" fill="#FFF" opacity=".205" rx="54" ry="48"/>
                    </g>
                </g>
            </g>
        </g>
    </g>
</svg>
