<?xml version="1.0" encoding="UTF-8"?>
<svg viewBox="0 0 1235 37" version="1.1" xmlns="http://www.w3.org/2000/svg" xmlns:xlink="http://www.w3.org/1999/xlink">
    <!-- Generator: Sketch 59.1 (86144) - https://sketch.com -->
    <title>ONE-STOPSHOPFORYOURDIGITALPRODUCT</title>
    <desc>Created with Sketch.</desc>
    <g id="Page-1" stroke="none" stroke-width="1" fill="none" fill-rule="evenodd">
        <g id="Oril-Banner" transform="translate(-179.000000, -938.000000)" fill="#FFFFFF" fill-rule="nonzero">
            <path d="M198.629883,974.756836 C195.993151,974.756836 193.519217,974.288904 191.208008,973.353027 C188.896798,972.41715 186.91521,971.143563 185.263184,969.532227 C183.611157,967.92089 182.309087,965.984061 181.356934,963.72168 C180.40478,961.459299 179.928711,959.050469 179.928711,956.495117 C179.928711,953.939766 180.40478,951.530936 181.356934,949.268555 C182.309087,947.006174 183.611157,945.069344 185.263184,943.458008 C186.91521,941.846672 188.896798,940.573084 191.208008,939.637207 C193.519217,938.70133 195.993151,938.233398 198.629883,938.233398 C201.250339,938.233398 203.712065,938.697261 206.015137,939.625 C208.318208,940.552739 210.287589,941.826327 211.92334,943.445801 C213.55909,945.065275 214.848954,947.002105 215.792969,949.256348 C216.736984,951.510591 217.208984,953.92349 217.208984,956.495117 C217.208984,959.066745 216.736984,961.479644 215.792969,963.733887 C214.848954,965.98813 213.55909,967.924959 211.92334,969.544434 C210.287589,971.163908 208.318208,972.437495 206.015137,973.365234 C203.712065,974.292973 201.250339,974.756836 198.629883,974.756836 Z M190.792969,964.429688 C192.908865,966.56186 195.521143,967.62793 198.629883,967.62793 C201.738622,967.62793 204.334625,966.565929 206.417969,964.441895 C208.501312,962.31786 209.542969,959.668961 209.542969,956.495117 C209.542969,953.321273 208.501312,950.676443 206.417969,948.560547 C204.334625,946.444651 201.738622,945.386719 198.629883,945.386719 C195.521143,945.386719 192.908865,946.452789 190.792969,948.584961 C188.677073,950.717133 187.619141,953.353825 187.619141,956.495117 C187.619141,959.636409 188.677073,962.281239 190.792969,964.429688 Z M248.033984,938.990234 L255.455859,938.990234 L255.455859,974 L249.132617,974 L233.263477,952.125 L233.263477,974 L225.841602,974 L225.841602,938.990234 L232.677539,938.990234 L248.033984,960.352539 L248.033984,938.990234 Z M273.707617,966.944336 L287.696875,966.944336 L287.696875,974 L266.139258,974 L266.139258,938.990234 L287.159766,938.990234 L287.159766,945.99707 L273.707617,945.99707 L273.707617,952.90625 L285.841406,952.90625 L285.841406,959.766602 L273.707617,959.766602 L273.707617,966.944336 Z M295.694727,963.477539 L295.694727,956.446289 L312.00332,956.446289 L312.00332,963.477539 L295.694727,963.477539 Z M333.380078,974.683594 C329.311047,974.683594 326.031458,973.605317 323.541211,971.44873 C321.050964,969.292144 319.805859,966.358417 319.805859,962.647461 L327.423047,962.647461 C327.423047,964.258797 327.992703,965.499833 329.132031,966.370605 C330.27136,967.241378 331.671085,967.676758 333.33125,967.676758 C334.844929,967.676758 336.163276,967.302413 337.286328,966.553711 C338.409381,965.805009 338.970898,964.804043 338.970898,963.550781 C338.970898,963.111326 338.893588,962.712567 338.738965,962.354492 C338.584342,961.996417 338.323928,961.679038 337.957715,961.402344 C337.591502,961.12565 337.241571,960.889649 336.90791,960.694336 C336.615957,960.523437 336.202511,960.35254 335.667562,960.181641 L334.901721,959.951949 C334.651601,959.879205 334.423156,959.814682 334.216385,959.758381 L333.831738,959.656738 C333.416697,959.550943 332.794145,959.400392 331.964063,959.205078 L331.065946,958.980279 C328.597932,958.34718 326.781434,957.746662 325.616406,957.178711 C322.523943,955.697584 320.782424,953.418961 320.391797,950.342773 C320.326692,949.85449 320.294141,949.349938 320.294141,948.829102 C320.294141,945.508772 321.429383,942.933115 323.699902,941.102051 C325.970422,939.270987 329.066907,938.355469 332.989453,938.355469 C336.993379,938.355469 340.098003,939.352366 342.303418,941.346191 C344.508833,943.340016 345.611523,946.094709 345.611523,949.610352 L338.116406,949.610352 C338.116406,948.178053 337.607785,947.0835 336.590527,946.32666 C335.57327,945.56982 334.30782,945.191406 332.794141,945.191406 C331.443222,945.191406 330.283566,945.476234 329.315137,946.045898 C328.346707,946.615563 327.8625,947.437495 327.8625,948.511719 C327.8625,948.983726 327.988638,949.415037 328.240918,949.805664 C328.493198,950.196291 328.790233,950.513671 329.132031,950.757812 C329.47383,951.001954 329.98652,951.250161 330.670117,951.502441 C331.353714,951.754721 331.943715,951.945963 332.440137,952.076172 L333.474719,952.338397 L333.474719,952.338397 L335.881566,952.931808 L335.881566,952.931808 L336.444043,953.077148 C336.821446,953.17684 337.332801,953.326375 337.978122,953.525757 L338.262891,953.614258 C339.044145,953.8584 339.662628,954.082193 340.118359,954.285645 L340.534894,954.477968 C340.903595,954.653184 341.326272,954.865768 341.80293,955.115723 C342.470251,955.465659 343.003286,955.815591 343.402051,956.165527 C343.800816,956.515464 344.232127,956.950844 344.695996,957.47168 C345.159866,957.992516 345.513866,958.537758 345.758008,959.107422 C346.00215,959.677086 346.209667,960.336259 346.380566,961.084961 C346.551466,961.833663 346.636914,962.631181 346.636914,963.477539 C346.636914,965.316741 346.286983,966.960605 345.587109,968.40918 C344.887236,969.857755 343.931028,971.033687 342.718457,971.937012 C341.505886,972.840337 340.10616,973.523923 338.519238,973.987793 C336.932316,974.451662 335.21928,974.683594 333.380078,974.683594 Z M378.853516,938.990234 L378.853516,946.021484 L369.112305,946.021484 L369.112305,974 L361.543945,974 L361.543945,946.021484 L351.827148,946.021484 L351.827148,938.990234 L378.853516,938.990234 Z M402.158984,974.756836 C399.522252,974.756836 397.048319,974.288904 394.737109,973.353027 C392.4259,972.41715 390.444312,971.143563 388.792285,969.532227 C387.140259,967.92089 385.838188,965.984061 384.886035,963.72168 C383.933882,961.459299 383.457812,959.050469 383.457812,956.495117 C383.457812,953.939766 383.933882,951.530936 384.886035,949.268555 C385.838188,947.006174 387.140259,945.069344 388.792285,943.458008 C390.444312,941.846672 392.4259,940.573084 394.737109,939.637207 C397.048319,938.70133 399.522252,938.233398 402.158984,938.233398 C404.77944,938.233398 407.241167,938.697261 409.544238,939.625 C411.84731,940.552739 413.816691,941.826327 415.452441,943.445801 C417.088192,945.065275 418.378055,947.002105 419.32207,949.256348 C420.266085,951.510591 420.738086,953.92349 420.738086,956.495117 C420.738086,959.066745 420.266085,961.479644 419.32207,963.733887 C418.378055,965.98813 417.088192,967.924959 415.452441,969.544434 C413.816691,971.163908 411.84731,972.437495 409.544238,973.365234 C407.241167,974.292973 404.77944,974.756836 402.158984,974.756836 Z M394.32207,964.429688 C396.437966,966.56186 399.050245,967.62793 402.158984,967.62793 C405.267724,967.62793 407.863727,966.565929 409.94707,964.441895 C412.030414,962.31786 413.07207,959.668961 413.07207,956.495117 C413.07207,953.321273 412.030414,950.676443 409.94707,948.560547 C407.863727,946.444651 405.267724,945.386719 402.158984,945.386719 C399.050245,945.386719 396.437966,946.452789 394.32207,948.584961 C392.206174,950.717133 391.148242,953.353825 391.148242,956.495117 C391.148242,959.636409 392.206174,962.281239 394.32207,964.429688 Z M442.847266,938.990234 C445.158475,938.990234 447.253995,939.506994 449.133887,940.540527 C451.013779,941.574061 452.494884,943.014476 453.577246,944.861816 C454.659608,946.709156 455.200781,948.763986 455.200781,951.026367 C455.200781,954.476905 454.02078,957.345529 451.660742,959.632324 C449.300704,961.91912 446.362908,963.0625 442.847266,963.0625 L436.939062,963.0625 L436.939062,974 L429.370703,974 L429.370703,938.990234 L442.847266,938.990234 Z M442.505469,956.055664 C443.986596,956.055664 445.191011,955.583664 446.11875,954.639648 C447.046489,953.695633 447.510352,952.491218 447.510352,951.026367 C447.510352,949.561516 447.050558,948.36117 446.130957,947.425293 C445.211356,946.489416 444.002872,946.021484 442.505469,946.021484 L436.939062,946.021484 L436.939062,956.055664 L442.505469,956.055664 Z M487.968945,974.683594 C483.899915,974.683594 480.620325,973.605317 478.130078,971.44873 C475.639831,969.292144 474.394727,966.358417 474.394727,962.647461 L482.011914,962.647461 C482.011914,964.258797 482.58157,965.499833 483.720898,966.370605 C484.860227,967.241378 486.259953,967.676758 487.920117,967.676758 C489.433797,967.676758 490.752143,967.302413 491.875195,966.553711 C492.998248,965.805009 493.559766,964.804043 493.559766,963.550781 C493.559766,963.111326 493.482455,962.712567 493.327832,962.354492 C493.173209,961.996417 492.912795,961.679038 492.546582,961.402344 C492.180369,961.12565 491.830438,960.889649 491.496777,960.694336 C491.204824,960.523437 490.791378,960.35254 490.256429,960.181641 L489.490588,959.951949 C489.240469,959.879205 489.012024,959.814682 488.805252,959.758381 L488.420605,959.656738 C488.005564,959.550943 487.383012,959.400392 486.55293,959.205078 L485.654813,958.980279 C483.186799,958.34718 481.370301,957.746662 480.205273,957.178711 C477.11281,955.697584 475.371291,953.418961 474.980664,950.342773 C474.91556,949.85449 474.883008,949.349938 474.883008,948.829102 C474.883008,945.508772 476.01825,942.933115 478.28877,941.102051 C480.559289,939.270987 483.655775,938.355469 487.57832,938.355469 C491.582247,938.355469 494.68687,939.352366 496.892285,941.346191 C499.0977,943.340016 500.200391,946.094709 500.200391,949.610352 L492.705273,949.610352 C492.705273,948.178053 492.196652,947.0835 491.179395,946.32666 C490.162137,945.56982 488.896687,945.191406 487.383008,945.191406 C486.03209,945.191406 484.872433,945.476234 483.904004,946.045898 C482.935575,946.615563 482.451367,947.437495 482.451367,948.511719 C482.451367,948.983726 482.577505,949.415037 482.829785,949.805664 C483.082065,950.196291 483.3791,950.513671 483.720898,950.757812 C484.062697,951.001954 484.575387,951.250161 485.258984,951.502441 C485.942582,951.754721 486.532582,951.945963 487.029004,952.076172 L488.063586,952.338397 L488.063586,952.338397 L490.470433,952.931808 L490.470433,952.931808 L491.03291,953.077148 C491.410313,953.17684 491.921669,953.326375 492.56699,953.525757 L492.851758,953.614258 C493.633012,953.8584 494.251495,954.082193 494.707227,954.285645 L495.123761,954.477968 C495.492462,954.653184 495.915139,954.865768 496.391797,955.115723 C497.059118,955.465659 497.592153,955.815591 497.990918,956.165527 C498.389683,956.515464 498.820994,956.950844 499.284863,957.47168 C499.748733,957.992516 500.102733,958.537758 500.346875,959.107422 C500.591017,959.677086 500.798534,960.336259 500.969434,961.084961 C501.140333,961.833663 501.225781,962.631181 501.225781,963.477539 C501.225781,965.316741 500.87585,966.960605 500.175977,968.40918 C499.476103,969.857755 498.519895,971.033687 497.307324,971.937012 C496.094753,972.840337 494.695027,973.523923 493.108105,973.987793 C491.521183,974.451662 489.808147,974.683594 487.968945,974.683594 Z M530.732422,938.990234 L538.300781,938.990234 L538.300781,974 L530.732422,974 L530.732422,959.522461 L517.548828,959.522461 L517.548828,974 L509.980469,974 L509.980469,938.990234 L517.548828,938.990234 L517.548828,952.491211 L530.732422,952.491211 L530.732422,938.990234 Z M565.63457,974.756836 C562.997838,974.756836 560.523905,974.288904 558.212695,973.353027 C555.901486,972.41715 553.919898,971.143563 552.267871,969.532227 C550.615845,967.92089 549.313774,965.984061 548.361621,963.72168 C547.409468,961.459299 546.933398,959.050469 546.933398,956.495117 C546.933398,953.939766 547.409468,951.530936 548.361621,949.268555 C549.313774,947.006174 550.615845,945.069344 552.267871,943.458008 C553.919898,941.846672 555.901486,940.573084 558.212695,939.637207 C560.523905,938.70133 562.997838,938.233398 565.63457,938.233398 C568.255026,938.233398 570.716753,938.697261 573.019824,939.625 C575.322896,940.552739 577.292277,941.826327 578.928027,943.445801 C580.563778,945.065275 581.853641,947.002105 582.797656,949.256348 C583.741671,951.510591 584.213672,953.92349 584.213672,956.495117 C584.213672,959.066745 583.741671,961.479644 582.797656,963.733887 C581.853641,965.98813 580.563778,967.924959 578.928027,969.544434 C577.292277,971.163908 575.322896,972.437495 573.019824,973.365234 C570.716753,974.292973 568.255026,974.756836 565.63457,974.756836 Z M557.797656,964.429688 C559.913552,966.56186 562.525831,967.62793 565.63457,967.62793 C568.74331,967.62793 571.339312,966.565929 573.422656,964.441895 C575.506,962.31786 576.547656,959.668961 576.547656,956.495117 C576.547656,953.321273 575.506,950.676443 573.422656,948.560547 C571.339312,946.444651 568.74331,945.386719 565.63457,945.386719 C562.525831,945.386719 559.913552,946.452789 557.797656,948.584961 C555.68176,950.717133 554.623828,953.353825 554.623828,956.495117 C554.623828,959.636409 555.68176,962.281239 557.797656,964.429688 Z M606.322852,938.990234 C608.634061,938.990234 610.72958,939.506994 612.609473,940.540527 C614.489365,941.574061 615.97047,943.014476 617.052832,944.861816 C618.135194,946.709156 618.676367,948.763986 618.676367,951.026367 C618.676367,954.476905 617.496366,957.345529 615.136328,959.632324 C612.77629,961.91912 609.838494,963.0625 606.322852,963.0625 L600.414648,963.0625 L600.414648,974 L592.846289,974 L592.846289,938.990234 L606.322852,938.990234 Z M605.981055,956.055664 C607.462182,956.055664 608.666597,955.583664 609.594336,954.639648 C610.522075,953.695633 610.985937,952.491218 610.985937,951.026367 C610.985937,949.561516 610.526144,948.36117 609.606543,947.425293 C608.686942,946.489416 607.478458,946.021484 605.981055,946.021484 L600.414648,946.021484 L600.414648,956.055664 L605.981055,956.055664 Z M660.721875,946.045898 L647.391797,946.045898 L647.391797,953.736328 L659.42793,953.736328 L659.42793,960.59668 L647.391797,960.59668 L647.391797,974 L639.823437,974 L639.823437,938.990234 L660.721875,938.990234 L660.721875,946.045898 Z M685.541016,974.756836 C682.904284,974.756836 680.43035,974.288904 678.119141,973.353027 C675.807931,972.41715 673.826343,971.143563 672.174316,969.532227 C670.52229,967.92089 669.22022,965.984061 668.268066,963.72168 C667.315913,961.459299 666.839844,959.050469 666.839844,956.495117 C666.839844,953.939766 667.315913,951.530936 668.268066,949.268555 C669.22022,947.006174 670.52229,945.069344 672.174316,943.458008 C673.826343,941.846672 675.807931,940.573084 678.119141,939.637207 C680.43035,938.70133 682.904284,938.233398 685.541016,938.233398 C688.161471,938.233398 690.623198,938.697261 692.92627,939.625 C695.229341,940.552739 697.198722,941.826327 698.834473,943.445801 C700.470223,945.065275 701.760086,947.002105 702.704102,949.256348 C703.648117,951.510591 704.120117,953.92349 704.120117,956.495117 C704.120117,959.066745 703.648117,961.479644 702.704102,963.733887 C701.760086,965.98813 700.470223,967.924959 698.834473,969.544434 C697.198722,971.163908 695.229341,972.437495 692.92627,973.365234 C690.623198,974.292973 688.161471,974.756836 685.541016,974.756836 Z M677.704102,964.429688 C679.819998,966.56186 682.432276,967.62793 685.541016,967.62793 C688.649755,967.62793 691.245758,966.565929 693.329102,964.441895 C695.412445,962.31786 696.454102,959.668961 696.454102,956.495117 C696.454102,953.321273 695.412445,950.676443 693.329102,948.560547 C691.245758,946.444651 688.649755,945.386719 685.541016,945.386719 C682.432276,945.386719 679.819998,946.452789 677.704102,948.584961 C675.588206,950.717133 674.530273,953.353825 674.530273,956.495117 C674.530273,959.636409 675.588206,962.281239 677.704102,964.429688 Z M732.01543,974 L725.179492,962.061523 L720.321094,962.061523 L720.321094,974 L712.752734,974 L712.752734,938.990234 L726.888477,938.990234 C730.404119,938.990234 733.32157,940.084787 735.640918,942.273926 C737.960266,944.463064 739.119922,947.234033 739.119922,950.586914 C739.119922,952.849295 738.550266,954.871573 737.410937,956.653809 C736.271609,958.436044 734.717262,959.807287 732.747852,960.767578 L740.487109,974 L732.01543,974 Z M720.321094,945.99707 L720.321094,955.054688 L726.375781,955.054688 C727.938289,955.054688 729.175256,954.635584 730.086719,953.797363 C730.998182,952.959143 731.453906,951.872728 731.453906,950.538086 C731.453906,949.203444 730.998182,948.11296 730.086719,947.266602 C729.175256,946.420243 727.938289,945.99707 726.375781,945.99707 L720.321094,945.99707 Z M791.175195,938.990234 L778.846094,959.864258 L778.846094,974 L771.082422,974 L771.082422,959.81543 L758.875391,938.990234 L766.932031,938.990234 L775.013086,953.003906 L783.118555,938.990234 L791.175195,938.990234 Z M812.478711,974.756836 C809.841979,974.756836 807.368045,974.288904 805.056836,973.353027 C802.745626,972.41715 800.764038,971.143563 799.112012,969.532227 C797.459985,967.92089 796.157915,965.984061 795.205762,963.72168 C794.253609,961.459299 793.777539,959.050469 793.777539,956.495117 C793.777539,953.939766 794.253609,951.530936 795.205762,949.268555 C796.157915,947.006174 797.459985,945.069344 799.112012,943.458008 C800.764038,941.846672 802.745626,940.573084 805.056836,939.637207 C807.368045,938.70133 809.841979,938.233398 812.478711,938.233398 C815.099167,938.233398 817.560893,938.697261 819.863965,939.625 C822.167036,940.552739 824.136418,941.826327 825.772168,943.445801 C827.407918,945.065275 828.697782,947.002105 829.641797,949.256348 C830.585812,951.510591 831.057813,953.92349 831.057813,956.495117 C831.057813,959.066745 830.585812,961.479644 829.641797,963.733887 C828.697782,965.98813 827.407918,967.924959 825.772168,969.544434 C824.136418,971.163908 822.167036,972.437495 819.863965,973.365234 C817.560893,974.292973 815.099167,974.756836 812.478711,974.756836 Z M804.641797,964.429688 C806.757693,966.56186 809.369971,967.62793 812.478711,967.62793 C815.58745,967.62793 818.183453,966.565929 820.266797,964.441895 C822.350141,962.31786 823.391797,959.668961 823.391797,956.495117 C823.391797,953.321273 822.350141,950.676443 820.266797,948.560547 C818.183453,946.444651 815.58745,945.386719 812.478711,945.386719 C809.369971,945.386719 806.757693,946.452789 804.641797,948.584961 C802.525901,950.717133 801.467969,953.353825 801.467969,956.495117 C801.467969,959.636409 802.525901,962.281239 804.641797,964.429688 Z M864.15332,970.850586 C861.418932,973.454766 857.968445,974.756836 853.801758,974.756836 C849.63507,974.756836 846.180515,973.450697 843.437988,970.838379 C840.695462,968.226061 839.324219,964.885437 839.324219,960.816406 L839.324219,938.990234 L846.916992,938.990234 L846.916992,960.474609 C846.916992,962.639334 847.55582,964.372715 848.833496,965.674805 C850.111172,966.976895 851.767242,967.62793 853.801758,967.62793 C855.836273,967.62793 857.488275,966.976895 858.757813,965.674805 C860.02735,964.372715 860.662109,962.639334 860.662109,960.474609 L860.662109,938.990234 L868.254883,938.990234 L868.254883,960.816406 C868.254883,964.885437 866.887709,968.23013 864.15332,970.850586 Z M897.834766,974 L890.998828,962.061523 L886.14043,962.061523 L886.14043,974 L878.57207,974 L878.57207,938.990234 L892.707813,938.990234 C896.223455,938.990234 899.140906,940.084787 901.460254,942.273926 C903.779601,944.463064 904.939258,947.234033 904.939258,950.586914 C904.939258,952.849295 904.369602,954.871573 903.230273,956.653809 C902.090945,958.436044 900.536598,959.807287 898.567188,960.767578 L906.306445,974 L897.834766,974 Z M886.14043,945.99707 L886.14043,955.054688 L892.195117,955.054688 C893.757625,955.054688 894.994592,954.635584 895.906055,953.797363 C896.817518,952.959143 897.273242,951.872728 897.273242,950.538086 C897.273242,949.203444 896.817518,948.11296 895.906055,947.266602 C894.994592,946.420243 893.757625,945.99707 892.195117,945.99707 L886.14043,945.99707 Z M942.175195,938.990234 C944.714271,938.990234 947.08648,939.429683 949.291895,940.308594 C951.497309,941.187504 953.377173,942.395988 954.931543,943.934082 C956.485913,945.472176 957.706604,947.323557 958.593652,949.488281 C959.480701,951.653006 959.924219,953.980456 959.924219,956.470703 C959.924219,958.977226 959.476632,961.316884 958.581445,963.489746 C957.686259,965.662609 956.461499,967.518059 954.907129,969.056152 C953.352759,970.594246 951.472895,971.80273 949.26748,972.681641 C947.062066,973.560551 944.697994,974 942.175195,974 L928.942773,974 L928.942773,938.990234 L942.175195,938.990234 Z M942.004297,966.96875 C944.999104,966.96875 947.444554,965.988128 949.340723,964.026855 C951.236891,962.065583 952.184961,959.54689 952.184961,956.470703 C952.184961,953.394516 951.236891,950.883962 949.340723,948.938965 C947.444554,946.993968 944.999104,946.021484 942.004297,946.021484 L936.511133,946.021484 L936.511133,966.96875 L942.004297,966.96875 Z M968.678906,974 L968.678906,938.990234 L976.247266,938.990234 L976.247266,974 L968.678906,974 Z M1002.31152,955.713867 L1020.93945,955.713867 C1020.93945,959.327167 1020.18669,962.582342 1018.68115,965.479492 C1017.17561,968.376642 1015.05975,970.647127 1012.3335,972.291016 C1009.60725,973.934904 1006.5189,974.756836 1003.06836,974.756836 C1000.52928,974.756836 998.140799,974.297042 995.902832,973.377441 C993.664865,972.45784 991.740242,971.19646 990.128906,969.593262 C988.51757,967.990064 987.248052,966.061372 986.320313,963.807129 C985.392573,961.552886 984.928711,959.131849 984.928711,956.543945 C984.928711,953.956042 985.384436,951.530936 986.295898,949.268555 C987.207361,947.006174 988.452466,945.065275 990.03125,943.445801 C991.610034,941.826327 993.514312,940.552739 995.744141,939.625 C997.973969,938.697261 1000.36652,938.233398 1002.92188,938.233398 C1005.78647,938.233398 1008.45979,938.798985 1010.94189,939.930176 C1013.424,941.061366 1015.49918,942.640127 1017.16748,944.666504 C1018.83578,946.692881 1019.93847,948.999987 1020.47559,951.587891 L1012.66309,951.587891 C1011.91438,949.716136 1010.67742,948.230963 1008.95215,947.132324 C1007.22688,946.033686 1005.26564,945.484375 1003.06836,945.484375 C999.975896,945.484375 997.457204,946.509755 995.512207,948.560547 C993.56721,950.611338 992.594727,953.272445 992.594727,956.543945 C992.594727,959.79917 993.555003,962.444 995.475586,964.478516 C997.396168,966.513031 999.927068,967.530273 1003.06836,967.530273 C1005.33074,967.530273 1007.35709,966.980963 1009.14746,965.882324 C1010.93783,964.783686 1012.15853,963.331064 1012.80957,961.524414 L1002.31152,961.524414 L1002.31152,955.713867 Z M1029.49883,974 L1029.49883,938.990234 L1037.06719,938.990234 L1037.06719,974 L1029.49883,974 Z M1071.89609,938.990234 L1071.89609,946.021484 L1062.15488,946.021484 L1062.15488,974 L1054.58652,974 L1054.58652,946.021484 L1044.86973,946.021484 L1044.86973,938.990234 L1071.89609,938.990234 Z M1099.57168,974 L1097.13027,967.359375 L1083.18984,967.359375 L1080.79727,974 L1072.76504,974 L1086.48574,938.990234 L1093.61465,938.990234 L1107.7748,974 L1099.57168,974 Z M1090.12344,948.243164 L1085.55801,960.767578 L1094.7377,960.767578 L1090.12344,948.243164 Z M1122.48652,966.96875 L1135.91426,966.96875 L1135.91426,974 L1114.91816,974 L1114.91816,938.990234 L1122.48652,938.990234 L1122.48652,966.96875 Z M1170.34258,938.990234 C1172.65379,938.990234 1174.74931,939.506994 1176.6292,940.540527 C1178.50909,941.574061 1179.9902,943.014476 1181.07256,944.861816 C1182.15492,946.709156 1182.69609,948.763986 1182.69609,951.026367 C1182.69609,954.476905 1181.51609,957.345529 1179.15605,959.632324 C1176.79602,961.91912 1173.85822,963.0625 1170.34258,963.0625 L1164.43438,963.0625 L1164.43438,974 L1156.86602,974 L1156.86602,938.990234 L1170.34258,938.990234 Z M1170.00078,956.055664 C1171.48191,956.055664 1172.68632,955.583664 1173.61406,954.639648 C1174.5418,953.695633 1175.00566,952.491218 1175.00566,951.026367 C1175.00566,949.561516 1174.54587,948.36117 1173.62627,947.425293 C1172.70667,946.489416 1171.49818,946.021484 1170.00078,946.021484 L1164.43438,946.021484 L1164.43438,956.055664 L1170.00078,956.055664 Z M1209.90781,974 L1203.07188,962.061523 L1198.21348,962.061523 L1198.21348,974 L1190.64512,974 L1190.64512,938.990234 L1204.78086,938.990234 C1208.2965,938.990234 1211.21395,940.084787 1213.5333,942.273926 C1215.85265,944.463064 1217.0123,947.234033 1217.0123,950.586914 C1217.0123,952.849295 1216.44265,954.871573 1215.30332,956.653809 C1214.16399,958.436044 1212.60965,959.807287 1210.64023,960.767578 L1218.37949,974 L1209.90781,974 Z M1198.21348,945.99707 L1198.21348,955.054688 L1204.26816,955.054688 C1205.83067,955.054688 1207.06764,954.635584 1207.9791,953.797363 C1208.89056,952.959143 1209.34629,951.872728 1209.34629,950.538086 C1209.34629,949.203444 1208.89056,948.11296 1207.9791,947.266602 C1207.06764,946.420243 1205.83067,945.99707 1204.26816,945.99707 L1198.21348,945.99707 Z M1242.71035,974.756836 C1240.07362,974.756836 1237.59969,974.288904 1235.28848,973.353027 C1232.97727,972.41715 1230.99568,971.143563 1229.34365,969.532227 C1227.69163,967.92089 1226.38956,965.984061 1225.4374,963.72168 C1224.48525,961.459299 1224.00918,959.050469 1224.00918,956.495117 C1224.00918,953.939766 1224.48525,951.530936 1225.4374,949.268555 C1226.38956,947.006174 1227.69163,945.069344 1229.34365,943.458008 C1230.99568,941.846672 1232.97727,940.573084 1235.28848,939.637207 C1237.59969,938.70133 1240.07362,938.233398 1242.71035,938.233398 C1245.33081,938.233398 1247.79253,938.697261 1250.09561,939.625 C1252.39868,940.552739 1254.36806,941.826327 1256.00381,943.445801 C1257.63956,945.065275 1258.92942,947.002105 1259.87344,949.256348 C1260.81745,951.510591 1261.28945,953.92349 1261.28945,956.495117 C1261.28945,959.066745 1260.81745,961.479644 1259.87344,963.733887 C1258.92942,965.98813 1257.63956,967.924959 1256.00381,969.544434 C1254.36806,971.163908 1252.39868,972.437495 1250.09561,973.365234 C1247.79253,974.292973 1245.33081,974.756836 1242.71035,974.756836 Z M1234.87344,964.429688 C1236.98933,966.56186 1239.60161,967.62793 1242.71035,967.62793 C1245.81909,967.62793 1248.41509,966.565929 1250.49844,964.441895 C1252.58178,962.31786 1253.62344,959.668961 1253.62344,956.495117 C1253.62344,953.321273 1252.58178,950.676443 1250.49844,948.560547 C1248.41509,946.444651 1245.81909,945.386719 1242.71035,945.386719 C1239.60161,945.386719 1236.98933,946.452789 1234.87344,948.584961 C1232.75754,950.717133 1231.69961,953.353825 1231.69961,956.495117 C1231.69961,959.636409 1232.75754,962.281239 1234.87344,964.429688 Z M1283.15449,938.990234 C1285.69357,938.990234 1288.06578,939.429683 1290.27119,940.308594 C1292.47661,941.187504 1294.35647,942.395988 1295.91084,943.934082 C1297.46521,945.472176 1298.6859,947.323557 1299.57295,949.488281 C1300.46,951.653006 1300.90352,953.980456 1300.90352,956.470703 C1300.90352,958.977226 1300.45593,961.316884 1299.56074,963.489746 C1298.66556,965.662609 1297.4408,967.518059 1295.88643,969.056152 C1294.33206,970.594246 1292.45219,971.80273 1290.24678,972.681641 C1288.04136,973.560551 1285.67729,974 1283.15449,974 L1269.92207,974 L1269.92207,938.990234 L1283.15449,938.990234 Z M1282.98359,966.96875 C1285.9784,966.96875 1288.42385,965.988128 1290.32002,964.026855 C1292.21619,962.065583 1293.16426,959.54689 1293.16426,956.470703 C1293.16426,953.394516 1292.21619,950.883962 1290.32002,948.938965 C1288.42385,946.993968 1285.9784,946.021484 1282.98359,946.021484 L1277.49043,946.021484 L1277.49043,966.96875 L1282.98359,966.96875 Z M1334.12109,970.850586 C1331.38671,973.454766 1327.93622,974.756836 1323.76953,974.756836 C1319.60284,974.756836 1316.14829,973.450697 1313.40576,970.838379 C1310.66323,968.226061 1309.29199,964.885437 1309.29199,960.816406 L1309.29199,938.990234 L1316.88477,938.990234 L1316.88477,960.474609 C1316.88477,962.639334 1317.52359,964.372715 1318.80127,965.674805 C1320.07895,966.976895 1321.73502,967.62793 1323.76953,967.62793 C1325.80405,967.62793 1327.45605,966.976895 1328.72559,965.674805 C1329.99512,964.372715 1330.62988,962.639334 1330.62988,960.474609 L1330.62988,938.990234 L1338.22266,938.990234 L1338.22266,960.816406 C1338.22266,964.885437 1336.85548,968.23013 1334.12109,970.850586 Z M1364.57988,974.756836 C1362.05708,974.756836 1359.67674,974.288904 1357.43877,973.353027 C1355.2008,972.41715 1353.28432,971.143563 1351.68926,969.532227 C1350.0942,967.92089 1348.83282,965.98813 1347.90508,963.733887 C1346.97734,961.479644 1346.51348,959.083021 1346.51348,956.543945 C1346.51348,953.972318 1346.97734,951.55535 1347.90508,949.292969 C1348.83282,947.030588 1350.0942,945.093758 1351.68926,943.482422 C1353.28432,941.871086 1355.2008,940.597498 1357.43877,939.661621 C1359.67674,938.725744 1362.05708,938.257812 1364.57988,938.257812 C1368.82795,938.257812 1372.51037,939.543607 1375.62725,942.115234 C1378.74412,944.686862 1380.70944,948.047831 1381.52324,952.198242 L1373.93047,952.198242 C1373.19804,950.114898 1372.00584,948.475104 1370.35381,947.278809 C1368.70178,946.082514 1366.77716,945.484375 1364.57988,945.484375 C1361.61763,945.484375 1359.14369,946.538238 1357.15801,948.645996 C1355.17232,950.753754 1354.17949,953.386377 1354.17949,956.543945 C1354.17949,959.685237 1355.17232,962.301585 1357.15801,964.393066 C1359.14369,966.484548 1361.61763,967.530273 1364.57988,967.530273 C1366.87482,967.530273 1368.86047,966.883307 1370.53691,965.589355 C1372.21335,964.295404 1373.36894,962.53354 1374.00371,960.303711 L1381.64531,960.303711 C1380.84778,964.63316 1378.88654,968.124336 1375.76152,970.777344 C1372.63651,973.430352 1368.90933,974.756836 1364.57988,974.756836 Z M1413.30039,938.990234 L1413.30039,946.021484 L1403.55918,946.021484 L1403.55918,974 L1395.99082,974 L1395.99082,946.021484 L1386.27402,946.021484 L1386.27402,938.990234 L1413.30039,938.990234 Z" id="ONE-STOPSHOPFORYOURDIGITALPRODUCT"></path>
        </g>
    </g>
</svg>