<svg xmlns="http://www.w3.org/2000/svg" width="260" height="249" viewBox="0 0 260 249">
    <g fill="#FFF" fill-rule="nonzero">
        <g transform="translate(1.086 2.165)">
            <path d="M10.671 8.688s-7.778-4.33-8.684 15.698C1.08 44.414 3.116 82.598 3.116 82.598s.179 6.55 3.094 7.107c2.914.558 47.798 1.164 49.155.693 1.357-.471 5.428-2.528 6.324-5.235.896-2.706.39-70.548-.896-72.35-1.286-1.803-4.651-3.854-4.95-3.92-.299-.064-1.129 4.656-5.146 5.089-4.016.433-31.558 1.521-34.603.433-3.045-1.088-5.423-5.727-5.423-5.727z" opacity=".3"/>
            <ellipse cx="32.405" cy="8.147" opacity=".2" rx="22.059" ry="7.73"/>
            <path d="M146.127 38.362l-11.394-5.277-11.61 4.78 1.514-12.435-8.147-9.532 12.321-2.414 6.579-10.675 6.106 10.946 12.213 2.939-8.554 9.18zM244.14 57.92l10.128 1.927L256.2 49.75l-10.128-1.927-.462-.086a25.44 25.44 0 0 0-1.986-9.533l.401-.243 8.528-5.781-5.792-8.494-8.527 5.776-.391.265a25.518 25.518 0 0 0-8.142-5.331l.087-.46 1.932-10.101-10.112-1.927-1.932 10.1-.093.46c-3.298.043-6.557.721-9.596 1.998l-.207-.417-5.797-8.504-8.516 5.776 5.797 8.504.293.357a25.5 25.5 0 0 0-5.38 8.152l-.46-.086-10.13-1.927-1.931 10.084 10.123 1.927.461.092c.042 3.28.718 6.52 1.992 9.543l-.402.233-8.527 5.781 5.792 8.493 8.527-5.78.386-.272a25.518 25.518 0 0 0 8.141 5.343l-.086.46-1.933 10.101 10.118 1.927 1.938-10.095.114-.46a24.962 24.962 0 0 0 9.51-1.998l.266.412 5.797 8.509 8.516-5.776-5.792-8.504-.255-.406a25.321 25.321 0 0 0 5.336-8.12l.461.104zm-24.21 5.689a15.568 15.568 0 0 1-14.386-9.58 15.493 15.493 0 0 1 3.372-16.92 15.599 15.599 0 0 1 16.965-3.368 15.524 15.524 0 0 1 9.612 14.343c-.003 8.57-6.969 15.516-15.562 15.52v.005z" opacity=".3"/>
            <path d="M76.806 158.954l49.736 28.635v56.29l-49.736-27.877z" opacity=".2"/>
            <path d="M176.751 158.954l-49.736 28.635v56.29l49.736-27.877z" opacity=".57"/>
            <ellipse cx="32.389" cy="130.357" opacity=".44" rx="7.469" ry="7.448"/>
            <ellipse cx="7.507" cy="188.959" opacity=".44" rx="7.469" ry="7.448"/>
            <ellipse cx="7.507" cy="221.935" opacity=".44" rx="7.469" ry="7.448"/>
            <ellipse cx="220.718" cy="130.184" opacity=".44" rx="7.469" ry="7.448"/>
            <ellipse cx="245.594" cy="188.785" opacity=".44" rx="7.469" ry="7.448"/>
            <ellipse cx="245.594" cy="221.762" opacity=".44" rx="7.469" ry="7.448"/>
        </g>
        <path d="M125.451 52.35v64.875c0 1.196.972 2.165 2.172 2.165 1.199 0 2.17-.97 2.17-2.165V52.35a2.168 2.168 0 0 0-2.17-2.166c-1.2 0-2.172.97-2.172 2.166zM115.209 26.015l-1.395 11.492c-.094.764.227 1.52.841 1.986.615.466 1.431.57 2.144.277l10.758-4.417 10.53 4.871c.696.305 1.5.225 2.121-.21.622-.435.97-1.162.92-1.917l-.896-11.546 7.903-8.477a2.16 2.16 0 0 0-1.086-3.578l-11.284-2.706-5.646-10.117A2.173 2.173 0 0 0 128.285.54c-.77-.01-1.49.38-1.9 1.029l-6.074 9.879-11.399 2.224a2.17 2.17 0 0 0-1.634 1.41 2.16 2.16 0 0 0 .397 2.12l7.534 8.812zm6.872-10.501a2.171 2.171 0 0 0 1.427-.99l4.636-7.525 4.299 7.714a2.17 2.17 0 0 0 1.384 1.05l8.614 2.1-6.025 6.463a2.162 2.162 0 0 0-.575 1.624l.683 8.802-8.028-3.714a2.176 2.176 0 0 0-.917-.205 2.1 2.1 0 0 0-.825.168l-8.18 3.366 1.086-8.763a2.161 2.161 0 0 0-.505-1.662l-5.76-6.729 8.686-1.7zM238.51 191.124c-.005 4.23 3.228 7.764 7.453 8.146 4.224.381 8.042-2.516 8.798-6.679.756-4.162-1.798-8.211-5.888-9.332v-23.304a2.168 2.168 0 0 0-2.172-2.165h-47.766v-23.178l14.998.07c1.087 3.943 4.93 6.476 8.993 5.93 4.063-.547 7.095-4.006 7.095-8.095 0-4.09-3.032-7.548-7.095-8.095-4.063-.547-7.906 1.987-8.993 5.93l-55.702-.266c-1.2 0-2.171.97-2.171 2.165v14.134l-27.227-15.736a2.176 2.176 0 0 0-1.156-.287h-.049a2.175 2.175 0 0 0-1.444.542l-26.939 15.454V132.25a2.168 2.168 0 0 0-2.171-2.165l-55.702.265c-1.087-3.94-4.927-6.47-8.988-5.924-4.06.547-7.09 4.004-7.09 8.09s3.03 7.542 7.09 8.09c4.06.546 7.901-1.985 8.988-5.925l14.998-.07v23.178H8.603c-1.199 0-2.17.97-2.17 2.165v23.304a8.169 8.169 0 0 0-5.947 8.968c.548 4.052 4.017 7.076 8.117 7.076 4.1 0 7.57-3.024 8.118-7.076a8.169 8.169 0 0 0-5.946-8.968V162.12h20.528v59.814H16.48c-1.087-3.943-4.93-6.477-8.993-5.93-4.063.547-7.095 4.006-7.095 8.095s3.032 7.548 7.095 8.095c4.064.547 7.906-1.987 8.993-5.93h16.995c1.2 0 2.172-.97 2.172-2.165v-61.98H58.53c1.199 0 2.171-.969 2.171-2.165V134.59l34.196-.162v14.43l-18.086 10.377c-.063.039-.125.08-.184.125l-.055.032a2.348 2.348 0 0 0-.271.25l-.065.075c-.169.197-.3.422-.385.666l-.033.092a2.452 2.452 0 0 0-.081.357v.054a1.62 1.62 0 0 0 0 .228v57.032c0 .772.414 1.486 1.085 1.873l49.737 28.591.2.103h.05c.113.047.232.083.352.108h.092c.257.05.52.05.777 0h.092a2.04 2.04 0 0 0 .353-.108h.049l.2-.097 49.596-28.451a2.164 2.164 0 0 0 1.085-1.879V161.12a1.62 1.62 0 0 0 0-.233v-.048a2.074 2.074 0 0 0-.086-.363 2.125 2.125 0 0 0-.19-.444 1.857 1.857 0 0 0-.228-.314l-.06-.07a2.955 2.955 0 0 0-.271-.25l-.05-.032a1.71 1.71 0 0 0-.178-.119l-17.913-10.355v-14.463l34.196.162v25.365c0 1.196.973 2.166 2.172 2.166h22.89V224.1c0 1.196.972 2.165 2.17 2.165h16.974c1.087 3.943 4.93 6.477 8.993 5.93 4.064-.547 7.096-4.006 7.096-8.095s-3.032-7.548-7.096-8.095c-4.063-.547-7.906 1.987-8.993 5.93h-14.818V162.12h20.517v21.138a8.183 8.183 0 0 0-6.02 7.865zm-226.07 0a3.838 3.838 0 0 1-2.371 3.55 3.856 3.856 0 0 1-4.196-.83 3.83 3.83 0 0 1-.837-4.182 3.849 3.849 0 0 1 7.404 1.462zm-3.848 36.808a3.849 3.849 0 0 1-3.556-2.37 3.83 3.83 0 0 1 .837-4.183 3.856 3.856 0 0 1 4.196-.829 3.838 3.838 0 0 1 2.372 3.55 3.849 3.849 0 0 1-3.849 3.838v-.006zm24.882-91.572a3.844 3.844 0 0 1-3.882-3.71 3.842 3.842 0 0 1 3.627-3.96 3.845 3.845 0 0 1 4.055 3.524 3.169 3.169 0 0 0 0 .319 2.543 2.543 0 0 0 0 .292 3.839 3.839 0 0 1-3.8 3.535zm96.32 49.638v-49.8l26.26 15.156v19.482l-26.26 15.162zm-4.343-49.665v49.67L99.24 170.911v-19.54l26.211-15.038zM94.897 168.41l-12.658-7.292 12.658-7.259v14.55zm-14.834-3.546l45.388 26.14v52.003L80.063 216.91v-52.046zm49.73 78.148V191l45.26-26.129v52.193l-45.26 25.95zm43.099-81.894l-12.495 7.227v-14.448l12.495 7.221zm48.933-32.43a3.844 3.844 0 0 1 3.851 3.735 3.842 3.842 0 0 1-3.643 3.936 3.845 3.845 0 0 1-4.04-3.53c.02-.097.03-.197.032-.297a2.052 2.052 0 0 0-.032-.32 3.839 3.839 0 0 1 3.832-3.523zm24.876 91.573a3.843 3.843 0 0 1 3.849 3.838 3.843 3.843 0 0 1-3.849 3.838 3.843 3.843 0 0 1-3.848-3.838 3.849 3.849 0 0 1 3.848-3.838zm3.849-29.138a3.838 3.838 0 0 1-2.372 3.55 3.856 3.856 0 0 1-4.196-.83 3.83 3.83 0 0 1-.837-4.182 3.849 3.849 0 0 1 7.404 1.462zM11.757 94.728h43.462c5.363 0 9.727-4.482 9.727-9.992v-66.04c.053-4.84-3.404-9.012-8.18-9.873-.006-3.833-3.12-6.939-6.964-6.945H17.18c-3.845.003-6.962 3.11-6.965 6.945-4.771.858-8.227 5.022-8.18 9.857v66.04c0 5.526 4.36 10.008 9.722 10.008zm2.8-85.905A2.624 2.624 0 0 1 17.18 6.21h32.622a2.624 2.624 0 0 1 2.621 2.614V11.8a2.624 2.624 0 0 1-2.621 2.615H17.18a2.624 2.624 0 0 1-2.622-2.615V8.823zm-8.18 9.857a5.626 5.626 0 0 1 3.985-5.461 6.97 6.97 0 0 0 6.818 5.526h32.622a6.976 6.976 0 0 0 6.817-5.526 5.626 5.626 0 0 1 3.984 5.461v66.04c.085 3.05-2.325 5.592-5.384 5.678H11.757c-3.05-.089-5.455-2.62-5.38-5.662V18.68z"/>
        <path d="M15.741 36.776a2.174 2.174 0 0 0 3.072 0l7.106-7.102a2.161 2.161 0 0 0-.042-3.022 2.175 2.175 0 0 0-3.03-.036l-5.586 5.57-1.949-1.943a2.175 2.175 0 0 0-3.676.945c-.199.762.033 1.57.604 2.113l3.501 3.475zM15.741 58.46a2.174 2.174 0 0 0 3.072 0l7.122-7.101a2.162 2.162 0 0 0-.974-3.625c-.75-.2-1.55.014-2.098.561L17.26 53.85l-1.949-1.943a2.176 2.176 0 0 0-3.634.97c-.201.748.013 1.546.562 2.093l3.501 3.492zM22.846 69.877l-5.585 5.57-1.949-1.943a2.175 2.175 0 0 0-3.03.036 2.161 2.161 0 0 0-.042 3.022l3.501 3.475a2.174 2.174 0 0 0 3.072 0l7.122-7.102a2.161 2.161 0 0 0-.042-3.022 2.175 2.175 0 0 0-3.03-.036h-.017zM34.093 30.313h18.2c1.2 0 2.171-.97 2.171-2.165a2.168 2.168 0 0 0-2.17-2.165h-18.2c-1.2 0-2.172.969-2.172 2.165 0 1.196.972 2.165 2.171 2.165zM34.093 51.965h18.2c1.2 0 2.171-.97 2.171-2.165a2.168 2.168 0 0 0-2.17-2.165h-18.2c-1.2 0-2.172.97-2.172 2.165 0 1.196.972 2.165 2.171 2.165zM34.093 59.078h13.673c1.2 0 2.171-.97 2.171-2.165a2.168 2.168 0 0 0-2.17-2.165H34.092c-1.199 0-2.171.969-2.171 2.165 0 1.196.972 2.165 2.171 2.165zM34.093 73.574h18.2c1.2 0 2.171-.97 2.171-2.165a2.168 2.168 0 0 0-2.17-2.165h-18.2c-1.2 0-2.172.97-2.172 2.165 0 1.196.972 2.165 2.171 2.165zM34.093 80.654h8.289c1.199 0 2.17-.97 2.17-2.165a2.168 2.168 0 0 0-2.17-2.165h-8.289c-1.199 0-2.171.97-2.171 2.165 0 1.196.972 2.165 2.171 2.165zM34.093 37.41h8.289c1.199 0 2.17-.97 2.17-2.166a2.168 2.168 0 0 0-2.17-2.165h-8.289c-1.199 0-2.171.97-2.171 2.165 0 1.196.972 2.166 2.171 2.166zM257.693 49.8l-8.907-1.694a27.39 27.39 0 0 0-1.428-6.875l7.502-5.083a2.165 2.165 0 0 0 .575-3.01l-5.792-8.503a2.172 2.172 0 0 0-3.018-.574l-7.496 5.083a27.473 27.473 0 0 0-5.889-3.86l1.699-8.877a2.16 2.16 0 0 0-.337-1.623 2.172 2.172 0 0 0-1.39-.91l-10.122-1.927a2.17 2.17 0 0 0-2.535 1.72l-1.699 8.884c-2.351.178-4.67.656-6.899 1.423l-5.097-7.48a2.172 2.172 0 0 0-3.018-.574l-8.51 5.775a2.165 2.165 0 0 0-.576 3.01l5.097 7.476a27.6 27.6 0 0 0-3.87 5.873l-8.902-1.695a2.17 2.17 0 0 0-2.53 1.722l-1.943 10.095a2.166 2.166 0 0 0 1.726 2.528l8.902 1.689a27.384 27.384 0 0 0 1.427 6.88l-7.496 5.083a2.165 2.165 0 0 0-.575 3.01l5.786 8.492a2.172 2.172 0 0 0 3.03.574l7.495-5.083a27.69 27.69 0 0 0 5.89 3.86l-1.7 8.877a2.166 2.166 0 0 0 1.721 2.523l10.118 1.927a2.17 2.17 0 0 0 2.53-1.71l1.71-8.878a27.063 27.063 0 0 0 6.887-1.44L235.162 84a2.172 2.172 0 0 0 3.018.573l8.516-5.77a2.165 2.165 0 0 0 .575-3.01l-5.096-7.475a27.6 27.6 0 0 0 3.87-5.873l8.902 1.694a2.176 2.176 0 0 0 1.627-.336c.477-.323.805-.82.913-1.385l1.932-10.09a2.166 2.166 0 0 0-1.726-2.528zm-4.065 9.684l-8.457-1.624a2.172 2.172 0 0 0-2.416 1.305 23.162 23.162 0 0 1-4.885 7.415 2.16 2.16 0 0 0-.288 2.653l.25.406.049.076 4.576 6.712-4.929 3.34-4.543-6.69-.266-.412a2.174 2.174 0 0 0-2.67-.818 22.813 22.813 0 0 1-8.685 1.825 2.17 2.17 0 0 0-2.08 1.623l-.113.46v.114l-1.558 8.033-5.851-1.115 1.628-8.433a2.164 2.164 0 0 0-1.308-2.41 23.156 23.156 0 0 1-7.458-4.871 2.176 2.176 0 0 0-2.78-.211l-7.056 4.801-3.349-4.91 6.671-4.525.342-.195a2.162 2.162 0 0 0 .907-2.706 23.14 23.14 0 0 1-1.824-8.731 2.167 2.167 0 0 0-1.764-2.1l-8.457-1.624 1.118-5.841 8.457 1.624a2.172 2.172 0 0 0 2.415-1.305 23.146 23.146 0 0 1 4.924-7.459 2.16 2.16 0 0 0 .124-2.885l-.26-.314-4.516-6.631 4.923-3.34 4.478 6.593.141.282a2.174 2.174 0 0 0 2.785 1.034 23.254 23.254 0 0 1 8.782-1.83 2.17 2.17 0 0 0 2.106-1.76l1.629-8.433 5.856 1.115-1.628 8.434a2.164 2.164 0 0 0 1.308 2.409 23.265 23.265 0 0 1 7.453 4.871c.74.72 1.887.82 2.74.239l7.117-4.829 3.349 4.915-6.693 4.536-.352.217a2.162 2.162 0 0 0-.869 2.706 23.183 23.183 0 0 1 1.818 8.72 2.167 2.167 0 0 0 1.765 2.101l8.456 1.624-1.112 5.819z"/>
        <path d="M224.002 34.643a15.968 15.968 0 0 0-15.286 5.094 15.865 15.865 0 0 0-3.02 15.789 15.93 15.93 0 0 0 12.335 10.345c.988.187 1.99.281 2.996.282 8.21-.02 15.062-6.257 15.832-14.408.77-8.152-4.795-15.553-12.857-17.102zm8.408 17.782c-1.147 5.999-6.77 10.076-12.846 9.312-6.075-.764-10.508-6.105-10.126-12.2.383-6.094 5.45-10.842 11.573-10.845.728 0 1.455.07 2.171.206 6.286 1.2 10.413 7.245 9.228 13.516v.011z"/>
    </g>
</svg>
