<svg xmlns="http://www.w3.org/2000/svg" width="260" height="256" viewBox="0 0 260 256">
    <g fill="#FFF" fill-rule="nonzero">
        <g transform="translate(6.514 6.495)">
            <path d="M23.34 70.511s.543-22.883 17.913-22.883 17.37 22.883 17.37 22.883a33.788 33.788 0 0 1-17.37 4.72 37.119 37.119 0 0 1-17.913-4.72z" opacity=".4"/>
            <ellipse cx="41.253" cy="35.18" opacity=".4" rx="10.856" ry="10.825"/>
            <ellipse cx="47.766" cy="47.628" opacity=".2" rx="36.367" ry="36.262"/>
            <g opacity=".2">
                <path d="M45.595 88.761v5.412c0 .584.463 1.062 1.048 1.083h2.247c.584-.02 1.048-.5 1.047-1.083v-5.412c0-.598-.486-1.082-1.085-1.082H46.68c-.6 0-1.086.484-1.086 1.082zM7.6 47.628v-1.083c0-.597-.487-1.082-1.086-1.082H1.086C.5 45.463.02 45.925 0 46.508v2.24c.02.583.5 1.045 1.086 1.045h5.428c.6 0 1.085-.485 1.085-1.083v-1.082zM47.766 0h-1.123c-.585.02-1.048.5-1.048 1.082v5.413c0 .598.486 1.082 1.086 1.082H48.852c.6 0 1.085-.484 1.085-1.082V1.082C49.937.5 49.474.02 48.89 0h-1.124zM94.447 45.463h-5.428c-.6 0-1.086.485-1.086 1.082v2.165c0 .598.486 1.083 1.086 1.083h5.428c.585 0 1.065-.462 1.085-1.045v-1.12-1.12a1.084 1.084 0 0 0-1.085-1.045z"/>
            </g>
        </g>
        <g transform="translate(2.714 11.366)">
            <rect width="103.837" height="228.116" x="151.012" opacity=".2" rx="22.4"/>
            <path d="M172.17 39.401h61.499v56.401H172.17z" opacity=".3"/>
            <path d="M172.17 159.185h61.499v19.484H172.17z" opacity=".5"/>
            <rect width="100.656" height="73.066" x=".239" y="109.528" opacity=".2" rx="8.95"/>
            <ellipse cx="121.044" cy="229.891" opacity=".2" rx="14.319" ry="14.278"/>
            <path d="M.244 182.696l29.121-30.617 13.587 15.306 22.596-24.171 35.353 39.482z" opacity=".5"/>
            <ellipse cx="42.881" cy="132.747" opacity=".5" rx="7.273" ry="7.252"/>
        </g>
        <g>
            <path d="M245.67 9.2h-79.52c-7.91.01-14.32 6.402-14.33 14.29V71.5h-25.142V47.628a2.168 2.168 0 0 0-2.171-2.165h-18.059c-1.2 0-2.171.97-2.171 2.165 0 1.196.972 2.165 2.171 2.165h15.888v23.873c0 1.196.972 2.165 2.17 2.165h27.314v102.833h-30.874l1.629-1.623a2.16 2.16 0 0 0-.955-3.665 2.175 2.175 0 0 0-2.118.607l-5.32 5.298a2.162 2.162 0 0 0 0 3.064l5.32 5.304a2.177 2.177 0 0 0 3.073 0 2.162 2.162 0 0 0 0-3.064l-1.629-1.623h30.874v44.38c.01 7.887 6.42 14.277 14.33 14.283h79.52c7.901-.006 14.31-6.383 14.33-14.261V23.489c-.009-7.887-6.42-14.28-14.33-14.288zm-79.52 4.33h79.52c5.514.007 9.982 4.462 9.988 9.96v2.489h-99.495v-2.49c.006-5.497 4.474-9.952 9.987-9.958zm-1.59 165.118h-8.397V75.815h5.867l-1.628 1.624a2.16 2.16 0 0 0 .042 3.022c.833.829 2.177.845 3.03.036l5.314-5.304a2.16 2.16 0 0 0 0-3.058l-5.314-5.304a2.177 2.177 0 0 0-3.072 0 2.162 2.162 0 0 0 0 3.063l1.628 1.624h-5.867v-41.21h99.495V210.9h-99.495v-27.922h8.397c1.199 0 2.171-.97 2.171-2.165a2.168 2.168 0 0 0-2.171-2.165zm81.11 58.669h-79.52c-5.511-.006-9.978-4.458-9.987-9.953v-12.135h99.495v12.135c-.006 5.496-4.475 9.95-9.988 9.953z"/>
            <ellipse cx="205.624" cy="226.71" rx="3.365" ry="3.356" transform="rotate(-13.28 205.624 226.71)"/>
            <path d="M103.924 196.26c.139-.002.277-.016.413-.044a1.36 1.36 0 0 0 .14-.038c.085-.02.169-.045.25-.076l.158-.075c.07-.033.135-.07.2-.109a1.71 1.71 0 0 0 .158-.119c.043-.032.087-.054.125-.086l.038-.049c.058-.05.11-.107.157-.168.044-.054.093-.097.13-.151l.11-.184c.071-.117.128-.242.167-.374 0-.07.05-.135.065-.205.017-.07 0-.13.028-.195.027-.065 0-.152 0-.233V121.03a2.168 2.168 0 0 0-2.172-2.165H3.257c-1.2 0-2.171.97-2.171 2.165v73.093c.003.087.012.173.027.26a.89.89 0 0 0 0 .167c.016.072.038.143.065.211.017.064.036.128.06.19 0 .06.065.113.092.167a1.148 1.148 0 0 0 .223.33c.05.07.106.136.168.195.043.044.092.07.135.109a1.606 1.606 0 0 0 .375.238c.053.034.11.063.168.086.078.031.158.057.239.076l.157.044c.138.027.278.042.418.043h100.711v.021zm-35.325-38.503l30.489 34.173H36.492L68.6 157.757zM30.543 191.93H8.321l24.046-25.232 10.666 11.955-12.49 13.277zm71.21-68.736V188.4L70.27 153.107a2.174 2.174 0 0 0-1.596-.725 2.245 2.245 0 0 0-1.629.682L46.018 175.46l-11.98-13.422a2.141 2.141 0 0 0-1.584-.726 2.12 2.12 0 0 0-1.629.672L5.428 188.67v-65.488l96.325.01z"/>
            <path d="M40.167 151.933a9.199 9.199 0 0 0 4.885 1.386c.716-.001 1.43-.083 2.128-.244a9.205 9.205 0 0 0 7.088-9.28c-.157-4.382-3.394-8.045-7.735-8.752a9.231 9.231 0 0 0-10.125 5.844 9.187 9.187 0 0 0 3.759 11.046zm3.745-12.567a4.897 4.897 0 0 1 3.695.6 4.872 4.872 0 0 1 2.184 3.031 4.87 4.87 0 0 1-3.641 5.852 4.886 4.886 0 0 1-5.871-3.627 4.87 4.87 0 0 1 3.633-5.856zM127.557 223.938c-6.688-4.13-15.37-2.974-20.738 2.76a16.406 16.406 0 0 0-1.33 20.82c4.593 6.368 13.058 8.614 20.218 5.364 7.16-3.25 11.02-11.09 9.222-18.726a16.472 16.472 0 0 0-7.372-10.218zm1.629 20.36c-3.053 4.916-9.162 6.997-14.593 4.97-5.43-2.026-8.668-7.595-7.734-13.3.934-5.707 5.78-9.96 11.575-10.16 5.794-.2 10.923 3.71 12.25 9.339.736 3.128.197 6.42-1.498 9.152zM175.16 192.2h61.5c1.199 0 2.17-.969 2.17-2.165v-19.484a2.168 2.168 0 0 0-2.17-2.165h-61.5c-1.198 0-2.17.97-2.17 2.165v19.484c0 1.196.972 2.165 2.17 2.165zm2.172-19.484h57.157v15.154h-57.157v-15.154zM175.16 108.359h61.5c.293.002.583-.057.852-.173l.103-.054c.095-.047.188-.1.277-.157l.12-.098c.074-.059.144-.122.211-.19 0 0 .027 0 .033-.026.005-.027.06-.081.092-.12.032-.037.098-.118.14-.183.044-.065.066-.125.099-.184.034-.064.064-.129.092-.195 0-.065.043-.136.065-.206.022-.07.038-.13.049-.195.005-.079.005-.159 0-.238a1.338 1.338 0 0 0 0-.146V49.793a2.168 2.168 0 0 0-2.171-2.165h-61.505a1.862 1.862 0 0 0-.239 0h-.184c-.07 0-.136.043-.206.065-.07.022-.136.038-.196.065-.061.029-.12.062-.179.097a1.32 1.32 0 0 0-.19.108l-.146.12c-.06.054-.125.102-.18.162l-.032.027c-.033.038-.06.081-.087.119-.053.059-.1.122-.141.19-.038.059-.07.119-.103.178a1.53 1.53 0 0 0-.087.195 1.501 1.501 0 0 0-.065.206 1.199 1.199 0 0 0-.049.2c-.006.08-.006.159 0 .238a1.241 1.241 0 0 0 0 .14v56.456c0 1.179.946 2.141 2.128 2.165zm2.172-53.636l53.737 49.306h-53.737V54.723zm57.157 46.546l-53.737-49.311h53.737v49.31zM175.16 122.858h57.7c1.2 0 2.171-.969 2.171-2.165a2.168 2.168 0 0 0-2.17-2.164h-57.7c-1.2 0-2.171.969-2.171 2.164 0 1.196.972 2.165 2.17 2.165zM175.16 132.963h33.817c1.2 0 2.171-.97 2.171-2.165a2.168 2.168 0 0 0-2.171-2.165h-33.816c-1.2 0-2.171.97-2.171 2.165 0 1.196.972 2.165 2.17 2.165zM175.16 143.062h46.844c1.2 0 2.171-.969 2.171-2.165a2.168 2.168 0 0 0-2.17-2.164H175.16c-1.2 0-2.171.969-2.171 2.164 0 1.196.972 2.165 2.17 2.165zM88.617 231.602a2.176 2.176 0 0 0-3.03.04 2.16 2.16 0 0 0-.037 3.023l1.629 1.624H18.998v-30.26a2.168 2.168 0 0 0-2.171-2.165c-1.2 0-2.171.969-2.171 2.165v32.408c0 1.196.972 2.165 2.17 2.165h70.336l-1.628 1.624a2.16 2.16 0 0 0 .074 2.984 2.176 2.176 0 0 0 2.993.074l5.32-5.304a2.16 2.16 0 0 0 0-3.058l-5.304-5.32z"/>
            <path d="M123.448 233.003l-6.29 6.273-2.085-2.084a2.177 2.177 0 0 0-3.072 0 2.162 2.162 0 0 0 0 3.064l3.626 3.61c.847.843 2.22.843 3.067 0l7.827-7.805a2.16 2.16 0 0 0-.074-2.984 2.176 2.176 0 0 0-2.993-.074h-.006zM47.766 83.89c20.085 0 36.368-16.235 36.368-36.262S67.85 11.366 47.766 11.366 11.4 27.6 11.4 47.628c.024 20.017 16.292 36.238 36.367 36.262zm-15.198-8.162v-4.286c0-8.37 6.804-15.154 15.198-15.154s15.199 6.784 15.199 15.154v4.286a32.058 32.058 0 0 1-30.397 0zm4.885-34.054c0-5.679 4.617-10.283 10.313-10.283 5.696 0 10.313 4.604 10.313 10.283 0 5.68-4.617 10.284-10.313 10.284-5.696 0-10.313-4.604-10.313-10.284zm10.313-25.978c13.697.013 25.869 8.71 30.284 21.637 4.416 12.927.098 27.224-10.743 35.57v-1.461A19.48 19.48 0 0 0 55.979 53.77a14.591 14.591 0 0 0 5.8-16.386c-1.888-6.139-7.573-10.33-14.013-10.33-6.44 0-12.125 4.191-14.012 10.33a14.591 14.591 0 0 0 5.8 16.386 19.48 19.48 0 0 0-11.329 17.67v1.462c-10.84-8.346-15.159-22.643-10.743-35.57 4.416-12.928 16.588-21.624 30.284-21.637zM47.766 87.679h-1.085c-.6 0-1.086.484-1.086 1.082v5.412c0 .584.463 1.062 1.048 1.083h2.247c.584-.02 1.048-.5 1.047-1.083v-5.412c0-.598-.486-1.082-1.085-1.082h-1.086zM6.514 49.793c.6 0 1.085-.485 1.085-1.083v-1.082-1.083c0-.597-.486-1.082-1.085-1.082H1.086C.5 45.463.02 45.925 0 46.508v2.24c.02.583.5 1.045 1.086 1.045h5.428zM46.68 7.577h2.172c.6 0 1.085-.484 1.085-1.082V1.082C49.937.5 49.474.02 48.89 0h-2.247c-.585.02-1.048.5-1.048 1.082v5.413c0 .598.486 1.082 1.086 1.082zM89.019 49.793h5.428c.585 0 1.065-.462 1.085-1.045v-1.12-1.12a1.084 1.084 0 0 0-1.085-1.045h-5.428c-.6 0-1.086.485-1.086 1.082v2.165c0 .598.486 1.083 1.086 1.083z"/>
        </g>
    </g>
</svg>
