<?xml version="1.0" standalone="no"?>
<!DOCTYPE svg PUBLIC "-//W3C//DTD SVG 20010904//EN"
 "http://www.w3.org/TR/2001/REC-SVG-20010904/DTD/svg10.dtd">
<svg version="1.0" xmlns="http://www.w3.org/2000/svg"
 width="263.000000pt" height="263.000000pt" viewBox="0 0 263.000000 263.000000"
 preserveAspectRatio="xMidYMid meet">
<metadata>
Created by potrace 1.11, written by Peter Selinger 2001-2013
</metadata>
<g transform="translate(0.000000,263.000000) scale(0.100000,-0.100000)"
fill="#000000" stroke="none">
<path d="M1525 2422 c-62 -16 -142 -50 -226 -97 -14 -8 -56 -43 -94 -77 -37
-34 -77 -63 -89 -64 -203 -11 -389 -68 -554 -170 -272 -167 -458 -423 -534
-733 -27 -113 -34 -349 -12 -468 23 -129 30 -132 28 -10 -2 106 18 283 34 299
4 4 7 -48 8 -115 1 -130 3 -148 34 -269 30 -117 88 -249 150 -338 34 -49 34
-49 -27 -48 -128 1 -151 -2 -157 -18 -4 -9 -2 -22 4 -29 8 -9 279 -12 1192
-13 651 0 1193 1 1206 4 23 5 31 37 11 50 -6 3 -55 6 -109 6 l-98 0 52 82
c228 356 295 760 195 1169 -31 130 -105 306 -172 412 -32 50 -63 99 -70 109
-49 78 -169 193 -247 239 -107 62 -206 89 -340 93 -87 3 -132 -1 -185 -14z
m546 -531 c35 -35 37 -66 6 -105 -39 -48 -115 -35 -135 23 -19 54 22 105 86
110 8 1 27 -12 43 -28z m72 -760 c16 -14 36 -39 45 -56 37 -70 48 -274 22
-399 -6 -31 -11 -58 -11 -61 0 -15 -53 -135 -83 -188 -58 -102 -38 -94 -242
-94 l-181 0 -13 56 c-8 31 -14 108 -15 172 -3 136 20 242 80 367 55 116 64
126 147 150 40 12 100 37 133 55 65 37 76 37 118 -2z m-1116 -396 c62 -31 95
-73 119 -155 23 -76 24 -86 31 -171 l6 -76 -241 0 c-274 0 -258 -5 -247 84 23
188 71 285 159 322 62 27 111 26 173 -4z"/>
</g>
</svg>
