<?xml version="1.0" standalone="no"?>
<!DOCTYPE svg PUBLIC "-//W3C//DTD SVG 20010904//EN"
 "http://www.w3.org/TR/2001/REC-SVG-20010904/DTD/svg10.dtd">
<svg version="1.0" xmlns="http://www.w3.org/2000/svg"
 width="700.000000pt" height="700.000000pt" viewBox="0 0 700.000000 700.000000"
 preserveAspectRatio="xMidYMid meet">
<metadata>
Created by potrace 1.11, written by Peter Selinger 2001-2013
</metadata>
<g transform="translate(0.000000,700.000000) scale(0.100000,-0.100000)"
fill="#000000" stroke="none">
<path d="M4266 6468 c3 -4 9 -8 15 -8 5 0 9 4 9 8 0 5 -7 9 -15 9 -8 0 -12 -4
-9 -9z"/>
<path d="M4304 6463 c3 -7 -4 -10 -20 -7 -13 2 -35 6 -49 8 -14 2 -27 0 -31
-5 -3 -5 -9 -7 -14 -4 -5 3 -11 1 -15 -5 -4 -6 -11 -7 -17 -4 -7 4 -8 2 -4 -4
4 -7 3 -12 -3 -12 -5 0 -12 6 -14 13 -4 9 -6 9 -6 -1 -1 -7 -5 -10 -11 -7 -5
3 -10 2 -10 -4 0 -6 -8 -8 -17 -4 -10 3 -15 3 -11 -1 4 -5 2 -14 -5 -21 -9
-10 -14 -9 -24 4 -12 15 -14 14 -28 -3 -11 -14 -15 -16 -15 -5 -1 10 -4 9 -11
-4 -10 -17 -12 -17 -30 -1 -17 16 -18 15 -14 -5 2 -12 -1 -20 -8 -18 -7 1 -11
-4 -9 -11 1 -8 -2 -11 -8 -7 -6 3 -8 10 -6 14 3 4 -1 8 -8 8 -9 0 -12 -7 -8
-16 5 -14 4 -14 -13 -1 -11 9 -16 10 -11 3 4 -8 1 -13 -9 -13 -10 0 -13 5 -9
12 4 7 3 8 -5 4 -8 -5 -9 -12 -2 -20 7 -9 1 -11 -24 -11 -28 1 -32 -1 -23 -12
9 -11 6 -12 -15 -4 -28 11 -30 9 -55 -39 -7 -14 -10 -17 -7 -7 5 21 5 21 -31
3 -15 -8 -32 -12 -37 -9 -5 3 -3 -5 4 -18 11 -22 11 -23 -4 -10 -14 11 -17 11
-17 0 0 -11 -2 -11 -10 1 -8 13 -10 12 -10 -4 0 -16 -2 -17 -17 -5 -15 13 -15
12 -4 -9 7 -13 10 -26 7 -30 -3 -3 -6 0 -6 8 0 10 -4 10 -17 -1 -11 -10 -14
-10 -9 -1 4 6 2 12 -3 12 -6 0 -11 -6 -11 -14 0 -7 -7 -20 -17 -27 -15 -13
-15 -12 -5 7 9 16 8 21 -3 21 -8 0 -14 -3 -13 -6 2 -22 -4 -41 -13 -41 -5 0
-8 4 -4 9 3 5 1 13 -5 16 -6 4 -9 1 -8 -7 2 -7 -2 -12 -9 -11 -8 2 -10 -4 -6
-14 4 -10 2 -14 -4 -10 -6 4 -14 1 -16 -5 -4 -10 -8 -9 -17 2 -10 13 -11 12
-6 -3 6 -20 -16 -61 -27 -50 -4 3 1 12 11 20 13 10 14 13 2 11 -8 -2 -22 -13
-31 -26 -8 -12 -20 -19 -24 -15 -5 5 -3 0 4 -10 12 -15 12 -17 -4 -11 -13 5
-16 4 -11 -4 4 -7 3 -12 -3 -12 -5 0 -11 6 -14 13 -3 9 -8 9 -18 -2 -11 -11
-11 -12 -1 -6 12 6 12 3 2 -16 -16 -31 -25 -39 -17 -16 4 11 3 16 -3 12 -6 -3
-10 -13 -10 -21 0 -8 -4 -14 -10 -14 -5 0 -7 8 -3 18 7 18 5 17 -15 -10 -10
-12 -10 -18 -1 -24 8 -5 9 -3 4 6 -5 9 -4 11 4 6 21 -13 1 -27 -22 -14 -21 11
-21 10 -7 -7 9 -11 10 -16 2 -11 -8 5 -16 -3 -24 -21 -6 -15 -11 -31 -10 -34
1 -4 -7 -5 -18 -2 -12 3 -22 -1 -26 -11 -3 -9 -11 -13 -18 -9 -6 4 -5 -1 3
-10 12 -15 10 -19 -22 -32 -20 -8 -38 -24 -42 -35 -3 -11 -11 -20 -16 -20 -6
0 -8 4 -5 8 2 4 1 14 -5 22 -7 12 -9 9 -10 -10 -1 -17 -3 -19 -6 -7 -5 20 -19
22 -29 5 -4 -6 -3 -8 3 -5 5 3 10 -1 10 -9 0 -9 -4 -11 -10 -5 -5 5 -17 7 -26
3 -14 -5 -14 -4 -1 14 10 14 8 13 -11 -4 -25 -22 -28 -22 -68 -8 -36 12 -40
12 -30 0 7 -8 9 -17 5 -21 -3 -3 -6 -1 -6 5 0 7 -7 12 -16 12 -9 0 -12 5 -8
12 5 7 3 8 -5 4 -7 -5 -10 -15 -6 -25 5 -13 4 -14 -6 -3 -7 6 -17 12 -22 12
-4 0 -5 -6 -1 -12 6 -10 4 -10 -8 0 -11 9 -18 10 -23 2 -3 -6 -12 -7 -18 -3
-18 11 -38 12 -31 2 3 -5 0 -9 -5 -9 -6 0 -11 5 -11 12 0 6 -6 4 -13 -7 -10
-13 -16 -15 -21 -6 -4 6 -12 8 -18 5 -6 -4 -15 0 -20 7 -7 11 -9 9 -5 -7 4
-18 1 -20 -16 -16 -13 3 -18 1 -13 -6 3 -6 1 -14 -5 -18 -7 -4 -9 -3 -6 3 4 6
0 16 -7 22 -11 9 -16 9 -22 0 -4 -8 -3 -9 4 -5 8 5 10 2 6 -9 -5 -12 -9 -13
-20 -4 -11 9 -14 8 -14 -2 0 -8 -5 -6 -13 6 -11 14 -16 15 -22 5 -6 -9 -4 -11
6 -5 11 6 12 5 2 -5 -10 -11 -15 -11 -29 1 -10 8 -15 9 -11 3 4 -7 0 -15 -9
-18 -8 -3 -12 -2 -9 4 4 6 -1 7 -11 3 -13 -5 -15 -3 -9 7 5 9 4 11 -4 6 -9 -6
-9 -11 1 -24 12 -14 10 -14 -10 -3 -20 10 -23 9 -30 -10 -8 -20 -9 -21 -16 -4
-6 17 -7 17 -26 0 -13 -12 -20 -14 -20 -6 0 9 -5 8 -15 -3 -9 -8 -23 -12 -32
-9 -9 4 -14 2 -10 -3 3 -6 -7 -9 -24 -8 -16 1 -32 -3 -36 -9 -3 -6 -1 -7 5 -3
7 4 12 2 12 -3 0 -15 -13 -14 -29 2 -11 10 -13 9 -8 -5 8 -22 3 -23 -17 -2 -9
9 -16 11 -16 4 0 -6 -4 -9 -9 -6 -5 3 -8 -2 -7 -11 0 -10 -5 -18 -11 -19 -7
-1 -14 -2 -15 -4 -10 -7 -37 -6 -32 1 3 5 10 6 16 3 7 -4 8 -2 4 5 -6 9 -11 9
-21 1 -7 -6 -19 -9 -26 -8 -8 2 -13 -3 -11 -10 2 -9 -4 -11 -18 -7 -12 4 -20
2 -20 -5 0 -6 4 -9 9 -5 5 3 13 0 17 -6 4 -7 3 -9 -4 -5 -6 3 -14 2 -17 -4 -5
-8 -11 -7 -21 1 -10 8 -14 8 -14 0 0 -6 -5 -11 -11 -11 -5 0 -7 5 -3 12 5 7 3
8 -5 4 -7 -5 -10 -15 -6 -23 4 -13 3 -14 -10 -3 -8 7 -12 17 -8 23 3 6 1 7 -5
3 -9 -5 -9 -13 0 -29 10 -20 10 -21 -5 -8 -15 12 -17 11 -17 -3 0 -10 -5 -14
-10 -11 -6 4 -7 11 -4 17 5 7 2 8 -5 4 -7 -5 -10 -15 -6 -24 5 -14 4 -14 -12
1 -14 12 -22 13 -33 6 -12 -9 -12 -10 3 -5 9 3 17 1 17 -4 0 -6 -5 -10 -11
-10 -5 0 -8 -4 -4 -9 3 -5 1 -13 -5 -16 -6 -4 -9 -1 -8 5 2 7 -5 14 -15 15
-10 2 -14 -1 -10 -8 4 -7 0 -8 -12 -3 -15 5 -16 4 -5 -9 11 -13 10 -14 -4 -9
-19 7 -78 -14 -71 -26 3 -5 -3 -6 -13 -3 -10 2 -25 -3 -33 -13 -8 -10 -9 -15
-2 -11 6 4 14 3 18 -3 4 -6 11 -7 17 -4 7 4 8 2 4 -5 -6 -9 -11 -9 -22 0 -8 6
-14 8 -14 4 0 -4 -7 -2 -15 5 -13 11 -14 10 -8 -6 6 -16 5 -17 -9 -6 -12 10
-18 10 -23 1 -4 -6 -1 -15 6 -20 11 -7 11 -9 -3 -9 -9 0 -18 -3 -21 -7 -2 -5
-2 -2 -1 5 2 6 -1 12 -6 12 -6 0 -10 -8 -11 -17 0 -11 -3 -13 -6 -5 -2 6 -9
12 -14 12 -4 0 -6 -7 -2 -16 5 -14 3 -15 -15 -5 -21 11 -21 10 -12 -15 9 -24
9 -25 -5 -14 -12 10 -15 10 -15 -1 0 -11 -2 -11 -10 1 -8 13 -10 12 -10 -4 0
-16 -2 -17 -17 -5 -15 13 -15 12 -4 -9 7 -13 10 -26 7 -30 -3 -3 -6 0 -6 6 0
7 -7 12 -17 12 -9 0 -13 -3 -10 -7 4 -3 -2 -13 -13 -20 -12 -8 -17 -20 -13
-26 4 -8 1 -7 -9 1 -12 9 -18 10 -23 2 -4 -7 -15 -10 -25 -7 -14 4 -17 0 -15
-14 4 -22 -5 -24 -24 -6 -7 6 -12 8 -11 2 6 -27 -1 -37 -21 -32 -16 4 -18 3
-8 -9 9 -11 9 -14 0 -14 -7 0 -9 -4 -6 -10 3 -6 -1 -7 -10 -3 -13 5 -14 7 -3
14 7 5 9 9 5 9 -17 0 -54 -35 -50 -47 3 -8 -3 -11 -16 -8 -11 2 -24 -1 -27 -7
-4 -6 -3 -8 3 -5 6 4 14 0 17 -9 4 -9 2 -13 -5 -8 -6 4 -15 0 -20 -7 -7 -11
-9 -11 -9 -1 0 7 -4 11 -10 7 -5 -3 -7 -12 -3 -20 4 -11 1 -13 -13 -8 -17 6
-17 5 -5 -11 8 -9 10 -16 5 -15 -23 4 -45 -2 -39 -11 4 -6 -6 -10 -21 -10 -27
0 -27 -1 -8 -15 18 -14 18 -14 -3 -8 -14 3 -23 1 -23 -6 0 -7 5 -9 10 -6 15 9
12 -1 -4 -14 -11 -9 -16 -9 -22 0 -5 8 -3 9 6 4 9 -6 11 -4 5 4 -5 9 -13 7
-29 -8 -12 -12 -26 -18 -31 -14 -4 5 -5 3 -2 -4 4 -6 -5 -21 -19 -32 -29 -23
-25 -27 9 -10 l22 11 -22 -21 c-12 -12 -26 -21 -30 -20 -20 3 -27 -2 -13 -12
12 -9 10 -10 -8 -6 -18 4 -21 3 -13 -7 13 -16 -31 -62 -49 -51 -9 5 -8 1 1
-16 11 -22 11 -23 -4 -10 -12 9 -17 10 -17 2 0 -7 -5 -9 -12 -5 -10 6 -10 5
-1 -7 10 -13 8 -20 -15 -42 -16 -15 -31 -24 -35 -20 -4 3 -7 -1 -7 -11 0 -9
-4 -15 -9 -12 -10 6 -43 -27 -40 -40 1 -5 -1 -17 -6 -27 -6 -15 -10 -15 -23
-5 -12 10 -14 10 -8 1 4 -8 1 -13 -9 -13 -9 0 -13 -5 -10 -10 4 -6 11 -7 17
-4 7 4 8 2 4 -5 -4 -6 -12 -8 -18 -5 -8 5 -9 1 -5 -12 7 -18 6 -18 -9 1 -16
20 -16 20 -10 -1 4 -14 0 -26 -11 -35 -17 -13 -17 -13 -3 6 14 18 14 19 -2 6
-14 -10 -15 -17 -7 -33 6 -11 7 -18 2 -15 -18 11 -50 -21 -48 -46 3 -21 -1
-24 -19 -20 -21 5 -21 5 -1 -11 16 -13 17 -15 2 -10 -13 5 -16 2 -11 -9 3 -8
1 -18 -5 -22 -6 -3 -9 0 -5 8 3 8 0 18 -7 23 -7 4 -10 3 -5 -4 3 -6 -1 -17 -9
-25 -11 -12 -12 -16 -2 -20 16 -6 -20 -47 -42 -47 -14 0 -14 -2 -1 -10 13 -9
13 -10 0 -11 -8 -1 -22 -1 -30 0 -13 2 -13 0 -1 -8 8 -5 21 -7 30 -4 13 4 13
3 2 -5 -8 -6 -10 -15 -6 -23 6 -11 5 -12 -6 -1 -16 14 -33 16 -24 2 3 -6 0
-10 -7 -10 -8 0 -9 -3 -2 -8 7 -5 6 -15 -3 -32 -7 -14 -13 -20 -13 -13 0 7 -7
10 -15 7 -13 -5 -13 -8 0 -21 19 -18 19 -24 1 -17 -9 4 -13 -2 -11 -20 3 -22
1 -24 -15 -16 -19 10 -22 -3 -6 -28 7 -12 4 -12 -14 -2 -13 7 -20 8 -16 2 3
-6 2 -13 -3 -16 -5 -4 -8 -18 -6 -32 1 -15 -3 -28 -12 -31 -12 -5 -12 -7 -1
-15 9 -7 7 -8 -9 -5 -19 4 -21 2 -13 -19 7 -19 5 -26 -11 -38 -15 -10 -17 -15
-7 -19 10 -4 10 -6 1 -6 -7 -1 -13 -13 -14 -28 0 -16 -3 -23 -5 -16 -3 7 -12
9 -20 6 -13 -5 -13 -7 -2 -14 11 -7 10 -11 -2 -19 -11 -7 -11 -10 -2 -10 7 0
10 -5 7 -10 -4 -6 -11 -8 -16 -5 -5 3 -6 -2 -2 -11 4 -12 3 -15 -5 -10 -8 5
-10 2 -6 -9 5 -11 2 -14 -12 -9 -17 6 -17 5 1 -9 12 -10 15 -16 7 -17 -7 0
-11 -4 -7 -9 3 -5 1 -12 -5 -16 -15 -9 -12 -27 3 -20 6 4 4 0 -5 -8 -10 -8
-14 -18 -10 -22 4 -5 -1 -5 -10 -2 -12 4 -15 2 -12 -8 3 -8 13 -11 22 -8 14 4
15 3 2 -5 -10 -8 -18 -7 -28 0 -10 9 -12 8 -10 -3 2 -8 8 -17 13 -21 6 -5 5
-8 -2 -8 -7 0 -13 -5 -13 -11 0 -5 6 -7 13 -3 9 6 9 4 -1 -8 -10 -13 -10 -17
0 -20 8 -3 6 -7 -6 -11 -10 -4 -15 -3 -11 3 3 6 1 10 -4 10 -15 0 -14 -47 2
-54 6 -3 1 -3 -13 1 -22 5 -23 4 -11 -11 9 -10 10 -16 2 -16 -6 0 -11 -5 -11
-11 0 -5 5 -7 11 -4 6 4 5 -2 -2 -13 -7 -12 -18 -18 -24 -15 -5 4 -7 3 -3 -2
4 -4 2 -15 -5 -23 -10 -13 -9 -14 10 -4 16 9 24 9 29 0 4 -6 3 -8 -3 -5 -6 4
-21 -5 -33 -18 -20 -21 -21 -25 -6 -25 9 0 14 -5 11 -10 -4 -6 -10 -8 -14 -6
-4 3 -8 -1 -8 -9 0 -8 4 -12 9 -9 4 3 5 -2 2 -10 -3 -9 -10 -13 -15 -10 -5 3
-5 -6 1 -20 5 -14 7 -26 4 -26 -4 0 0 -8 7 -17 10 -11 10 -14 2 -9 -7 4 -21 9
-32 11 -17 3 -21 -11 -10 -35 1 -3 3 -9 4 -15 2 -5 4 -12 5 -15 6 -17 7 -39 2
-39 -20 3 -25 -2 -12 -11 12 -8 12 -10 1 -10 -11 0 -11 -3 0 -17 12 -15 12
-16 -3 -10 -13 4 -15 2 -11 -10 3 -8 0 -19 -8 -24 -10 -6 -10 -9 -2 -9 7 0 10
-7 7 -15 -4 -8 -11 -12 -18 -8 -7 4 -7 1 1 -9 7 -8 10 -17 7 -21 -3 -3 -1 -15
6 -26 8 -17 8 -22 -3 -27 -18 -6 -15 -70 3 -66 11 2 10 -1 -1 -14 -17 -21 -22
-184 -5 -184 7 0 8 -3 1 -8 -15 -10 -15 -225 -1 -234 8 -5 8 -8 0 -8 -13 0
-12 -198 1 -219 5 -8 4 -12 -1 -8 -5 3 -9 -7 -9 -23 0 -20 4 -26 15 -23 9 3 8
-1 -4 -11 -11 -9 -15 -16 -8 -16 6 0 9 -9 7 -20 -2 -11 0 -22 6 -25 5 -4 7
-17 5 -30 -3 -17 -1 -22 10 -18 8 3 14 1 14 -5 0 -6 -6 -13 -12 -15 -10 -4
-10 -6 0 -6 8 -1 10 -6 5 -13 -16 -26 -12 -39 10 -34 12 3 16 3 9 0 -6 -3 -9
-11 -5 -17 4 -6 0 -8 -10 -4 -11 4 -14 2 -10 -8 3 -8 10 -12 15 -9 6 4 8 1 6
-7 -3 -8 -11 -13 -18 -11 -11 3 -11 0 -1 -12 13 -15 36 -12 27 3 -3 4 2 8 10
8 10 0 11 -4 4 -11 -14 -14 -13 -28 3 -21 6 4 4 0 -6 -8 -18 -15 -18 -15 0
-20 16 -4 16 -5 1 -6 -10 0 -18 -5 -18 -11 0 -5 7 -7 16 -3 14 5 15 3 4 -17
-11 -20 -10 -22 4 -17 8 3 18 1 22 -5 4 -7 3 -8 -4 -4 -16 10 -15 -7 1 -23 10
-11 8 -12 -8 -3 -17 9 -21 7 -21 -8 0 -10 3 -17 7 -14 9 5 21 -25 14 -37 -4
-5 1 -6 10 -3 12 5 13 10 6 17 -17 17 -13 31 4 17 10 -9 15 -9 15 -1 0 6 -5
11 -11 11 -5 0 -7 5 -3 12 12 19 11 62 0 70 -7 6 -6 11 4 18 12 8 12 10 1 10
-9 0 -10 4 -4 13 11 15 11 27 -2 47 -14 21 -13 79 0 73 7 -2 12 3 12 12 0 9
-6 14 -12 11 -16 -6 -12 48 4 68 9 10 7 17 -6 27 -9 8 -14 9 -10 2 4 -6 3 -14
-2 -17 -5 -4 -8 2 -6 11 1 10 10 17 19 17 13 -2 14 1 5 12 -6 8 -15 11 -20 8
-15 -9 -10 3 8 21 17 17 27 79 11 69 -4 -3 -8 -1 -8 5 0 5 6 12 13 14 9 4 9 6
-1 6 -9 1 -10 6 -2 20 7 14 6 21 -3 24 -9 4 -9 6 1 6 7 1 10 6 6 13 -10 15
-11 67 -1 61 4 -2 7 -1 8 4 0 4 2 16 4 26 2 9 -1 15 -6 11 -5 -3 -6 -10 -3
-16 4 -7 2 -8 -4 -4 -13 8 4 56 20 56 4 0 7 6 5 13 -1 6 4 11 11 9 8 -1 11 2
7 7 -3 6 -13 7 -23 4 -15 -6 -16 -5 -2 12 14 17 13 18 -3 12 -12 -4 -16 -3
-11 4 3 6 15 8 26 6 15 -4 17 -3 7 9 -6 8 -8 21 -4 31 10 24 13 73 3 67 -8 -5
-3 31 8 47 3 6 0 16 -7 21 -12 8 -12 9 1 6 15 -5 50 20 50 35 0 5 -8 3 -17 -4
-17 -13 -17 -13 -1 7 14 16 15 23 5 33 -9 10 -7 10 10 0 13 -8 25 -20 28 -27
3 -8 0 -10 -6 -6 -7 4 -10 1 -7 -7 3 -8 11 -13 18 -11 11 3 11 0 0 -13 -9 -11
-10 -19 -2 -27 8 -8 7 -17 -4 -33 -10 -16 -12 -25 -4 -30 15 -9 2 -25 -15 -18
-8 3 -15 0 -15 -7 0 -6 5 -8 10 -5 7 4 9 -2 5 -18 -4 -15 -2 -28 6 -32 8 -5
10 -4 5 3 -4 7 -3 19 2 28 6 11 11 13 16 5 4 -6 2 -11 -4 -11 -6 0 -10 -8 -8
-17 2 -13 -3 -17 -17 -16 -11 1 -14 0 -7 -3 18 -8 15 -24 -5 -25 -12 0 -13 -2
-5 -6 7 -3 23 3 34 13 21 19 21 19 7 -3 -8 -13 -17 -23 -21 -23 -5 0 -8 -7 -8
-16 0 -9 -5 -12 -12 -8 -7 4 -8 3 -4 -4 4 -6 13 -9 20 -6 7 3 19 -3 27 -12 9
-12 10 -15 2 -10 -7 4 -13 2 -13 -3 0 -6 -5 -11 -11 -11 -8 0 -7 6 2 17 13 15
12 15 -8 3 -20 -13 -20 -15 -5 -26 9 -7 21 -10 25 -7 5 3 4 -4 -2 -16 -7 -12
-11 -27 -10 -34 4 -33 0 -40 -18 -26 -16 12 -16 11 0 -7 14 -15 19 -16 26 -6
7 11 9 10 14 -3 4 -9 3 -13 -3 -10 -13 8 -13 -11 0 -35 8 -16 8 -18 -5 -14 -8
3 -12 11 -8 17 3 6 1 7 -6 3 -12 -8 -1 -30 24 -48 6 -5 6 -8 -1 -8 -18 0 -25
-40 -8 -47 8 -3 14 -9 14 -15 0 -5 -4 -7 -9 -4 -5 4 -8 -2 -7 -11 2 -10 8 -18
14 -18 6 0 14 -4 19 -9 5 -5 3 -6 -5 -2 -8 5 -13 3 -11 -5 4 -33 -1 -50 -13
-43 -8 5 -8 1 1 -10 13 -15 13 -19 0 -27 -8 -5 -9 -9 -3 -9 6 0 17 7 24 15 9
11 9 15 1 15 -7 0 -9 5 -6 11 9 13 15 7 20 -20 2 -12 0 -19 -4 -16 -5 3 -12
-2 -15 -11 -9 -24 -7 -31 5 -14 9 12 10 11 6 -7 -3 -15 -1 -20 9 -16 16 6 10
-21 -10 -46 -9 -12 -8 -12 10 -3 16 9 21 8 21 -3 0 -8 -4 -12 -8 -9 -4 2 -10
0 -13 -5 -3 -5 1 -11 9 -15 8 -3 15 -11 15 -18 0 -9 -3 -9 -11 2 -9 13 -10 13
-6 -2 3 -9 1 -19 -6 -22 -7 -3 -1 -3 13 0 14 4 22 3 18 -1 -4 -5 -2 -15 5 -23
10 -13 9 -14 -13 -2 -19 9 -22 10 -13 0 6 -7 9 -20 6 -29 -4 -14 -3 -14 6 -1
9 13 11 13 12 0 1 -8 1 -21 0 -27 -1 -8 5 -10 16 -7 14 5 15 4 4 -4 -15 -11
-25 -46 -11 -37 4 3 10 -2 13 -10 4 -10 1 -12 -11 -9 -14 4 -13 3 2 -6 15 -10
16 -14 5 -21 -10 -6 -10 -9 -2 -9 7 0 17 8 23 18 9 14 10 13 4 -7 -4 -17 -3
-21 6 -16 9 5 11 4 6 -4 -4 -6 -11 -9 -15 -7 -4 3 -8 -2 -8 -10 0 -8 6 -13 12
-10 6 2 12 -2 12 -9 0 -7 -7 -11 -16 -9 -9 3 -6 -1 6 -7 21 -11 22 -13 5 -26
-16 -14 -16 -14 0 -9 10 3 20 0 24 -6 4 -6 3 -8 -4 -4 -6 3 -13 2 -17 -4 -3
-5 -1 -11 4 -11 6 -1 16 -3 21 -4 6 -1 13 -3 16 -4 4 0 1 -8 -6 -16 -10 -12
-10 -15 1 -15 11 0 11 -2 -1 -10 -12 -8 -12 -10 -1 -10 11 0 11 -3 0 -17 -10
-11 -10 -14 -1 -9 7 4 12 2 12 -4 0 -6 4 -8 10 -5 6 3 7 -1 4 -10 -5 -13 -9
-13 -22 -3 -14 12 -14 11 -1 -10 13 -21 15 -21 28 -5 12 16 12 16 6 -6 -4 -14
-3 -21 2 -18 5 4 10 0 10 -7 0 -8 -7 -12 -16 -9 -13 4 -13 3 -2 -5 8 -6 11
-17 8 -25 -4 -11 -1 -14 9 -10 16 6 44 -13 44 -30 0 -6 -6 -2 -14 9 -12 16
-17 17 -28 6 -11 -11 -10 -12 4 -7 12 5 18 2 18 -8 0 -8 6 -18 13 -20 9 -4 9
-6 0 -6 -7 -1 -13 -6 -13 -12 0 -5 4 -7 10 -4 5 3 10 -1 10 -9 0 -29 1 -31 23
-43 12 -7 17 -12 10 -13 -6 0 -11 -9 -10 -19 0 -11 6 -19 12 -18 5 1 9 -8 9
-20 -1 -12 1 -22 5 -21 3 0 15 0 26 -2 l20 -1 -20 -9 c-11 -5 -14 -9 -7 -9 6
-1 12 -8 12 -17 0 -8 5 -12 10 -9 6 3 10 -1 10 -10 0 -9 -5 -13 -10 -10 -6 3
-10 1 -10 -5 0 -7 6 -10 14 -7 21 8 48 -36 33 -53 -9 -10 -9 -11 2 -5 11 6 13
4 8 -8 -4 -11 -1 -17 8 -17 8 0 20 -9 28 -20 8 -11 17 -17 22 -12 5 4 5 1 0
-7 -6 -11 -11 -9 -25 9 -13 17 -19 20 -25 10 -5 -9 -4 -11 3 -6 11 7 17 -6 13
-27 -1 -5 2 -6 7 -3 4 2 14 1 22 -5 13 -7 13 -9 0 -9 -8 0 0 -8 18 -17 18 -9
29 -19 24 -22 -16 -11 -9 -44 10 -49 10 -2 18 -9 18 -14 0 -5 6 -6 13 -2 7 5
6 0 -3 -11 -14 -17 -13 -18 10 -12 23 5 23 5 7 -7 -16 -13 -16 -14 10 -21 15
-4 22 -10 16 -12 -7 -3 -13 -9 -13 -14 0 -6 6 -7 12 -3 8 4 10 3 5 -2 -5 -5
-14 -9 -20 -9 -5 0 -12 -6 -15 -14 -3 -9 0 -11 8 -6 9 5 11 4 6 -4 -6 -9 -11
-9 -23 1 -10 8 -11 14 -4 16 6 2 16 13 22 25 10 22 10 22 -6 2 -14 -17 -17
-18 -26 -5 -9 13 -10 13 -6 -1 3 -9 1 -22 -4 -30 -7 -11 -9 -10 -9 6 0 17 -2
17 -10 5 -8 -12 -10 -12 -10 5 0 16 -2 17 -9 5 -6 -8 -7 -18 -5 -22 3 -4 -3
-5 -12 -1 -12 4 -15 3 -10 -5 5 -8 2 -10 -10 -5 -14 5 -13 8 7 20 l24 14 -28
-6 c-19 -4 -26 -2 -22 5 9 15 -1 12 -19 -6 -9 -8 -16 -11 -16 -6 0 9 -20 9
-40 2 -3 -1 -9 -2 -14 -1 -5 1 -6 -6 -2 -16 4 -12 1 -11 -10 5 -17 22 -44 30
-44 12 0 -5 8 -6 17 -3 15 6 16 5 3 -9 -13 -14 -16 -14 -26 1 -7 9 -10 19 -8
23 9 14 -4 9 -20 -8 -9 -8 -16 -11 -16 -6 0 9 -20 9 -40 2 -3 -1 -9 -2 -14 -1
-5 1 -6 -6 -2 -16 4 -12 1 -11 -10 5 -17 22 -44 30 -44 12 0 -5 8 -6 17 -3 15
6 16 5 3 -9 -8 -9 -17 -12 -18 -7 -2 5 -13 14 -24 20 -16 8 -19 8 -13 -1 5 -8
3 -11 -6 -8 -8 3 -13 11 -11 17 1 8 -3 8 -17 -1 -11 -7 -17 -16 -14 -21 3 -5
10 -3 15 4 8 11 9 11 5 -1 -2 -8 -13 -15 -25 -15 -26 0 -49 -20 -33 -29 6 -4
11 -12 11 -18 0 -6 -10 -3 -22 8 -23 19 -23 19 -5 -2 9 -11 14 -24 10 -29 -5
-4 -2 -5 5 -1 9 6 11 1 8 -17 -4 -21 -1 -25 15 -22 13 3 19 0 16 -8 -3 -7 -11
-10 -18 -9 -8 2 -11 0 -6 -4 13 -14 137 -24 137 -12 0 4 5 8 11 8 5 0 8 -4 5
-8 -2 -4 29 -8 70 -8 41 1 74 4 74 9 0 4 5 7 11 7 5 0 8 -4 5 -8 -2 -4 29 -8
70 -8 41 1 74 4 74 9 0 4 5 7 11 7 5 0 8 -4 5 -8 -2 -4 29 -8 70 -8 41 1 74 4
74 9 0 4 5 7 11 7 5 0 8 -4 5 -8 -2 -4 29 -8 70 -8 41 1 74 4 74 9 0 4 5 7 11
7 5 0 8 -4 5 -8 -2 -4 29 -8 70 -8 41 1 74 4 74 9 0 4 5 7 11 7 5 0 8 -4 5 -8
-6 -11 127 -7 145 3 7 5 10 4 6 -2 -8 -12 32 -11 52 1 11 7 12 6 6 -5 -7 -11
-5 -11 10 1 11 9 16 10 11 3 -4 -7 -2 -13 3 -13 6 0 11 5 11 10 0 6 5 10 11
10 5 0 8 -4 5 -8 -6 -10 108 -7 125 3 7 5 10 4 6 -2 -8 -12 32 -11 52 1 11 7
12 6 6 -5 -7 -11 -5 -11 10 1 11 9 16 10 11 3 -4 -7 -2 -13 3 -13 6 0 11 5 11
10 0 6 5 10 11 10 5 0 8 -4 5 -8 -6 -10 108 -7 125 3 7 5 10 4 6 -2 -8 -12 32
-11 52 1 11 7 12 6 6 -5 -7 -11 -5 -11 10 1 11 9 16 10 11 3 -4 -7 -2 -13 3
-13 6 0 11 5 11 10 0 6 5 10 11 10 5 0 8 -4 5 -8 -6 -10 108 -7 125 3 7 5 10
4 6 -2 -8 -12 32 -11 52 1 11 7 12 6 6 -5 -7 -11 -5 -11 10 1 11 9 16 10 11 3
-4 -7 -2 -13 3 -13 6 0 11 5 11 10 0 6 5 10 11 10 5 0 8 -4 5 -8 -6 -10 108
-7 125 3 7 5 10 4 6 -2 -8 -12 32 -11 52 1 11 7 12 6 6 -5 -7 -11 -5 -11 10 1
11 9 16 10 11 3 -4 -7 -2 -13 3 -13 6 0 11 5 11 10 0 6 5 10 11 10 5 0 8 -4 5
-8 -6 -10 108 -7 125 3 7 5 10 4 6 -2 -8 -12 32 -11 52 1 11 7 12 6 6 -5 -7
-11 -5 -11 10 1 11 9 16 10 11 3 -4 -7 -2 -13 3 -13 6 0 11 5 11 10 0 6 5 10
11 10 5 0 8 -4 5 -8 -6 -10 108 -7 125 3 7 5 10 4 6 -2 -8 -12 32 -11 52 1 11
7 12 6 6 -5 -7 -11 -5 -11 10 1 11 9 16 10 11 3 -4 -7 -2 -13 3 -13 6 0 11 5
11 10 0 6 5 10 11 10 5 0 8 -4 5 -8 -6 -10 108 -7 125 3 7 5 10 4 6 -2 -8 -12
32 -11 52 1 11 7 12 6 6 -5 -7 -11 -5 -11 10 1 11 9 16 10 11 3 -4 -7 -2 -13
3 -13 6 0 11 5 11 10 0 6 5 10 11 10 5 0 8 -4 5 -8 -6 -10 108 -7 125 3 7 5
10 4 6 -2 -8 -12 32 -11 52 1 11 7 12 6 6 -5 -7 -11 -5 -11 10 1 11 9 16 10
11 3 -4 -7 -2 -13 3 -13 6 0 11 5 11 10 0 6 5 10 11 10 5 0 8 -4 5 -8 -6 -10
108 -7 125 3 7 5 10 4 6 -2 -8 -12 32 -11 52 1 11 7 12 6 6 -5 -7 -11 -5 -11
10 1 11 9 16 10 11 3 -4 -7 -2 -13 3 -13 6 0 11 5 11 10 0 6 5 10 11 10 5 0 8
-4 5 -8 -6 -10 108 -7 125 3 7 5 10 4 6 -2 -8 -12 32 -11 52 1 11 7 12 6 6 -5
-7 -11 -5 -11 10 1 11 9 16 10 11 3 -4 -7 -2 -13 3 -13 6 0 11 5 11 11 0 5 4
7 10 4 18 -11 50 -14 50 -4 0 5 5 9 11 9 5 0 8 -4 5 -8 -2 -4 29 -8 70 -8 41
1 74 4 74 9 0 4 5 7 11 7 5 0 8 -4 5 -8 -2 -4 29 -8 70 -8 41 1 74 4 74 9 0 4
5 7 11 7 5 0 8 -4 5 -8 -2 -4 29 -8 70 -8 41 1 74 4 74 9 0 4 5 7 11 7 5 0 8
-4 5 -8 -2 -4 29 -8 70 -8 41 1 74 4 74 9 0 4 5 7 11 7 5 0 8 -4 5 -8 -2 -4
29 -8 70 -8 41 1 74 4 74 9 0 4 5 7 11 7 5 0 8 -4 5 -8 -2 -4 29 -8 70 -8 41
1 74 4 74 9 0 4 5 7 11 7 5 0 8 -4 5 -8 -2 -4 29 -8 70 -8 41 1 74 4 74 9 0 4
5 7 11 7 5 0 8 -4 5 -8 -2 -4 29 -8 70 -8 41 1 74 4 74 9 0 4 5 7 11 7 5 0 8
-4 5 -8 -2 -4 29 -8 70 -8 41 1 74 4 74 9 0 4 5 7 11 7 5 0 8 -4 5 -8 -2 -4
29 -8 70 -8 41 1 74 4 74 9 0 4 5 7 11 7 5 0 8 -4 5 -8 -2 -4 29 -8 70 -8 41
1 74 4 74 9 0 4 5 7 11 7 5 0 8 -4 5 -8 -2 -4 29 -8 70 -8 41 1 74 4 74 9 0 4
5 7 11 7 5 0 8 -4 5 -8 -2 -4 29 -8 70 -8 41 1 74 4 74 9 0 4 5 7 11 7 5 0 8
-4 5 -8 -2 -4 29 -8 70 -8 41 1 74 4 74 9 0 4 5 7 11 7 5 0 8 -4 5 -8 -2 -4
29 -8 70 -8 41 1 74 4 74 9 0 4 5 7 11 7 5 0 8 -4 5 -8 -6 -11 186 -8 204 3 9
6 11 4 5 -6 -7 -11 -5 -11 10 1 11 9 16 10 11 3 -4 -7 -2 -13 3 -13 6 0 11 5
11 10 0 6 5 10 11 10 5 0 8 -3 6 -7 -3 -5 28 -8 69 -8 59 0 74 3 75 15 0 10 3
8 9 -5 5 -11 9 -15 9 -8 1 7 8 10 18 6 11 -4 14 -3 9 5 -4 7 -2 12 3 12 6 0
11 -5 11 -12 0 -6 3 -8 6 -5 4 4 1 14 -6 22 -7 9 -9 15 -4 14 30 -5 39 3 39
35 0 19 -2 33 -6 30 -4 -2 -9 3 -12 11 -4 10 -1 12 11 9 9 -2 7 1 -5 7 -13 7
-23 19 -23 27 0 9 -6 12 -16 8 -9 -3 -18 -6 -20 -6 -3 0 -3 -4 0 -8 3 -5 -1
-9 -8 -9 -7 0 -13 6 -13 13 0 7 4 11 9 8 4 -3 8 -1 8 3 0 5 -10 14 -22 22 -21
13 -22 13 -9 -3 13 -16 12 -17 -15 -11 -25 5 -26 4 -6 -4 28 -13 29 -21 0 -13
-16 4 -19 2 -13 -8 5 -9 4 -11 -4 -6 -6 4 -9 12 -6 17 4 5 1 9 -6 9 -8 0 -8 4
1 15 11 13 10 14 -4 9 -10 -4 -15 -12 -13 -19 3 -6 -5 -17 -16 -24 -18 -11
-20 -11 -9 0 14 15 16 33 3 25 -5 -4 -12 -1 -14 4 -3 6 -4 5 -3 -2 3 -14 -22
-37 -39 -37 -5 0 -2 4 8 10 9 5 17 15 17 21 0 7 -5 7 -14 -1 -11 -9 -16 -9
-22 0 -5 8 -3 9 6 4 9 -5 11 -4 6 4 -4 6 -12 9 -17 5 -5 -3 -7 -9 -4 -14 3 -4
-1 -13 -9 -19 -10 -9 -16 -8 -26 4 -7 9 -8 15 -2 15 6 0 12 -5 14 -12 3 -9 6
-9 12 0 4 7 2 12 -5 12 -8 0 -7 5 2 18 13 15 12 16 -3 4 -9 -8 -23 -10 -29 -6
-8 5 -9 3 -4 -6 6 -10 4 -12 -8 -7 -9 3 -19 2 -22 -3 -4 -6 -11 -10 -17 -10
-6 0 -5 7 3 17 7 10 2 8 -12 -4 -28 -25 -39 -29 -39 -12 0 5 4 8 9 5 10 -6 25
24 16 32 -3 3 -5 0 -5 -6 0 -7 -7 -12 -15 -12 -8 0 -15 -6 -15 -12 0 -9 -3 -9
-8 -3 -11 16 -32 12 -48 -9 -17 -24 -18 -13 -3 17 l12 22 -23 -20 c-13 -11
-20 -15 -17 -8 4 6 2 15 -4 19 -8 4 -9 3 -5 -4 4 -7 2 -12 -4 -12 -6 0 -9 -4
-5 -9 3 -5 0 -13 -6 -17 -7 -4 -9 -3 -6 3 4 6 0 13 -7 16 -8 3 -17 1 -19 -6
-2 -7 -4 3 -5 21 0 22 3 30 11 26 8 -5 8 -3 0 7 -7 7 -13 18 -13 24 0 5 5 3
10 -5 8 -13 10 -13 11 3 3 32 4 37 11 40 3 1 10 -2 15 -7 4 -5 3 -6 -4 -3 -13
8 -12 -18 2 -30 4 -4 5 -3 1 4 -3 6 -2 14 3 18 6 3 7 13 4 22 -4 10 -2 14 4
10 6 -4 19 3 29 15 11 12 13 18 7 14 -9 -5 -12 1 -9 24 4 37 11 46 20 25 4
-11 2 -14 -6 -9 -7 5 -8 3 -4 -5 8 -12 21 -7 21 7 1 4 6 17 13 28 6 12 8 24 5
28 -3 3 1 6 11 6 10 0 14 5 11 11 -4 6 -13 8 -21 5 -22 -8 -17 2 7 15 12 6 19
7 15 1 -3 -5 1 -13 10 -16 10 -4 13 -2 8 6 -4 6 2 18 12 26 18 13 18 14 -6 8
-14 -3 -19 -3 -12 0 6 3 10 10 7 14 -3 5 0 12 6 16 8 4 9 3 5 -4 -4 -7 -2 -12
3 -12 10 0 16 29 12 53 -1 4 13 14 31 22 18 8 28 14 22 15 -6 0 -11 7 -11 15
0 11 3 12 14 3 11 -9 12 -6 3 16 -7 20 -7 25 2 20 8 -5 9 -2 4 11 -5 15 -4 16
8 6 13 -11 14 -8 12 16 -1 15 2 34 7 41 12 15 41 16 31 0 -4 -7 -3 -8 5 -4 9
6 9 11 0 22 -10 12 -9 17 1 27 10 10 11 9 5 -2 -6 -10 -4 -12 5 -6 10 6 10 11
-4 20 -15 11 -15 13 -1 19 9 3 13 2 10 -4 -3 -6 -2 -10 3 -10 6 0 13 7 16 16
9 23 8 24 -11 18 -10 -3 -8 0 5 8 18 11 20 16 10 27 -9 9 -9 12 -1 7 7 -4 14
2 18 14 4 11 10 18 15 15 5 -3 7 6 4 21 -3 14 -1 23 5 20 5 -3 11 1 15 9 3 8
0 17 -6 21 -7 5 -8 2 -3 -6 5 -9 4 -11 -4 -6 -6 4 -9 12 -5 17 3 5 10 6 16 3
8 -5 9 -1 4 11 -5 15 -4 16 8 6 11 -9 16 -9 22 0 4 8 3 9 -4 5 -7 -4 -12 -1
-12 9 0 10 5 13 13 9 7 -5 6 0 -3 11 -12 15 -12 17 -1 10 11 -6 13 -4 8 9 -5
13 -3 17 7 13 10 -4 13 2 12 23 -1 16 2 26 7 23 5 -3 6 5 2 18 -7 22 -6 23 7
5 13 -16 14 -15 10 19 -3 22 -1 35 5 32 5 -3 15 -1 23 5 12 8 12 9 -2 4 -10
-3 -20 -1 -23 4 -4 6 1 10 9 10 9 0 16 3 17 8 0 4 2 18 5 31 4 21 3 22 -13 10
-17 -13 -17 -12 -2 6 9 11 15 28 14 38 -2 9 0 15 4 13 12 -8 34 11 37 31 3 17
2 17 -12 -1 -8 -11 -14 -17 -14 -14 0 13 46 94 60 106 8 8 9 11 3 7 -7 -3 -13
-2 -13 4 0 5 6 12 13 14 10 4 10 6 0 6 -7 1 -13 6 -13 12 0 5 6 7 13 3 7 -5 6
0 -3 11 -12 15 -12 17 -1 10 11 -6 13 -4 8 8 -4 11 -1 17 8 17 8 0 15 5 15 11
0 5 -4 8 -9 5 -5 -3 -15 2 -22 12 -12 15 -12 16 2 5 16 -13 29 -8 29 9 0 5 -6
6 -12 3 -7 -4 -2 2 11 13 16 13 20 21 12 26 -9 6 -9 11 0 22 9 11 8 18 -2 31
-12 14 -12 16 0 8 11 -6 13 -4 8 9 -5 13 -2 15 18 12 15 -3 23 -1 20 5 -4 5
-10 7 -15 4 -5 -3 -11 -1 -15 5 -4 6 -12 7 -18 3 -7 -3 -4 3 6 14 9 11 14 23
10 27 -5 4 -3 7 2 6 30 -6 41 16 22 47 -4 6 -2 15 4 19 8 5 9 3 4 -6 -5 -8 -4
-11 3 -6 6 4 9 13 5 21 -3 9 0 22 7 30 7 8 9 15 5 15 -4 0 -2 6 4 13 6 8 8 17
4 20 -3 4 -1 13 6 21 9 11 8 15 -4 20 -10 3 -13 2 -10 -5 4 -5 1 -16 -5 -24
-10 -12 -10 -15 0 -15 9 0 9 -4 2 -12 -6 -7 -11 -16 -11 -20 -1 -5 -3 -8 -6
-8 -3 0 -8 0 -11 0 -4 0 -1 7 6 15 6 8 9 19 6 24 -4 5 -2 13 4 16 6 4 8 16 4
27 -5 16 -3 20 10 15 8 -3 18 -2 21 3 4 6 -2 10 -11 10 -16 0 -16 1 2 16 10 8
12 12 4 8 -13 -7 -13 -5 -1 9 11 14 11 17 0 17 -11 0 -11 2 1 10 13 9 13 10 0
10 -9 0 -11 3 -4 8 21 15 25 45 7 66 -10 12 -14 18 -9 14 5 -4 15 4 22 18 11
20 11 31 2 47 -9 19 -9 20 3 10 12 -9 14 -6 14 17 1 16 -3 26 -7 24 -4 -3 -8
0 -8 5 0 6 5 11 10 11 6 0 10 5 10 11 0 5 -5 7 -12 3 -7 -5 -8 -3 -2 7 11 18
11 49 1 73 -5 10 -5 16 0 13 5 -3 9 117 9 283 0 159 -4 284 -8 277 -6 -9 -8
-9 -8 0 0 6 5 15 10 18 14 9 2 27 -13 19 -7 -3 -5 0 3 8 17 14 20 45 7 66 -5
7 -6 21 -2 31 7 22 -13 71 -29 71 -6 1 1 8 17 16 30 16 37 27 10 17 -12 -5
-14 -3 -8 7 5 9 4 11 -4 6 -6 -4 -8 -12 -5 -18 4 -6 3 -8 -3 -5 -11 7 -10 43
2 54 4 5 5 2 1 -4 -4 -7 -2 -13 4 -13 7 0 9 7 6 16 -3 9 -6 18 -6 20 0 3 -6 2
-12 -2 -9 -5 -9 -2 1 9 11 14 11 17 0 17 -11 0 -11 2 1 10 10 6 11 10 3 10 -7
0 -13 5 -13 11 0 5 4 8 8 5 5 -3 9 1 9 9 0 8 -4 12 -7 10 -4 -3 -7 6 -7 20 0
14 4 22 10 18 6 -4 7 -1 3 6 -5 7 -18 16 -31 21 -23 9 -27 23 -12 47 4 6 1 14
-5 17 -10 5 -10 7 0 12 10 5 9 9 -5 20 -14 11 -14 13 -2 9 10 -4 16 0 16 10 0
8 -4 15 -9 15 -4 0 -8 7 -8 16 0 9 -5 12 -12 8 -7 -5 -8 -3 -3 7 12 18 14 49
3 43 -4 -3 -8 0 -8 6 0 6 -6 8 -12 5 -7 -4 -4 1 6 9 19 15 19 16 2 16 -14 0
-16 3 -8 13 9 10 6 17 -8 30 -13 11 -17 24 -14 42 3 18 1 24 -7 20 -8 -5 -7 0
1 15 10 19 10 22 -2 17 -9 -3 -15 1 -15 9 0 8 3 14 7 14 9 0 7 40 -2 41 -4 1
-12 2 -17 3 -5 0 -13 5 -18 10 -5 5 -3 6 5 2 7 -4 12 -1 12 9 0 10 5 13 12 9
7 -4 8 -3 4 5 -5 7 -16 9 -29 5 -20 -6 -20 -6 -4 10 16 17 13 46 -5 46 -6 0
-4 8 3 17 10 11 10 14 2 9 -9 -5 -13 1 -13 18 0 23 -9 31 -33 27 -5 -1 -6 3
-2 8 3 6 -1 25 -10 42 -9 17 -12 28 -7 25 6 -4 13 -2 16 3 3 5 -6 12 -20 15
-25 7 -26 8 -8 22 11 8 13 13 5 12 -7 -2 -16 3 -18 10 -3 8 2 10 14 6 17 -5
17 -5 1 6 -10 6 -18 22 -18 35 0 14 -4 25 -10 25 -5 0 -8 -6 -6 -12 1 -7 1
-10 -1 -5 -3 4 -10 4 -16 0 -7 -3 -3 4 8 17 11 13 15 20 9 17 -7 -4 -14 0 -17
8 -4 10 -1 12 11 8 11 -4 8 2 -8 16 -14 12 -20 20 -13 17 6 -4 15 -2 18 4 4 6
3 10 -2 9 -19 -3 -33 2 -33 12 0 5 5 7 12 3 7 -4 8 -3 4 5 -6 9 -11 9 -21 1
-10 -9 -13 -7 -10 7 1 10 9 17 16 15 9 -1 8 3 -3 11 -10 8 -18 24 -18 36 0 19
-11 26 -34 22 -5 -1 -4 4 3 12 9 12 9 16 -1 20 -11 4 -11 9 0 27 8 12 9 19 3
15 -6 -3 -11 -1 -11 4 0 6 -5 11 -11 11 -8 0 -8 -4 0 -14 8 -10 9 -16 1 -21
-6 -4 -9 -1 -8 7 2 7 -4 12 -12 10 -11 -3 -11 1 3 16 17 19 17 20 -15 41 -18
11 -27 21 -20 21 7 0 10 5 7 10 -4 6 -12 7 -18 4 -9 -5 -9 -4 0 6 9 10 8 16
-3 28 -13 12 -13 16 -2 23 7 5 8 9 2 9 -5 0 -15 -5 -21 -11 -8 -8 -13 -7 -18
2 -5 8 -4 10 3 5 7 -4 12 -1 12 8 0 9 -4 16 -9 16 -5 0 -7 10 -5 23 2 12 2 16
-2 10 -9 -19 -24 -16 -17 4 5 12 3 14 -8 8 -8 -5 -5 2 6 15 11 13 15 20 8 17
-6 -4 -18 0 -26 8 -12 11 -17 12 -21 2 -3 -6 -4 -3 -3 8 1 12 -3 19 -11 17 -8
-1 -11 2 -7 8 3 6 11 8 16 5 5 -4 9 -1 9 4 0 6 -5 11 -11 11 -5 0 -7 6 -3 13
5 8 2 7 -9 -2 -15 -12 -17 -12 -10 4 5 14 3 17 -10 12 -9 -3 -19 -1 -23 5 -4
7 -3 8 4 4 7 -4 12 -2 12 4 0 6 5 8 10 5 6 -3 10 -1 10 5 0 7 -7 9 -16 6 -12
-4 -15 -2 -10 9 4 10 -1 15 -14 15 -13 0 -20 7 -20 20 0 11 -6 20 -12 20 -9 0
-8 4 2 10 13 8 12 10 -3 10 -10 0 -15 5 -12 10 8 13 -8 13 -21 0 -7 -7 -11 -6
-11 4 0 8 4 13 9 10 4 -3 8 -1 8 5 0 5 -6 12 -12 15 -10 5 -10 7 -1 12 8 4 7
11 -5 24 -12 15 -19 17 -29 8 -11 -9 -13 -8 -11 3 2 8 10 17 18 21 11 5 8 7
-9 7 -15 1 -21 6 -18 14 3 7 -1 21 -9 31 -7 11 -11 22 -9 27 3 4 -9 6 -27 4
-18 -2 -27 -1 -20 2 6 2 12 9 12 14 0 6 -4 7 -10 4 -5 -3 -10 -2 -10 4 0 5 6
12 13 14 7 3 4 6 -6 6 -12 1 -16 6 -11 14 6 10 4 10 -7 0 -7 -7 -18 -13 -23
-13 -6 0 -4 5 4 10 13 9 13 11 0 19 -8 5 -17 8 -21 5 -4 -2 -5 5 -2 16 4 16 2
19 -13 14 -11 -4 -16 -4 -12 1 4 4 2 15 -5 24 -11 14 -10 14 6 2 9 -7 17 -9
17 -3 0 12 -29 24 -40 17 -5 -3 -7 4 -5 15 2 11 -1 20 -7 20 -6 0 -8 3 -5 7 4
3 -2 13 -13 20 -11 8 -18 19 -14 24 3 5 0 8 -8 7 -7 -2 -12 3 -10 10 1 6 -1
11 -5 11 -23 -4 -33 3 -33 21 0 11 -5 20 -11 20 -5 0 -7 -6 -3 -12 5 -9 2 -8
-10 1 -13 11 -14 16 -4 23 9 7 6 8 -11 5 -20 -5 -22 -3 -18 19 3 19 2 22 -9
13 -11 -9 -14 -7 -14 12 0 22 -1 22 -14 4 -13 -18 -14 -17 -11 8 2 18 -1 27
-11 27 -9 0 -12 -4 -9 -10 3 -5 1 -10 -4 -10 -15 0 -14 13 2 29 8 10 8 12 0 7
-6 -3 -19 4 -27 16 -9 12 -16 18 -16 12 0 -5 5 -15 11 -21 8 -8 8 -13 0 -18
-7 -4 -10 -1 -9 7 2 8 -5 12 -17 11 -11 -1 -14 0 -7 3 18 8 15 27 -4 20 -11
-4 -15 -2 -11 8 3 8 -1 22 -9 33 -14 17 -14 17 -5 -4 8 -16 7 -22 -4 -26 -9
-4 -12 -1 -8 9 3 7 0 14 -7 14 -6 0 -8 5 -4 13 5 7 0 6 -11 -3 -11 -9 -16 -10
-11 -2 4 6 3 12 -2 12 -5 0 -12 9 -15 20 -3 11 -11 20 -19 20 -10 0 -9 -3 2
-10 14 -9 4 -9 -39 -1 -2 1 2 8 9 16 14 17 7 19 -20 5 -15 -8 -17 -7 -13 11 5
19 4 20 -16 10 -17 -9 -21 -9 -19 1 2 7 -3 12 -11 10 -12 -3 -12 0 -1 12 7 9
9 17 4 17 -5 1 -15 2 -22 3 -7 0 -16 6 -20 11 -12 16 -47 41 -38 28 5 -9 0
-13 -13 -13 -12 0 -21 5 -21 10 0 6 -5 10 -11 10 -5 0 -7 -5 -3 -12 4 -6 3 -8
-4 -4 -6 3 -9 15 -7 26 3 18 1 19 -17 9 -17 -9 -20 -9 -15 4 4 10 0 14 -11 12
-9 -1 -16 -8 -14 -15 1 -6 -2 -9 -8 -5 -6 3 -7 11 -4 17 5 8 1 9 -10 5 -11 -5
-15 -3 -10 5 5 8 2 9 -9 5 -10 -3 -17 -2 -17 3 0 6 5 10 11 10 5 0 7 5 3 11
-4 8 -9 7 -16 -2 -8 -11 -11 -12 -15 -1 -4 10 -8 9 -19 -5 -13 -17 -14 -17
-20 3 -4 15 -12 20 -31 18 -18 -2 -23 1 -19 12 3 9 1 12 -4 9 -6 -3 -10 -2
-10 2 0 5 -9 9 -20 9 -11 0 -20 -4 -20 -9 0 -4 -5 -5 -10 -2 -6 4 -8 10 -5 15
3 4 -3 7 -12 5 -10 -2 -22 -4 -26 -4 -5 -1 -5 -6 -1 -12 8 -13 -57 31 -68 46
-5 6 -8 4 -8 -5 0 -12 -2 -13 -9 -1 -7 11 -9 11 -14 0 -5 -12 -6 -12 -6 0 -1
11 -4 11 -18 0 -14 -12 -16 -12 -11 2 4 9 1 16 -7 16 -8 0 -13 -3 -12 -6 1 -3
-2 -7 -8 -8 -5 -2 -10 4 -10 12 0 8 -4 14 -10 12 -5 -1 -9 -5 -7 -9 4 -14 -16
-8 -21 5 -6 15 -34 16 -56 2 -8 -5 -12 -4 -8 1 3 5 -98 9 -249 9 -188 0 -253
-3 -250 -12z m551 -3 c-3 -5 -12 -10 -18 -10 -7 0 -6 4 3 10 19 12 23 12 15 0z
m-632 -14 c4 -10 1 -13 -8 -9 -8 3 -12 9 -9 14 7 12 11 11 17 -5z m38 -3 c13
-17 13 -17 -6 -3 -11 8 -22 16 -24 17 -2 2 0 3 6 3 6 0 17 -8 24 -17z m-211
-37 c0 -3 -4 -8 -10 -11 -5 -3 -10 -1 -10 4 0 6 5 11 10 11 6 0 10 -2 10 -4z
m-270 -96 c0 -5 -5 -10 -11 -10 -5 0 -7 5 -4 10 3 6 8 10 11 10 2 0 4 -4 4
-10z m1709 -54 c8 -10 9 -16 1 -21 -6 -4 -9 -1 -8 7 2 7 -3 12 -10 10 -8 -1
-11 2 -7 8 8 13 10 13 24 -4z m504 -404 c19 -20 23 -29 13 -29 -8 0 -13 4 -10
8 2 4 -8 17 -22 28 -15 12 -22 21 -17 21 5 0 21 -13 36 -28z m-2863 -46 c0 -3
-4 -8 -10 -11 -5 -3 -10 -1 -10 4 0 6 5 11 10 11 6 0 10 -2 10 -4z m2900 -6
c0 -5 -5 -10 -11 -10 -5 0 -7 5 -4 10 3 6 8 10 11 10 2 0 4 -4 4 -10z m174
-205 c9 -14 13 -25 8 -25 -5 0 -14 11 -20 25 -6 14 -10 25 -8 25 2 0 11 -11
20 -25z m60 -90 c3 -8 1 -15 -4 -15 -6 0 -10 7 -10 15 0 8 2 15 4 15 2 0 6 -7
10 -15z m-4494 -59 c0 -3 -4 -8 -10 -11 -5 -3 -10 -1 -10 4 0 6 5 11 10 11 6
0 10 -2 10 -4z m-496 -304 c3 -5 -1 -9 -9 -9 -8 0 -12 4 -9 9 3 4 7 8 9 8 2 0
6 -4 9 -8z m4122 -112 c8 0 14 6 14 13 0 8 4 7 10 -3 6 -10 10 -11 10 -2 0 6
7 12 16 12 8 0 13 -4 10 -8 -3 -5 1 -9 9 -9 8 0 12 4 9 8 -2 4 5 7 16 6 11 -1
20 -8 20 -16 0 -11 4 -10 16 5 8 10 13 13 9 7 -7 -15 6 -17 23 -3 9 7 9 7 2
-2 -14 -17 -12 -28 6 -28 9 0 12 5 8 12 -4 7 -3 8 4 4 7 -4 12 -14 12 -22 0
-8 5 -14 11 -14 5 0 7 -6 3 -12 -5 -8 0 -7 11 2 11 9 16 10 11 3 -4 -8 -1 -13
8 -13 19 0 22 -30 4 -31 -9 0 -8 -3 2 -6 8 -3 23 -15 35 -26 15 -15 16 -19 3
-14 -17 6 -20 -15 -3 -30 4 -5 5 -1 0 7 -5 8 -4 12 0 7 5 -4 10 -18 12 -30 2
-17 1 -19 -7 -7 -7 12 -9 10 -7 -8 1 -15 6 -21 16 -17 12 5 11 2 -2 -13 -9
-10 -14 -22 -10 -26 11 -11 12 -37 2 -30 -16 9 -37 -15 -32 -36 3 -12 -5 -29
-23 -47 -16 -15 -28 -31 -26 -35 1 -4 -5 -5 -14 -1 -13 5 -13 8 -2 15 10 8 10
9 -2 5 -8 -2 -14 -12 -14 -21 1 -9 -2 -17 -7 -17 -13 -2 -29 -6 -31 -9 -10 -7
-37 -7 -32 1 3 5 0 9 -5 9 -6 0 -11 -4 -11 -8 0 -5 -7 -9 -15 -9 -8 0 -15 6
-15 12 0 6 -6 12 -14 12 -9 0 -12 -6 -8 -16 5 -14 3 -14 -11 -2 -9 7 -14 18
-10 24 3 6 1 7 -5 3 -6 -4 -9 -14 -6 -24 5 -15 4 -15 -6 1 -9 14 -9 22 1 35
11 14 11 15 -1 5 -16 -15 -34 -17 -26 -5 3 5 -1 9 -9 9 -8 0 -12 -4 -9 -9 9
-13 -6 -9 -22 7 -9 8 -13 15 -9 15 4 0 -1 7 -9 16 -9 8 -22 12 -28 9 -7 -4 -4
1 6 9 19 16 19 16 -5 17 -13 1 -28 1 -32 0 -5 -1 -6 3 -2 8 3 6 12 8 19 5 8
-3 17 0 22 7 4 8 3 10 -4 5 -7 -4 -12 -2 -12 4 0 6 -4 9 -8 6 -4 -2 -14 4 -21
16 -7 11 -8 17 -2 13 7 -3 11 2 11 14 0 10 -6 22 -12 24 -8 3 -5 6 5 6 17 1
18 2 1 18 -16 17 -16 18 7 23 l24 6 -25 7 -25 8 35 31 c19 17 30 28 24 25 -6
-3 -11 0 -11 9 0 9 7 12 19 8 14 -4 18 0 18 16 0 14 4 19 12 14 8 -5 9 -2 5
10 -5 13 -3 15 11 7 12 -6 23 -5 37 5 10 8 13 14 7 14 -7 0 -12 8 -11 18 0 10
3 12 6 5 2 -7 11 -13 19 -13z m-26 -14 c0 -3 -4 -8 -10 -11 -5 -3 -10 -1 -10
4 0 6 5 11 10 11 6 0 10 -2 10 -4z m-4340 -76 c-8 -6 -11 -10 -7 -10 5 0 5 -5
2 -10 -4 -6 -11 -8 -16 -4 -6 4 -3 14 7 25 9 11 20 17 23 14 3 -4 -1 -10 -9
-15z m5590 -60 c0 -5 -2 -10 -4 -10 -3 0 -8 5 -11 10 -3 6 -1 10 4 10 6 0 11
-4 11 -10z m-950 -150 c0 -5 -5 -10 -11 -10 -5 0 -7 5 -4 10 3 6 8 10 11 10 2
0 4 -4 4 -10z m1110 -250 c0 -5 -2 -10 -4 -10 -3 0 -8 5 -11 10 -3 6 -1 10 4
10 6 0 11 -4 11 -10z m-6166 -18 c3 -5 -1 -9 -9 -9 -8 0 -12 4 -9 9 3 4 7 8 9
8 2 0 6 -4 9 -8z m-249 -402 c3 -5 -1 -10 -10 -10 -9 0 -13 5 -10 10 3 6 8 10
10 10 2 0 7 -4 10 -10z m6540 -40 c3 -5 1 -10 -4 -10 -6 0 -11 5 -11 10 0 6 2
10 4 10 3 0 8 -4 11 -10z m68 -435 c-9 -16 -11 -16 -16 -1 -4 10 -3 15 3 11
13 -8 13 8 0 23 -5 7 -3 6 6 -2 12 -10 14 -19 7 -31z m-6898 -363 c-6 -7 -34
11 -29 19 3 5 11 3 19 -4 7 -6 12 -13 10 -15z m-25 -176 c0 -2 -7 -9 -15 -16
-13 -11 -14 -10 -9 4 5 14 24 23 24 12z m-15 -46 c-3 -5 -1 -10 6 -10 7 0 10
-3 6 -6 -9 -9 -28 6 -22 17 4 5 8 9 11 9 3 0 2 -4 -1 -10z m5624 3 c14 11 14
10 2 -6 -10 -13 -17 -15 -27 -6 -8 6 -14 14 -14 17 0 3 5 1 12 -6 9 -9 15 -9
27 1z m37 -42 c-3 13 0 15 15 12 10 -3 19 -9 19 -14 0 -5 5 -9 11 -9 5 0 7 6
3 13 -5 8 -2 8 9 -2 9 -7 17 -19 17 -25 0 -6 -5 -4 -10 4 -8 13 -10 12 -10 -3
0 -13 6 -17 23 -15 17 2 22 -2 21 -18 -1 -16 3 -20 17 -17 17 5 24 -5 20 -29
-1 -7 20 -12 40 -10 3 1 6 -6 6 -13 0 -11 -4 -12 -14 -3 -11 8 -12 7 -7 -6 3
-9 15 -16 26 -16 10 0 16 -5 13 -10 -4 -6 -12 -7 -18 -4 -7 4 -5 -1 4 -10 9
-9 25 -18 36 -19 11 0 20 -7 20 -14 0 -8 -4 -10 -12 -3 -8 7 -12 5 -12 -5 0
-8 4 -15 9 -15 4 0 8 -7 8 -15 0 -13 12 -19 32 -16 4 0 3 -10 -2 -24 -7 -19
-6 -25 4 -25 8 0 17 -7 20 -16 5 -14 4 -15 -9 -4 -13 11 -14 10 -9 -4 3 -9 10
-16 15 -16 5 0 8 -6 7 -12 -2 -7 3 -12 10 -10 8 1 11 -2 7 -8 -3 -6 -10 -8
-14 -6 -9 6 -5 -53 5 -62 4 -4 4 2 0 13 -6 16 -5 17 5 8 9 -10 10 -15 0 -27
-9 -11 -9 -16 0 -21 8 -6 7 -10 -2 -16 -8 -5 -9 -9 -4 -9 6 0 11 -16 12 -35 2
-19 -2 -35 -7 -35 -6 0 -5 -6 2 -14 7 -7 20 -11 28 -8 9 3 6 -2 -5 -11 -11 -9
-15 -17 -10 -17 6 0 3 -5 -5 -11 -13 -9 -13 -10 0 -6 8 2 14 9 13 14 -1 5 5
10 12 10 11 0 12 -4 4 -14 -9 -10 -8 -18 2 -30 11 -15 11 -16 -1 -5 -18 16
-27 15 -27 -3 0 -8 4 -12 9 -9 4 3 8 0 8 -6 0 -6 5 -8 12 -4 7 4 8 3 4 -5 -4
-6 -11 -9 -16 -6 -5 3 -12 0 -16 -6 -4 -8 -3 -9 4 -5 7 4 12 1 12 -8 0 -9 6
-16 13 -17 9 0 9 -2 0 -5 -8 -4 -9 -13 -3 -28 5 -14 4 -28 -2 -37 -8 -11 -9
-11 -4 3 3 12 1 15 -10 11 -10 -4 -12 -9 -4 -18 5 -6 7 -15 3 -19 -4 -4 -1 -5
7 -1 11 4 15 -2 15 -19 0 -13 -3 -22 -7 -19 -13 7 -9 -12 5 -26 10 -10 9 -11
-6 -5 -13 5 -16 2 -10 -12 4 -12 3 -15 -5 -10 -7 4 -12 2 -12 -3 0 -6 7 -11
15 -11 8 0 15 5 15 12 0 6 3 8 8 4 4 -4 -6 -19 -23 -32 -16 -14 -23 -22 -14
-19 17 6 32 -8 35 -33 1 -6 -2 -10 -7 -6 -5 3 -7 10 -4 15 3 5 -1 6 -10 3 -9
-4 -14 -9 -11 -12 3 -2 1 -13 -5 -23 -5 -11 -6 -18 -2 -17 4 2 8 -1 8 -7 0 -5
-6 -8 -15 -7 -8 2 -13 2 -10 0 45 -34 44 -34 35 -18 -8 13 -7 13 8 1 22 -17
21 -21 -1 -16 -11 2 -24 -6 -31 -18 -11 -18 -11 -20 0 -9 20 19 30 14 19 -8
-5 -11 -15 -29 -21 -41 -7 -15 -7 -19 0 -14 6 3 11 -1 11 -9 0 -9 -6 -16 -12
-16 -9 0 -8 -4 2 -10 10 -6 11 -10 3 -10 -15 0 -13 -21 2 -32 6 -5 4 -8 -5 -8
-13 0 -13 -1 0 -10 10 -6 11 -10 3 -10 -7 0 -13 -7 -13 -16 0 -9 5 -12 12 -8
7 4 8 3 4 -5 -4 -6 -12 -9 -17 -6 -5 4 -9 -1 -9 -10 0 -9 4 -14 9 -10 5 3 13
0 17 -6 4 -7 3 -9 -3 -6 -6 4 -20 -4 -32 -17 -18 -19 -20 -24 -7 -29 11 -4 13
-1 10 11 -5 14 -4 14 4 2 13 -17 5 -33 -13 -27 -8 4 -11 -4 -9 -24 2 -17 0
-28 -4 -25 -5 3 -6 -15 -2 -40 7 -44 -1 -66 -16 -43 -5 8 -3 9 6 4 8 -5 11 -4
6 3 -4 6 -14 8 -22 5 -9 -3 -12 -9 -7 -12 18 -12 22 -40 7 -52 -12 -10 -12
-14 -2 -21 9 -7 7 -8 -8 -5 -13 3 -21 -1 -21 -9 0 -7 4 -11 9 -8 4 3 8 0 8 -5
0 -6 -6 -11 -14 -11 -8 0 -18 -5 -22 -12 -4 -6 -3 -8 3 -5 6 4 13 -2 16 -14 5
-17 3 -18 -9 -8 -12 10 -13 9 -8 -6 6 -14 4 -16 -6 -10 -8 5 -11 4 -7 -2 4 -6
-2 -18 -13 -28 -18 -16 -18 -19 -2 -44 16 -25 16 -26 -3 -11 -17 14 -18 13
-12 -3 4 -12 1 -17 -10 -17 -14 0 -14 -2 3 -15 18 -14 18 -14 -3 -10 -15 2
-23 -1 -23 -11 0 -8 -5 -14 -12 -14 -6 0 -3 -7 8 -15 18 -14 18 -14 0 -15 -16
0 -17 -2 -5 -17 13 -15 12 -15 -11 -3 -23 12 -24 12 -11 -3 12 -15 11 -17 -3
-17 -9 0 -16 -5 -16 -11 0 -5 4 -8 9 -4 5 3 13 1 16 -5 4 -6 1 -9 -6 -8 -6 2
-14 -3 -17 -11 -3 -9 0 -11 8 -6 9 6 11 4 6 -4 -5 -7 -14 -10 -22 -7 -8 3 -19
-4 -25 -16 -9 -17 -9 -23 0 -26 6 -2 11 -8 11 -14 0 -6 -7 -8 -15 -5 -17 7
-30 -9 -15 -18 5 -3 10 -11 10 -16 0 -6 -7 -3 -16 5 -8 9 -18 16 -22 16 -3 0
-1 -5 6 -12 10 -10 7 -15 -10 -26 l-23 -13 23 6 c33 9 27 -3 -10 -20 -20 -9
-23 -12 -9 -9 16 4 21 3 17 -5 -4 -6 -13 -11 -20 -11 -8 0 -20 -8 -27 -17 -13
-17 -13 -17 5 -3 18 14 19 14 7 -7 -8 -15 -17 -20 -29 -16 -14 6 -15 4 -4 -9
10 -12 10 -18 -2 -28 -9 -6 -20 -9 -25 -6 -5 4 -12 2 -16 -4 -4 -6 -11 -8 -16
-5 -5 4 -9 1 -9 -4 0 -14 13 -14 27 0 8 8 13 7 18 -3 5 -7 5 -10 0 -6 -4 4
-20 -2 -36 -13 l-28 -20 -11 21 c-11 20 -40 28 -40 10 0 -5 8 -6 17 -3 15 6
16 5 3 -9 -13 -14 -16 -14 -26 1 -7 9 -10 19 -8 23 9 14 -4 9 -20 -8 -9 -8
-16 -11 -16 -6 0 9 -20 9 -40 2 -3 -1 -9 -2 -14 -1 -5 1 -6 -6 -2 -16 4 -12 1
-11 -10 4 -17 23 -44 31 -44 13 0 -5 8 -6 17 -3 15 6 16 5 3 -9 -13 -14 -16
-14 -26 1 -7 9 -10 19 -8 23 9 14 -4 9 -20 -8 -9 -8 -16 -11 -16 -6 0 9 -20 9
-40 2 -3 -1 -9 -2 -14 -1 -5 1 -6 -6 -2 -16 4 -12 1 -11 -10 4 -17 23 -44 31
-44 13 0 -5 8 -6 17 -3 15 6 16 5 3 -9 -13 -14 -16 -14 -26 1 -7 9 -10 19 -8
23 9 14 -4 9 -20 -8 -9 -8 -16 -11 -16 -6 0 9 -20 9 -40 2 -3 -1 -9 -2 -14 -1
-5 1 -6 -6 -2 -16 4 -12 1 -11 -10 5 -17 22 -44 30 -44 12 0 -5 8 -6 17 -3 15
6 16 5 3 -9 -13 -14 -16 -14 -26 1 -7 9 -10 19 -8 23 9 14 -4 9 -20 -8 -9 -8
-16 -11 -16 -6 0 9 -20 9 -40 2 -3 -1 -9 -2 -14 -1 -5 1 -6 -6 -2 -16 4 -12 1
-11 -10 5 -17 22 -44 30 -44 12 0 -5 8 -6 17 -3 15 6 16 5 3 -9 -13 -14 -16
-14 -26 1 -7 9 -10 19 -8 23 9 14 -4 9 -20 -8 -9 -8 -16 -11 -16 -6 0 11 -18
11 -37 -1 -7 -5 -21 -4 -30 2 -13 7 -23 5 -38 -7 -14 -13 -17 -13 -8 -2 8 11
9 20 1 30 -8 12 -9 12 -4 -2 3 -10 1 -18 -3 -18 -5 0 -18 -3 -28 -7 -15 -6
-16 -4 -5 9 10 13 8 15 -15 11 -24 -3 -25 -2 -8 6 l20 10 -20 1 c-11 2 -27 2
-35 1 -10 0 -11 1 -2 5 6 3 9 11 6 16 -4 7 -2 8 4 4 7 -4 12 -2 12 3 0 6 -8
11 -17 12 -11 0 -13 3 -5 6 6 2 12 9 12 14 0 6 -4 8 -9 5 -11 -7 -9 13 3 33 6
10 5 12 -2 7 -7 -4 -12 -2 -12 3 0 6 6 11 13 11 9 0 9 2 -1 9 -8 4 -13 11 -13
15 3 23 0 36 -9 31 -14 -9 -12 8 3 24 10 11 9 13 -5 8 -10 -3 -20 -1 -24 5 -5
7 -2 8 6 3 10 -6 12 -4 7 9 -4 9 -3 14 2 11 5 -3 13 0 17 6 4 8 3 9 -4 5 -7
-4 -12 -2 -12 4 0 6 -4 9 -9 6 -11 -7 -9 13 2 32 5 7 3 12 -5 12 -9 0 -9 3 2
10 13 8 13 10 0 10 -11 0 -11 3 -2 12 7 7 12 17 12 22 0 6 -5 4 -11 -4 -8 -11
-9 -8 -4 13 3 16 2 26 -2 24 -4 -3 -8 5 -8 18 0 15 4 20 10 15 7 -6 11 -2 11
11 0 11 -5 17 -12 15 -8 -3 -10 3 -7 17 4 18 3 19 -7 7 -10 -13 -11 -13 -7 0
2 8 -3 24 -12 34 -13 16 -10 15 19 -4 l35 -23 -30 33 c-16 18 -24 30 -17 26 7
-4 12 -2 12 6 0 8 -6 20 -12 27 -8 8 -8 11 -2 8 7 -4 14 2 17 13 3 11 1 18 -3
15 -5 -3 -12 0 -16 6 -4 8 -3 9 4 5 16 -10 15 16 0 33 -10 11 -10 13 0 7 7 -4
12 -2 12 6 0 8 -6 20 -12 27 -10 11 -10 13 0 7 7 -4 12 -2 12 6 0 8 -6 20 -12
27 -8 9 -8 11 -2 8 8 -5 11 5 9 32 -2 35 0 38 19 33 21 -4 21 -4 1 12 -11 10
-14 14 -6 10 10 -5 11 -1 6 15 -4 13 -1 29 7 38 7 9 8 14 2 10 -7 -4 -14 0
-18 8 -3 8 -2 14 2 14 21 -3 24 3 7 14 -14 11 -15 16 -5 22 9 6 11 4 5 -6 -6
-11 -5 -11 5 -2 7 6 9 17 4 24 -4 7 -8 23 -9 35 0 15 4 20 15 16 12 -5 13 -3
3 9 -13 17 -1 45 15 35 6 -4 8 2 5 14 -3 11 -10 17 -16 13 -6 -4 -7 -1 -3 6 5
7 15 10 23 6 13 -4 13 -3 4 9 -9 11 -9 15 1 19 10 4 10 8 -2 16 -10 7 -11 11
-2 11 6 0 12 5 12 11 0 5 -5 7 -12 3 -7 -4 -8 -3 -4 4 4 7 15 12 24 12 10 0
13 3 7 8 -5 4 -11 14 -13 22 -3 11 3 9 20 -5 17 -15 19 -16 9 -2 -11 14 -11
20 0 34 12 15 12 16 -3 10 -26 -9 -22 8 5 22 15 8 16 10 3 6 -16 -5 -17 -3 -6
10 10 12 10 15 -1 15 -11 0 -11 2 1 10 13 9 13 11 0 21 -12 9 -11 10 7 6 13
-3 26 0 30 5 3 6 2 9 -3 6 -5 -3 -15 1 -23 9 -12 13 -11 14 7 9 12 -4 23 -2
28 5 4 8 3 9 -4 5 -7 -4 -12 -1 -12 8 0 9 5 16 11 16 5 0 7 6 3 12 -16 26 -11
46 11 43 12 -1 22 4 22 11 0 6 -7 10 -16 7 -9 -2 -5 2 9 10 27 17 29 25 8 39
-9 7 -7 8 9 5 14 -3 20 -1 17 8 -3 7 3 20 12 30 17 17 17 17 -6 11 -17 -5 -21
-4 -11 2 8 6 10 15 5 23 -6 12 -5 11 9 0 15 -12 17 -12 12 2 -4 8 -1 18 6 23
8 4 10 3 5 -4 -11 -18 0 -14 15 5 8 10 9 14 2 10 -6 -4 -14 -3 -18 3 -3 5 -1
10 5 10 6 0 8 5 4 13 -5 7 0 6 11 -3 17 -14 18 -14 7 7 -9 15 -9 24 -1 28 6 4
8 14 5 22 -3 8 -2 12 3 9 4 -3 17 2 27 10 19 15 19 15 -1 10 -19 -6 -19 -5 -2
8 9 7 17 19 17 25 0 7 5 9 10 6 6 -3 10 1 10 10 0 9 5 13 10 10 6 -3 10 -1 10
4 0 6 -4 11 -10 11 -5 0 -10 5 -10 11 0 6 9 9 19 6 15 -4 19 0 16 15 -3 13 0
18 9 15 7 -3 13 1 13 9 0 7 -5 10 -10 7 -6 -3 -7 -1 -3 5 3 5 2 12 -3 14 -5 1
-2 10 7 18 14 13 15 12 10 -2 -4 -10 -1 -19 8 -22 7 -3 13 0 11 7 -1 7 4 11
11 9 8 -1 11 2 7 8 -3 6 -12 8 -18 4 -7 -3 -4 1 5 9 10 8 14 18 10 23 -4 4 0
3 9 -4 12 -9 20 -8 38 4 19 13 20 18 9 32 -11 15 -11 15 4 4 9 -7 19 -9 22 -4
6 11 36 9 55 -3 11 -6 13 -4 8 9 -4 9 -3 14 2 11 5 -3 12 -1 15 4 8 13 36 7
47 -10 8 -10 9 -9 4 8 -3 12 -1 25 6 29 8 4 9 3 5 -4 -4 -7 -1 -12 8 -12 9 0
16 5 16 10 0 6 5 10 11 10 5 0 8 -4 5 -8 -3 -5 1 -9 9 -9 8 0 11 5 8 10 -4 6
5 8 20 5 15 -3 24 -1 21 3 -3 5 0 17 6 26 11 16 11 16 6 1 -3 -10 -1 -20 3
-23 5 -2 12 5 16 18 4 13 8 17 12 9 3 -8 11 -5 24 10 10 13 18 17 19 11 0 -7
-4 -13 -10 -13 -5 0 -10 -5 -10 -11 0 -8 4 -9 13 0 8 6 17 8 20 5 4 -4 5 3 2
15 -3 19 -2 20 18 9 19 -10 20 -9 10 4 -10 12 -10 15 2 15 8 0 15 -5 15 -11 0
-6 5 -4 10 4 8 12 12 13 19 2 7 -11 9 -10 14 3 4 9 3 13 -3 10 -6 -3 -10 -2
-10 2 0 5 9 14 20 20 16 11 21 10 30 -5 11 -16 11 -16 6 2 -5 13 -2 17 8 13
10 -4 14 0 11 13 -2 11 1 23 7 26 7 4 8 2 4 -4 -13 -22 13 -12 30 11 11 14 14
16 11 5 -4 -10 -2 -20 3 -23 9 -6 14 8 11 28 0 4 10 7 24 7 14 0 28 7 31 15 4
8 10 15 15 15 4 0 5 -8 2 -17 -4 -11 1 -9 17 7 l23 23 14 -24 c8 -13 12 -17 9
-8z m-5466 -121 c-14 -9 -7 -14 15 -11 6 1 2 -5 -7 -12 -21 -17 -22 -24 -5
-30 6 -2 5 -3 -3 -3 -9 1 -14 10 -13 24 2 16 -1 20 -15 15 -13 -4 -13 -2 3 10
11 9 25 16 30 17 6 0 3 -5 -5 -10z m5690 -50 c-8 -5 -19 -10 -25 -10 -5 0 -3
5 5 10 8 5 20 10 25 10 6 0 3 -5 -5 -10z m1065 -58 c-3 -3 -11 0 -18 7 -9 10
-8 11 6 5 10 -3 15 -9 12 -12z m-1030 -12 c3 -5 1 -10 -4 -10 -6 0 -11 5 -11
10 0 6 2 10 4 10 3 0 8 -4 11 -10z m-995 -30 c-8 -5 -17 -7 -19 -4 -3 3 1 9 9
14 8 5 17 7 19 4 3 -3 -1 -9 -9 -14z m2018 -15 c-3 -3 -9 2 -12 12 -6 14 -5
15 5 6 7 -7 10 -15 7 -18z m-13 -74 c3 -5 2 -12 -3 -15 -5 -3 -9 1 -9 9 0 17
3 19 12 6z m-6720 -121 c-3 -5 -12 -10 -18 -10 -7 0 -6 4 3 10 19 12 23 12 15
0z m-195 -362 c0 -4 -5 -8 -11 -8 -8 0 -7 -6 2 -17 11 -15 11 -16 -1 -6 -19
17 -21 40 -4 40 8 0 14 -4 14 -9z m37 -173 c0 -8 -4 -15 -9 -15 -10 0 -11 14
-1 23 9 10 10 9 10 -8z m5948 -5 c3 -5 1 -10 -4 -10 -6 0 -11 5 -11 10 0 6 2
10 4 10 3 0 8 -4 11 -10z m-3520 -60 c-3 -5 1 -10 9 -10 9 0 16 6 16 13 0 8 4
7 10 -3 9 -13 11 -13 20 0 5 8 10 10 10 5 0 -6 -5 -16 -10 -23 -6 -6 -7 -10
-3 -7 3 3 15 -3 26 -12 11 -10 17 -12 13 -5 -4 6 -2 12 3 12 6 0 11 5 11 11 0
8 -5 8 -15 -1 -9 -7 -15 -8 -15 -2 0 14 28 23 35 11 4 -5 11 -7 16 -4 8 6 13
-9 10 -28 -1 -5 3 -6 9 -2 6 3 8 10 5 15 -3 5 0 12 6 16 8 4 9 3 5 -4 -4 -7
-2 -12 4 -12 6 0 9 -4 5 -9 -6 -11 28 -7 47 5 7 4 8 3 4 -4 -4 -7 -1 -13 8
-13 32 -3 36 -4 56 -21 11 -10 28 -18 38 -18 14 0 15 -2 2 -10 -13 -8 -13 -10
2 -10 9 0 18 -5 20 -10 2 -6 13 -12 25 -13 12 0 20 -5 17 -9 -3 -4 -12 -5 -22
-2 -13 5 -14 4 -3 -4 7 -5 23 -7 35 -5 17 4 18 3 6 -6 -8 -6 -10 -11 -4 -11 6
0 16 -10 23 -22 9 -19 11 -19 6 -3 -5 18 -4 19 8 3 11 -14 16 -15 27 -5 9 9 9
6 -1 -11 -12 -20 -12 -25 4 -36 10 -8 16 -18 15 -24 -2 -5 2 -10 7 -11 6 -1
10 3 10 8 0 5 4 13 9 18 5 4 6 3 3 -4 -4 -6 1 -19 10 -29 16 -16 16 -17 1 -12
-20 8 -18 -16 2 -35 11 -9 11 -8 0 8 -14 18 -14 19 2 7 10 -8 14 -20 11 -29
-5 -12 -3 -14 8 -8 11 7 11 5 -1 -10 -8 -10 -10 -16 -3 -12 7 4 15 -5 22 -25
14 -39 14 -41 -1 -32 -9 6 -9 3 1 -9 7 -9 11 -23 8 -31 -3 -8 3 -25 14 -38
l20 -23 -15 25 c-11 18 -12 29 -5 40 9 13 10 13 6 0 -2 -8 1 -24 6 -35 14 -25
18 -47 8 -41 -4 3 -7 -6 -7 -19 0 -13 4 -21 9 -18 6 3 8 -5 5 -20 -3 -16 -1
-24 5 -20 6 4 8 -2 5 -15 -4 -12 -2 -20 3 -16 5 3 9 -7 9 -21 0 -18 4 -24 13
-19 6 4 9 4 5 -1 -4 -4 -3 -17 3 -27 8 -15 8 -23 -2 -32 -9 -8 -10 -8 -5 1 4
7 3 20 -2 30 -7 12 -9 8 -8 -18 2 -31 25 -88 26 -63 0 5 -5 15 -10 20 -7 7 -6
11 5 11 8 0 13 -3 10 -5 -3 -3 2 -17 12 -31 12 -19 12 -23 2 -14 -8 7 -20 8
-28 4 -9 -6 -7 -10 8 -14 15 -4 19 -10 14 -23 -5 -13 -3 -15 7 -9 8 5 11 4 6
-3 -4 -6 -12 -9 -20 -6 -7 3 -13 -2 -13 -10 0 -8 4 -13 9 -10 4 3 8 0 8 -6 0
-6 6 -8 13 -4 6 4 4 -2 -6 -13 -9 -11 -14 -23 -10 -26 3 -4 1 -7 -7 -7 -9 0
-10 -3 -1 -13 6 -8 8 -17 4 -21 -4 -4 1 -4 12 0 18 7 19 6 6 -10 -12 -14 -13
-21 -2 -38 7 -11 8 -17 3 -14 -6 3 -12 -1 -16 -9 -3 -8 0 -17 6 -21 7 -5 8 -2
3 6 -6 9 -4 11 5 5 10 -6 7 -13 -11 -27 l-24 -19 25 6 c24 6 24 5 6 -9 -18
-15 -15 -20 9 -17 6 1 2 -5 -7 -12 -16 -13 -16 -15 0 -32 16 -16 15 -16 -13 1
-29 18 -30 18 -15 0 14 -18 14 -19 -8 -7 -13 7 -20 17 -15 24 4 7 0 7 -10 -2
-18 -15 -23 -26 -7 -16 6 3 10 2 10 -4 0 -5 -9 -9 -20 -8 -23 1 -25 8 -7 27
10 12 9 12 -5 1 -10 -7 -25 -11 -33 -7 -9 3 -14 2 -11 -2 2 -4 1 -14 -5 -22
-7 -13 -9 -13 -9 0 0 8 -10 21 -22 29 l-23 14 19 -22 c19 -21 19 -21 1 -15
-14 6 -16 4 -10 -6 5 -9 4 -11 -4 -6 -6 4 -8 13 -4 19 3 7 -4 3 -17 -8 -13
-11 -21 -15 -18 -10 3 6 -1 17 -10 25 -14 13 -15 13 -10 0 3 -8 -1 -21 -9 -29
-13 -12 -14 -11 -8 9 5 14 3 20 -3 16 -6 -3 -12 -3 -15 1 -2 5 -3 3 -2 -2 2
-6 -4 -16 -12 -24 -13 -12 -14 -11 -8 10 7 21 6 22 -9 10 -9 -7 -16 -10 -16
-6 0 5 -8 1 -19 -9 -16 -15 -19 -15 -31 -1 -8 10 -9 15 -1 15 6 0 11 -5 11
-11 0 -5 5 -7 12 -3 9 6 9 9 0 12 -10 3 -10 7 0 20 12 15 11 16 -4 4 -9 -8
-23 -10 -29 -6 -8 5 -9 3 -4 -6 6 -10 4 -12 -8 -7 -9 3 -19 2 -23 -4 -3 -6
-12 -8 -20 -5 -7 3 -16 1 -19 -5 -4 -5 -11 -7 -16 -3 -5 3 -18 0 -27 -7 -14
-11 -15 -11 -4 1 14 16 16 34 3 26 -5 -4 -12 -1 -14 4 -3 6 -4 5 -3 -2 3 -14
-22 -37 -39 -37 -5 0 -2 4 8 10 24 14 22 32 -3 19 -25 -13 -27 5 -2 19 9 6 12
11 5 11 -6 0 -15 -5 -19 -11 -3 -6 -15 -9 -25 -6 -11 3 -17 2 -15 -2 3 -4 1
-13 -5 -21 -7 -13 -9 -13 -9 0 0 8 -10 21 -22 29 l-23 14 19 -22 c19 -21 19
-21 1 -15 -14 6 -16 4 -10 -6 5 -9 4 -11 -4 -6 -6 4 -8 13 -4 19 3 7 -4 3 -17
-8 -13 -11 -21 -15 -18 -10 3 6 -1 17 -10 25 -14 13 -15 13 -10 0 3 -8 -1 -21
-9 -29 -13 -12 -14 -11 -8 9 5 14 3 20 -3 16 -6 -3 -12 -3 -15 1 -2 5 -3 3 -2
-2 2 -6 -4 -16 -12 -24 -13 -12 -14 -11 -8 10 7 21 6 22 -9 10 -9 -7 -16 -10
-16 -6 0 5 -8 1 -19 -9 -16 -15 -19 -15 -31 -1 -8 10 -9 15 -1 15 6 0 11 -5
11 -11 0 -5 5 -7 12 -3 9 6 9 9 0 12 -10 3 -10 7 0 20 12 15 11 16 -4 4 -9 -8
-23 -10 -29 -6 -8 5 -9 3 -4 -6 6 -10 4 -12 -8 -7 -9 3 -19 2 -23 -4 -3 -6
-12 -8 -20 -5 -7 3 -16 1 -19 -5 -4 -5 -11 -7 -16 -3 -5 3 -18 0 -27 -7 -14
-11 -15 -11 -4 1 14 16 16 34 3 26 -5 -4 -12 -1 -14 4 -3 6 -4 5 -3 -2 3 -14
-22 -37 -39 -37 -5 0 -2 4 8 10 24 14 22 32 -3 19 -25 -13 -27 5 -2 19 9 6 12
11 5 11 -6 0 -15 -5 -19 -11 -3 -6 -15 -9 -25 -6 -11 3 -17 2 -15 -2 3 -4 1
-13 -5 -21 -7 -13 -9 -13 -9 0 0 8 -10 21 -22 29 l-23 14 19 -22 c19 -21 19
-21 1 -15 -14 6 -16 4 -10 -6 5 -9 4 -11 -4 -6 -6 4 -8 13 -4 19 3 7 -4 3 -17
-8 -13 -11 -21 -15 -18 -10 3 6 -1 17 -10 25 -14 13 -15 13 -10 0 3 -8 -1 -21
-9 -29 -13 -12 -14 -11 -8 9 5 14 3 20 -3 16 -6 -3 -12 -3 -15 1 -2 5 -3 3 -2
-2 2 -6 -4 -16 -12 -24 -13 -12 -14 -11 -9 6 4 13 2 20 -8 20 -9 0 -13 -5 -9
-10 3 -5 -4 -4 -16 2 -11 7 -21 14 -21 17 0 3 4 2 10 -1 6 -3 7 1 4 9 -3 9 -9
14 -13 11 -4 -2 -8 2 -8 10 0 8 4 12 9 9 4 -3 8 0 8 5 0 6 -6 11 -12 12 -9 0
-9 2 1 6 11 5 11 7 0 14 -12 8 -11 11 1 19 13 9 13 10 0 10 -13 0 -13 1 0 10
13 9 13 11 1 19 -12 8 -12 12 -2 25 11 13 11 16 0 16 -11 0 -11 2 1 10 10 6
11 10 3 10 -7 0 -13 5 -13 11 0 5 6 7 13 3 9 -6 9 -4 1 7 -14 17 -1 59 18 59
7 1 2 7 -12 15 -23 13 -23 14 -5 15 11 1 15 4 8 6 -7 3 -9 12 -6 21 5 12 3 14
-7 8 -9 -5 -11 -4 -6 4 6 9 12 9 24 -1 15 -11 15 -10 -1 14 -14 23 -14 26 -2
22 8 -4 15 -1 15 6 0 6 5 8 13 4 6 -4 3 2 -7 14 -16 18 -16 22 -4 22 14 0 17
25 8 65 -5 21 0 36 10 30 6 -3 10 -1 10 4 0 21 2 26 12 39 7 8 7 12 -1 12 -10
0 -15 -13 -12 -32 0 -4 -6 -5 -15 -1 -12 4 -8 12 18 36 18 16 27 27 21 23 -7
-4 -13 -2 -13 3 0 6 6 11 13 12 9 0 9 2 -1 6 -10 4 -10 8 -1 19 6 8 9 23 6 35
-4 15 -2 19 9 15 10 -4 14 3 14 25 0 21 4 28 13 23 9 -6 9 -4 -1 8 -10 13 -10
18 -1 24 8 5 9 3 4 -6 -5 -8 -4 -11 3 -6 6 4 9 13 6 21 -4 8 -11 12 -17 8 -6
-3 -7 -1 -3 6 6 9 11 9 22 0 12 -10 13 -9 8 5 -4 11 1 19 17 25 21 9 11 16
-14 12 -5 -1 -5 3 -2 9 4 6 14 9 22 5 12 -4 13 -2 5 8 -6 7 -7 18 -3 26 6 9
11 10 15 2 4 -6 2 -11 -5 -11 -7 0 -10 -3 -6 -6 3 -3 14 -1 24 5 10 6 13 11 6
11 -12 0 -12 18 1 39 7 11 10 11 17 0 6 -10 9 -7 9 11 0 20 2 22 10 10 5 -8
10 -10 10 -5 0 6 -6 17 -12 24 -11 11 -10 13 2 9 9 -3 25 1 35 9 19 14 19 15
-5 9 -18 -4 -16 -2 8 9 22 10 32 22 32 37 0 21 0 21 16 2 8 -10 12 -13 8 -5
-5 10 -3 13 9 8 11 -4 14 -2 10 8 -3 8 -10 12 -16 8 -6 -4 -7 -1 -3 6 6 9 13
8 28 -6 20 -18 21 -18 9 4 -10 20 -9 21 15 17 16 -3 23 -1 19 6 -8 13 8 13 22
-1 8 -8 13 -7 18 2 5 8 4 10 -3 5 -16 -10 -15 19 1 31 6 5 24 8 40 7 15 -2 25
1 22 6 -8 13 28 -1 38 -14 5 -6 6 2 3 19 -5 21 -4 26 3 16 7 -12 13 -12 24 -3
7 7 16 9 20 6 3 -3 14 -1 24 5 23 13 26 13 18 1z m-345 -140 c0 -5 -5 -10 -11
-10 -5 0 -7 5 -4 10 3 6 8 10 11 10 2 0 4 -4 4 -10z m3807 -215 c0 -8 -4 -12
-9 -9 -5 3 -6 10 -3 15 9 13 12 11 12 -6z m630 -127 c-3 -8 -6 -5 -6 6 -1 11
2 17 5 13 3 -3 4 -12 1 -19z m-3454 -123 c-3 -9 -8 -14 -10 -11 -3 3 -2 9 2
15 9 16 15 13 8 -4z m17 -29 c0 -3 -4 -8 -10 -11 -5 -3 -10 -1 -10 4 0 6 5 11
10 11 6 0 10 -2 10 -4z m2714 -28 c-3 -5 -10 -5 -16 -2 -7 5 -9 1 -5 -9 4 -11
2 -14 -9 -10 -10 4 -11 9 -4 18 11 13 42 16 34 3z m-5327 -63 c0 -8 -4 -12 -9
-9 -5 3 -6 10 -3 15 9 13 12 11 12 -6z m5273 -49 c0 -2 -7 -7 -16 -10 -8 -3
-12 -2 -9 4 6 10 25 14 25 6z m-86 -145 c3 -5 -1 -11 -9 -14 -9 -4 -12 -1 -8
9 6 16 10 17 17 5z m-2534 -35 c0 -3 -4 -8 -10 -11 -5 -3 -10 -1 -10 4 0 6 5
11 10 11 6 0 10 -2 10 -4z m1335 -46 c3 -5 1 -10 -4 -10 -6 0 -11 5 -11 10 0
6 2 10 4 10 3 0 8 -4 11 -10z m1759 -51 c-3 -5 -10 -7 -15 -3 -5 3 -7 10 -3
15 3 5 10 7 15 3 5 -3 7 -10 3 -15z m-5557 -5 c-3 -3 -12 -4 -19 -1 -8 3 -5 6
6 6 11 1 17 -2 13 -5z m1383 -133 c0 -6 -4 -12 -8 -15 -5 -3 -9 1 -9 9 0 8 4
15 9 15 4 0 8 -4 8 -9z m480 0 c0 -6 -4 -12 -8 -15 -5 -3 -9 1 -9 9 0 8 4 15
9 15 4 0 8 -4 8 -9z m480 0 c0 -6 -4 -12 -8 -15 -5 -3 -9 1 -9 9 0 8 4 15 9
15 4 0 8 -4 8 -9z m-2847 -35 c4 -10 1 -13 -8 -9 -8 3 -12 9 -9 14 7 12 11 11
17 -5z m-2 -69 c-10 -9 -11 -8 -5 6 3 10 9 15 12 12 3 -3 0 -11 -7 -18z m209
-41 c0 -3 -4 -8 -10 -11 -5 -3 -10 -1 -10 4 0 6 5 11 10 11 6 0 10 -2 10 -4z
m160 0 c0 -3 -4 -8 -10 -11 -5 -3 -10 -1 -10 4 0 6 5 11 10 11 6 0 10 -2 10
-4z m160 0 c0 -3 -4 -8 -10 -11 -5 -3 -10 -1 -10 4 0 6 5 11 10 11 6 0 10 -2
10 -4z m160 0 c0 -3 -4 -8 -10 -11 -5 -3 -10 -1 -10 4 0 6 5 11 10 11 6 0 10
-2 10 -4z m160 0 c0 -3 -4 -8 -10 -11 -5 -3 -10 -1 -10 4 0 6 5 11 10 11 6 0
10 -2 10 -4z m160 0 c0 -3 -4 -8 -10 -11 -5 -3 -10 -1 -10 4 0 6 5 11 10 11 6
0 10 -2 10 -4z m120 0 c0 -3 -4 -8 -10 -11 -5 -3 -10 -1 -10 4 0 6 5 11 10 11
6 0 10 -2 10 -4z m240 0 c0 -3 -4 -8 -10 -11 -5 -3 -10 -1 -10 4 0 6 5 11 10
11 6 0 10 -2 10 -4z m240 0 c0 -3 -4 -8 -10 -11 -5 -3 -10 -1 -10 4 0 6 5 11
10 11 6 0 10 -2 10 -4z m240 0 c0 -3 -4 -8 -10 -11 -5 -3 -10 -1 -10 4 0 6 5
11 10 11 6 0 10 -2 10 -4z m240 0 c0 -3 -4 -8 -10 -11 -5 -3 -10 -1 -10 4 0 6
5 11 10 11 6 0 10 -2 10 -4z m240 0 c0 -3 -4 -8 -10 -11 -5 -3 -10 -1 -10 4 0
6 5 11 10 11 6 0 10 -2 10 -4z m240 0 c0 -3 -4 -8 -10 -11 -5 -3 -10 -1 -10 4
0 6 5 11 10 11 6 0 10 -2 10 -4z m240 0 c0 -3 -4 -8 -10 -11 -5 -3 -10 -1 -10
4 0 6 5 11 10 11 6 0 10 -2 10 -4z m240 0 c0 -3 -4 -8 -10 -11 -5 -3 -10 -1
-10 4 0 6 5 11 10 11 6 0 10 -2 10 -4z m240 0 c0 -3 -4 -8 -10 -11 -5 -3 -10
-1 -10 4 0 6 5 11 10 11 6 0 10 -2 10 -4z m240 0 c0 -3 -4 -8 -10 -11 -5 -3
-10 -1 -10 4 0 6 5 11 10 11 6 0 10 -2 10 -4z m200 0 c0 -3 -4 -8 -10 -11 -5
-3 -10 -1 -10 4 0 6 5 11 10 11 6 0 10 -2 10 -4z m160 0 c0 -3 -4 -8 -10 -11
-5 -3 -10 -1 -10 4 0 6 5 11 10 11 6 0 10 -2 10 -4z m160 0 c0 -3 -4 -8 -10
-11 -5 -3 -10 -1 -10 4 0 6 5 11 10 11 6 0 10 -2 10 -4z m160 0 c0 -3 -4 -8
-10 -11 -5 -3 -10 -1 -10 4 0 6 5 11 10 11 6 0 10 -2 10 -4z m160 0 c0 -3 -4
-8 -10 -11 -5 -3 -10 -1 -10 4 0 6 5 11 10 11 6 0 10 -2 10 -4z m160 0 c0 -3
-4 -8 -10 -11 -5 -3 -10 -1 -10 4 0 6 5 11 10 11 6 0 10 -2 10 -4z m160 0 c0
-3 -4 -8 -10 -11 -5 -3 -10 -1 -10 4 0 6 5 11 10 11 6 0 10 -2 10 -4z m160 0
c0 -3 -4 -8 -10 -11 -5 -3 -10 -1 -10 4 0 6 5 11 10 11 6 0 10 -2 10 -4z m160
0 c0 -3 -4 -8 -10 -11 -5 -3 -10 -1 -10 4 0 6 5 11 10 11 6 0 10 -2 10 -4z
m160 0 c0 -3 -4 -8 -10 -11 -5 -3 -10 -1 -10 4 0 6 5 11 10 11 6 0 10 -2 10
-4z m160 0 c0 -3 -4 -8 -10 -11 -5 -3 -10 -1 -10 4 0 6 5 11 10 11 6 0 10 -2
10 -4z m160 0 c0 -3 -4 -8 -10 -11 -5 -3 -10 -1 -10 4 0 6 5 11 10 11 6 0 10
-2 10 -4z m160 0 c0 -3 -4 -8 -10 -11 -5 -3 -10 -1 -10 4 0 6 5 11 10 11 6 0
10 -2 10 -4z m160 0 c0 -3 -4 -8 -10 -11 -5 -3 -10 -1 -10 4 0 6 5 11 10 11 6
0 10 -2 10 -4z m160 0 c0 -3 -4 -8 -10 -11 -5 -3 -10 -1 -10 4 0 6 5 11 10 11
6 0 10 -2 10 -4z m160 0 c0 -3 -4 -8 -10 -11 -5 -3 -10 -1 -10 4 0 6 5 11 10
11 6 0 10 -2 10 -4z"/>
<path d="M5270 4901 c0 -6 4 -13 10 -16 6 -3 7 1 4 9 -7 18 -14 21 -14 7z"/>
<path d="M5245 4890 c-3 -5 -1 -10 4 -10 6 0 11 5 11 10 0 6 -2 10 -4 10 -3 0
-8 -4 -11 -10z"/>
<path d="M5602 4674 c-14 -16 -5 -18 17 -5 7 5 9 11 5 14 -5 3 -15 -1 -22 -9z"/>
<path d="M5536 4642 c-2 -4 -1 -14 4 -22 7 -11 9 -9 7 8 -1 24 -3 26 -11 14z"/>
<path d="M5085 2730 c-3 -5 -1 -10 4 -10 6 0 11 5 11 10 0 6 -2 10 -4 10 -3 0
-8 -4 -11 -10z"/>
<path d="M5000 2700 c-6 -11 -8 -20 -6 -20 3 0 10 9 16 20 6 11 8 20 6 20 -3
0 -10 -9 -16 -20z"/>
<path d="M5950 2600 c0 -5 5 -10 11 -10 5 0 7 5 4 10 -3 6 -8 10 -11 10 -2 0
-4 -4 -4 -10z"/>
<path d="M4786 2438 c3 -5 10 -6 15 -3 13 9 11 12 -6 12 -8 0 -12 -4 -9 -9z"/>
<path d="M6010 2219 c0 -5 5 -7 10 -4 6 3 10 8 10 11 0 2 -4 4 -10 4 -5 0 -10
-5 -10 -11z"/>
<path d="M4646 2162 c-3 -5 1 -9 9 -9 8 0 15 4 15 9 0 4 -4 8 -9 8 -6 0 -12
-4 -15 -8z"/>
<path d="M6015 2109 c-4 -6 -5 -12 -2 -15 2 -3 7 2 10 11 7 17 1 20 -8 4z"/>
<path d="M5955 1620 c-3 -5 -1 -10 4 -10 6 0 11 5 11 10 0 6 -2 10 -4 10 -3 0
-8 -4 -11 -10z"/>
<path d="M4506 1492 c-3 -5 1 -9 9 -9 8 0 12 4 9 9 -3 4 -7 8 -9 8 -2 0 -6 -4
-9 -8z"/>
<path d="M5910 1379 c0 -5 5 -7 10 -4 6 3 10 8 10 11 0 2 -4 4 -10 4 -5 0 -10
-5 -10 -11z"/>
<path d="M4706 708 c3 -5 10 -6 15 -3 13 9 11 12 -6 12 -8 0 -12 -4 -9 -9z"/>
<path d="M4865 710 c-3 -6 1 -7 9 -4 18 7 21 14 7 14 -6 0 -13 -4 -16 -10z"/>
<path d="M5025 710 c-3 -6 1 -7 9 -4 18 7 21 14 7 14 -6 0 -13 -4 -16 -10z"/>
<path d="M5185 710 c-3 -6 1 -7 9 -4 18 7 21 14 7 14 -6 0 -13 -4 -16 -10z"/>
<path d="M5345 710 c-3 -6 1 -7 9 -4 18 7 21 14 7 14 -6 0 -13 -4 -16 -10z"/>
<path d="M5506 712 c-2 -4 -1 -14 3 -21 6 -9 11 -10 15 -2 4 6 2 11 -4 11 -6
0 -8 5 -5 10 3 6 4 10 1 10 -3 0 -7 -4 -10 -8z"/>
<path d="M2452 1858 c-9 -12 -8 -14 8 -13 11 1 22 4 26 7 3 4 13 4 22 1 14 -5
15 -3 5 7 -10 10 -15 11 -27 1 -10 -9 -15 -9 -18 0 -3 8 -7 7 -16 -3z"/>
<path d="M2325 1830 c-3 -5 -1 -10 4 -10 6 0 11 5 11 10 0 6 -2 10 -4 10 -3 0
-8 -4 -11 -10z"/>
<path d="M2356 1832 c-3 -5 1 -9 9 -9 8 0 12 4 9 9 -3 4 -7 8 -9 8 -2 0 -6 -4
-9 -8z"/>
<path d="M2756 1809 c3 -5 10 -7 15 -4 5 4 9 1 9 -4 0 -6 5 -11 12 -11 9 0 9
3 0 12 -14 14 -44 20 -36 7z"/>
<path d="M3055 1480 c-3 -5 -1 -10 4 -10 6 0 11 5 11 10 0 6 -2 10 -4 10 -3 0
-8 -4 -11 -10z"/>
<path d="M3160 1026 c7 -7 13 -7 20 0 6 6 3 10 -10 10 -13 0 -16 -4 -10 -10z"/>
<path d="M2010 721 c0 -6 4 -13 10 -16 6 -3 7 1 4 9 -7 18 -14 21 -14 7z"/>
<path d="M2250 721 c0 -7 -4 -9 -10 -6 -5 3 -10 2 -10 -4 0 -5 4 -12 9 -15 10
-6 25 24 16 32 -3 3 -5 0 -5 -7z"/>
<path d="M2490 721 c0 -6 4 -13 10 -16 6 -3 7 1 4 9 -7 18 -14 21 -14 7z"/>
<path d="M2730 721 c0 -7 -4 -9 -10 -6 -5 3 -10 2 -10 -4 0 -5 4 -12 9 -15 10
-6 25 24 16 32 -3 3 -5 0 -5 -7z"/>
<path d="M2970 721 c0 -6 4 -13 10 -16 6 -3 7 1 4 9 -7 18 -14 21 -14 7z"/>
<path d="M2376 712 c-3 -5 1 -9 9 -9 8 0 12 4 9 9 -3 4 -7 8 -9 8 -2 0 -6 -4
-9 -8z"/>
<path d="M2856 712 c-3 -5 1 -9 9 -9 8 0 12 4 9 9 -3 4 -7 8 -9 8 -2 0 -6 -4
-9 -8z"/>
<path d="M5042 6429 c23 -18 38 -16 38 4 0 7 -4 6 -10 -3 -8 -13 -14 -8 -12
10 0 3 -8 6 -19 6 -19 0 -18 -1 3 -17z"/>
<path d="M3204 5922 c3 -5 0 -13 -6 -15 -9 -4 -10 -6 -1 -6 17 -1 25 16 12 25
-7 4 -9 3 -5 -4z"/>
<path d="M3135 5840 c-3 -6 1 -7 9 -4 18 7 21 14 7 14 -6 0 -13 -4 -16 -10z"/>
<path d="M2914 5799 c-4 -7 -3 -9 4 -5 5 3 13 0 15 -6 4 -9 6 -10 6 -1 1 17
-16 25 -25 12z"/>
<path d="M2968 5796 c-19 -14 -23 -26 -10 -26 4 0 13 9 20 20 14 23 13 24 -10
6z"/>
<path d="M2607 5759 c7 -7 15 -10 18 -7 3 3 -2 9 -12 12 -14 6 -15 5 -6 -5z"/>
<path d="M2390 5720 c0 -5 5 -10 11 -10 5 0 7 5 4 10 -3 6 -8 10 -11 10 -2 0
-4 -4 -4 -10z"/>
<path d="M2130 5626 c0 -2 7 -7 16 -10 8 -3 12 -2 9 4 -6 10 -25 14 -25 6z"/>
<path d="M6341 5394 c0 -11 3 -14 6 -6 3 7 2 16 -1 19 -3 4 -6 -2 -5 -13z"/>
<path d="M1431 5273 c-7 -8 -11 -16 -8 -19 2 -2 10 2 17 11 17 20 9 27 -9 8z"/>
<path d="M1393 5255 c0 -8 4 -12 9 -9 5 3 6 10 3 15 -9 13 -12 11 -12 -6z"/>
<path d="M6547 5055 c-6 -15 10 -32 20 -21 4 3 1 6 -5 6 -6 0 -9 7 -6 15 4 8
4 15 1 15 -3 0 -7 -7 -10 -15z"/>
<path d="M877 4827 c-10 -26 8 -29 29 -4 14 15 14 18 2 9 -13 -10 -17 -10 -20
0 -3 8 -6 6 -11 -5z"/>
<path d="M816 4735 c-8 -9 -18 -16 -21 -15 -5 0 -6 -13 -1 -17 1 -2 13 8 26
22 25 27 22 35 -4 10z"/>
<path d="M710 4619 c0 -5 5 -7 10 -4 6 3 10 8 10 11 0 2 -4 4 -10 4 -5 0 -10
-5 -10 -11z"/>
<path d="M6750 4558 c0 -4 4 -8 9 -8 6 0 12 4 15 8 3 5 -1 9 -9 9 -8 0 -15 -4
-15 -9z"/>
<path d="M500 4330 c-8 -5 -12 -12 -9 -15 4 -3 12 1 19 10 14 17 11 19 -10 5z"/>
<path d="M6868 4223 c-8 -16 -3 -36 10 -39 7 -1 8 0 2 3 -8 3 -8 9 0 18 7 8 7
15 1 19 -5 4 -11 3 -13 -1z"/>
<path d="M283 3958 c3 -9 1 -19 -6 -22 -9 -3 -9 -5 0 -5 18 -1 23 13 11 29 -8
12 -9 12 -5 -2z"/>
<path d="M6923 3917 c0 -8 6 -14 13 -14 7 0 10 6 7 14 -3 7 -8 13 -12 13 -4 0
-8 -6 -8 -13z"/>
<path d="M194 2703 c-10 -15 -22 -34 -27 -40 -6 -8 -6 -13 1 -13 6 0 14 9 17
20 3 11 11 20 16 20 6 0 8 -4 4 -9 -8 -14 15 -25 28 -12 7 7 6 12 -7 17 -12 5
-14 10 -6 19 7 9 8 15 1 19 -6 4 -18 -6 -27 -21z"/>
<path d="M190 2640 c0 -5 7 -7 15 -4 8 4 15 8 15 10 0 2 -7 4 -15 4 -8 0 -15
-4 -15 -10z"/>
<path d="M148 2443 c7 -3 16 -2 19 1 4 3 -2 6 -13 5 -11 0 -14 -3 -6 -6z"/>
<path d="M201 2391 c-8 -5 -9 -11 -3 -15 5 -3 12 1 16 9 6 17 6 18 -13 6z"/>
<path d="M130 2359 c0 -5 5 -7 10 -4 6 3 10 8 10 11 0 2 -4 4 -10 4 -5 0 -10
-5 -10 -11z"/>
<path d="M6900 2235 c-9 -10 -9 -15 -1 -15 6 0 11 5 11 11 0 5 5 7 12 3 7 -4
8 -3 4 4 -9 15 -11 15 -26 -3z"/>
<path d="M110 1939 c0 -5 5 -7 10 -4 6 3 10 8 10 11 0 2 -4 4 -10 4 -5 0 -10
-5 -10 -11z"/>
<path d="M6776 1802 c-2 -4 -1 -14 3 -21 6 -10 10 -9 14 3 6 16 -8 32 -17 18z"/>
<path d="M6525 1230 c-3 -5 -1 -10 4 -10 6 0 11 5 11 10 0 6 -2 10 -4 10 -3 0
-8 -4 -11 -10z"/>
<path d="M6531 1194 c0 -11 3 -14 6 -6 3 7 2 16 -1 19 -3 4 -6 -2 -5 -13z"/>
<path d="M596 1025 c4 -8 11 -15 16 -15 6 0 5 6 -2 15 -7 8 -14 15 -16 15 -2
0 -1 -7 2 -15z"/>
<path d="M693 865 c0 -8 4 -12 9 -9 5 3 6 10 3 15 -9 13 -12 11 -12 -6z"/>
<path d="M6260 721 c0 -7 -5 -9 -12 -5 -7 5 -8 3 -3 -5 5 -9 10 -10 18 -2 6 6
8 14 4 18 -4 3 -7 1 -7 -6z"/>
<path d="M385 710 c-3 -6 1 -7 9 -4 18 7 21 14 7 14 -6 0 -13 -4 -16 -10z"/>
<path d="M545 710 c-3 -6 1 -7 9 -4 18 7 21 14 7 14 -6 0 -13 -4 -16 -10z"/>
</g>
</svg>
