<svg xmlns="http://www.w3.org/2000/svg" width="1313" height="375" viewBox="0 0 1313 375">
    <defs>
        <linearGradient id="a" x1="53.659%" x2="69.082%" y1="55.452%" y2="102.726%">
            <stop offset="0%" stop-color="#FFF"/>
            <stop offset="100%" stop-color="#FFF" stop-opacity=".45"/>
        </linearGradient>
    </defs>
    <g fill="none" fill-rule="evenodd" transform="translate(2 2)">
        <g stroke="#FFF" stroke-width="4" opacity=".7">
            <path stroke-linecap="round" stroke-linejoin="round" d="M39.686 52c-15.464 0-28 12.536-28 28M1269.686 52c15.464 0 28 12.536 28 28M39.686 359c-15.464 0-28-12.536-28-28M1269.686 359c15.464 0 28-12.536 28-28M1297.686 80v251M1269.686 359h-1230"/>
            <path d="M11.686 331V80"/>
            <path stroke-linecap="round" d="M1309 118l-11.314 11.314L1286.373 118M23.314 125.314L12 114 .686 125.314M656.686 370.314L645.373 359l11.313-11.314"/>
        </g>
        <circle cx="1136.686" cy="52" r="10" stroke="#FFF" stroke-width="4"/>
        <g fill="#FFF" fill-rule="nonzero">
            <path d="M170.686 63.94c-6.594 0-11.94-5.346-11.94-11.94 0-6.594 5.346-11.94 11.94-11.94 6.595 0 11.94 5.346 11.94 11.94-.033 6.58-5.36 11.907-11.94 11.94zm0-19.88a7.94 7.94 0 1 0 7.94 7.94 7.95 7.95 0 0 0-7.94-7.94z" opacity=".35"/>
            <path d="M180.626 54a2 2 0 0 1-2-2 8 8 0 0 0-7.94-7.94 2 2 0 1 1 0-4c6.58.033 11.907 5.36 11.94 11.94a2 2 0 0 1-2 2z"/>
        </g>
        <g fill="#FFF" fill-rule="nonzero">
            <path d="M492.686 63.94c-6.594 0-11.94-5.346-11.94-11.94 0-6.594 5.346-11.94 11.94-11.94 6.595 0 11.94 5.346 11.94 11.94-.033 6.58-5.36 11.907-11.94 11.94zm0-19.88a7.94 7.94 0 1 0 7.94 7.94 7.95 7.95 0 0 0-7.94-7.94z" opacity=".35"/>
            <path d="M492.686 63.94a2 2 0 1 1 0-4 7.94 7.94 0 0 0 0-15.88 2 2 0 1 1 0-4c6.595 0 11.94 5.346 11.94 11.94 0 6.594-5.345 11.94-11.94 11.94z"/>
        </g>
        <g fill-rule="nonzero">
            <path fill="#FFF" d="M814.686 63.94c-6.594 0-11.94-5.346-11.94-11.94 0-6.594 5.346-11.94 11.94-11.94 6.595 0 11.94 5.346 11.94 11.94-.033 6.58-5.36 11.907-11.94 11.94zm0-19.88a7.94 7.94 0 1 0 7.94 7.94 7.95 7.95 0 0 0-7.94-7.94z" opacity=".35"/>
            <path fill="#FFF" d="M814.686 63.94c-6.58-.033-11.907-5.36-11.94-11.94a2 2 0 1 1 4 0 7.94 7.94 0 1 0 7.94-7.94 2 2 0 1 1 0-4c6.595 0 11.94 5.346 11.94 11.94 0 6.594-5.345 11.94-11.94 11.94z"/>
            <path fill="url(#a)" d="M21.94 14a2 2 0 0 1-2-2A8 8 0 0 0 12 4.06a2 2 0 1 1 0-4C18.58.093 23.907 5.42 23.94 12a2 2 0 0 1-2 2z" transform="translate(802.686 40)"/>
        </g>
        <g fill="#FFF" fill-rule="nonzero">
            <circle cx="90" cy="90" r="90" opacity=".2" transform="translate(81 129)"/>
            <path d="M235.19 196.34a16.24 16.24 0 0 0-15.46 21.24l-18.3 10.69a16.18 16.18 0 0 0-21.1-2.37l-18.53-18.15a37.28 37.28 0 0 0 3.09-4.5c9.786-16.797 4.469-38.33-12.01-48.64-16.48-10.312-38.17-5.677-48.996 10.468-10.827 16.146-6.88 37.97 8.916 49.302l-6.28 10.81-3.23-1.87a3.5 3.5 0 0 0-4.79 1.26l-14.69 25.31a3.5 3.5 0 0 0 1.26 4.79L97.6 262a3.52 3.52 0 0 0 1.76.47 3.8 3.8 0 0 0 .89-.11 3.5 3.5 0 0 0 2.13-1.63l14.7-25.31a3.49 3.49 0 0 0-1.27-4.78l-3.23-1.88 6.28-10.83a35.47 35.47 0 0 0 14.88 3.28A36.3 36.3 0 0 0 143 220a35.79 35.79 0 0 0 13.9-7.2l18.65 18.2a16.15 16.15 0 0 0 1.34 18.46l-13.74 17.24A16 16 0 0 0 156 265a16.27 16.27 0 1 0 12.63 6l13.74-17.2A16.22 16.22 0 0 0 205 234.31l18.3-10.7a16.24 16.24 0 1 0 11.91-27.27h-.02zm-137.1 57.8l-6.47-3.76 11.18-19.25 6.47 3.75-11.18 19.26zm21.17-43.91a28.93 28.93 0 1 1 37.51-7.42l-5.77-5.64c6.292-9.008 4.63-21.336-3.823-28.356-8.454-7.02-20.877-6.389-28.576 1.451-7.699 7.84-8.104 20.273-.931 28.597 7.172 8.325 19.528 9.763 28.42 3.308l5.77 5.65a29 29 0 0 1-32.6 2.41zm14.54-11c-7.732 0-14-6.268-14-14s6.268-14 14-14 14 6.268 14 14c-.028 7.712-6.287 13.95-14 13.95v.05zm22.2 91.29a9.25 9.25 0 1 1 9.25-9.25 9.26 9.26 0 0 1-9.25 9.25zm33.52-42a9.25 9.25 0 1 1 9.25-9.25 9.26 9.26 0 0 1-9.25 9.27v-.02zm45.67-26.7a9.25 9.25 0 1 1 9.25-9.25 9.25 9.25 0 0 1-9.25 9.27v-.02zM237.62 259.56a3.48 3.48 0 0 0-4.94 0l-7 7-7-7a3.5 3.5 0 1 0-4.95 4.95l7 7-7 7a3.5 3.5 0 1 0 4.95 4.94l7-7 7 7a3.48 3.48 0 0 0 4.94 0 3.48 3.48 0 0 0 0-4.94l-7-7 7-7a3.49 3.49 0 0 0 0-4.95z"/>
            <path d="M186.57 183.46a3.51 3.51 0 0 0 5 0l7-7 7 7a3.518 3.518 0 0 0 4.95-5l-7-7 7-7a3.518 3.518 0 1 0-4.95-5l-7 7-7-7a3.536 3.536 0 0 0-5 5l7 7-7 7a3.49 3.49 0 0 0 0 5z"/>
        </g>
        <g fill="#FFF" fill-rule="nonzero">
            <circle cx="90" cy="90" r="90" opacity=".2" transform="translate(725 129)"/>
            <path d="M899.8 155.93l-19.24-17.49a3.5 3.5 0 0 0-4.94.24L864.41 151 804 217.5h-59.37a3.5 3.5 0 0 0-3.5 3.5v71a3.5 3.5 0 0 0 3.5 3.5h83.87a3.5 3.5 0 1 0 0-7h-80.37v-64h49.51l-.56.62-.08.08a2.69 2.69 0 0 0-.2.27 2.4 2.4 0 0 0-.19.29 1.55 1.55 0 0 0-.14.29 2.13 2.13 0 0 0-.14.35v.09l-8.45 28.63a3.51 3.51 0 0 0 3.36 4.49 3.56 3.56 0 0 0 1.31-.26l27.69-11.14h.09l.32-.17.29-.17.25-.2.27-.25.06-.05 78.48-86.5a3.49 3.49 0 0 0-.2-4.94zM818.67 240l-14.06-12.76 62.63-68.93 14.06 12.78L818.67 240zm-17.23-6.2l11 10-15.8 6.36 4.8-16.36zM886 165.91l-14.06-12.78 6.51-7.13 14.06 12.77-6.51 7.14z"/>
            <path d="M744.63 195.23h57.75a3.5 3.5 0 0 0 3.5-3.5V146a3.5 3.5 0 0 0-3.5-3.5h-57.75a3.5 3.5 0 0 0-3.5 3.5v45.73a3.5 3.5 0 0 0 3.5 3.5zm3.5-7v-7.32l11-7.84 14 9a3.49 3.49 0 0 0 4-.17l21.75-16.69v23l-50.75.02zm50.75-38.75v6.9l-24 18.45L761 165.9a3.52 3.52 0 0 0-4 .1l-8.9 6.32v-22.84h50.78z"/>
            <path d="M772.58 163.54a3.94 3.94 0 1 0-2.08-5.17 3.93 3.93 0 0 0 2.08 5.17zM774.5 247.07a3.5 3.5 0 1 0 0-7H760a3.5 3.5 0 0 0-3.5 3.5v27.86a3.5 3.5 0 0 0 3.5 3.5h55.5a3.5 3.5 0 1 0 0-7h-52v-20.86h11zM889.92 243.61l-14 .64-8.48-11.18a3.5 3.5 0 0 0-6.16 1.19l-3.72 13.53-13.25 4.6a3.5 3.5 0 0 0-.78 6.23l11.72 7.72.28 14a3.49 3.49 0 0 0 2 3.09c.462.221.968.334 1.48.33a3.55 3.55 0 0 0 2.19-.76l11-8.76 13.42 4.06a3.49 3.49 0 0 0 4.29-4.58l-4.94-13.13 8-11.51a3.5 3.5 0 0 0-3-5.5l-.05.03zm-12.18 17.76l3.09 8.21-8.4-2.54a3.48 3.48 0 0 0-3.2.61l-6.85 5.48-.18-8.77a3.53 3.53 0 0 0-1.58-2.86l-7.33-4.82 8.29-2.88a3.5 3.5 0 0 0 2.23-2.38l2.33-8.46 5.3 7a3.43 3.43 0 0 0 2.95 1.38l8.77-.4-5 7.2a3.53 3.53 0 0 0-.42 3.23z"/>
        </g>
        <g fill="#FFF" fill-rule="nonzero">
            <circle cx="90" cy="90" r="90" opacity=".2" transform="translate(403 129)"/>
            <path d="M561 233.2a3.5 3.5 0 0 0-4.92.58l-6 7.63a25.65 25.65 0 0 0-42 16.05h-9.8l-7.57-7.46a3.002 3.002 0 1 0-4.25 4.24l3.21 3.2h-14.6v-24.2a3.5 3.5 0 0 0-3.5-3.5H452.9v-16.66l7.45-7.45a3.002 3.002 0 1 0-4.24-4.25l-3.21 3.21v-20.4a13.22 13.22 0 0 0 9.2-9.19h14.52l7.45 7.45a3 3 0 0 0 4.24 0 3 3 0 0 0 0-4.24L485.1 175h21.69v32.57a3.49 3.49 0 0 0 3.5 3.5h44.35a3.5 3.5 0 0 0 3.5-3.5v-64.34a3.5 3.5 0 0 0-3.5-3.5h-44.35a3.5 3.5 0 0 0-3.5 3.5V168H485.1l3.21-3.2a3.002 3.002 0 0 0-4.24-4.25l-7.45 7.45H462.1a13.18 13.18 0 1 0-16.2 16.19v20.4l-3.21-3.21a3.002 3.002 0 0 0-4.24 4.25l7.45 7.45v16.68h-18.68a3.5 3.5 0 0 0-3.5 3.5v56.51a3.5 3.5 0 0 0 3.5 3.5h44.35a3.5 3.5 0 0 0 3.5-3.5v-25.31h14.6l-3.21 3.21a3.002 3.002 0 0 0 4.25 4.24l7.45-7.45H508a25.67 25.67 0 1 0 46.78-17.75l6.79-8.59a3.51 3.51 0 0 0-.57-4.92zm-47.21-86.47h37.35v57.34h-37.35V175h6a13.19 13.19 0 1 0 0-7h-6v-21.27zm12.48 24.75a6.19 6.19 0 1 1 6.19 6.19 6.2 6.2 0 0 1-6.19-6.19zm-83.06 0a6.19 6.19 0 1 1 6.19 6.19 6.2 6.2 0 0 1-6.19-6.19zm24.86 65.28v20.7h-6a13.21 13.21 0 0 0-9.2-9.2v-11.5h15.2zm-18.67 18a6.2 6.2 0 1 1-6.19 6.24 6.2 6.2 0 0 1 6.19-6.23v-.01zm18.67 31.5h-37.35v-49.5h15.18v11.5a13.18 13.18 0 1 0 16.2 16.2h6l-.03 21.8zm84-25.31a18.74 18.74 0 1 1-6.42-14.05l-13.37 16.92-5.57-4.4a3.5 3.5 0 1 0-4.34 5.49l8.32 6.57a3.46 3.46 0 0 0 2.17.76 3.49 3.49 0 0 0 2.74-1.33l14.47-18.31a18.492 18.492 0 0 1 2 8.4v-.05z"/>
        </g>
        <g fill="#FFF" fill-rule="nonzero">
            <circle cx="90" cy="90" r="90" opacity=".2" transform="translate(1047 129)"/>
            <path d="M1129.5 201.32v-27.79h2.5a3.5 3.5 0 0 0 3.5-3.53v-21.09a3.5 3.5 0 0 0-3.5-3.5h-48.44a3.5 3.5 0 0 0-3.5 3.5V170a3.5 3.5 0 0 0 3.5 3.5h2.5v27.82c-20.917 10.126-32.057 33.367-26.85 56.015 5.206 22.649 25.377 38.69 48.617 38.666 23.239-.025 43.375-16.111 48.533-38.771.23-.467.35-.98.35-1.5v-.1c4.296-22.18-6.873-44.472-27.21-54.31zm-42.44-48.91h41.44v14.12h-41.44v-14.12zm3.87 54.37a3.49 3.49 0 0 0 2.13-3.21v-30h29.44v6.23H1112a3.5 3.5 0 0 0 0 7h10.5v6.2H1112a3.5 3.5 0 0 0 0 7h10.5v3.57a3.48 3.48 0 0 0 2.12 3.21 42.81 42.81 0 0 1 25.8 43.52c-.4-.36-.79-.73-1.16-1.08-4-3.78-10.11-9.5-21.46-9.5-10.41 0-16.41 4.21-21.71 7.93-4.64 3.26-8.64 6.07-15.39 6.07-7.61 0-11.46-4-15.54-8.22-2.77-2.88-5.62-5.82-9.52-6.92a42.84 42.84 0 0 1 25.29-31.8zm16.85 82.22c-23.647-.022-42.812-19.183-42.84-42.83v-.35a24.61 24.61 0 0 1 5.16 4.53c4.21 4.37 10 10.36 20.57 10.36 9 0 14.51-3.9 19.41-7.34s9.49-6.66 17.69-6.66c8.58 0 12.87 4 16.66 7.6A26.69 26.69 0 0 0 1149 258c-5.301 18.361-22.109 31.002-41.22 31z"/>
            <path d="M1083.09 264.42a4 4 0 1 0 0 8 4 4 0 0 0 0-8zM1111.82 271a4 4 0 1 0 .1 8 4 4 0 0 0-.1-8zM1130 255.62a4 4 0 1 0 0 8 4 4 0 0 0 0-8zM1195 266.7a4 4 0 1 0 0-8 4 4 0 0 0 0 8zM1195 216.72a4 4 0 1 0 0-8 4 4 0 0 0 0 8z"/>
            <path d="M1211.24 155.4h-45.48a3.5 3.5 0 0 0-3.5 3.5v17.77a3.5 3.5 0 0 0 3.5 3.5h1.24V267c0 11.902 9.648 21.55 21.55 21.55 11.902 0 21.55-9.648 21.55-21.55v-86.83h1.19a3.5 3.5 0 0 0 3.5-3.5V158.9a3.5 3.5 0 0 0-3.55-3.5zm-42 7h38.48v10.77h-38.46l-.02-10.77zm33.79 25.77H1195a3.5 3.5 0 1 0 0 7h8.05V267c0 8.036-6.514 14.55-14.55 14.55-8.036 0-14.55-6.514-14.55-14.55v-86.83h29.1l-.02 8z"/>
            <path d="M1184.5 254.91a3.5 3.5 0 0 0 3.5-3.5v-24a3.5 3.5 0 1 0-7 0v24a3.5 3.5 0 0 0 3.5 3.5z"/>
        </g>
        <circle cx="448.686" cy="52" r="4" fill="#FFF" opacity=".35"/>
        <circle cx="876.686" cy="52" r="4" fill="#FFF" opacity=".35"/>
        <circle cx="72.686" cy="52" r="4" fill="#FFF" opacity=".35"/>
        <circle cx="54.686" cy="52" r="4" fill="#FFF" opacity=".35"/>
        <circle cx="466.686" cy="52" r="4" fill="#FFF" opacity=".35"/>
        <circle cx="894.686" cy="52" r="4" fill="#FFF" opacity=".35"/>
        <circle cx="90.686" cy="52" r="4" fill="#FFF" opacity=".35"/>
        <circle cx="518.686" cy="52" r="4" fill="#FFF" opacity=".35"/>
        <circle cx="912.686" cy="52" r="4" fill="#FFF" opacity=".35"/>
        <circle cx="108.686" cy="52" r="4" fill="#FFF" opacity=".35"/>
        <circle cx="536.686" cy="52" r="4" fill="#FFF" opacity=".35"/>
        <circle cx="930.686" cy="52" r="4" fill="#FFF" opacity=".35"/>
        <circle cx="126.686" cy="52" r="4" fill="#FFF" opacity=".35"/>
        <circle cx="554.686" cy="52" r="4" fill="#FFF" opacity=".35"/>
        <circle cx="948.686" cy="52" r="4" fill="#FFF" opacity=".35"/>
        <circle cx="144.686" cy="52" r="4" fill="#FFF" opacity=".35"/>
        <circle cx="572.686" cy="52" r="4" fill="#FFF" opacity=".35"/>
        <circle cx="966.686" cy="52" r="4" fill="#FFF" opacity=".35"/>
        <circle cx="196.686" cy="52" r="4" fill="#FFF" opacity=".35"/>
        <circle cx="590.686" cy="52" r="4" fill="#FFF" opacity=".35"/>
        <circle cx="984.686" cy="52" r="4" fill="#FFF" opacity=".35"/>
        <circle cx="214.686" cy="52" r="4" fill="#FFF" opacity=".35"/>
        <circle cx="608.686" cy="52" r="4" fill="#FFF" opacity=".35"/>
        <circle cx="1002.686" cy="52" r="4" fill="#FFF" opacity=".35"/>
        <circle cx="232.686" cy="52" r="4" fill="#FFF" opacity=".35"/>
        <circle cx="626.686" cy="52" r="4" fill="#FFF" opacity=".35"/>
        <circle cx="1020.686" cy="52" r="4" fill="#FFF" opacity=".35"/>
        <circle cx="250.686" cy="52" r="4" fill="#FFF" opacity=".35"/>
        <circle cx="644.686" cy="52" r="4" fill="#FFF" opacity=".35"/>
        <circle cx="1038.686" cy="52" r="4" fill="#FFF" opacity=".35"/>
        <circle cx="268.686" cy="52" r="4" fill="#FFF" opacity=".35"/>
        <circle cx="662.686" cy="52" r="4" fill="#FFF" opacity=".35"/>
        <circle cx="1056.686" cy="52" r="4" fill="#FFF" opacity=".35"/>
        <circle cx="286.686" cy="52" r="4" fill="#FFF" opacity=".35"/>
        <circle cx="680.686" cy="52" r="4" fill="#FFF" opacity=".35"/>
        <circle cx="1074.686" cy="52" r="4" fill="#FFF" opacity=".35"/>
        <circle cx="304.686" cy="52" r="4" fill="#FFF" opacity=".35"/>
        <circle cx="698.686" cy="52" r="4" fill="#FFF" opacity=".35"/>
        <circle cx="1092.686" cy="52" r="4" fill="#FFF" opacity=".35"/>
        <circle cx="322.686" cy="52" r="4" fill="#FFF" opacity=".35"/>
        <circle cx="716.686" cy="52" r="4" fill="#FFF" opacity=".35"/>
        <circle cx="1110.686" cy="52" r="4" fill="#FFF" opacity=".35"/>
        <circle cx="340.686" cy="52" r="4" fill="#FFF" opacity=".35"/>
        <circle cx="734.686" cy="52" r="4" fill="#FFF" opacity=".35"/>
        <circle cx="1165.686" cy="52" r="4" fill="#FFF" opacity=".35"/>
        <circle cx="358.686" cy="52" r="4" fill="#FFF" opacity=".35"/>
        <circle cx="752.686" cy="52" r="4" fill="#FFF" opacity=".35"/>
        <circle cx="1183.686" cy="52" r="4" fill="#FFF" opacity=".35"/>
        <circle cx="376.686" cy="52" r="4" fill="#FFF" opacity=".35"/>
        <circle cx="770.686" cy="52" r="4" fill="#FFF" opacity=".35"/>
        <circle cx="1201.686" cy="52" r="4" fill="#FFF" opacity=".35"/>
        <circle cx="394.686" cy="52" r="4" fill="#FFF" opacity=".35"/>
        <circle cx="788.686" cy="52" r="4" fill="#FFF" opacity=".35"/>
        <circle cx="1219.686" cy="52" r="4" fill="#FFF" opacity=".35"/>
        <circle cx="412.686" cy="52" r="4" fill="#FFF" opacity=".35"/>
        <circle cx="840.686" cy="52" r="4" fill="#FFF" opacity=".35"/>
        <circle cx="1237.686" cy="52" r="4" fill="#FFF" opacity=".35"/>
        <circle cx="430.686" cy="52" r="4" fill="#FFF" opacity=".35"/>
        <circle cx="858.686" cy="52" r="4" fill="#FFF" opacity=".35"/>
        <circle cx="1255.686" cy="52" r="4" fill="#FFF" opacity=".35"/>
        <circle cx="170.686" cy="52" r="4" fill="#FFF"/>
        <circle cx="492.686" cy="52" r="4" fill="#FFF"/>
        <circle cx="814.686" cy="52" r="4" fill="#FFF"/>
        <circle cx="1136.686" cy="52" r="4" fill="#FFF"/>
        <path stroke="#FFF" stroke-linecap="round" stroke-width="4" d="M170.686 20V0M170.686 104V84M814.686 20V0M814.686 104V84M1136.686 20V0M1136.686 104V84M492.686 20V0M492.686 104V84" opacity=".35"/>
    </g>
</svg>
