<svg xmlns="http://www.w3.org/2000/svg" width="1209" height="311" viewBox="0 0 1209 311">
    <defs>
        <linearGradient id="a" x1="53.659%" x2="69.082%" y1="55.452%" y2="102.726%">
            <stop offset="0%" stop-color="#FFF"/>
            <stop offset="100%" stop-color="#FFF" stop-opacity=".45"/>
        </linearGradient>
    </defs>
    <g fill="none" fill-rule="evenodd" transform="translate(0 2)">
        <circle cx="1086" cy="52" r="10" stroke="#FFF" stroke-width="4"/>
        <circle cx="4" cy="52" r="4" fill="#FFF" opacity=".35"/>
        <circle cx="398" cy="52" r="4" fill="#FFF" opacity=".35"/>
        <circle cx="826" cy="52" r="4" fill="#FFF" opacity=".35"/>
        <circle cx="22" cy="52" r="4" fill="#FFF" opacity=".35"/>
        <circle cx="416" cy="52" r="4" fill="#FFF" opacity=".35"/>
        <circle cx="844" cy="52" r="4" fill="#FFF" opacity=".35"/>
        <circle cx="40" cy="52" r="4" fill="#FFF" opacity=".35"/>
        <circle cx="468" cy="52" r="4" fill="#FFF" opacity=".35"/>
        <circle cx="862" cy="52" r="4" fill="#FFF" opacity=".35"/>
        <circle cx="58" cy="52" r="4" fill="#FFF" opacity=".35"/>
        <circle cx="486" cy="52" r="4" fill="#FFF" opacity=".35"/>
        <circle cx="880" cy="52" r="4" fill="#FFF" opacity=".35"/>
        <circle cx="76" cy="52" r="4" fill="#FFF" opacity=".35"/>
        <circle cx="504" cy="52" r="4" fill="#FFF" opacity=".35"/>
        <circle cx="898" cy="52" r="4" fill="#FFF" opacity=".35"/>
        <circle cx="94" cy="52" r="4" fill="#FFF" opacity=".35"/>
        <circle cx="522" cy="52" r="4" fill="#FFF" opacity=".35"/>
        <circle cx="916" cy="52" r="4" fill="#FFF" opacity=".35"/>
        <circle cx="146" cy="52" r="4" fill="#FFF" opacity=".35"/>
        <circle cx="540" cy="52" r="4" fill="#FFF" opacity=".35"/>
        <circle cx="934" cy="52" r="4" fill="#FFF" opacity=".35"/>
        <circle cx="164" cy="52" r="4" fill="#FFF" opacity=".35"/>
        <circle cx="558" cy="52" r="4" fill="#FFF" opacity=".35"/>
        <circle cx="952" cy="52" r="4" fill="#FFF" opacity=".35"/>
        <circle cx="182" cy="52" r="4" fill="#FFF" opacity=".35"/>
        <circle cx="576" cy="52" r="4" fill="#FFF" opacity=".35"/>
        <circle cx="970" cy="52" r="4" fill="#FFF" opacity=".35"/>
        <circle cx="200" cy="52" r="4" fill="#FFF" opacity=".35"/>
        <circle cx="594" cy="52" r="4" fill="#FFF" opacity=".35"/>
        <circle cx="988" cy="52" r="4" fill="#FFF" opacity=".35"/>
        <circle cx="218" cy="52" r="4" fill="#FFF" opacity=".35"/>
        <circle cx="612" cy="52" r="4" fill="#FFF" opacity=".35"/>
        <circle cx="1006" cy="52" r="4" fill="#FFF" opacity=".35"/>
        <circle cx="236" cy="52" r="4" fill="#FFF" opacity=".35"/>
        <circle cx="630" cy="52" r="4" fill="#FFF" opacity=".35"/>
        <circle cx="1024" cy="52" r="4" fill="#FFF" opacity=".35"/>
        <circle cx="254" cy="52" r="4" fill="#FFF" opacity=".35"/>
        <circle cx="648" cy="52" r="4" fill="#FFF" opacity=".35"/>
        <circle cx="1042" cy="52" r="4" fill="#FFF" opacity=".35"/>
        <circle cx="272" cy="52" r="4" fill="#FFF" opacity=".35"/>
        <circle cx="666" cy="52" r="4" fill="#FFF" opacity=".35"/>
        <circle cx="1060" cy="52" r="4" fill="#FFF" opacity=".35"/>
        <circle cx="290" cy="52" r="4" fill="#FFF" opacity=".35"/>
        <circle cx="684" cy="52" r="4" fill="#FFF" opacity=".35"/>
        <circle cx="1115" cy="52" r="4" fill="#FFF" opacity=".35"/>
        <circle cx="308" cy="52" r="4" fill="#FFF" opacity=".35"/>
        <circle cx="702" cy="52" r="4" fill="#FFF" opacity=".35"/>
        <circle cx="1133" cy="52" r="4" fill="#FFF" opacity=".35"/>
        <circle cx="326" cy="52" r="4" fill="#FFF" opacity=".35"/>
        <circle cx="720" cy="52" r="4" fill="#FFF" opacity=".35"/>
        <circle cx="1151" cy="52" r="4" fill="#FFF" opacity=".35"/>
        <circle cx="344" cy="52" r="4" fill="#FFF" opacity=".35"/>
        <circle cx="738" cy="52" r="4" fill="#FFF" opacity=".35"/>
        <circle cx="1169" cy="52" r="4" fill="#FFF" opacity=".35"/>
        <circle cx="362" cy="52" r="4" fill="#FFF" opacity=".35"/>
        <circle cx="790" cy="52" r="4" fill="#FFF" opacity=".35"/>
        <circle cx="1187" cy="52" r="4" fill="#FFF" opacity=".35"/>
        <circle cx="380" cy="52" r="4" fill="#FFF" opacity=".35"/>
        <circle cx="808" cy="52" r="4" fill="#FFF" opacity=".35"/>
        <circle cx="1205" cy="52" r="4" fill="#FFF" opacity=".35"/>
        <circle cx="120" cy="52" r="4" fill="#FFF"/>
        <circle cx="442" cy="52" r="4" fill="#FFF"/>
        <circle cx="764" cy="52" r="4" fill="#FFF"/>
        <circle cx="1086" cy="52" r="4" fill="#FFF"/>
        <path stroke="#FFF" stroke-linecap="round" stroke-width="4" d="M120 20V0M120 104V84M764 20V0M764 104V84M1086 20V0M1086 104V84M442 20V0M442 104V84" opacity=".35"/>
        <g fill="#FFF" fill-rule="nonzero">
            <path d="M120 63.94c-6.594 0-11.94-5.346-11.94-11.94 0-6.594 5.346-11.94 11.94-11.94 6.594 0 11.94 5.346 11.94 11.94-.033 6.58-5.36 11.907-11.94 11.94zm0-19.88a7.94 7.94 0 1 0 7.94 7.94 7.95 7.95 0 0 0-7.94-7.94z" opacity=".35"/>
            <path d="M129.94 54a2 2 0 0 1-2-2 8 8 0 0 0-7.94-7.94 2 2 0 1 1 0-4c6.58.033 11.907 5.36 11.94 11.94a2 2 0 0 1-2 2z"/>
        </g>
        <g fill="#FFF" fill-rule="nonzero">
            <path d="M442 63.94c-6.594 0-11.94-5.346-11.94-11.94 0-6.594 5.346-11.94 11.94-11.94 6.594 0 11.94 5.346 11.94 11.94-.033 6.58-5.36 11.907-11.94 11.94zm0-19.88a7.94 7.94 0 1 0 7.94 7.94 7.95 7.95 0 0 0-7.94-7.94z" opacity=".35"/>
            <path d="M442 63.94a2 2 0 1 1 0-4 7.94 7.94 0 0 0 0-15.88 2 2 0 1 1 0-4c6.594 0 11.94 5.346 11.94 11.94 0 6.594-5.346 11.94-11.94 11.94z"/>
        </g>
        <g fill-rule="nonzero">
            <path fill="#FFF" d="M764 63.94c-6.594 0-11.94-5.346-11.94-11.94 0-6.594 5.346-11.94 11.94-11.94 6.594 0 11.94 5.346 11.94 11.94-.033 6.58-5.36 11.907-11.94 11.94zm0-19.88a7.94 7.94 0 1 0 7.94 7.94 7.95 7.95 0 0 0-7.94-7.94z" opacity=".35"/>
            <path fill="#FFF" d="M764 63.94c-6.58-.033-11.907-5.36-11.94-11.94a2 2 0 1 1 4 0 7.94 7.94 0 1 0 7.94-7.94 2 2 0 1 1 0-4c6.594 0 11.94 5.346 11.94 11.94 0 6.594-5.346 11.94-11.94 11.94z"/>
            <path fill="url(#a)" d="M21.94 14a2 2 0 0 1-2-2A8 8 0 0 0 12 4.06a2 2 0 1 1 0-4C18.58.093 23.907 5.42 23.94 12a2 2 0 0 1-2 2z" transform="translate(752 40)"/>
        </g>
        <g fill="#FFF" fill-rule="nonzero">
            <circle cx="90" cy="90" r="90" opacity=".2" transform="translate(674 129)"/>
            <path d="M802 178.34a12.67 12.67 0 0 0 12-8.65h14.66v19.68a12.65 12.65 0 1 0 8 0v-23.68a4 4 0 0 0-4-4H814a12.64 12.64 0 1 0-12 16.65zM832.65 206a4.65 4.65 0 1 1 4.65-4.64 4.64 4.64 0 0 1-4.65 4.64zM802 161.05a4.65 4.65 0 1 1-4.64 4.64 4.64 4.64 0 0 1 4.64-4.64zM743.86 268.36a12.66 12.66 0 0 0-12 8.64h-27.3v-4.81a12.64 12.64 0 1 0-8 0V281a4 4 0 0 0 4 4h31.31a12.64 12.64 0 1 0 12-16.64h-.01zm-43.3-12.8a4.64 4.64 0 1 1-4.64 4.64 4.65 4.65 0 0 1 4.64-4.64zm43.3 30.08a4.64 4.64 0 1 1 0-9.28 4.64 4.64 0 0 1 0 9.28zM737 179.52l7.12 7.12-7.12 7.11a4 4 0 1 0 5.66 5.65l9.94-9.94a4 4 0 0 0 0-5.65l-9.94-9.94a4 4 0 0 0-5.66 5.65zM714.55 173.87a4 4 0 0 0-5.65 0l-9.9 9.94a4 4 0 0 0 0 5.65l9.9 9.94a4 4 0 0 0 5.65-5.65l-7.11-7.11 7.11-7.12a4 4 0 0 0 0-5.65zM728.45 164.08l-12.89 42.81a4 4 0 0 0 3.83 5.17 4 4 0 0 0 3.83-2.85l12.89-42.83a4 4 0 1 0-7.66-2.3z"/>
            <path d="M748.82 142.67a4.001 4.001 0 1 0-3.73 7.08c15.852 8.34 24.6 25.878 21.729 43.559-2.872 17.68-16.722 31.547-34.399 34.441a4 4 0 0 0-6.36-4.65l-6.13 6.05-.13.13-.07.08a3.6 3.6 0 0 0-.43.52l-.09.15a4.91 4.91 0 0 0-.28.5l-.09.26a2.59 2.59 0 0 0-.14.45c0 .13 0 .25-.07.37a2.51 2.51 0 0 0 0 .27.56.56 0 0 0 0 .13v.14a2.85 2.85 0 0 0 0 .29 2.1 2.1 0 0 0 0 .36c.048.255.115.505.2.75a3.3 3.3 0 0 0 .17.45l.14.25c.089.142.185.28.29.41.06.07.11.14.17.2a.88.88 0 0 0 .12.15l6.35 6.35a4 4 0 0 0 5.8-5.47c21.533-2.682 38.833-19.032 42.725-40.38 3.892-21.348-6.524-42.751-25.725-52.86l-.05.02zM703.29 231a4 4 0 1 0 3.61-7.14c-16.131-8.127-25.19-25.722-22.433-43.574 2.757-17.851 16.701-31.894 34.533-34.776a4 4 0 0 0 6.32 4.75l6.38-6.36a.88.88 0 0 0 .12-.15 3.57 3.57 0 0 0 .31-.37l.18-.28c.07-.12.14-.25.2-.38s.09-.23.13-.35c.04-.12.08-.25.11-.38a1.85 1.85 0 0 0 .07-.64.56.56 0 0 0 0-.13 3.31 3.31 0 0 0 0-.44 2.16 2.16 0 0 0 0-.35c0-.14-.06-.27-.09-.4s-.06-.23-.11-.35a2.48 2.48 0 0 0-.17-.37 2 2 0 0 0-.17-.32 3.88 3.88 0 0 0-.28-.33l-.25-.3a.48.48 0 0 0-.09-.11l-6.31-6.35a4 4 0 0 0-5.81 5.46c-21.697 2.693-39.082 19.257-42.82 40.8-3.739 21.54 7.049 42.994 26.57 52.84zM843.5 229.63h-73.94a4 4 0 0 0-4 4v20.84a4 4 0 0 0 4 4h2.2v33.41a4 4 0 0 0 4 4h61.54a4 4 0 0 0 4-4v-33.41h2.2a4 4 0 0 0 4-4v-20.84a4 4 0 0 0-4-4zm-4 20.84h-19.08v-12.84h19.08v12.84zm-27.08-12.84v26.59l-2.92-2.92a4 4 0 0 0-5.66 0l-3.2 3.2v-26.87h11.78zm-38.86 0h19.08v12.84h-19.08v-12.84zm59.74 50.25h-53.54v-29.41h12.88v15.69a4 4 0 0 0 2.47 3.7 4.12 4.12 0 0 0 1.53.3 4 4 0 0 0 2.83-1.17l7.2-7.2 6.92 6.91a4 4 0 0 0 6.83-2.82v-15.41h12.88v29.41z"/>
        </g>
        <g fill="#FFF" fill-rule="nonzero">
            <circle cx="90" cy="90" r="90" opacity=".2" transform="translate(352 129)"/>
            <path d="M409.22 252.75L407 233l-2.24-19.81-2.24-19.78-2.23-19.78-2.23-19.77a4 4 0 0 0-4.42-3.52l-31.81 3.59a4 4 0 0 0-3.53 4.42l15.62 138.45a4 4 0 0 0 4 3.56h.46l31.81-3.59a4 4 0 0 0 3.53-4.42l-4.5-39.6zm-27.8 39.18l-14.72-130.5 23.86-2.7 1.34 11.84-7.19.83a4.007 4.007 0 0 0 .46 8c.153.01.307.01.46 0l7.16-.83 1.34 11.83-7.13.78a4.006 4.006 0 1 0 .45 8c.153.01.307.01.46 0l7.09-.88 1.33 11.83-7.15.87a4.006 4.006 0 1 0 .45 8h.47l7.16-.83 1.33 11.83-7.18.83a4.006 4.006 0 1 0 .45 8c.157.01.313.01.47 0l7.16-.83 1.33 11.83-7.18.83a4.007 4.007 0 1 0 .46 8h.46l7.16-.83 1.34 11.82-7.21.81a4.006 4.006 0 1 0 .44 8c.153.01.307.01.46 0l7.2-.81 1.34 11.83-23.87 2.45zM513.2 270.48a2 2 0 0 0 .06-.26l9.33-95.06c.28-1.64 1.54-10.52-2.88-16.39a13.07 13.07 0 0 0-18.64-1.83c-5.49 4.91-6 13.88-6 15.52l-9.34 95.06v.28c-.01.15-.01.3 0 .45.013.151.036.302.07.45v.28l7.45 26.9a4 4 0 0 0 3.49 2.91h.36a3.999 3.999 0 0 0 3.6-2.26l12.13-25c0-.1.06-.19.1-.29.04-.1.1-.25.14-.38a3 3 0 0 0 .13-.38zm-3.2-108.6a4.34 4.34 0 0 1 3.32 1.69c1.27 1.67 1.62 4.38 1.64 6.67l-11.44-1.12c.46-2.25 1.34-4.83 2.9-6.23a4.34 4.34 0 0 1 3.58-1.01zm-7.35 15.19l11.61 1.14-8.56 87.25-11.61-1.14 8.56-87.25zm-4.46 106.46l-3.07-11.07 8.06.79-4.99 10.28zM473.19 165.69H461A24.41 24.41 0 1 0 416.91 183a24.17 24.17 0 0 0 15.35 9.86v13.76a4 4 0 0 0 4 4h36.93a4 4 0 0 0 4-4v-36.93a4 4 0 0 0-4-4zm-49.76 12.66a16.41 16.41 0 0 1 13.35-25.89 16.36 16.36 0 0 1 16.12 13.23h-16.64a4 4 0 0 0-4 4v14.93a16.34 16.34 0 0 1-8.83-6.27zm29.05-4.66a16.34 16.34 0 0 1-12.22 11.21v-11.21h12.22zm16.71 28.93h-28.93V193a24.38 24.38 0 0 0 20.47-19.34h8.46v28.96zM467 261.88a4.002 4.002 0 0 0-6.17 5.1l1.39 1.67H438a4.66 4.66 0 0 1-5-4.78 4.29 4.29 0 0 1 1.12-3 5.17 5.17 0 0 1 3.88-1.37h16.88a12.91 12.91 0 0 0 9.7-3.84 12.26 12.26 0 0 0 3.34-8.53 12.64 12.64 0 0 0-13-12.78h-26a4 4 0 1 0 0 8h25.92a4.67 4.67 0 0 1 5 4.78 4.29 4.29 0 0 1-1.12 3 5.2 5.2 0 0 1-3.92 1.37H438a12.93 12.93 0 0 0-9.71 3.84 12.25 12.25 0 0 0-3.33 8.53 12.63 12.63 0 0 0 13 12.78h24.22l-1.39 1.68a4 4 0 0 0 .54 5.63 3.93 3.93 0 0 0 2.54.92 4 4 0 0 0 3.09-1.45l6.8-8.23a4 4 0 0 0 0-5.09l-6.76-8.23z"/>
        </g>
        <g fill="#FFF" fill-rule="nonzero">
            <circle cx="90" cy="90" r="90" opacity=".2" transform="translate(30 129)"/>
            <path d="M126.91 151.62a4.003 4.003 0 1 0 5.52 5.8c5.867-5.58 15.145-5.351 20.73.51a4.018 4.018 0 1 0 5.84-5.52 22.69 22.69 0 0 0-32.09-.79z"/>
            <path d="M206.92 218.65l-20.18-21.2a4 4 0 0 0-2.8-1.24 4.08 4.08 0 0 0-2.85 1.1l-2.35 2.24-8-8.37a36.45 36.45 0 0 0-27-59.93 36.45 36.45 0 0 0-27.25 61.57A36.2 36.2 0 0 0 142 204.13h.92a36.15 36.15 0 0 0 22.08-7.44l8 8.37-2.4 2.24a4 4 0 0 0-.14 5.65l20.17 21.2a4 4 0 0 0 5.66.14l10.49-10a4 4 0 0 0 .14-5.65v.01zm-64.72-22.51c-15.713-.188-28.298-13.077-28.11-28.79.188-15.713 13.077-28.298 28.79-28.11h.72a28.45 28.45 0 0 1 18.91 49.06 28.19 28.19 0 0 1-20.31 7.84zm51.47 29.6L179 210.33l4.7-4.47 14.66 15.41-4.69 4.47zM57.61 200a14.22 14.22 0 0 0 9.22-3.39c5.796 4.914 14.422 4.441 19.646-1.077s5.224-14.158 0-19.676c-5.224-5.518-13.85-5.991-19.646-1.077A14.3 14.3 0 1 0 57.61 200zm18.49-20.6a6.31 6.31 0 0 1 0 12.6 6.24 6.24 0 0 1-4.79-2.21c.8-2.671.8-5.519 0-8.19a6.24 6.24 0 0 1 4.79-2.2zm-18.49 0a6.31 6.31 0 1 1 0 12.62 6.31 6.31 0 0 1 0-12.62zM76.1 230.42h18.48a4 4 0 0 0 4-4 22.46 22.46 0 0 0-31.73-20.49 22.46 22.46 0 0 0-31.73 20.49 4 4 0 0 0 4 4H76.1zm13.92-8H79.73A22.48 22.48 0 0 0 74.84 212c.42 0 .83-.06 1.26-.06A14.51 14.51 0 0 1 90 222.42h.02zm-32.41-10.49a14.51 14.51 0 0 1 13.92 10.49H43.68a14.51 14.51 0 0 1 13.93-10.49zM194.28 259.43a14.67 14.67 0 0 0-19 8.35 14.75 14.75 0 0 0-1 5L133 284a14.66 14.66 0 0 0-24.26-1.45l-42.11-16.64a14.53 14.53 0 0 0-1.16-7.39 14.66 14.66 0 1 0-13.42 20.58 14.71 14.71 0 0 0 11.64-5.76L105.76 290a14.64 14.64 0 0 0 9.24 15.16 14.65 14.65 0 0 0 20-13.39l41.34-11.21a14.65 14.65 0 0 0 12.66 7.21 14.48 14.48 0 0 0 5.9-1.25 14.66 14.66 0 0 0-.58-27.09h-.04zm-139.55 11.1A6.66 6.66 0 1 1 52 257.76a6.68 6.68 0 0 1 6.22 9.099 6.66 6.66 0 0 1-3.53 3.681l.04-.01zm71.82 23.38a6.66 6.66 0 1 1-6.21-9.09 6.79 6.79 0 0 1 2.42.46 6.67 6.67 0 0 1 3.79 8.63zm65.09-14.71a6.66 6.66 0 1 1-2.64-12.77 6.78 6.78 0 0 1 2.42.45 6.67 6.67 0 0 1 .26 12.32h-.04zM117.67 231.33h33.38a4 4 0 1 0 0-8h-33.38a4 4 0 1 0 0 8zM117.67 245.38h33.38a4 4 0 1 0 0-8h-33.38a4 4 0 1 0 0 8z"/>
            <path d="M117.67 259.42h12.83a4 4 0 1 0 0-8h-12.83a4 4 0 1 0 0 8zM141 254.08a4 4 0 1 0 7.556 2.629A4 4 0 0 0 141 254.08z"/>
        </g>
        <g fill="#FFF" fill-rule="nonzero">
            <circle cx="90" cy="90" r="90" opacity=".2" transform="translate(996 129)"/>
            <path d="M1122.67 200.8a28.48 28.48 0 0 1 15.87 4.93 4 4 0 0 0 6.46-3.15c-.042-31.013-24.06-56.713-55-58.85v-6.65a4 4 0 1 0-8 0v6.65c-30.94 2.137-54.958 27.837-55 58.85a4 4 0 0 0 6.4 3.2c.08-.06 8.12-5.92 15.93-5.92 8.08 0 17.91 6 18 6.11.364.233.767.4 1.19.49.217.05.438.08.66.09h.12c.233.02.467.02.7 0 .238-.04.472-.1.7-.18l.16-.07a3 3 0 0 0 .51-.25h.12a32.77 32.77 0 0 1 10.51-3.84v39.28c0 8.5 1.69 17.18 14.23 17.18a4 4 0 1 0 0-8c-4.32 0-6.23-.37-6.23-9.18v-39.28a32.78 32.78 0 0 1 10.42 3.79h.08l.3.16.19.08c.1.046.204.086.31.12l.2.06.34.07a1 1 0 0 0 .17 0c.176.015.354.015.53 0a5.05 5.05 0 0 0 .67-.06h.17c.176-.04.35-.09.52-.15h.11c.213-.08.417-.18.61-.3.13-.06 8.38-5.18 18.05-5.18zm-36.67-6.94a36.62 36.62 0 0 0-13.5 2.81 61.13 61.13 0 0 1-.84-8.09 51.08 51.08 0 0 1 14.34-35.43 51 51 0 0 1 14.34 35.43 50.348 50.348 0 0 1-.65 8.15 37 37 0 0 0-13.69-2.87zm50.52 1.73a36.45 36.45 0 0 0-13.85-2.79 42.75 42.75 0 0 0-14.76 2.84 59 59 0 0 0-11.86-43c21.23 4.29 37.448 21.502 40.47 42.95zm-87.19-3.73a33.25 33.25 0 0 0-13.82 3.47c3.103-21.348 19.27-38.451 40.41-42.75a59.09 59.09 0 0 0-12.26 36 56.3 56.3 0 0 0 .57 6.86c-4.23-1.81-9.68-3.58-14.9-3.58zM1068.77 257.94a9.17 9.17 0 0 0-10.66-6l-1.11-3.4c-3.622-10.656-15.184-16.372-25.85-12.78l-7.93 2.68a20.4 20.4 0 0 0-12.82 25.85l1.15 3.39a9.14 9.14 0 0 0-4.83 11.25l3.46 10.25a9.17 9.17 0 0 0 8.67 6.23 9 9 0 0 0 2.94-.49l8.71-2.92a4 4 0 0 0 2.5-5.09l-6.77-20a4 4 0 0 0-5.07-2.51l-2.06.7-1.1-3.37a12.38 12.38 0 0 1 7.75-15.73l7.92-2.68c6.484-2.188 13.514 1.289 15.71 7.77l1.13 3.34-2.06.7a4 4 0 0 0-2.51 5.07l6.78 20a4 4 0 0 0 3.78 2.8 3.87 3.87 0 0 0 1.29-.21l2.06-.69.68 2c.76 2.24 1.22 3.6-2.38 4.82a4 4 0 1 0 2.56 7.58c4.18-1.42 10.69-5.24 7.4-15l-.7-2.08a9.17 9.17 0 0 0 4.83-11.24l-3.47-10.24zm-44.62 27.74l-4.92 1.66a1.17 1.17 0 0 1-.89-.05 1.2 1.2 0 0 1-.58-.67l-3.47-10.26a1.2 1.2 0 0 1 .06-.88 1.1 1.1 0 0 1 .67-.58l4.92-1.67 4.21 12.45zm30.65-24.24l2.06-.69 2.85-1a1.16 1.16 0 0 1 1.47.73l3.47 10.25a1.16 1.16 0 0 1-.73 1.47l-2.85 1-2.06.69-4.21-12.45zM1151.31 256.54l-12.54 8.92-2.83-4a4.001 4.001 0 1 0-6.52 4.64l5.15 7.24a4 4 0 0 0 5.58.94l15.85-11.22a4.001 4.001 0 0 0-4.64-6.52h-.05z"/>
            <path d="M1166.18 246.77a28.24 28.24 0 1 0-27.71 44.23c1.573.267 3.165.4 4.76.4a28.24 28.24 0 0 0 23-44.62l-.05-.01zm-3.05 19.74c-1.788 10.592-11.534 17.945-22.21 16.756-10.675-1.19-18.564-10.507-17.977-21.232.587-10.726 9.446-19.127 20.187-19.144a20.29 20.29 0 0 1 20 23.62z"/>
        </g>
    </g>
</svg>
