<svg xmlns="http://www.w3.org/2000/svg" width="27" height="17" viewBox="0 0 27 17">
    <path fill="#363646" fill-rule="nonzero" d="M24.383 2.406h-6.765v-1.7h6.766v1.7h-.001zM13.114 9.379c.436.684.655 1.515.655 2.49 0 1.008-.246 1.913-.747 2.712a4.685 4.685 0 0 1-1.188 1.336 4.566 4.566 0 0 1-1.896.853c-.73.153-1.52.23-2.372.23H0V0h8.113c2.045.034 3.495.633 4.351 1.81.514.723.769 1.59.769 2.597 0 1.039-.258 1.87-.777 2.502-.288.355-.714.677-1.279.968.855.316 1.504.815 1.937 1.502zm-9.24-2.677H7.43c.731 0 1.322-.14 1.776-.421.455-.28.682-.78.682-1.495 0-.79-.3-1.315-.903-1.568-.517-.176-1.18-.266-1.983-.266H3.874v3.75zm6.355 4.924c0-.883-.357-1.494-1.069-1.821-.398-.186-.96-.281-1.68-.288H3.874v4.53h3.55c.73 0 1.295-.096 1.702-.298.735-.37 1.103-1.076 1.103-2.123zM26.893 8.86c.082.557.119 1.364.104 2.418h-8.762c.048 1.224.466 2.08 1.258 2.57.477.307 1.056.457 1.734.457.715 0 1.298-.183 1.746-.559.244-.2.46-.48.646-.835h3.212c-.084.722-.47 1.455-1.166 2.2-1.076 1.184-2.586 1.778-4.526 1.778-1.601 0-3.013-.5-4.239-1.498-1.221-1.002-1.835-2.626-1.835-4.878 0-2.113.551-3.73 1.656-4.855 1.11-1.128 2.54-1.689 4.305-1.689 1.046 0 1.99.19 2.83.57.839.38 1.532.98 2.077 1.803.494.725.812 1.563.96 2.518zm-3.161.318c-.059-.847-.338-1.487-.84-1.925-.5-.439-1.122-.66-1.866-.66-.808 0-1.433.236-1.877.7-.447.461-.725 1.09-.839 1.885h5.422z"/>
</svg>
