<svg xmlns="http://www.w3.org/2000/svg" width="80" height="24" viewBox="0 0 80 24">
    <g fill="#FFF" transform="translate(5 1.5)">
        <path d="M17.711 0L21.084 0 21.084 20.241 17.711 20.241zM32.264 13.916c0 3.092-2.471 3.373-3.295 3.373-1.922 0-2.197-1.827-2.197-2.811V6.747h-3.158v7.59c0 1.828.55 3.514 1.648 4.498.961.984 2.197 1.406 3.707 1.406 1.098 0 2.471-.281 3.295-1.125v1.125h3.158V6.747h-3.158v7.169zM42.435 1.687L39.372 1.687 39.372 6.644 37.108 6.644 37.108 9.76 39.372 9.76 39.372 20.241 42.435 20.241 42.435 9.76 44.699 9.76 44.699 6.644 42.435 6.644zM54.77 16.248c-.678.55-1.628.964-2.578.964-2.171 0-3.664-1.653-3.664-3.856S50.02 9.64 52.192 9.64c.95 0 1.9.275 2.579.963l.407.413 2.171-2.065-.542-.413c-1.222-1.102-2.85-1.79-4.615-1.79-3.8 0-6.65 2.892-6.65 6.747s2.85 6.747 6.65 6.747c1.765 0 3.393-.689 4.615-1.79l.542-.413-2.171-2.203-.407.413zM68.63 7.697c-.96-.998-1.92-1.425-3.427-1.425-1.096 0-2.192.285-3.015 1.14V0h-3.152v20.241h3.152v-7.555c0-3.136 2.056-3.42 2.878-3.42 1.919 0 1.782 1.852 1.782 2.85v7.982H70v-7.84c0-1.852-.411-3.563-1.37-4.56z"/>
        <circle cx="51.867" cy="13.308" r="2.108"/>
        <path d="M13.422 15.286c-1.096 1.133-2.74 1.84-4.52 1.84-3.424 0-5.889-2.83-5.889-6.653 0-3.822 2.465-6.653 6.026-6.653 1.644 0 3.287.707 4.52 1.982l.41.424 2.055-2.123-.41-.425C13.832 1.838 11.503.847 9.038.847 3.835.705 0 4.952 0 10.473c0 5.521 3.835 9.768 8.902 9.768 2.466 0 4.93-.991 6.574-2.831l.411-.425-2.054-2.123-.411.424z"/>
    </g>
</svg>
