<svg id="Layer_2" data-name="Layer 2" xmlns="http://www.w3.org/2000/svg" viewBox="0 0 26 26" width="23" height="23">
    <defs>
        <style>.cls-1{fill:#363646;}</style>
    </defs>
    <title>clutch</title>
    <circle class="cls-1" cx="14.27" cy="12.95" r="4.24"/>
    <path class="cls-1"
          d="M14.57,25.6A12.75,12.75,0,0,1,1.75,13,12.85,12.85,0,0,1,24.2,4.6L20.11,8.24a7.4,7.4,0,0,0-5.54-2.48A7.28,7.28,0,0,0,7.22,13a7.28,7.28,0,0,0,7.35,7.18,7.41,7.41,0,0,0,5.57-2.5l4.11,3.61A12.9,12.9,0,0,1,14.57,25.6Z"/>
</svg>