<svg xmlns="http://www.w3.org/2000/svg" width="96" height="96" viewBox="0 0 96 96">
    <g fill="#FFF" fill-rule="nonzero">
        <rect width="96" height="96" opacity=".2" rx="16.91"/>
        <path d="M60 79.13H33a5.74 5.74 0 0 1-5.74-5.74V31.45A5.74 5.74 0 0 1 33 25.72h27a5.74 5.74 0 0 1 5.74 5.73v41.94A5.75 5.75 0 0 1 60 79.13zM33 28.72a2.74 2.74 0 0 0-2.74 2.73v41.94A2.74 2.74 0 0 0 33 76.13h27a2.74 2.74 0 0 0 2.74-2.74V31.45A2.74 2.74 0 0 0 60 28.72H33z"/>
        <path d="M70.43 66.11a1.5 1.5 0 0 1-1.5-1.5V25.06a2 2 0 0 0-2-2H41.76a1.5 1.5 0 0 1 0-3h25.15a5 5 0 0 1 5 5v39.55a1.5 1.5 0 0 1-1.48 1.5zM56.09 70.66H36.84a1.5 1.5 0 0 1-1.5-1.5v-6.89a1.5 1.5 0 0 1 1.5-1.5h19.25a1.5 1.5 0 0 1 1.5 1.5v6.89a1.5 1.5 0 0 1-1.5 1.5zm-17.75-3h16.25v-3.89H38.34v3.89zM49.72 47.07H36.84a1.5 1.5 0 0 1 0-3h12.88a1.5 1.5 0 0 1 0 3zM45.57 40.79h-8.73a1.5 1.5 0 0 1 0-3h8.73a1.5 1.5 0 0 1 0 3zM45.15 53.34h-8.31a1.5 1.5 0 0 1 0-3h8.31a1.5 1.5 0 0 1 0 3zM54.43 53.34h-4.15a1.5 1.5 0 0 1 0-3h4.15a1.5 1.5 0 0 1 0 3z"/>
    </g>
</svg>
