<svg xmlns="http://www.w3.org/2000/svg" width="96" height="96" viewBox="0 0 96 96">
    <g fill="#FFF" fill-rule="nonzero">
        <rect width="96" height="96" opacity=".2" rx="16.91"/>
        <path d="M57.76 46.31a3.17 3.17 0 1 0 .02-6.34 3.17 3.17 0 0 0-.02 6.34zm0-3.33a.16.16 0 0 1 .16.17c0 .18-.32.18-.32 0a.16.16 0 0 1 .16-.15v-.02zM41.57 43.15a3.17 3.17 0 1 0-6.34-.02 3.17 3.17 0 0 0 6.34.02zm-3.33 0a.16.16 0 0 1 .16-.15.17.17 0 0 1 .17.17c0 .16-.33.16-.33-.02zM57.31 66a1.49 1.49 0 0 0-1.87 1L55 68.32a9.47 9.47 0 1 0-3.55 14 1.503 1.503 0 1 0-1.32-2.7 6.48 6.48 0 1 1 2.58-9.31l-2.27-.7a1.5 1.5 0 1 0-.89 2.86l5.24 1.63c.147.04.298.06.45.06a1.5 1.5 0 0 0 1.43-1l1.62-5.25a1.48 1.48 0 0 0-.98-1.91z"/>
        <path d="M74 70.51L60.52 56.42h5.62a1.5 1.5 0 0 0 1.5-1.5v-21.6a1.5 1.5 0 0 0-1.5-1.5h-15l-4.55-4.25L48.84 25a5.11 5.11 0 1 0-3.38-.68l-2.1 2.43a1.5 1.5 0 0 0 .11 2.08l3.25 3H29.86a1.5 1.5 0 0 0-1.5 1.5v21.6a1.5 1.5 0 0 0 1.5 1.5h5.62L22 70.51a1.5 1.5 0 0 0 1.09 2.54h7.35a1.5 1.5 0 0 0 0-3H26.6l13-13.63h16.77l13 13.63h-3.81a1.5 1.5 0 0 0 0 3h7.35A1.5 1.5 0 0 0 74 70.51zM48.09 17.83a2.1 2.1 0 1 1 0 4.2 2.1 2.1 0 0 1 0-4.2zm-16.73 17h33.28v18.6H49.88v-4.12a1.5 1.5 0 0 0-3 0v4.11H31.36V34.83z"/>
    </g>
</svg>
