<svg xmlns="http://www.w3.org/2000/svg" width="96" height="96" viewBox="0 0 96 96">
    <g fill="#FFF" fill-rule="nonzero">
        <rect width="96" height="96" opacity=".2" rx="16.91"/>
        <path d="M75.39 71.17c-4-9.8-11.62-17.36-16.63-22.35-.26-.27-.49-.5-.72-.72l9.95-10c.116-.12.21-.259.28-.41l6.29-13.59a1.51 1.51 0 0 0-2-2l-13.45 6.46a1.31 1.31 0 0 0-.38.27l-10.92 10.9A41.89 41.89 0 0 0 40.89 36c.71-2.45.37-5.52-2.51-8.4-4.51-4.53-15.65-6.5-16.13-6.6h-.84l-.15.07-.1.07-.13.1-.1.08-.1.12a.39.39 0 0 0-.08.1s-.05.09-.08.14l-.06.12s0 .09-.05.13c-.05.04 0 .1 0 .15 0 .05 0 0 0 0a.31.31 0 0 1 0 .1v.32a.31.31 0 0 1 0 .1c.08.47 2.05 11.61 6.56 16.12a8.67 8.67 0 0 0 6.2 2.85 7.25 7.25 0 0 0 1-.07 6.7 6.7 0 0 0 1.23-.27 40.61 40.61 0 0 0 3.76 6.92L24.56 63a17.56 17.56 0 0 0-2.68 3.66c-2.18 4.11-.63 6.59.48 7.7A5.3 5.3 0 0 0 26.23 76c2.87 0 5.86-2 7.6-3.66l13.77-13.8.72.72c5 5 12.55 12.58 22.35 16.63.182.071.375.108.57.11.398 0 .78-.158 1.06-.44l2.76-2.76a1.5 1.5 0 0 0 .33-1.63zM66.47 34.5l-4.15-4.15 7.79-3.72-3.64 7.87zm-32.61 4.19a5.5 5.5 0 0 1-4.66-1.94c-2.76-2.75-4.5-9-5.27-12.32 3.75.87 9.74 2.68 12.32 5.27 4 4 .67 7.43.53 7.58a5.37 5.37 0 0 1-2.92 1.41zm4.34 1.41l1.4-1.4a35.85 35.85 0 0 1 6 3.21l-4.23 4.23a35.85 35.85 0 0 1-3.17-6.04zm4 9.45l6.8-6.8L59.76 32l5.05 5-32 32-5-5.06L42.2 49.55zM24.48 72.22c-1.65-1.65 0-4.41 1.23-6l4.85 4.85c-1.56 1.2-4.41 2.82-6.08 1.15zm26-15.08l-.72-.72 6.2-6.2.72.72c1.41 1.4 3 3 4.7 4.83a7.63 7.63 0 0 1-6.07 6.08c-1.85-1.68-3.47-3.3-4.87-4.71h.04zM70.9 72.72a53.65 53.65 0 0 1-13-8.55 10.5 10.5 0 0 0 5.8-5.77 53.66 53.66 0 0 1 8.52 13l-1.32 1.32z"/>
    </g>
</svg>
