<svg xmlns="http://www.w3.org/2000/svg" width="96" height="96" viewBox="0 0 96 96">
    <g fill="#FFF" fill-rule="nonzero">
        <rect width="96" height="96" opacity=".2" rx="16.91"/>
        <path d="M34.66 34.16a2 2 0 0 0-2.82 0L19.42 46.58a2 2 0 0 0 0 2.84l12.42 12.4A2 2 0 1 0 34.66 59l-11-11 11-11a2 2 0 0 0 0-2.84zM76.41 46.58L64 34.16A2.005 2.005 0 0 0 61.17 37l11 11-11 11A2 2 0 1 0 64 61.82l12.41-12.41a2 2 0 0 0 0-2.83zM59.25 19a2 2 0 0 0-2.59 1.13L35.45 74.27a2 2 0 0 0 1.13 2.59c.232.095.48.142.73.14a2 2 0 0 0 1.86-1.27l21.22-54.17A2 2 0 0 0 59.25 19z"/>
    </g>
</svg>
