<svg xmlns="http://www.w3.org/2000/svg" width="96" height="96" viewBox="0 0 96 96">
    <g fill="#FFF" fill-rule="nonzero">
        <rect width="96" height="96" opacity=".2" rx="16.91"/>
        <path d="M65.14 14.53H30.69a5.37 5.37 0 0 0-5.36 5.36V76a5.37 5.37 0 0 0 5.36 5.36h34.45A5.37 5.37 0 0 0 70.5 76V19.89c0-2.96-2.4-5.36-5.36-5.36zm-34.45 3h34.45a2.36 2.36 0 0 1 2.36 2.36v49.35H28.33V19.89a2.36 2.36 0 0 1 2.36-2.36zm34.45 60.78H30.69A2.36 2.36 0 0 1 28.33 76v-3.76H67.5V76a2.36 2.36 0 0 1-2.36 2.31z"/>
        <path d="M37.88 42.23h4.74a3.93 3.93 0 0 0 3.93-3.93v-4.74a3.94 3.94 0 0 0-3.93-3.93h-4.74A3.94 3.94 0 0 0 34 33.56v4.74a3.93 3.93 0 0 0 3.88 3.93zM37 33.56a.93.93 0 0 1 .93-.93h4.74a.93.93 0 0 1 .93.93v4.74a.93.93 0 0 1-.93.93h-4.79a.93.93 0 0 1-.88-.93v-4.74zM53.33 42.23h4.74A3.93 3.93 0 0 0 62 38.3v-4.74a3.94 3.94 0 0 0-3.93-3.93h-4.74a3.94 3.94 0 0 0-3.93 3.93v4.74a3.93 3.93 0 0 0 3.93 3.93zm-.93-8.67a.93.93 0 0 1 .93-.93h4.74a.93.93 0 0 1 .93.93v4.74a.93.93 0 0 1-.93.93h-4.74a.93.93 0 0 1-.93-.93v-4.74zM37.88 58h4.74a3.94 3.94 0 0 0 3.93-3.93v-4.72a3.93 3.93 0 0 0-3.93-3.93h-4.74A3.93 3.93 0 0 0 34 49.35v4.74A3.94 3.94 0 0 0 37.88 58zM37 49.35a.93.93 0 0 1 .93-.93h4.74a.93.93 0 0 1 .93.93v4.74a.93.93 0 0 1-.93.93h-4.79a.93.93 0 0 1-.93-.93l.05-4.74zM53.33 58h4.74A3.94 3.94 0 0 0 62 54.09v-4.74a3.93 3.93 0 0 0-3.93-3.93h-4.74a3.93 3.93 0 0 0-3.93 3.93v4.74A3.94 3.94 0 0 0 53.33 58zm-.93-8.67a.93.93 0 0 1 .93-.93h4.74a.93.93 0 0 1 .93.93v4.74a.93.93 0 0 1-.93.93h-4.74a.93.93 0 0 1-.93-.93v-4.74z"/>
    </g>
</svg>
