<svg xmlns="http://www.w3.org/2000/svg" width="96" height="96" viewBox="0 0 96 96">
    <g fill="#FFF" fill-rule="nonzero">
        <rect width="96" height="96" opacity=".2" rx="16.91"/>
        <path d="M74.42 62.17L74.5 61v-6.44A1.5 1.5 0 0 0 73 53H58.35v-3.61h2.55a1.5 1.5 0 0 0 0-3h-2.55v-3.62h5.74a1.5 1.5 0 0 0 1.5-1.5v-10.6h2.47a6.22 6.22 0 1 0 0-3h-4a1.5 1.5 0 0 0-1.5 1.5v10.6h-4.51a4.92 4.92 0 0 0-3-3v-2.9a1.5 1.5 0 0 0-3 0v2.62h-3.68v-9.7a6.22 6.22 0 1 0-3 0v9.7h-3.62v-2.63a1.5 1.5 0 0 0-3 0v2.9a4.9 4.9 0 0 0-3 3h-10a6.17 6.17 0 1 0-5.93 7.72 6.05 6.05 0 0 0 6-4.72h9.68v3.62h-2.65a1.5 1.5 0 0 0 0 3h2.54V53H24.68a1.5 1.5 0 0 0-1.5 1.5v7.64a6.22 6.22 0 1 0 3 0V56h9.47a4.88 4.88 0 0 0 3.1 3.16v2.74a1.5 1.5 0 0 0 3 0v-2.45h3.62V70a6.22 6.22 0 1 0 3 0V59.45H52v2.46a1.5 1.5 0 0 0 3 0v-2.74A4.93 4.93 0 0 0 58.1 56h13.42v4.78l-.1 1.35a6.2 6.2 0 1 0 3 0v.04zM74.09 26a3.22 3.22 0 1 1 0 6.44 3.22 3.22 0 0 1 0-6.44zm-30.44-5.2a3.22 3.22 0 1 1 .932 2.246 3.22 3.22 0 0 1-.932-2.296v.05zM27.9 68.18a3.22 3.22 0 1 1-6.44.08 3.22 3.22 0 0 1 6.44-.08zM50.09 76a3.22 3.22 0 1 1-6.44 0 3.22 3.22 0 0 1 6.44 0zM19.74 44.49a3.22 3.22 0 1 1 3.14-3.14 3.07 3.07 0 0 1-3.14 3.14zm35.61 10c0 .912-.637 1.7-1.53 1.89a1.17 1.17 0 0 0-.32 0 1.33 1.33 0 0 0-.45.08h-5.73a1.33 1.33 0 0 0-.45-.08 1.42 1.42 0 0 0-.45.08H40.7a1.33 1.33 0 0 0-.45-.08 1.12 1.12 0 0 0-.32 0 1.93 1.93 0 0 1-1.54-1.89V41.41a1.93 1.93 0 0 1 1.93-1.93h13.11a1.93 1.93 0 0 1 1.92 1.93v13.08zM72.83 71.4a3.22 3.22 0 1 1 0-6.44 3.22 3.22 0 0 1 0 6.44z"/>
    </g>
</svg>
