<svg xmlns="http://www.w3.org/2000/svg" width="96" height="96" viewBox="0 0 96 96">
    <g fill="#FFF" fill-rule="nonzero">
        <rect width="96" height="96" opacity=".2" rx="16.91"/>
        <path d="M32.23 34.68a3.94 3.94 0 0 0-3.93 3.93v3.72a3.93 3.93 0 0 0 3.93 3.93H36a3.93 3.93 0 0 0 3.93-3.93v-3.72A3.94 3.94 0 0 0 36 34.68h-3.77zm4.65 3.93v3.72a.93.93 0 0 1-.93.93h-3.72a.92.92 0 0 1-.93-.93v-3.72a.93.93 0 0 1 .93-.93H36a.93.93 0 0 1 .88.93zM59.85 39.85h3.72a3.93 3.93 0 0 0 3.93-3.93V32.2a3.93 3.93 0 0 0-3.93-3.93h-3.72a3.93 3.93 0 0 0-3.93 3.93v3.72a3.93 3.93 0 0 0 3.93 3.93zm-.93-7.65a.93.93 0 0 1 .93-.93h3.72a.93.93 0 0 1 .93.93v3.72a.93.93 0 0 1-.93.93h-3.72a.92.92 0 0 1-.93-.93V32.2zM55.92 51.32a3.94 3.94 0 0 0 3.93 3.93h3.72a3.94 3.94 0 0 0 3.93-3.93v-3.73a3.94 3.94 0 0 0-3.93-3.93h-3.72a3.94 3.94 0 0 0-3.93 3.93v3.73zm3-3.73a.93.93 0 0 1 .93-.93h3.72a.93.93 0 0 1 .93.93v3.73a.93.93 0 0 1-.93.93h-3.72a.93.93 0 0 1-.93-.93v-3.73z"/>
        <path d="M42.44 56.91a1.5 1.5 0 0 0 0-3H22.58V27a1.69 1.69 0 0 1 1.69-1.69h18.17a1.5 1.5 0 0 0 0-3H24.27A4.7 4.7 0 0 0 19.58 27v31.76a4.7 4.7 0 0 0 4.69 4.69h12.61v4c-4.18.3-9.64 1.22-9.64 4 0 3.88 10.27 4.18 13.41 4.18h1.81a1.5 1.5 0 0 0 1.48-1.52 1.51 1.51 0 0 0-1.5-1.48h-1.79A31.16 31.16 0 0 1 31 71.5a31.48 31.48 0 0 1 9.66-1.18h1.79a1.5 1.5 0 0 0 0-3h-2.57v-3.87h2.56a1.5 1.5 0 0 0 0-3H24.27a1.69 1.69 0 0 1-1.69-1.69v-1.85h19.86zM69.55 17.89h-14.4a1.5 1.5 0 0 0 0 3h14.4a2 2 0 0 1 2 1.95v44h-16.4a1.5 1.5 0 0 0 0 3H71.5v3.15a2 2 0 0 1-2 2H55.15a1.5 1.5 0 0 0 0 3h14.4a5 5 0 0 0 5-5V22.84a5 5 0 0 0-5-4.95zM48.79 12.72a1.5 1.5 0 0 0-1.5 1.5v67.34a1.5 1.5 0 0 0 3 0V14.22a1.5 1.5 0 0 0-1.5-1.5z"/>
    </g>
</svg>
