<svg xmlns="http://www.w3.org/2000/svg" width="96" height="96" viewBox="0 0 96 96">
    <g fill="#FFF" fill-rule="nonzero">
        <rect width="96" height="96" opacity=".2" rx="16.91"/>
        <path d="M42.41 20.33H24A3.72 3.72 0 0 0 20.33 24v24.59A3.72 3.72 0 0 0 24 52.3h18.41a3.71 3.71 0 0 0 3.71-3.71V24a3.72 3.72 0 0 0-3.71-3.67zm.71 28.26a.71.71 0 0 1-.71.71H24a.71.71 0 0 1-.71-.71V24a.71.71 0 0 1 .71-.71h18.41a.71.71 0 0 1 .71.71v24.59zM42.41 55H24a3.72 3.72 0 0 0-3.71 3.71v13.08A3.72 3.72 0 0 0 24 75.5h18.41a3.71 3.71 0 0 0 3.71-3.71V58.73A3.71 3.71 0 0 0 42.41 55zm.71 16.77a.71.71 0 0 1-.71.71H24a.71.71 0 0 1-.71-.71V58.73A.71.71 0 0 1 24 58h18.41a.71.71 0 0 1 .71.71v13.06zM71.79 43.53H53.42a3.71 3.71 0 0 0-3.71 3.71v24.55a3.71 3.71 0 0 0 3.71 3.71h18.37a3.71 3.71 0 0 0 3.71-3.71V47.24a3.71 3.71 0 0 0-3.71-3.71zm.71 28.26a.71.71 0 0 1-.71.71H53.42a.71.71 0 0 1-.71-.71V47.24a.71.71 0 0 1 .71-.71h18.37a.71.71 0 0 1 .71.71v24.55zM71.79 20.33H53.42A3.72 3.72 0 0 0 49.71 24v13.11a3.72 3.72 0 0 0 3.71 3.71h18.37a3.72 3.72 0 0 0 3.71-3.71V24a3.72 3.72 0 0 0-3.71-3.67zm.71 16.78a.71.71 0 0 1-.71.71H53.42a.71.71 0 0 1-.71-.71V24a.71.71 0 0 1 .71-.71h18.37a.71.71 0 0 1 .71.71v13.11z"/>
    </g>
</svg>
