<svg xmlns="http://www.w3.org/2000/svg" width="96" height="96" viewBox="0 0 96 96">
    <g fill="#FFF" fill-rule="nonzero">
        <rect width="96" height="96" opacity=".2" rx="16.91"/>
        <path d="M66.89 16.78H29.11a4.87 4.87 0 0 0-4.86 4.86v52.72a4.87 4.87 0 0 0 4.86 4.86h37.78a4.87 4.87 0 0 0 4.86-4.86V21.64a4.87 4.87 0 0 0-4.86-4.86zm1.86 57.58a1.87 1.87 0 0 1-1.86 1.86H29.11a1.87 1.87 0 0 1-1.86-1.86V21.64a1.87 1.87 0 0 1 1.86-1.86h37.78a1.87 1.87 0 0 1 1.86 1.86v52.72z"/>
        <path d="M59.86 44.7a1.3 1.3 0 0 1-.81 0c-.4-.27-.64-1.59-.81-2.56-.36-2-.84-4.65-3.39-5.42-2.55-.77-4.42 1.55-6 3.62-1.05 1.4-2.13 2.85-3.29 3.25-.14 0-.93-.14-2.23-1.6-.28-.32-.55-.65-.82-1C47.37 32.3 46.39 29 45.86 28c-.53-1-1.7-2-4.23-1.81a5.46 5.46 0 0 0-5 3.5C35.41 33 36.9 37.54 39 41c-1.2 2.06-2.56 4.16-3.95 6.12a1.5 1.5 0 0 0 1.468 2.351 1.49 1.49 0 0 0 .972-.611c1.33-1.87 2.47-3.58 3.44-5.14.22.26.44.5.65.72 2.25 2.29 4 2.33 5 2 2-.71 3.44-2.61 4.7-4.29.92-1.22 2-2.73 2.71-2.55.71.18 1 1.37 1.29 3.09.29 1.72.64 3.53 2.09 4.51a3.94 3.94 0 0 0 3.11.45 1.5 1.5 0 0 0-.62-2.93v-.02zm-19.15-6.81c-1.26-2.63-1.93-5.49-1.25-7.19.23-.57.73-1.35 2.41-1.49h.38c.4 0 .85.06 1 .32.65 1.13-.51 4.47-2.54 8.36zM60.17 58.31H36.25a1.5 1.5 0 0 0 0 3h23.92a1.5 1.5 0 0 0 0-3zM56.94 65.61H39.48a1.5 1.5 0 0 0 0 3h17.46a1.5 1.5 0 0 0 0-3z"/>
    </g>
</svg>
