<svg xmlns="http://www.w3.org/2000/svg" width="96" height="96" viewBox="0 0 96 96">
    <g fill="#FFF" fill-rule="nonzero">
        <rect width="96" height="96" opacity=".2" rx="16.91"/>
        <path d="M81.25 38.9H79.1v-5.24A6.67 6.67 0 0 0 72.44 27h-.34v-1.52a6.67 6.67 0 0 0-6.67-6.66 1.58 1.58 0 0 0-.38 0L23.59 27a6.66 6.66 0 0 0-6.4 6.65v34.12a6.67 6.67 0 0 0 6.66 6.66h48.59a6.67 6.67 0 0 0 6.66-6.66v-5.25h2.15a2 2 0 0 0 2-2V40.9a2 2 0 0 0-2-2zM65.6 22.82a2.68 2.68 0 0 1 2.5 2.66V27H44.4l21.2-4.18zm9.5 44.95a2.66 2.66 0 0 1-2.66 2.66H23.85a2.66 2.66 0 0 1-2.66-2.66V33.66A2.67 2.67 0 0 1 23.85 31h48.59a2.67 2.67 0 0 1 2.66 2.67v5.23H56.18c-6.522 0-11.81 5.288-11.81 11.81s5.288 11.81 11.81 11.81H75.1v5.25zm4.15-9.25H56.18a7.81 7.81 0 1 1 0-15.62h23.07v15.62z"/>
        <path d="M57.14 47.76a2.95 2.95 0 1 0 .1 5.9 2.95 2.95 0 0 0-.1-5.9z"/>
    </g>
</svg>
