<svg xmlns="http://www.w3.org/2000/svg" width="96" height="96" viewBox="0 0 96 96">
    <g fill="#FFF" fill-rule="nonzero">
        <rect width="96" height="96" opacity=".2" rx="16.91"/>
        <path d="M74.35 20.42H21.48a5.07 5.07 0 0 0-5.06 5.06v35.6a5.07 5.07 0 0 0 5.06 5.06h21.18v4.59c-4.4.41-9.49 1.47-9.49 4.27 0 4.18 11.35 4.5 14.83 4.5 3.48 0 14.83-.32 14.83-4.5 0-2.8-5.09-3.86-9.49-4.27v-4.59h21a5.07 5.07 0 0 0 5.07-5.06v-35.6a5.07 5.07 0 0 0-5.06-5.06zm-52.87 3h52.87c1.14 0 2.064.92 2.07 2.06v30.35h-57V25.48a2.06 2.06 0 0 1 2.06-2.06zM48 76.5c-5.86 0-9.74-.84-11.28-1.5 1.54-.66 5.42-1.5 11.28-1.5 5.86 0 9.74.84 11.28 1.5-1.54.66-5.42 1.5-11.28 1.5zm2.34-6h-4.68v-4.4h4.68v4.4zm24-7.4H21.48a2.06 2.06 0 0 1-2.06-2.06v-2.21h57v2.25a2.07 2.07 0 0 1-2.07 2.06l-.01-.04z"/>
        <path d="M30.1 46.92h4.74A3.94 3.94 0 0 0 38.77 43v-4.75a3.94 3.94 0 0 0-3.93-3.93H30.1a3.93 3.93 0 0 0-3.93 3.93V43a3.93 3.93 0 0 0 3.93 3.92zm-.93-8.67a.93.93 0 0 1 .93-.93h4.74a.93.93 0 0 1 .93.93V43a.93.93 0 0 1-.93.93H30.1a.93.93 0 0 1-.93-.93v-4.75zM45.55 46.92h4.74A3.94 3.94 0 0 0 54.22 43v-4.75a3.94 3.94 0 0 0-3.93-3.93h-4.74a3.93 3.93 0 0 0-3.93 3.93V43a3.93 3.93 0 0 0 3.93 3.92zm-.93-8.67a.93.93 0 0 1 .93-.93h4.74a.93.93 0 0 1 .93.93V43a.93.93 0 0 1-.93.93h-4.74a.93.93 0 0 1-.93-.93v-4.75zM61 46.92h4.74A3.94 3.94 0 0 0 69.67 43v-4.75a3.94 3.94 0 0 0-3.93-3.93H61a3.93 3.93 0 0 0-3.93 3.93V43A3.93 3.93 0 0 0 61 46.92zm-.93-8.67a.93.93 0 0 1 .93-.93h4.74a.93.93 0 0 1 .93.93V43a.93.93 0 0 1-.93.93H61a.93.93 0 0 1-.93-.93v-4.75z"/>
    </g>
</svg>
