<svg xmlns="http://www.w3.org/2000/svg" width="96" height="96" viewBox="0 0 96 96">
    <g fill="#FFF" fill-rule="nonzero">
        <rect width="96" height="96" opacity=".2" rx="16.91"/>
        <g transform="translate(16 20)">
            <path d="M61.92.46h-60a1.5 1.5 0 0 0-1.5 1.5v49.92a1.5 1.5 0 0 0 1.5 1.5h23.81a6.45 6.45 0 0 0 12.54 0h23.65a1.5 1.5 0 0 0 1.5-1.5V2a1.503 1.503 0 0 0-1.5-1.54zm-1.5 49.92H37a1.5 1.5 0 0 0-1.5 1.5 3.45 3.45 0 1 1-6.9 0 1.5 1.5 0 0 0-1.5-1.5H3.42V3.46h57v46.92z"/>
            <path d="M31.92 45.83a1.5 1.5 0 0 0 1.5-1.5V8a1.5 1.5 0 0 0-3 0v36.33a1.5 1.5 0 0 0 1.5 1.5zM9.83 12.5h5.5a1.5 1.5 0 0 0 0-3h-5.5a1.5 1.5 0 0 0 0 3zM9.83 20.08h12a1.5 1.5 0 0 0 0-3h-12a1.5 1.5 0 0 0 0 3zM42 12.5h9a1.5 1.5 0 0 0 0-3h-9a1.5 1.5 0 0 0 0 3zM42 27.67h9a1.5 1.5 0 0 0 0-3h-9a1.5 1.5 0 0 0 0 3zM42 20.08h4.5a1.5 1.5 0 0 0 0-3H42a1.5 1.5 0 0 0 0 3zM9.83 35.25h12a1.5 1.5 0 0 0 1.5-1.5v-7.58a1.5 1.5 0 0 0-1.5-1.5h-12a1.5 1.5 0 0 0-1.5 1.5v7.58a1.5 1.5 0 0 0 1.5 1.5zm1.5-7.58h9v4.58h-9v-4.58zM9.83 42.83h4.92a1.5 1.5 0 0 0 0-3H9.83a1.5 1.5 0 0 0 0 3z"/>
            <circle cx="21.83" cy="41.33" r="1.75"/>
            <circle cx="42" cy="33.75" r="1.75"/>
            <circle cx="48.25" cy="33.75" r="1.75"/>
            <path d="M50.5 18.58a1.5 1.5 0 0 0 1.5 1.5h3.5a1.5 1.5 0 0 0 0-3H52a1.5 1.5 0 0 0-1.5 1.5zM46.5 39.83H42a1.5 1.5 0 0 0 0 3h4.5a1.5 1.5 0 0 0 0-3zM55.5 39.83H52a1.5 1.5 0 0 0 0 3h3.5a1.5 1.5 0 0 0 0-3z"/>
        </g>
    </g>
</svg>
