<svg xmlns="http://www.w3.org/2000/svg" width="96" height="96" viewBox="0 0 96 96">
    <g fill="#FFF" fill-rule="nonzero">
        <rect width="96" height="96" opacity=".2" rx="16.91"/>
        <path d="M49.78 54.08a1.49 1.49 0 0 0-1.4.22l-9.22 7a3.35 3.35 0 0 1-2.46.7 3.32 3.32 0 0 1-1.57-5.93l9.22-7a1.5 1.5 0 0 0-.17-2.5c-5-2.8-10.23-2.59-14.39.58l-1.87 1.42a13.6 13.6 0 0 0-5.31 12.13l-5.53 4.22a1.5 1.5 0 0 0 .92 2.69 1.55 1.55 0 0 0 .91-.3l4.42-3.37a13.78 13.78 0 0 0 2 3.75 13.59 13.59 0 0 0 3.09 2.93l-7.75 5.91a1.5 1.5 0 1 0 1.82 2.38l8.86-6.75a13.79 13.79 0 0 0 4.87.91 13.56 13.56 0 0 0 8.27-2.8l1.87-1.42c4.16-3.17 5.75-8.17 4.37-13.72a1.49 1.49 0 0 0-.95-1.05zm-5.23 12.39l-1.87 1.42c-4.694 3.573-11.397 2.664-14.97-2.03-3.573-4.694-2.664-11.397 2.03-14.97l1.87-1.42a8.92 8.92 0 0 1 5.52-1.93 10.45 10.45 0 0 1 3.41.6l-7.23 5.5A6.335 6.335 0 1 0 41 63.71l7.23-5.5a9.21 9.21 0 0 1-3.68 8.26z"/>
        <path d="M66.71 62.49l-.41-11.58a12.69 12.69 0 1 0-13.22-18.37l-15.2-5.72a9 9 0 0 0 .14-2.6 9.16 9.16 0 1 0-9.13 10c.28.015.56.015.84 0a9.13 9.13 0 0 0 7.09-4.54L52 35.35a12.57 12.57 0 0 0-.38 3A12.71 12.71 0 0 0 63.3 51l.41 11.56a9.1 9.1 0 1 0 3-.09v.02zM33.63 29a6.16 6.16 0 1 1-5.29-10.08c.19-.01.38-.01.57 0A6.17 6.17 0 0 1 35 24.49c.04.419.04.841 0 1.26l-3.54-1.33a2.65 2.65 0 1 0-1.05 2.81L34 28.56c-.14.15-.25.29-.37.44zm21 9.38a9.754 9.754 0 0 1 .2-2l5.67 2.13a3.84 3.84 0 1 0 1-2.81l-5.59-2.1a9.7 9.7 0 1 1-1.26 4.78h-.02zm10.9 39.14a6.06 6.06 0 1 1 6-6.06 6.07 6.07 0 0 1-6 6.06z"/>
        <path d="M65.53 68.8a2.66 2.66 0 1 0 2.66 2.66 2.67 2.67 0 0 0-2.66-2.66z"/>
    </g>
</svg>
