<svg xmlns="http://www.w3.org/2000/svg" width="96" height="96" viewBox="0 0 96 96">
    <g fill="#FFF" fill-rule="nonzero">
        <rect width="96" height="96" opacity=".2" rx="16.91"/>
        <path d="M74.07 61.05v-5.66a8.28 8.28 0 0 0-8.27-8.27h-16V37a9.87 9.87 0 1 0-3.5 0v10.12h-16a8.28 8.28 0 0 0-8.27 8.27v5.66a8.29 8.29 0 1 0 3.5 0v-5.66a4.78 4.78 0 0 1 4.77-4.77h15.95v10.43a8.29 8.29 0 1 0 3.5 0V50.62h16a4.78 4.78 0 0 1 4.77 4.77v5.66a8.29 8.29 0 1 0 3.5 0h.05zM41.63 27.26A6.37 6.37 0 1 1 48 33.62a6.38 6.38 0 0 1-6.37-6.36zM28.47 69.15a4.79 4.79 0 1 1-9.58 0 4.79 4.79 0 0 1 9.58 0zm24.32 0a4.79 4.79 0 1 1-9.58 0 4.79 4.79 0 0 1 9.58 0zm19.53 4.78a4.79 4.79 0 1 1 0-9.58 4.79 4.79 0 0 1 0 9.58z"/>
    </g>
</svg>
