<svg xmlns="http://www.w3.org/2000/svg" width="96" height="96" viewBox="0 0 96 96">
    <g fill="#FFF" fill-rule="nonzero">
        <rect width="96" height="96" opacity=".2" rx="16.91"/>
        <g transform="translate(26 14)">
            <path d="M30.5.53H5.69A5.37 5.37 0 0 0 .33 5.89V62a5.37 5.37 0 0 0 5.36 5.36h34.45A5.37 5.37 0 0 0 45.5 62V15.53a15 15 0 0 0-15-15zM32 3.67A12.27 12.27 0 0 1 42.36 14h-7A3.33 3.33 0 0 1 32 10.7V3.67zM42.5 62a2.36 2.36 0 0 1-2.36 2.36H5.69A2.36 2.36 0 0 1 3.33 62V5.89a2.36 2.36 0 0 1 2.36-2.36H29v7.17a6.34 6.34 0 0 0 6.32 6.3h7.18v45z"/>
            <path d="M9.61 26h12.17a1.5 1.5 0 0 0 0-3H9.61a1.5 1.5 0 0 0 0 3zM9.61 12H18a1.5 1.5 0 0 0 0-3H9.61a1.5 1.5 0 0 0 0 3zM23.78 55.5H9.61a1.5 1.5 0 0 0 0 3h14.17a1.5 1.5 0 0 0 0-3zM9.61 33.06h19.7a1.5 1.5 0 0 0 0-3H9.61a1.5 1.5 0 0 0 0 3zM29.31 43.76H9.61a1.5 1.5 0 0 0 0 3h19.7a1.5 1.5 0 0 0 0-3zM34.12 37.1H9.61a1.5 1.5 0 0 0 0 3h24.51a1.5 1.5 0 0 0 0-3z"/>
            <circle cx="35.25" cy="57" r="1.94"/>
        </g>
    </g>
</svg>
