<svg xmlns="http://www.w3.org/2000/svg" width="96" height="96" viewBox="0 0 96 96">
    <g fill="#FFF" fill-rule="nonzero">
        <rect width="96" height="96" opacity=".2" rx="16.91"/>
        <path d="M26.31 66.82h-6.59v-10a1.5 1.5 0 0 0-3 0v19.59a1.5 1.5 0 0 0 1.5 1.5h8.09a1.5 1.5 0 0 0 1.5-1.5v-8.09a1.5 1.5 0 0 0-1.5-1.5zm-1.5 8.09h-5.09v-5.09h5.09v5.09zM36.67 66.82h-3.08a3.51 3.51 0 0 0-3.5 3.51v6.08a1.5 1.5 0 0 0 3 0v-6.08a.5.5 0 0 1 .5-.51h3.08a.5.5 0 0 1 .5.51 1.5 1.5 0 0 0 3 0 3.51 3.51 0 0 0-3.5-3.51zM51.05 66.82h-4.9a4.69 4.69 0 0 0-4.69 4.69v1.72a4.69 4.69 0 0 0 4.68 4.68h4.91a1.5 1.5 0 0 0 1.5-1.5v-8.09a1.5 1.5 0 0 0-1.5-1.5zm-6.59 6.41v-1.72c0-.933.757-1.69 1.69-1.69h3.4v5.09h-3.41a1.68 1.68 0 0 1-1.68-1.68zM61.4 66.82H57A2.21 2.21 0 0 0 54.83 69v7.38a1.5 1.5 0 0 0 3 0v-6.56h3.57a1.52 1.52 0 0 1 1.51 1.52v5.07a1.5 1.5 0 0 0 3 0v-5.07a4.52 4.52 0 0 0-4.51-4.52zM77.78 55.27a1.5 1.5 0 0 0-1.5 1.5v10h-6.59a1.5 1.5 0 0 0-1.5 1.5v8.09a1.5 1.5 0 0 0 1.5 1.5h8.09a1.5 1.5 0 0 0 1.5-1.5V56.77a1.51 1.51 0 0 0-1.5-1.5zm-1.5 19.64h-5.09v-5.09h5.09v5.09zM41.05 45.4l.06.17L46.65 57a1.5 1.5 0 0 0 2.7 0l5.53-11.4.12-.2v-.12a.59.59 0 0 0 0-.14.88.88 0 0 0 0-.14V18.36a1.5 1.5 0 0 0-1.5-1.5h-11a1.5 1.5 0 0 0-1.5 1.5V45a.88.88 0 0 0 0 .16.59.59 0 0 0 0 .14l.05.1zm11-1.95H44V27h8l.05 16.45zm-4 9.49l-3.14-6.49h6.28l-3.14 6.49zm4-33.08V24H44v-4.14h8.05z"/>
    </g>
</svg>
