<svg xmlns="http://www.w3.org/2000/svg" xmlns:xlink="http://www.w3.org/1999/xlink" width="1331" height="834" viewBox="0 0 1331 834">
    <defs>
        <ellipse id="8besvah8sb" cx="167.623" cy="275.254" rx="126.623" ry="127.446"/>
        <path id="wzgqjpnfma" d="M612.678 549.119H648.804V584.2130000000001H612.678z"/>
    </defs>
    <g fill="none" fill-rule="evenodd">
        <rect width="159" height="139" x=".5" y="534.5" stroke="#979797" rx="4"/>
        <text fill="#606670" font-family="Roboto-Medium, Roboto" font-size="15" font-weight="400">
            <tspan x="51.143" y="606">Increase</tspan> <tspan x="34.323" y="626">US Land Area</tspan>
        </text>
        <text fill="#202124" font-family="AkzidenzGroteskPro-Regular, Akzidenz-Grotesk Pro" font-size="14" text-decoration="underline">
            <tspan x="64" y="657">More</tspan>
        </text>
        <text fill="#3A414E" font-family="Roboto-Bold, Roboto" font-size="30" font-weight="bold">
            <tspan x="52" y="576">20%</tspan>
        </text>
        <rect width="159" height="139" x="183.5" y="534.5" stroke="#979797" rx="4"/>
        <text fill="#606670" font-family="Roboto-Medium, Roboto" font-size="15" font-weight="400">
            <tspan x="206.168" y="606">Increase Nuclear</tspan> <tspan x="204.498" y="626">Waste Stockpiles</tspan>
        </text>
        <text fill="#202124" font-family="AkzidenzGroteskPro-Regular, Akzidenz-Grotesk Pro" font-size="14" text-decoration="underline">
            <tspan x="248" y="657">More</tspan>
        </text>
        <text fill="#3A414E" font-family="Roboto-Bold, Roboto" font-size="30" font-weight="bold">
            <tspan x="243" y="576">8%</tspan>
        </text>
        <rect width="159" height="139" x=".5" y="694.5" stroke="#979797" rx="4"/>
        <text fill="#606670" font-family="Roboto-Medium, Roboto" font-size="15" font-weight="400">
            <tspan x="51.143" y="766">Increase</tspan> <tspan x="39.047" y="786">REM Mining</tspan>
        </text>
        <text fill="#3A414E" font-family="Roboto-Bold, Roboto" font-size="30" font-weight="bold">
            <tspan x="52" y="736">10%</tspan>
        </text>
        <path stroke="#979797" d="M183.5 694.5H342.5V833.5H183.5z"/>
        <text fill="#606670" font-family="Roboto-Medium, Roboto" font-size="15" font-weight="400">
            <tspan x="234.143" y="766">Increase</tspan> <tspan x="217.128" y="786">Transmission</tspan>
        </text>
        <text fill="#3A414E" font-family="Roboto-Bold, Roboto" font-size="30" font-weight="bold">
            <tspan x="243" y="736">8%</tspan>
        </text>
        <path stroke="#979797" d="M385.067 0.5H1329.542V833.5H385.067z"/>
        <path stroke="#DBDDE3" stroke-linecap="square" d="M458.755 274.832L822.082 274.832M458.755 209.906L822.082 209.906M458.755 144.98L822.082 144.98M458.755 339.758L822.082 339.758M458.755 404.684L822.082 404.684"/>
        <text fill="#3A414E" font-family="Roboto-Medium, Roboto" font-size="13" font-weight="400">
            <tspan x="425.735" y="341.023">200</tspan>
        </text>
        <text fill="#3A414E" font-family="Roboto-Medium, Roboto" font-size="13" font-weight="400">
            <tspan x="425.879" y="407.711">100</tspan>
        </text>
        <text fill="#3A414E" font-family="Roboto-Medium, Roboto" font-size="13" font-weight="400">
            <tspan x="425.879" y="277.039">400</tspan>
        </text>
        <text fill="#3A414E" font-family="Roboto-Medium, Roboto" font-size="13" font-weight="400">
            <tspan x="425.879" y="211.259">600</tspan>
        </text>
        <text fill="#3A414E" font-family="Roboto-Medium, Roboto" font-size="13" font-weight="400">
            <tspan x="425.879" y="145.479">800</tspan>
        </text>
        <text fill="#3A414E" font-family="Roboto-Medium, Roboto" font-size="12" font-weight="400">
            <tspan x="457.219" y="436.422">1</tspan>
        </text>
        <text fill="#3A414E" font-family="Roboto-Medium, Roboto" font-size="12" font-weight="400">
            <tspan x="481.991" y="436.422">2</tspan>
        </text>
        <text fill="#3A414E" font-family="Roboto-Medium, Roboto" font-size="12" font-weight="400">
            <tspan x="506.764" y="436.422">3</tspan>
        </text>
        <text fill="#3A414E" font-family="Roboto-Medium, Roboto" font-size="12" font-weight="400">
            <tspan x="531.536" y="436.422">4</tspan>
        </text>
        <text fill="#3A414E" font-family="Roboto-Medium, Roboto" font-size="12" font-weight="400">
            <tspan x="556.308" y="436.422">5</tspan>
        </text>
        <text fill="#3A414E" font-family="Roboto-Medium, Roboto" font-size="12" font-weight="400">
            <tspan x="581.08" y="436.422">6</tspan>
        </text>
        <text fill="#3A414E" font-family="Roboto-Medium, Roboto" font-size="12" font-weight="400">
            <tspan x="605.853" y="436.422">7</tspan>
        </text>
        <text fill="#3A414E" font-family="Roboto-Medium, Roboto" font-size="12" font-weight="400">
            <tspan x="630.625" y="436.422">8</tspan>
        </text>
        <text fill="#3A414E" font-family="Roboto-Medium, Roboto" font-size="12" font-weight="400">
            <tspan x="655.397" y="436.422">9</tspan>
        </text>
        <text fill="#3A414E" font-family="Roboto-Medium, Roboto" font-size="12" font-weight="400">
            <tspan x="680.169" y="436.422">10</tspan>
        </text>
        <text fill="#3A414E" font-family="Roboto-Medium, Roboto" font-size="12" font-weight="400">
            <tspan x="712.167" y="436.422">11</tspan>
        </text>
        <text fill="#3A414E" font-family="Roboto-Medium, Roboto" font-size="12" font-weight="400">
            <tspan x="744.164" y="436.422">12</tspan>
        </text>
        <text fill="#3A414E" font-family="Roboto-Medium, Roboto" font-size="12" font-weight="400">
            <tspan x="776.162" y="436.422">13</tspan>
        </text>
        <text fill="#3A414E" font-family="Roboto-Medium, Roboto" font-size="12" font-weight="400">
            <tspan x="808.16" y="436.422">14</tspan>
        </text>
        <path stroke="#DBDBDB" stroke-width="3" d="M478.163 392.73c16.388-27.484 28.427-46.321 36.116-56.511 11.534-15.285 21.805-24.724 38.894-14.128 17.09 10.596 13.748 44.187 39.228 43.285 25.479-.902 31.5-94.498 39.117-120.987 7.616-26.49 16.61-49.447 37.377-49.447 20.767 0 20.767 54.518 39.382 54.518 18.616 0 10.968-47.29 39.5-47.29 19.022 0 32.128 27.864 39.319 83.591"/>
        <ellipse cx="479.037" cy="391.194" fill="#DBDBDB" rx="3.097" ry="3.174"/>
        <ellipse cx="509.516" cy="342.209" fill="#DBDBDB" rx="3.097" ry="3.174"/>
        <ellipse cx="554.603" cy="322.791" fill="#DBDBDB" rx="3.097" ry="3.174"/>
        <ellipse cx="590.401" cy="365.174" fill="#DBDBDB" rx="3.097" ry="3.174"/>
        <ellipse cx="631.36" cy="244.031" fill="#DBDBDB" rx="3.097" ry="3.174"/>
        <ellipse cx="666.046" cy="194.584" fill="#DBDBDB" rx="3.097" ry="3.174"/>
        <ellipse cx="708.037" cy="249.679" fill="#DBDBDB" rx="3.097" ry="3.174"/>
        <ellipse cx="747.011" cy="201.647" fill="#DBDBDB" rx="3.097" ry="3.174"/>
        <ellipse cx="786.937" cy="283.001" fill="#DBDBDB" rx="3.097" ry="3.174"/>
        <path stroke="#1F1F21" stroke-width="3" d="M481.26 376.132c16.388-27.484 28.426-46.32 36.115-56.51 11.534-15.285 21.805-24.724 38.895-14.128 17.09 10.595 13.748 44.187 39.227 43.285 25.48-.902 31.501-94.498 39.117-120.988 7.617-26.49 16.61-49.447 37.377-49.447 20.767 0 20.767 54.519 39.383 54.519 18.616 0 10.968-47.29 39.5-47.29 19.022 0 32.128 27.863 39.318 83.59"/>
        <ellipse cx="482.133" cy="374.597" fill="#1F1F21" rx="3.097" ry="3.174"/>
        <ellipse cx="512.612" cy="325.611" fill="#1F1F21" rx="3.097" ry="3.174"/>
        <ellipse cx="557.7" cy="306.194" fill="#1F1F21" rx="3.097" ry="3.174"/>
        <ellipse cx="593.497" cy="348.577" fill="#1F1F21" rx="3.097" ry="3.174"/>
        <ellipse cx="634.456" cy="227.433" fill="#1F1F21" rx="3.097" ry="3.174"/>
        <ellipse cx="669.143" cy="177.986" fill="#1F1F21" rx="3.097" ry="3.174"/>
        <ellipse cx="711.134" cy="233.081" fill="#1F1F21" rx="3.097" ry="3.174"/>
        <ellipse cx="750.107" cy="185.05" fill="#1F1F21" rx="3.097" ry="3.174"/>
        <ellipse cx="790.034" cy="266.404" fill="#1F1F21" rx="3.097" ry="3.174"/>
        <path stroke="#8B8B8B" stroke-width="3" d="M477.051 299.832c13.198-32.054 25.6-48.081 37.204-48.081 17.406 0 17.907 40.995 38.918 38.724 21.011-2.271 24.156-14.69 38.975-47.144 14.819-32.453 14.819-66.168 39.097-63.695 24.279 2.474 27.667 97.022 36.944 127.19 9.278 30.17 20.948 53.378 39.321 55.294 12.248 1.277 25.376-14.418 39.383-47.086l39.091-131.837"/>
        <ellipse cx="478.005" cy="297.368" fill="#8B8B8B" rx="3.097" ry="3.174"/>
        <ellipse cx="513.644" cy="251.214" fill="#8B8B8B" rx="3.097" ry="3.174"/>
        <ellipse cx="668.111" cy="307.486" fill="#8B8B8B" rx="3.097" ry="3.174"/>
        <ellipse cx="554.603" cy="291.004" fill="#8B8B8B" rx="3.097" ry="3.174"/>
        <ellipse cx="592.465" cy="243.911" fill="#8B8B8B" rx="3.097" ry="3.174"/>
        <ellipse cx="628.263" cy="179.279" fill="#8B8B8B" rx="3.097" ry="3.174"/>
        <ellipse cx="709.069" cy="361.762" fill="#8B8B8B" rx="3.097" ry="3.174"/>
        <ellipse cx="747.011" cy="315.727" fill="#8B8B8B" rx="3.097" ry="3.174"/>
        <ellipse cx="785.905" cy="183.868" fill="#8B8B8B" rx="3.097" ry="3.174"/>
        <text fill="#989CA7" font-family="Roboto-Bold, Roboto" font-size="13" font-weight="bold" letter-spacing=".5">
            <tspan x="425.599" y="105.116">K</tspan> <tspan x="434.351" y="105.116">W</tspan>
        </text>
        <text fill="#989CA7" font-family="Roboto-Bold, Roboto" font-size="13" font-weight="bold" letter-spacing=".5">
            <tspan x="617.839" y="478.306">DAY</tspan> <tspan x="643.486" y="478.306">S</tspan>
        </text>
        <path stroke="#DBDDE3" stroke-linecap="square" d="M923.235 273.774L1290.691 273.774M923.235 208.848L1290.691 208.848M923.235 143.922L1290.691 143.922M923.235 338.7L1290.691 338.7M923.235 403.626L1290.691 403.626"/>
        <text fill="#3A414E" font-family="Roboto-Medium, Roboto" font-size="12" font-weight="400">
            <tspan x="889.944" y="341.023">200</tspan>
        </text>
        <text fill="#3A414E" font-family="Roboto-Medium, Roboto" font-size="12" font-weight="400">
            <tspan x="890.088" y="407.711">100</tspan>
        </text>
        <text fill="#3A414E" font-family="Roboto-Medium, Roboto" font-size="12" font-weight="400">
            <tspan x="890.088" y="277.039">400</tspan>
        </text>
        <text fill="#3A414E" font-family="Roboto-Medium, Roboto" font-size="12" font-weight="400">
            <tspan x="890.088" y="211.259">600</tspan>
        </text>
        <text fill="#3A414E" font-family="Roboto-Medium, Roboto" font-size="12" font-weight="400">
            <tspan x="890.088" y="145.479">800</tspan>
        </text>
        <text fill="#3A414E" font-family="Roboto-Medium, Roboto" font-size="12" font-weight="400">
            <tspan x="921.606" y="443.606">1</tspan>
        </text>
        <text fill="#3A414E" font-family="Roboto-Medium, Roboto" font-size="12" font-weight="400">
            <tspan x="946.378" y="443.606">2</tspan>
        </text>
        <text fill="#3A414E" font-family="Roboto-Medium, Roboto" font-size="12" font-weight="400">
            <tspan x="971.15" y="443.606">3</tspan>
        </text>
        <text fill="#3A414E" font-family="Roboto-Medium, Roboto" font-size="12" font-weight="400">
            <tspan x="995.923" y="443.606">4</tspan>
        </text>
        <text fill="#3A414E" font-family="Roboto-Medium, Roboto" font-size="12" font-weight="400">
            <tspan x="1020.695" y="443.606">5</tspan>
        </text>
        <text fill="#3A414E" font-family="Roboto-Medium, Roboto" font-size="12" font-weight="400">
            <tspan x="1045.467" y="443.606">6</tspan>
        </text>
        <text fill="#3A414E" font-family="Roboto-Medium, Roboto" font-size="12" font-weight="400">
            <tspan x="1070.239" y="443.606">7</tspan>
        </text>
        <text fill="#3A414E" font-family="Roboto-Medium, Roboto" font-size="12" font-weight="400">
            <tspan x="1095.012" y="443.606">8</tspan>
        </text>
        <text fill="#3A414E" font-family="Roboto-Medium, Roboto" font-size="12" font-weight="400">
            <tspan x="1119.784" y="443.606">9</tspan>
        </text>
        <text fill="#3A414E" font-family="Roboto-Medium, Roboto" font-size="12" font-weight="400">
            <tspan x="1144.556" y="443.606">10</tspan>
        </text>
        <text fill="#3A414E" font-family="Roboto-Medium, Roboto" font-size="12" font-weight="400">
            <tspan x="1176.554" y="443.606">11</tspan>
        </text>
        <text fill="#3A414E" font-family="Roboto-Medium, Roboto" font-size="12" font-weight="400">
            <tspan x="1208.551" y="443.606">12</tspan>
        </text>
        <text fill="#3A414E" font-family="Roboto-Medium, Roboto" font-size="12" font-weight="400">
            <tspan x="1240.549" y="443.606">13</tspan>
        </text>
        <text fill="#3A414E" font-family="Roboto-Medium, Roboto" font-size="12" font-weight="400">
            <tspan x="1272.546" y="443.606">14</tspan>
        </text>
        <path stroke="#1F1F21" stroke-width="3" d="M941.532 298.774c13.198-32.054 25.599-48.081 37.203-48.081 17.406 0 17.908 40.995 38.919 38.724 21.01-2.271 24.155-14.69 38.974-47.144 14.82-32.453 14.82-66.168 39.097-63.694 24.279 2.473 27.667 97.02 36.945 127.19 9.277 30.168 20.948 53.377 39.32 55.293 12.249 1.277 25.376-14.418 39.384-47.086l39.09-131.837"/>
        <ellipse cx="942.485" cy="296.31" fill="#1F1F21" rx="3.097" ry="3.174"/>
        <ellipse cx="978.124" cy="250.156" fill="#1F1F21" rx="3.097" ry="3.174"/>
        <ellipse cx="1132.591" cy="306.428" fill="#1F1F21" rx="3.097" ry="3.174"/>
        <ellipse cx="1019.083" cy="289.946" fill="#1F1F21" rx="3.097" ry="3.174"/>
        <ellipse cx="1056.945" cy="242.853" fill="#1F1F21" rx="3.097" ry="3.174"/>
        <ellipse cx="1092.743" cy="178.221" fill="#1F1F21" rx="3.097" ry="3.174"/>
        <ellipse cx="1173.55" cy="360.704" fill="#1F1F21" rx="3.097" ry="3.174"/>
        <ellipse cx="1211.491" cy="314.669" fill="#1F1F21" rx="3.097" ry="3.174"/>
        <ellipse cx="1250.385" cy="182.81" fill="#1F1F21" rx="3.097" ry="3.174"/>
        <text fill="#989CA7" font-family="Roboto-Bold, Roboto" font-size="13" font-weight="bold" letter-spacing=".5">
            <tspan x="890.08" y="105.116">K</tspan> <tspan x="898.832" y="105.116">W</tspan>
        </text>
        <text fill="#989CA7" font-family="Roboto-Bold, Roboto" font-size="13" font-weight="bold" letter-spacing=".5">
            <tspan x="1082.319" y="478.306">DAY</tspan> <tspan x="1107.966" y="478.306">S</tspan>
        </text>
        <text fill="#3A414E" font-family="Roboto-Bold, Roboto" font-size="16" font-weight="bold" letter-spacing=".5">
            <tspan x="528.986" y="47.319">DEMAND &amp; GENERATION</tspan>
        </text>
        <text fill="#3A414E" font-family="Roboto-Bold, Roboto" font-size="16" font-weight="bold" letter-spacing=".5">
            <tspan x="1024.33" y="47.319">UNMET DEMAND</tspan>
        </text>
        <text fill="#616771" font-family="Roboto-Medium, Roboto" font-size="12" font-weight="400">
            <tspan x="532.168" y="671.562">Adding solar panels is </tspan> <tspan x="532.168" y="687.562">an easy way to </tspan> <tspan x="532.168" y="703.562">produce electricity </tspan> <tspan x="532.168" y="719.562">during the day, when </tspan> <tspan x="532.168" y="735.562">the sun is shining</tspan>
        </text>
        <text fill="#616771" font-family="Roboto-Medium, Roboto" font-size="12" font-weight="400">
            <tspan x="794.342" y="671.562">Adding wind turbines </tspan> <tspan x="794.342" y="687.562">allows you to produce </tspan> <tspan x="794.342" y="703.562">energy whenever the </tspan> <tspan x="794.342" y="719.562">wind blows – both day </tspan> <tspan x="794.342" y="735.562">and night</tspan>
        </text>
        <text fill="#616771" font-family="Roboto-Medium, Roboto" font-size="12" font-weight="400">
            <tspan x="1050.322" y="671.562">Battery packs can help you </tspan> <tspan x="1050.322" y="687.562">balance out the intermittency </tspan> <tspan x="1050.322" y="703.562">of solar and wind power. Each </tspan> <tspan x="1050.322" y="719.562">battery pack can store about </tspan> <tspan x="1050.322" y="735.562">half a day’s worth of energy, </tspan> <tspan x="1050.322" y="751.562">allowing for relief when the </tspan> <tspan x="1050.322" y="767.562">sun isn’t shining and the wind </tspan> <tspan x="1050.322" y="783.562">isn’t blowing</tspan>
        </text>
        <circle cx="548.683" cy="566.666" r="17.547" fill="#202124"/>
        <path fill="#FFF" d="M549.568 565.781v-4.8c0-.28-.217-.508-.502-.508h-.765c-.278 0-.503.228-.503.509v4.8H543c-.281 0-.509.216-.509.501v.765c0 .278.228.503.51.503h4.798v4.799c0 .281.217.509.503.509h.765c.277 0 .502-.228.502-.51v-4.798h4.8c.28 0 .508-.217.508-.503v-.765c0-.277-.228-.502-.509-.502h-4.8z"/>
        <ellipse cx="630.741" cy="566.666" fill="#202124" rx="18.063" ry="17.547"/>
        <rect width="12.75" height="2.064" x="624.366" y="565.634" fill="#FFF" rx="1.032"/>
        <ellipse cx="812.921" cy="566.471" fill="#202124" rx="17.547" ry="17.352"/>
        <circle cx="895.91" cy="566.599" r="17.48" fill="#202124"/>
        <ellipse cx="1081.287" cy="566.471" fill="#202124" rx="17.547" ry="17.352"/>
        <circle cx="1164.345" cy="566.666" r="17.547" fill="#202124"/>
        <path fill="#FFF" d="M813.774 565.77v-4.875c0-.274-.22-.496-.508-.496h-.774c-.281 0-.509.23-.509.496v4.876h-4.876c-.273 0-.495.22-.495.508v.774c0 .28.23.508.495.508h4.876v4.876c0 .274.22.496.509.496h.774c.28 0 .508-.231.508-.496v-4.876h4.876c.273 0 .495-.22.495-.508v-.774c0-.28-.23-.508-.495-.508h-4.876z" opacity=".8"/>
        <rect width="11.654" height="1.865" x="890.06" y="565.434" fill="#FFF" rx=".932"/>
        <path fill="#FFF" d="M1082.14 565.77v-4.875c0-.274-.22-.496-.508-.496h-.774c-.28 0-.508.23-.508.496v4.876h-4.876c-.274 0-.496.22-.496.508v.774c0 .28.23.508.496.508h4.876v4.876c0 .274.22.496.508.496h.774c.28 0 .508-.231.508-.496v-4.876h4.876c.274 0 .496-.22.496-.508v-.774c0-.28-.231-.508-.496-.508h-4.876z" opacity=".8"/>
        <rect width="11.698" height="1.872" x="1158.472" y="565.496" fill="#FFF" rx=".936"/>
        <text fill="#3D3B3B" font-family="Roboto-Medium, Roboto" font-size="25" font-weight="400">
            <tspan x="582.745" y="575.698">1</tspan>
        </text>
        <text fill="#3D3B3B" font-family="Roboto-Medium, Roboto" font-size="18" font-weight="400">
            <tspan x="540.074" y="623.259">Solar Panels</tspan>
        </text>
        <text fill="#3D3B3B" font-family="Roboto-Medium, Roboto" font-size="25" font-weight="400">
            <tspan x="846.983" y="575.698">2</tspan>
        </text>
        <text fill="#3D3B3B" font-family="Roboto-Medium, Roboto" font-size="18" font-weight="400">
            <tspan x="798.662" y="623.259">Wind Turbines</tspan>
        </text>
        <text fill="#3D3B3B" font-family="Roboto-Medium, Roboto" font-size="25" font-weight="400">
            <tspan x="1115.349" y="575.698">1</tspan>
        </text>
        <text fill="#3D3B3B" font-family="Roboto-Medium, Roboto" font-size="18" font-weight="400">
            <tspan x="1068.213" y="623.259">Battery Packs</tspan>
        </text>
        <path stroke="#979797" d="M0.5 0.5H342.5V499.5H0.5z"/>
        <path stroke="#202124" stroke-width="2" d="M37 23L37 35 25 35" transform="scale(-1 1) rotate(-45 0 103.84)"/>
        <ellipse cx="29.017" cy="453" fill="#1F1F21" rx="5.017" ry="5"/>
        <text fill="#3A414E" font-family="Roboto-Bold, Roboto" font-size="14" font-weight="bold">
            <tspan x="42.061" y="457">Solar</tspan>
        </text>
        <text fill="#505661" font-family="Roboto-Medium, Roboto" font-size="12" font-weight="400">
            <tspan x="42.061" y="476">3,500 USD</tspan>
        </text>
        <ellipse cx="137.384" cy="453" fill="#DBDBDB" rx="5.017" ry="5"/>
        <text fill="#3A414E" font-family="Roboto-Bold, Roboto" font-size="14" font-weight="bold">
            <tspan x="150.429" y="457">Wind</tspan>
        </text>
        <text fill="#505661" font-family="Roboto-Medium, Roboto" font-size="12" font-weight="400">
            <tspan x="150.429" y="476">1,750 USD</tspan>
        </text>
        <ellipse cx="245.752" cy="453" fill="#8B8B8B" rx="5.017" ry="5"/>
        <text fill="#3A414E" font-family="Roboto-Bold, Roboto" font-size="14" font-weight="bold">
            <tspan x="258.796" y="457">Battery</tspan>
        </text>
        <text fill="#505661" font-family="Roboto-Medium, Roboto" font-size="12" font-weight="400">
            <tspan x="258.796" y="476">1,750 USD</tspan>
        </text>
        <mask id="2c9a4299kc" fill="#fff">
            <use xlink:href="#8besvah8sb"/>
        </mask>
        <use fill="#FFF" xlink:href="#8besvah8sb"/>
        <path fill="#DBDBDB" d="M174.377 275.254H301V402.70000000000005H174.377z" mask="url(#2c9a4299kc)"/>
        <path fill="#1F1F21" d="M41 273.13H167.623V403.125H41z" mask="url(#2c9a4299kc)"/>
        <path fill="#1F1F21" d="M41 147.808H167.623V275.254H41z" mask="url(#2c9a4299kc)"/>
        <path fill="#8B8B8B" d="M181.13 141.011v120.648H301c-2.956-32.282-14.75-59.438-35.383-81.466-20.632-22.028-48.794-35.09-84.487-39.182z"/>
        <g>
            <text fill="#FFF" font-family="AvenirNext-Medium, Avenir Next" font-size="24" font-weight="400" transform="translate(79.208 21)">
                <tspan x="129.312" y="199.134">25%</tspan>
            </text>
            <text fill="#FFF" font-family="AvenirNext-Medium, Avenir Next" font-size="24" font-weight="400" transform="translate(79.208 21)">
                <tspan x="0" y="261.53">50%</tspan>
            </text>
            <text fill="#202124" font-family="AvenirNext-Medium, Avenir Next" font-size="24" font-weight="400" transform="translate(79.208 21)">
                <tspan x="124.558" y="308.836">25%</tspan>
            </text>
            <g font-family="Roboto-Bold, Roboto" font-weight="bold">
                <text fill="#606670" font-size="14" letter-spacing=".35" transform="translate(79.208 21) translate(26.792 59)">
                    <tspan x="0" y="15">TOTAL</tspan> <tspan x="44.146" y="15">:</tspan>
                </text>
                <text fill="#3A414E" font-size="16" transform="translate(79.208 21) translate(26.792 59)">
                    <tspan x="55" y="15">7,000 USD</tspan>
                </text>
            </g>
            <text fill="#505661" font-family="Roboto-Bold, Roboto" font-size="14" font-weight="bold" letter-spacing=".5" transform="translate(79.208 21)">
                <tspan x="5.154" y="13">MONTHLY ELECTRIC BILL</tspan>
            </text>
        </g>
    </g>
</svg>
