<svg xmlns="http://www.w3.org/2000/svg" width="307" height="100" viewBox="0 0 307 100">
    <g fill="none">
        <path fill="#3CD17F" d="M55.672 78.526c-.424 0-.826-.095-1.208-.286-.381-.19-.678-.476-.89-.857L40.922 59.228h-2.034l-.064 16.695c0 .72-.244 1.323-.731 1.81-.488.486-1.092.73-1.812.73s-1.325-.244-1.812-.73c-.488-.487-.731-1.09-.731-1.81l.127-41.643c0-.466.116-.878.35-1.238.233-.36.519-.646.858-.857.339-.296.805-.445 1.399-.445h6.04c2.161 0 4.206.328 6.135.984 1.928.656 3.655 1.598 5.181 2.825 1.441 1.185 2.628 2.645 3.56 4.38.89 1.778 1.336 3.619 1.336 5.523 0 1.99-.445 3.83-1.335 5.523-.466.847-.986 1.63-1.558 2.349-.572.72-1.24 1.397-2.003 2.031-2.077 1.693-4.429 2.815-7.057 3.365l10.936 15.807c.423.592.572 1.227.445 1.904-.127.677-.488 1.227-1.081 1.65-.509.297-.975.445-1.399.445zM38.888 54.149h3.623c1.526 0 2.978-.232 4.356-.698 1.377-.466 2.617-1.143 3.719-2.031 2.034-1.65 3.052-3.64 3.052-5.968 0-2.285-1.018-4.274-3.052-5.967-2.247-1.777-4.938-2.666-8.075-2.666h-3.56l-.063 17.33zM76.27 77.955c-2.034 0-3.963-.37-5.785-1.111-1.823-.74-3.455-1.81-4.896-3.206-1.483-1.439-2.638-3.079-3.465-4.92-.826-1.84-1.26-3.798-1.303-5.872-.042-2.074.307-4.052 1.049-5.935.742-1.884 1.833-3.566 3.274-5.047 1.399-1.481 3.03-2.624 4.896-3.428 1.865-.804 3.836-1.248 5.913-1.333 2.034-.042 4.005.307 5.912 1.047 1.908.74 3.603 1.83 5.087 3.27l.063.063c.466.55.7 1.143.7 1.778 0 .634-.234 1.227-.7 1.777L71.25 71.48c.975.55 2.013.93 3.115 1.142 1.102.212 2.204.233 3.306.064 1.102-.17 2.162-.508 3.18-1.016 1.016-.508 1.949-1.185 2.797-2.031.508-.508 1.123-.773 1.843-.794.72-.021 1.335.201 1.844.667.509.508.763 1.121.763 1.84 0 .72-.233 1.334-.7 1.842-1.44 1.48-3.083 2.623-4.927 3.428-1.843.804-3.804 1.227-5.88 1.27-.085 0-.149.01-.191.03-.043.022-.085.033-.128.033zm0-25.71c-1.356 0-2.68.264-3.973.793-1.293.53-2.448 1.323-3.465 2.38-.848.847-1.505 1.8-1.971 2.858-.466 1.058-.752 2.137-.858 3.237-.106 1.1-.032 2.2.222 3.301.254 1.1.678 2.137 1.272 3.11l13.796-14.346c-1.61-.889-3.285-1.333-5.023-1.333zm29.437 25.71c-2.034 0-3.963-.37-5.785-1.111-1.823-.74-3.455-1.81-4.896-3.206-1.483-1.439-2.638-3.079-3.465-4.92-.827-1.84-1.261-3.798-1.303-5.872-.043-2.074.307-4.052 1.049-5.935.741-1.884 1.833-3.566 3.274-5.047 1.399-1.481 3.03-2.624 4.895-3.428 1.865-.804 3.836-1.248 5.913-1.333 2.035-.042 4.006.307 5.913 1.047s3.603 1.83 5.086 3.27l.064.063c.466.55.7 1.143.7 1.778 0 .634-.234 1.227-.7 1.777L100.685 71.48c.975.55 2.014.93 3.116 1.142 1.102.212 2.204.233 3.306.064 1.102-.17 2.162-.508 3.179-1.016s1.95-1.185 2.797-2.031c.509-.508 1.123-.773 1.844-.794.72-.021 1.335.201 1.844.667.508.508.763 1.121.763 1.84 0 .72-.233 1.334-.7 1.842-1.44 1.48-3.083 2.623-4.927 3.428-1.844.804-3.804 1.227-5.881 1.27-.085 0-.148.01-.19.03-.043.022-.085.033-.128.033zm0-25.71c-1.356 0-2.68.264-3.973.793-1.293.53-2.448 1.323-3.466 2.38-.847.847-1.504 1.8-1.97 2.858-.467 1.058-.753 2.137-.859 3.237-.106 1.1-.032 2.2.223 3.301.254 1.1.678 2.137 1.271 3.11l13.797-14.346c-1.61-.889-3.285-1.333-5.023-1.333zm22.253 9.014c.042-.084.052-.074.031.032-.02.106-.032.116-.032.032v-.064zm-104.008-8.65c.595 0 1.094.203 1.497.608.403.404.604.905.604 1.503v10.711c0 .192-.004.382-.012.57h.034V86.695c0 1.723-.354 3.36-1.02 4.907-.665 1.548-1.61 2.92-2.836 4.115-1.226 1.232-2.627 2.164-4.203 2.797-1.576.633-3.239.95-4.99.95-1.75 0-3.414-.317-4.99-.95s-2.977-1.565-4.202-2.797C2.609 94.521 1.663 93.15.998 91.602S0 88.418 0 86.695c0-.598.201-1.1.604-1.504.403-.404.902-.607 1.497-.607.595 0 1.094.203 1.497.607.403.405.604.906.604 1.504 0 1.16.228 2.26.683 3.298.455 1.037 1.086 1.943 1.891 2.717.806.774 1.742 1.39 2.81 1.847 1.069.457 2.215.686 3.441.686s2.373-.23 3.44-.686c1.069-.458 2.006-1.073 2.811-1.847.805-.774 1.436-1.68 1.891-2.717.455-1.038.683-2.137.683-3.298 0-.085.004-.168.012-.248l.002-11.598c-1.14 1.063-2.422 1.881-3.849 2.454-1.576.633-3.239.95-4.99.95-1.75 0-3.414-.317-4.99-.95s-2.977-1.565-4.202-2.796c-1.226-1.232-2.172-2.621-2.837-4.169C.333 68.791 0 67.155 0 65.431c0-1.723.333-3.359.998-4.907.665-1.547 1.61-2.937 2.837-4.168 1.225-1.231 2.626-2.163 4.202-2.796 1.576-.634 3.24-.95 4.99-.95 1.681 0 3.266.29 4.754.87 1.488.58 2.845 1.416 4.07 2.507V54.72c0-.598.202-1.099.605-1.503.403-.405.902-.607 1.497-.607zm112.145-6.014c1.993 0 3.879.37 5.659 1.111 1.78.74 3.37 1.81 4.768 3.206 1.399 1.396 2.47 2.983 3.211 4.76.742 1.778 1.134 3.662 1.176 5.65V76.05c0 .72-.244 1.323-.731 1.81-.487.486-1.091.73-1.812.73-.72 0-1.324-.244-1.812-.73-.487-.487-.731-1.09-.731-1.81V61.323c0-1.312-.254-2.56-.763-3.746-.509-1.185-1.208-2.211-2.098-3.079-.89-.867-1.929-1.555-3.115-2.063-1.187-.508-2.438-.761-3.752-.761-1.356 0-2.617.253-3.782.761-1.166.508-2.194 1.196-3.084 2.063-.89.868-1.59 1.894-2.098 3.08-.45 1.048-.701 2.147-.753 3.296l-.01.385-.064 14.791c0 .72-.243 1.323-.73 1.81-.488.486-1.092.73-1.813.73-.72 0-1.324-.244-1.812-.73-.487-.487-.73-1.09-.73-1.81V61.323c0-.085.01-.18.031-.286.021-.106.032-.201.032-.286.085-1.904.498-3.692 1.24-5.364.741-1.672 1.77-3.163 3.083-4.475 1.399-1.397 2.999-2.465 4.8-3.206 1.802-.74 3.698-1.111 5.69-1.111zM13.028 56.831c-1.227 0-2.373.229-3.442.686-1.068.457-2.004 1.073-2.81 1.847-.805.773-1.436 1.68-1.89 2.717-.456 1.038-.684 2.154-.684 3.35 0 1.196.228 2.313.683 3.35.455 1.038 1.086 1.944 1.891 2.718.806.774 1.742 1.39 2.81 1.847 1.069.457 2.215.686 3.441.686s2.373-.229 3.44-.686c1.069-.457 2.006-1.073 2.811-1.847.805-.774 1.436-1.68 1.891-2.717.455-1.038.683-2.155.683-3.35 0-1.197-.228-2.313-.683-3.351-.455-1.038-1.086-1.944-1.891-2.717-.805-.774-1.742-1.39-2.81-1.847-1.068-.457-2.215-.686-3.44-.686z"/>
        <path fill="#505661" d="M177.919 78.272l-1.653-1.397c-.043 0-.276-.19-.7-.57-.423-.382-.974-.921-1.653-1.62-.678-.698-1.451-1.523-2.32-2.475-.87-.953-1.749-2.042-2.639-3.27-2.161-2.877-3.857-5.755-5.086-8.633-1.568-3.851-2.352-7.512-2.352-10.982 0-.72.254-1.333.763-1.841.508-.508 1.123-.762 1.843-.762s1.325.254 1.812.762c.488.508.731 1.121.731 1.84 0 2.498.424 4.889 1.272 7.174.848 2.285 1.865 4.39 3.052 6.316 1.187 1.926 2.416 3.63 3.687 5.11 1.272 1.482 2.353 2.646 3.243 3.492.636-.635 1.388-1.428 2.257-2.38.869-.953 1.748-2.042 2.638-3.27.933-1.227 1.77-2.486 2.512-3.777.741-1.29 1.367-2.55 1.875-3.777 1.272-3.047 1.908-6.01 1.908-8.887 0-.72.254-1.333.762-1.841.51-.508 1.124-.762 1.844-.762s1.335.254 1.844.762c.509.508.763 1.121.763 1.84 0 3.471-.784 7.132-2.352 10.983-.636 1.439-1.367 2.878-2.194 4.317-.826 1.439-1.79 2.877-2.893 4.316-.89 1.228-1.77 2.317-2.638 3.27-.87.952-1.643 1.777-2.32 2.475-.679.699-1.23 1.238-1.654 1.62-.424.38-.657.57-.7.57l-1.652 1.397zm22.697-.825c-.72 0-1.324-.244-1.812-.73-.487-.487-.73-1.09-.73-1.81V49.516c0-.72.243-1.322.73-1.809.488-.487 1.092-.73 1.812-.73s1.325.243 1.812.73c.488.487.731 1.09.731 1.81v25.392c0 .719-.243 1.322-.73 1.809-.488.486-1.092.73-1.813.73zm2.798-36.375c0 .762-.265 1.407-.795 1.936-.53.53-1.176.794-1.94.794-.762 0-1.409-.265-1.938-.794-.53-.529-.795-1.174-.795-1.936s.265-1.407.795-1.936c.53-.529 1.176-.793 1.939-.793.763 0 1.41.264 1.939.793.53.529.795 1.174.795 1.936zm16.34 37.517H209.58c-.72 0-1.325-.243-1.812-.73-.488-.486-.731-1.09-.731-1.809 0-.72.243-1.322.73-1.809.488-.487 1.092-.73 1.813-.73h10.172c1.102 0 2.066-.402 2.893-1.206.827-.804 1.24-1.778 1.24-2.92 0-1.1-.371-2.042-1.113-2.825-.742-.783-1.663-1.217-2.765-1.302-.085 0-.138.011-.16.032-.02.021-.052.032-.095.032h-4.069c-.17 0-.381-.042-.636-.127-1.144-.127-2.204-.455-3.178-.984-.975-.529-1.823-1.206-2.544-2.031-.72-.826-1.282-1.757-1.684-2.794-.403-1.036-.604-2.147-.604-3.332 0-1.27.243-2.465.73-3.587.488-1.121 1.145-2.095 1.972-2.92.826-.825 1.801-1.481 2.924-1.968 1.123-.487 2.32-.73 3.592-.73h10.173c.72 0 1.324.243 1.812.73.487.487.731 1.09.731 1.81 0 .719-.244 1.322-.731 1.808-.488.487-1.092.73-1.812.73h-10.173c-1.144 0-2.119.402-2.924 1.207-.806.804-1.208 1.777-1.208 2.92 0 1.142.402 2.126 1.208 2.952.805.825 1.78 1.237 2.924 1.237h3.116c.085-.042.212-.063.381-.063 1.272 0 2.47.243 3.592.73 1.124.487 2.098 1.143 2.925 1.968.826.825 1.483 1.799 1.97 2.92.488 1.122.732 2.317.732 3.587s-.244 2.465-.731 3.586c-.488 1.122-1.145 2.095-1.971 2.92-.827.826-1.801 1.482-2.925 1.968-1.123.487-2.32.73-3.592.73zm15.512-1.142c-.72 0-1.324-.244-1.812-.73-.487-.487-.73-1.09-.73-1.81V49.516c0-.72.243-1.322.73-1.809.488-.487 1.092-.73 1.812-.73s1.325.243 1.812.73c.488.487.731 1.09.731 1.81v25.392c0 .719-.243 1.322-.73 1.809-.488.486-1.092.73-1.813.73zm2.798-36.375c0 .762-.265 1.407-.795 1.936-.53.53-1.176.794-1.94.794-.762 0-1.408-.265-1.938-.794s-.795-1.174-.795-1.936.265-1.407.795-1.936c.53-.529 1.176-.793 1.939-.793.763 0 1.41.264 1.939.793.53.529.795 1.174.795 1.936zM257.519 78.4c-2.162 0-4.197-.402-6.104-1.206-1.907-.804-3.603-1.947-5.086-3.428-1.484-1.481-2.628-3.185-3.433-5.11-.806-1.926-1.208-3.947-1.208-6.063 0-2.158.402-4.19 1.208-6.094.805-1.904 1.95-3.597 3.433-5.078 1.483-1.482 3.179-2.624 5.086-3.428 1.907-.804 3.942-1.207 6.104-1.207 2.119 0 4.143.403 6.071 1.207 1.929.804 3.635 1.946 5.118 3.428 1.484 1.48 2.618 3.174 3.402 5.078.784 1.905 1.176 3.936 1.176 6.094 0 2.116-.392 4.137-1.176 6.063-.784 1.925-1.918 3.629-3.402 5.11-1.483 1.481-3.19 2.624-5.118 3.428-1.928.804-3.952 1.206-6.071 1.206zm0-26.472c-1.484 0-2.872.276-4.165.826-1.293.55-2.426 1.312-3.401 2.285-.975.973-1.749 2.105-2.32 3.396-.573 1.291-.86 2.677-.86 4.158 0 1.481.287 2.867.86 4.158.571 1.291 1.345 2.423 2.32 3.396.975.974 2.108 1.736 3.401 2.286 1.293.55 2.681.825 4.165.825 1.483 0 2.871-.275 4.164-.825 1.293-.55 2.427-1.312 3.401-2.286.975-.973 1.738-2.105 2.29-3.396.55-1.29.826-2.677.826-4.158 0-1.481-.276-2.867-.827-4.158-.55-1.29-1.314-2.423-2.289-3.396-.974-.973-2.108-1.735-3.401-2.285-1.293-.55-2.68-.826-4.164-.826zm24.541 9.332c.042-.084.053-.074.032.032-.022.106-.032.116-.032.032v-.064zm0 0l-.064 14.791c0 .72-.244 1.323-.73 1.81-.488.486-1.092.73-1.813.73-.72 0-1.324-.244-1.812-.73-.487-.487-.731-1.09-.731-1.81V61.323c0-.085.01-.18.032-.286.02-.106.032-.201.032-.286.084-1.904.498-3.692 1.24-5.364.741-1.672 1.769-3.163 3.083-4.475 1.399-1.397 2.999-2.465 4.8-3.206 1.801-.74 3.698-1.111 5.69-1.111 1.992 0 3.878.37 5.659 1.111 1.78.74 3.37 1.81 4.768 3.206 1.399 1.396 2.469 2.983 3.21 4.76.743 1.778 1.135 3.662 1.177 5.65V76.05c0 .72-.244 1.323-.731 1.81-.488.486-1.092.73-1.812.73s-1.325-.244-1.812-.73c-.488-.487-.731-1.09-.731-1.81V61.323c0-1.312-.255-2.56-.763-3.746-.509-1.185-1.208-2.211-2.098-3.079-.89-.867-1.929-1.555-3.116-2.063-1.186-.508-2.437-.761-3.75-.761-1.357 0-2.618.253-3.784.761-1.165.508-2.193 1.196-3.083 2.063-.89.868-1.59 1.894-2.098 3.08-.5 1.165-.755 2.392-.763 3.68z"/>
        <g>
            <path fill="#0E9F84" d="M.43 31.311s14.906 2.933 24.386-6.533C34.296 15.313 31.36.43 31.36.43S16.453-2.503 6.973 6.962C-2.507 16.428.43 31.312.43 31.312z" transform="translate(80.754 .698)"/>
            <path fill="#3CD17F" d="M0 31.305s15.11 2.973 24.72-6.622C34.33 15.088 31.354 0 31.354 0L0 31.305z" transform="translate(80.754 .698)"/>
        </g>
    </g>
</svg>
