<svg xmlns="http://www.w3.org/2000/svg" width="238" height="238" viewBox="0 0 238 238">
    <g fill="#FFF" fill-rule="nonzero" opacity=".939">
        <path d="M19.902 238H199.02c2.198 0 3.98-1.773 3.98-3.96V131.103h-7.96v98.98H19.901c-6.595 0-11.941-5.319-11.941-11.878 0-6.56 5.346-11.877 11.941-11.877h7.96c2.199 0 3.981-1.773 3.981-3.96V83.592H95.53v-7.919H31.843V47.96c0-2.186-1.782-3.959-3.98-3.959h-7.961C8.915 44.014.014 52.868 0 63.796v154.408C.014 229.132 8.915 237.986 19.902 238zM7.961 79.633V63.796c0-6.56 5.346-11.878 11.941-11.878h3.98v146.49h-3.98a19.893 19.893 0 0 0-11.941 3.96V79.632z"/>
        <path d="M91.278 95H43.944C41.766 95 40 96.791 40 99v32c0 2.209 1.766 4 3.944 4h47.334c2.178 0 3.944-1.791 3.944-4v-12H111v-8H95.222V99c0-2.209-1.766-4-3.944-4zm-3.945 32H47.89v-24h39.444v24zM131.361 207h47.667c2.193 0 3.972-1.791 3.972-4v-32c0-2.209-1.779-4-3.972-4h-19.861v-24h-7.945v24h-19.86c-2.195 0-3.973 1.791-3.973 4v12H95.61v-12c0-2.209-1.778-4-3.972-4H43.972C41.78 167 40 168.791 40 171v32c0 2.209 1.779 4 3.972 4H91.64c2.194 0 3.972-1.791 3.972-4v-12h31.778v12c0 2.209 1.778 4 3.972 4zm3.972-32h39.723v24h-39.723v-24zm-47.666 24H47.944v-24h39.723v24zM170.5 32C150.893 32 135 47.893 135 67.5s15.893 35.5 35.5 35.5S206 87.107 206 67.5c-.021-19.597-15.903-35.479-35.5-35.5zm0 63.111c-15.25 0-27.611-12.36-27.611-27.611 0-15.25 12.36-27.611 27.611-27.611 15.25 0 27.611 12.36 27.611 27.611-.017 15.242-12.369 27.594-27.611 27.611z"/>
        <path d="M234.03 83.382a3.97 3.97 0 0 0 3.97-3.97V55.588a3.97 3.97 0 0 0-3.97-3.97h-14.466a52.597 52.597 0 0 0-3.14-7.585l10.244-10.207a3.972 3.972 0 0 0 0-5.623l-16.86-16.875a3.971 3.971 0 0 0-2.807-1.163 3.975 3.975 0 0 0-2.807 1.167l-10.227 10.245a52.818 52.818 0 0 0-7.585-3.141V3.97A3.97 3.97 0 0 0 182.412 0h-23.824a3.97 3.97 0 0 0-3.97 3.97v14.466a52.818 52.818 0 0 0-7.585 3.14l-10.211-10.244a3.975 3.975 0 0 0-2.808-1.167 3.971 3.971 0 0 0-2.807 1.163l-16.879 16.864a3.972 3.972 0 0 0 0 5.622l10.245 10.208a52.497 52.497 0 0 0-3.137 7.596H106.97a3.97 3.97 0 0 0-3.971 3.97v23.824a3.97 3.97 0 0 0 3.97 3.97h14.466a52.597 52.597 0 0 0 3.14 7.585l-10.244 10.207a3.97 3.97 0 0 0 0 5.627l16.86 16.832a3.973 3.973 0 0 0 5.614 0l10.212-10.21a53.094 53.094 0 0 0 7.6 3.141v14.465a3.97 3.97 0 0 0 3.97 3.971h23.824a3.97 3.97 0 0 0 3.97-3.97v-14.466a52.864 52.864 0 0 0 7.589-3.14l10.211 10.209a3.971 3.971 0 0 0 5.61 0l16.876-16.836a3.967 3.967 0 0 0 0-5.626l-10.245-10.208a52.551 52.551 0 0 0 3.141-7.58h14.465zM212.762 78.4a45.41 45.41 0 0 1-4.678 11.28 3.97 3.97 0 0 0 .628 4.811l9.53 9.498-11.25 11.226-9.494-9.506a3.972 3.972 0 0 0-4.808-.624 45.224 45.224 0 0 1-11.28 4.674 3.971 3.971 0 0 0-2.97 3.839v13.46H162.56v-13.46a3.97 3.97 0 0 0-2.959-3.839 45.224 45.224 0 0 1-11.28-4.674 3.972 3.972 0 0 0-4.808.624l-9.501 9.502-11.25-11.222 9.53-9.498a3.97 3.97 0 0 0 .628-4.812 45.41 45.41 0 0 1-4.678-11.28 3.97 3.97 0 0 0-3.839-2.958h-13.46V59.56h13.46a3.97 3.97 0 0 0 3.835-2.959 45.41 45.41 0 0 1 4.678-11.28 3.97 3.97 0 0 0-.628-4.811l-9.53-9.502 11.254-11.253 9.501 9.53a3.97 3.97 0 0 0 4.812.627 45.224 45.224 0 0 1 11.28-4.674 3.972 3.972 0 0 0 2.955-3.835V7.942h15.882v13.46a3.97 3.97 0 0 0 2.959 3.839 45.224 45.224 0 0 1 11.28 4.674 3.97 3.97 0 0 0 4.82-.628l9.501-9.53 11.253 11.254-9.53 9.501a3.967 3.967 0 0 0-.626 4.812 45.479 45.479 0 0 1 4.677 11.28 3.969 3.969 0 0 0 3.823 2.955h13.46V75.44h-13.46a3.97 3.97 0 0 0-3.835 2.959z"/>
        <path d="M170.5 52c-8.56 0-15.5 6.94-15.5 15.5 0 8.56 6.94 15.5 15.5 15.5 8.56 0 15.5-6.94 15.5-15.5 0-8.56-6.94-15.5-15.5-15.5zm0 23.25a7.75 7.75 0 1 1 0-15.5 7.75 7.75 0 0 1 0 15.5z"/>
    </g>
</svg>
