<svg xmlns="http://www.w3.org/2000/svg" width="26" height="26" viewBox="0 0 26 26">
    <path fill="#363646" fill-rule="nonzero" d="M17.875 0h-9.75A8.123 8.123 0 0 0 0 8.125v9.75A8.123 8.123 0 0 0 8.125 26h9.75A8.123 8.123 0 0 0 26 17.875v-9.75A8.123 8.123 0 0 0 17.875 0zm1.173 13.137A6.047 6.047 0 0 1 13 19.185a6.047 6.047 0 0 1-6.048-6.048v-.274A6.047 6.047 0 0 1 13 6.815a6.047 6.047 0 0 1 6.048 6.048v.274zm1.584-6.408a1.305 1.305 0 0 1-1.305-1.306 1.305 1.305 0 1 1 2.61-.005c0 .721-.583 1.31-1.305 1.31z"/>
</svg>
