<svg xmlns="http://www.w3.org/2000/svg" width="23" height="24" viewBox="0 0 23 24">
    <path fill="#363646" fill-rule="nonzero" d="M23 14.714V24h-4.93v-8.664c0-2.176-.713-3.661-2.497-3.661-1.362 0-2.173 1-2.53 1.969-.13.346-.163.828-.163 1.312V24H7.95s.066-14.674 0-16.194h4.93v2.296l-.032.052h.033v-.052c.655-1.102 1.825-2.676 4.443-2.676C20.568 7.426 23 9.74 23 14.714zM2.79 0C1.103 0 0 1.208 0 2.797c0 1.555 1.072 2.8 2.725 2.8h.033c1.72 0 2.79-1.245 2.79-2.8C5.514 1.208 4.477 0 2.79 0zM.293 24h4.93V7.806H.292V24z"/>
</svg>
