<svg xmlns="http://www.w3.org/2000/svg" width="150" height="126" viewBox="0 0 150 126">
  <path fill="#FFD36A" fill-rule="evenodd" d="M68.1584848,122.592587 L68.1584848,118.41318 L68.1584848,117.742986 L68.0768053,117.137246 L68.0219473,116.574501 L67.9556928,116.172761 L67.9556928,115.826542 L67.8990725,115.48326 L67.8463495,114.952371 L67.7834085,114.473227 L67.7109097,114.040356 L67.6351458,113.572443 L67.5222793,113.065208 L67.4148067,112.599173 L67.3269142,112.136619 L67.2072196,111.559282 L67.0998717,110.974134 L66.9529502,110.393608 L66.8020997,109.750808 L66.63952,109.241257 L66.5189532,108.839892 L66.2998987,108.216642 L66.01557,107.394718 L65.8784426,106.82989 L65.6735768,106.215425 L65.3459687,105.318175 L65.0319325,104.571505 L64.7145554,103.890968 L64.2916087,103.155671 L63.8558128,102.526206 L63.4068592,102.014567 L63.0514483,101.597988 L62.7125873,101.229923 L62.2471866,100.813444 L61.7007327,100.373658 L61.1420463,99.941946 L60.46895,99.45072 L59.7767853,99.0948793 L59.1792941,98.7592775 L58.4533451,98.428406 L57.6806781,98.1530459 L56.9150367,97.9430512 L56.0667713,97.7427478 L54.9552292,97.6940824 L53.8001899,97.6524294 L52.6201776,97.7427478 L51.5299788,97.9037409 L50.4677555,98.1585166 L49.4215315,98.568727 L48.5168687,99.0083717 L47.5425012,99.5224326 L46.3451726,100.451497 L45.3815704,101.30501 L44.4457948,102.601968 L43.3971445,104.145744 L42.7012371,105.492343 L42.3426843,106.566113 L41.959303,107.797858 L41.5923243,108.96794 L41.2413549,110.142095 L40.9282461,111.289475 L40.6694006,112.525461 L40.339496,114.339086 L40.1337902,115.942688 L39.9972349,117.742986 L39.9185911,119.34781 L39.9185911,121.338047 L39.9767677,122.592587 L68.1584848,122.592587 Z M17.6377835,122.592587 L17.5085225,122.423376 L17.099565,121.86082 L16.5930544,121.175016 L15.9377754,120.196609 L15.286083,119.145239 L14.4926636,117.946197 L13.8319394,116.826907 L13.2939477,115.942688 L12.650196,114.718933 L12.0256844,113.509604 L11.3769051,112.203476 L10.9560568,111.289475 L10.4186236,110.142095 L9.91877225,108.96794 L9.41683782,107.797858 L8.92530445,106.566113 L8.52046045,105.318175 L7.982374,103.890968 L7.58294022,102.526206 L7.20036621,101.30501 L6.84807899,99.941946 L6.56706707,98.568727 L6.28158523,97.3725309 L5.96185204,95.9822579 L5.71945368,94.6863068 L5.41485356,92.9959215 L5.20175195,91.3884464 L4.97620574,89.6866004 L4.86096972,87.5346314 L4.75769837,85.9912973 L4.75769837,84.3939128 L4.75769837,82.2864445 L4.75769837,80.3789087 L4.86096972,78.5110778 L4.97620574,76.6426425 L5.06306106,74.7282278 L4.75769837,75.6302465 L4.3850798,76.9259984 L4.02913357,78.5110778 L3.68419432,79.9067725 L3.40643,81.2159368 L3.15602126,82.5944724 L2.86421405,84.3939128 L2.70659666,86.3459157 L2.51955897,88.1108025 L2.38585657,90.0363259 L2.24535574,92.450631 L2.24535574,95.0733684 L2.38585657,97.8795138 L2.51955897,99.941946 L2.70659666,101.597988 L2.51955897,101.597988 L2.24535574,100.451497 L1.82587658,98.7592775 L1.29147164,96.2338737 L0.834439266,93.896162 L0.462225369,91.3884464 L0.198480289,89.2381847 L-1.5063506e-12,87.0947857 L-1.5063506e-12,83.6243745 L-1.5063506e-12,79.9067725 L0.198480289,76.6426425 L0.678390084,72.6809531 L1.43046299,68.337589 L2.11258952,65.3697132 L2.86421405,62.7447033 L3.90773014,59.8405473 L4.97620574,57.0674047 L6.2150635,54.0823317 L7.32389277,51.8536554 L8.80397582,49.1142068 L10.0551511,47.0424446 L10.7911742,45.8736327 L11.5256023,44.783021 L12.4170478,43.5091429 L13.5249106,41.9722245 L14.4926636,40.6500762 L15.8634557,39.0505692 L17.2545368,37.429217 L18.7491691,35.8481715 L20.4220531,34.0824444 L21.7396508,32.8085662 L22.895378,31.8305657 L24.0873734,30.7858885 L25.5373862,29.6001199 L27.2790341,28.2214583 L28.6333812,27.2651244 L29.9627551,26.3117875 L31.999386,25.0337867 L34.6795201,23.4306689 L37.0509397,22.094385 L40.0558738,20.6772176 L43.1326339,19.4328453 L46.1459648,18.286355 L49.168408,17.3338059 L51.9948154,16.61241 L55.2726158,15.9205231 L58.723211,15.3268436 L62.9827731,14.9436198 L66.2294565,14.7707922 L66.5850825,14.3373326 L67.7834085,13.0634545 L69.3492733,11.280025 L71.5826648,9.38297001 L74.4681502,7.2174599 L77.12323,5.54757323 L80.4443472,3.77028074 L83.2686438,2.55136681 L86.1445177,1.59855089 L89.4872947,0.731755794 L92.3616795,0.196655974 L95.6233677,-2.84217094e-14 L98.6125053,-2.84217094e-14 L101.973331,0.196655974 L105.34968,0.731755794 L108.645716,1.59855089 L113.096311,3.07602291 L117.000637,4.94154861 L120.627165,7.2174599 L123.625687,9.38297001 L126.30748,11.9169641 L128.558446,14.4647205 L131.596867,18.286355 L134.037272,21.8881436 L136.105468,25.0337867 L137.97292,28.2214583 L139.906405,31.534688 L141.841966,35.9932616 L143.414856,39.8996345 L145.023111,44.1460819 L146.211554,48.4772677 L147.261688,53.1275336 L148.219453,57.4181091 L148.5108,60.833886 L148.944742,64.4292798 L149.132948,67.5354279 L149.132948,70.642748 L149.132948,73.3178922 L148.944742,76.1950811 L148.775734,78.7718784 L148.5108,81.2159368 L148.219453,83.6243745 L147.854488,85.5471226 L147.529232,87.4470886 L146.948233,90.0363259 L146.40382,92.2443333 L145.83344,94.4642699 L145.023111,97.129516 L144.32236,99.264047 L143.414856,101.777347 L142.515472,104.018356 L141.572899,106.148077 L140.567149,108.402714 L139.635016,110.227012 L138.589289,112.136619 L137.717746,113.751775 L136.650692,115.48326 L135.428819,117.474561 L134.653202,118.68296 L133.703579,120.196609 L132.598334,121.631656 L131.892318,122.592587 L143.120638,122.592587 C144.049937,122.592587 144.803282,123.345932 144.803282,124.27523 C144.803282,125.204528 144.049937,125.957873 143.120638,125.957873 L6.4933836,125.957873 C5.56408534,125.957873 4.81074026,125.204528 4.81074026,124.27523 C4.81074026,123.345932 5.56408534,122.592587 6.4933836,122.592587 L17.6377835,122.592587 Z M118.646137,122.592587 L119.078127,121.988224 L119.877569,120.960936 L120.922493,119.426056 L122.081814,117.474561 L123.203657,115.302049 L124.341294,113.062891 L125.647271,109.878196 L126.623305,107.247163 L127.208655,104.649434 L127.86826,101.30501 L128.366603,97.7427478 L128.558446,94.1232909 L128.558446,91.3884464 L128.558446,89.6139532 L128.366603,87.6161272 L128.150383,85.9013716 L127.86826,84.1637466 L127.637821,82.5944724 L127.208655,81.0078762 L126.623305,79.5598952 L125.647271,77.9038536 L124.651488,76.6426425 L123.625687,75.7382607 L122.658116,74.8725182 L121.642584,74.2953566 L120.627165,73.8294179 L120.286022,73.8294179 L118.574209,74.8725182 L117.000637,75.7382607 L115.462274,76.6426425 L113.724958,77.3943023 L112.080404,78.1586292 L110.170992,78.7718784 L108.308977,79.3723712 L106.278026,79.9067725 L105.004746,80.1968343 L104.276416,81.2159368 L103.182003,82.8147889 L102.236099,84.3939128 L101.330596,86.0702885 L100.365282,88.0432182 L99.4760289,90.0363259 L98.6125053,92.2443333 L98.0010873,94.1232909 L97.3257965,96.7933414 L96.7477157,98.7592775 L96.0884619,102.23339 L95.8076855,106.056561 L95.8076855,110.912585 L96.0884619,114.718933 L96.4790378,117.474561 L97.1702499,120.66231 L97.6100766,122.592587 L118.646137,122.592587 Z M116.419914,39.9026851 C119.076813,39.9026851 121.230654,37.7502705 121.230654,35.0951326 C121.230654,32.4399948 119.076813,30.2875802 116.419914,30.2875802 C113.763016,30.2875802 111.609174,32.4399948 111.609174,35.0951326 C111.609174,37.7502705 113.763016,39.9026851 116.419914,39.9026851 Z"/>
</svg>
