<svg xmlns="http://www.w3.org/2000/svg" width="42" height="56" viewBox="0 0 42 56">
    <path fill="#FFF" fill-rule="evenodd" d="M19.195 34.612v-1.369l-.023-.171-.015-.159-.019-.113v-.098l-.016-.097-.015-.15-.017-.135-.02-.122-.022-.133-.032-.143-.03-.131-.025-.13-.034-.164-.03-.165-.041-.164-.043-.181-.045-.144-.034-.114-.062-.176-.08-.232-.039-.16-.057-.173-.093-.253-.088-.21-.09-.193-.119-.208-.122-.177-.127-.145-.1-.117-.095-.104-.131-.118-.154-.124-.158-.122-.19-.139-.194-.1-.168-.095-.205-.093-.218-.078-.215-.06-.239-.056-.313-.014-.325-.011-.333.025-.307.046-.299.072-.295.115-.254.125-.275.145-.337.262-.271.241-.264.366-.295.436-.196.38-.101.303-.108.348-.103.33-.1.332-.087.324-.073.349-.093.512-.058.453-.039.508-.022.453v.562l.017.354h7.936zm-14.228 0l-.036-.048-.115-.158-.143-.194-.184-.276-.184-.297-.223-.339-.187-.316-.151-.25-.181-.345-.176-.341-.183-.369-.118-.258-.152-.324-.14-.332-.142-.33-.138-.348-.114-.352-.152-.403-.112-.385-.108-.345-.1-.385-.079-.388-.08-.337-.09-.393-.068-.366-.086-.477-.06-.454-.064-.48-.032-.608-.03-.436v-1.584l.03-.528.032-.527.025-.54-.086.254-.105.366-.1.447-.097.394-.079.37-.07.39-.082.507-.045.551-.052.499-.038.543-.04.682v.74l.04.793.038.582.052.468H.71l-.078-.324-.118-.478-.15-.713-.129-.66-.105-.708-.074-.607L0 24.59V22.56l.056-.921.135-1.119.212-1.226.192-.838.212-.741.294-.82.3-.783.35-.843.312-.629.416-.773.353-.585.207-.33.207-.308.251-.36.312-.434.273-.373.386-.452.391-.457.421-.447.471-.498.371-.36.326-.276.336-.295.408-.335.49-.39.382-.27.374-.268.574-.361.755-.453.668-.377.846-.4.866-.351.849-.324.851-.27.796-.203.923-.195.972-.168 1.2-.108.914-.049.1-.122.338-.36.44-.503.63-.536.812-.611.748-.472.935-.502.796-.344.81-.269.941-.244.81-.151L26.93 0h.842l.947.056.95.15.929.245 1.253.417 1.1.527 1.021.643.844.611.756.716.634.719.855 1.079.688 1.017.582.888.526.9.545.935.545 1.26.443 1.102.453 1.199.334 1.223.296 1.313.27 1.211.082.965.122 1.015.053.877V20.7l-.053.813-.048.727-.074.69-.082.68-.103.543-.092.536-.163.731-.154.624-.16.627-.228.752-.198.603-.255.71-.254.632-.265.601-.283.637-.263.515-.294.54-.246.455-.3.489-.344.562-.219.341-.267.428-.312.405-.198.271h3.162a.474.474 0 0 1 0 .95H1.829a.474.474 0 0 1 0-.95h3.138zm28.447 0l.122-.17.225-.29.294-.434.327-.55.316-.614.32-.632.368-.9.275-.742.165-.734.185-.944.14-1.006.055-1.022v-1.272l-.054-.565-.061-.484-.08-.49-.065-.444-.12-.448-.165-.408-.275-.468-.28-.356-.29-.255-.272-.245-.286-.163-.286-.131h-.096l-.482.294-.443.245-.434.255-.489.212-.463.216-.538.173-.524.17-.572.15-.359.082-.205.288-.308.452-.266.445-.255.474-.272.557-.25.562-.244.624-.172.53-.19.754-.163.555-.186.981-.079 1.08v1.37l.08 1.075.11.778.194.9.124.545h5.924zm-.627-23.346a1.356 1.356 0 1 0 0-2.715c-.748 0-1.355.608-1.355 1.358 0 .75.607 1.357 1.355 1.357zM6.722 56a7.024 7.024 0 0 1-2.668-.506 6.529 6.529 0 0 1-2.137-1.377 6.3 6.3 0 0 1-1.404-2.093A6.658 6.658 0 0 1 0 49.42c0-.92.171-1.789.513-2.604a6.3 6.3 0 0 1 1.404-2.094 6.529 6.529 0 0 1 2.137-1.376 7.024 7.024 0 0 1 2.668-.506 7.02 7.02 0 0 1 2.654.501 6.348 6.348 0 0 1 2.123 1.377 6.373 6.373 0 0 1 1.391 2.094c.34.812.51 1.681.51 2.608s-.17 1.796-.51 2.608a6.373 6.373 0 0 1-1.39 2.094 6.348 6.348 0 0 1-2.124 1.377A7.021 7.021 0 0 1 6.722 56zm-2.817-3.721c.76.768 1.7 1.152 2.817 1.152 1.117 0 2.05-.382 2.799-1.148.748-.765 1.123-1.72 1.123-2.863 0-1.144-.375-2.097-1.123-2.859-.75-.762-1.682-1.144-2.8-1.144-1.117 0-2.056.384-2.816 1.153-.76.768-1.14 1.718-1.14 2.85 0 1.132.38 2.085 1.14 2.859zm19.034 3.448l-2.457-4.301h-1.747v4.301h-2.72V43.113h5.08c1.264 0 2.313.394 3.147 1.183.833.789 1.25 1.787 1.25 2.995 0 .815-.205 1.544-.614 2.186a4.056 4.056 0 0 1-1.676 1.482l2.781 4.768H22.94zm-4.204-10.09v3.264h2.177c.561 0 1.006-.151 1.333-.453.328-.302.492-.694.492-1.174 0-.481-.164-.874-.492-1.18-.327-.304-.772-.457-1.333-.457h-2.177zm9.636 10.09V43.113h2.72v12.614h-2.72zm8.803-2.533H42v2.533h-7.546V43.113h2.72v10.08z"/>
</svg>
