<svg xmlns="http://www.w3.org/2000/svg" width="60" height="80" viewBox="0 0 60 80">
    <g fill="none" fill-rule="evenodd">
        <g fill="#FFF">
            <g>
                <g>
                    <path d="M27.422 49.446V47.49l-.033-.244-.022-.227-.027-.162v-.14l-.022-.138-.022-.215-.025-.193-.03-.174-.03-.19-.045-.204-.043-.188-.036-.186-.048-.233-.043-.236-.06-.234-.06-.26-.065-.205-.049-.162-.088-.251-.114-.332-.055-.228-.083-.247-.132-.362-.126-.302-.128-.274-.17-.297-.175-.253-.18-.207-.144-.168-.136-.148-.187-.168-.22-.178-.225-.174-.27-.198-.28-.143-.24-.136-.292-.133-.31-.111-.309-.085-.34-.08-.448-.02-.465-.017-.475.036-.438.065-.428.103-.42.165-.364.178-.392.207-.482.375-.388.344-.376.523-.422.623-.28.543-.144.433-.155.497-.147.472-.142.473-.126.463-.104.499-.132.731-.083.647-.055.726-.032.647v.803l.024.506h11.338zm-20.326 0l-.052-.068-.164-.227-.204-.277-.264-.394-.262-.424-.32-.484-.265-.452-.217-.356-.259-.494-.25-.487-.262-.527-.17-.369-.215-.463-.201-.473-.202-.472-.198-.497-.163-.503-.216-.576-.161-.55-.154-.493-.142-.55-.113-.554-.115-.482-.128-.56-.098-.524-.122-.681-.086-.649-.09-.686-.047-.868-.042-.623V32.42l.042-.753.046-.753.035-.772-.123.363-.15.523-.143.64-.139.562-.112.528-.1.556-.118.726-.063.787-.075.712-.054.777-.057.974v1.058l.057 1.131.054.832.075.668h-.075l-.11-.462-.17-.683-.214-1.018-.184-.943-.15-1.012-.106-.867-.08-.865V32.23l.08-1.316.193-1.598.303-1.752.274-1.197.302-1.059.42-1.171.43-1.119.498-1.204.447-.899.595-1.104.503-.836.297-.472.295-.44.359-.513.445-.62.39-.533.551-.645.56-.654.601-.638.673-.712.53-.514.465-.395.48-.42.583-.48.701-.555.545-.386.535-.385.82-.515 1.077-.647.955-.539 1.209-.571 1.237-.502 1.213-.462 1.216-.385 1.137-.29 1.319-.28 1.388-.24 1.714-.154 1.306-.07.143-.174.482-.514.63-.72.899-.765 1.16-.873 1.069-.673 1.336-.717 1.136-.492 1.157-.384 1.345-.35L37.159.08 38.472 0h1.202l1.352.08 1.359.215 1.326.35 1.79.596 1.571.752 1.46.918 1.206.873 1.079 1.023.905 1.027 1.223 1.542.982 1.452.832 1.269.751 1.286.778 1.336.779 1.798.632 1.576.648 1.713.478 1.747.422 1.875.385 1.73.118 1.378.174 1.45L60 27.24v2.333l-.076 1.16-.068 1.04-.106.985-.118.972-.146.775-.131.767-.234 1.044-.219.89-.23.896-.325 1.075-.282.86-.366 1.014-.361.904-.38.86-.404.909-.375.736-.421.77-.35.651-.43.699-.492.803-.312.487-.382.61-.444.58-.284.387h4.517c.374 0 .677.304.677.679 0 .374-.303.678-.677.678H2.612c-.373 0-.677-.304-.677-.678 0-.375.304-.679.677-.679h4.484zm40.638 0l.174-.244.322-.414.42-.62.467-.786.451-.877.458-.903.525-1.284.393-1.061.235-1.048.266-1.349.2-1.437.077-1.46v-1.818l-.077-.806-.087-.692-.113-.7-.093-.634-.173-.64-.235-.584-.393-.668-.4-.508-.413-.365-.39-.35-.408-.232-.409-.188h-.137l-.689.42-.633.35-.619.365-.699.303-.661.308-.768.248-.75.242-.817.215-.512.117-.293.411-.44.645-.38.637-.365.676-.388.796-.358.804-.348.89-.246.758-.271 1.077-.233.793-.265 1.401-.113 1.542v1.959l.113 1.535.157 1.112.278 1.285.177.779h8.463zm-.895-33.352c1.069 0 1.935-.868 1.935-1.939 0-1.07-.866-1.939-1.935-1.939-1.07 0-1.936.868-1.936 1.94 0 1.07.867 1.938 1.936 1.938zM9.602 80c-1.354 0-2.624-.24-3.81-.723-1.187-.481-2.205-1.137-3.053-1.966-.848-.83-1.517-1.827-2.006-2.991C.244 73.155 0 71.915 0 70.6c0-1.315.244-2.555.733-3.72.49-1.164 1.158-2.161 2.006-2.99.848-.83 1.866-1.486 3.052-1.968 1.187-.481 2.457-.722 3.811-.722 1.346 0 2.61.239 3.792.716 1.183.478 2.194 1.133 3.034 1.967.84.833 1.502 1.83 1.987 2.99.484 1.161.727 2.403.727 3.727 0 1.324-.243 2.566-.727 3.726-.485 1.16-1.147 2.157-1.987 2.991-.84.834-1.851 1.49-3.034 1.967-1.182.477-2.446.716-3.792.716zm-4.024-5.316c1.087 1.098 2.428 1.646 4.024 1.646s2.93-.546 3.999-1.64c1.07-1.093 1.605-2.456 1.605-4.09s-.535-2.995-1.605-4.084c-1.07-1.09-2.403-1.634-3.999-1.634s-2.937.549-4.024 1.646c-1.086 1.098-1.63 2.455-1.63 4.072s.544 2.978 1.63 4.084zM32.77 79.61l-3.51-6.145h-2.494v6.145h-3.886V61.59h7.258c1.805 0 3.303.563 4.494 1.69 1.19 1.127 1.786 2.553 1.786 4.279 0 1.164-.292 2.205-.877 3.123-.585.917-1.383 1.623-2.394 2.117l3.973 6.811h-4.35zm-6.004-14.414v4.662h3.109c.802 0 1.437-.215 1.905-.647.468-.431.702-.99.702-1.677s-.234-1.249-.702-1.684c-.468-.436-1.103-.654-1.905-.654h-3.109zM40.531 79.61V61.59h3.886v18.02H40.53zm12.574-3.619H60v3.62H49.22V61.588h3.885v14.402z" transform="translate(-90 -32) translate(90 32)"/>
                </g>
            </g>
        </g>
    </g>
</svg>
