<svg xmlns="http://www.w3.org/2000/svg" width="63" height="52" viewBox="0 0 63 52">
    <path fill="#363646" fill-rule="evenodd" d="M28.836 50.61V48.61l-.034-.25-.023-.233-.027-.166v-.143l-.024-.141-.022-.22-.026-.197-.03-.179-.032-.193-.047-.21-.044-.192-.037-.19-.05-.24-.044-.24-.061-.24-.063-.266-.068-.21-.05-.166-.09-.257-.119-.34-.057-.233-.085-.253-.136-.37-.13-.31-.133-.28-.176-.304-.18-.26-.187-.21-.148-.173-.141-.152-.194-.172-.227-.181-.232-.178-.28-.203-.288-.147-.248-.139-.302-.136-.321-.114-.318-.087-.353-.082-.462-.02-.48-.018-.49.038-.454.066-.442.105-.435.17-.376.181-.405.212-.498.384-.4.352-.39.536-.435.637-.29.556-.149.443-.159.509-.153.483-.145.485-.13.473-.108.51-.137.75-.086.661-.057.744-.032.662v.822l.024.518h11.716zm-21.003 0l-.054-.07-.17-.231-.21-.284-.273-.403-.271-.435-.33-.495-.275-.462-.223-.365-.268-.505-.26-.5-.27-.538-.174-.378-.224-.473-.207-.485-.21-.483-.203-.509-.169-.515-.223-.589-.166-.563-.16-.505-.146-.562-.117-.567-.119-.494-.132-.574-.101-.535-.127-.698-.088-.664-.094-.702-.048-.889-.043-.637v-2.317l.043-.77.048-.772.036-.79-.127.372-.155.535-.148.654-.143.576-.116.54-.104.57-.121.743-.066.806-.078.728-.055.795-.059.997v1.083l.059 1.158.055.852.078.683h-.078l-.114-.473-.174-.699-.222-1.042-.19-.965-.155-1.036-.11-.887-.082-.885v-2.968l.083-1.347.199-1.636.313-1.793.283-1.225.313-1.084.434-1.199.444-1.144.515-1.233.46-.92.616-1.13.52-.856.306-.483.306-.45.37-.526.46-.634.403-.546.57-.66.578-.67.622-.653.695-.729.548-.525.48-.404.496-.431.603-.49.724-.57.563-.394.553-.394.846-.527 1.115-.662.985-.552 1.25-.585 1.279-.513 1.253-.474 1.256-.393 1.175-.298 1.363-.285 1.434-.246 1.771-.158 1.35-.071.148-.179.498-.526.651-.736.929-.783 1.2-.894 1.103-.69 1.38-.733 1.175-.504L36.313.66l1.39-.358 1.195-.22L40.254 0h1.243l1.397.081 1.404.221 1.37.358 1.85.61 1.623.77 1.508.94 1.247.894L53.01 4.92l.935 1.052 1.264 1.577 1.014 1.487.86 1.299.776 1.316.804 1.368.805 1.84.654 1.613.668 1.753.494 1.788.437 1.92.398 1.771.121 1.41.18 1.485.079 1.282v2.387l-.078 1.188-.07 1.064-.11 1.009-.122.994-.152.794-.135.784-.241 1.07-.227.91-.237.917-.337 1.1-.29.882-.378 1.037-.374.926-.392.879-.418.93-.388.754-.434.788-.363.667-.443.715-.508.822-.323.499-.395.625-.459.592-.294.397h4.669c.386 0 .699.31.699.694A.697.697 0 0 1 60 52H3.2a.697.697 0 0 1-.7-.695c0-.383.313-.694.7-.694h4.633zm41.993 0l.18-.249.331-.424.435-.634.482-.805.466-.897.473-.925.543-1.314.406-1.086.243-1.073.274-1.38.208-1.471.08-1.494V36.996l-.08-.825-.09-.708-.118-.717-.095-.648-.179-.655-.243-.598-.406-.683-.414-.521-.426-.373-.403-.358-.422-.238-.422-.193h-.142l-.711.431-.655.358-.64.373-.721.31-.684.316-.794.253-.774.248-.844.22-.53.12-.302.42-.455.661-.394.652-.376.692-.401.814-.37.823-.36.912-.253.776-.281 1.102-.24.811-.275 1.435-.116 1.578v2.005l.116 1.571.163 1.138.287 1.316.183.797h8.746zM48.9 16.474c1.105 0 2-.888 2-1.984a1.992 1.992 0 0 0-2-1.985c-1.105 0-2 .888-2 1.985 0 1.096.895 1.984 2 1.984z"/>
</svg>
