<svg xmlns="http://www.w3.org/2000/svg" width="76" height="67" viewBox="0 0 76 67">
    <path fill="#FFF" fill-rule="evenodd" d="M34.734 64.823v-2.54l-.041-.317-.028-.295-.034-.21v-.182l-.029-.18-.027-.278-.032-.251-.037-.227-.038-.245-.058-.266-.055-.244-.044-.242-.061-.302-.055-.307-.075-.304-.077-.337-.083-.267-.061-.21-.112-.327-.145-.43-.07-.296-.104-.322-.167-.47-.16-.391-.162-.357-.215-.385-.222-.33-.23-.268-.18-.218-.173-.193-.237-.218-.279-.23-.284-.226-.343-.258-.353-.186-.304-.176-.37-.173-.394-.145-.39-.11-.433-.104-.566-.026-.589-.022-.601.048-.556.084-.541.133-.533.215-.461.23-.497.27-.61.487-.491.447-.477.68-.534.808-.355.705-.183.563-.195.645-.187.613-.179.615-.16.601-.131.648-.168.95-.105.84-.07.943-.04.84v1.043l.03.657h14.361zm-25.746 0l-.065-.088-.209-.295-.258-.36-.334-.512-.332-.55-.404-.629-.337-.586-.274-.463-.328-.641-.319-.634-.33-.684-.215-.479-.274-.6-.254-.616-.256-.613-.25-.645-.207-.654-.274-.748-.204-.715-.195-.64-.18-.713-.142-.72-.146-.626-.163-.729-.123-.679-.156-.885-.108-.842-.115-.892-.059-1.127-.052-.809v-2.94l.052-.978.059-.98.044-1.002-.155.473-.19.678-.182.83-.175.732-.142.686-.128.722-.148.943-.08 1.022-.096.925-.068 1.008-.072 1.265v1.374l.072 1.47.068 1.08.095.868h-.095l-.14-.6-.214-.887-.272-1.323-.233-1.225-.19-1.313-.134-1.127L0 46.227v-3.765l.101-1.71.245-2.075.383-2.276.348-1.555.383-1.375.531-1.521.545-1.453.631-1.564.565-1.167.755-1.435.637-1.086.375-.612.375-.571.454-.668.564-.805.494-.692.698-.838.71-.85.76-.828.853-.925.672-.667.589-.513.607-.547.74-.621.887-.722.69-.501.677-.5 1.038-.67 1.366-.839 1.209-.7 1.531-.742 1.568-.652 1.536-.6 1.54-.5 1.44-.378 1.67-.362 1.76-.311 2.17-.201 1.654-.09.182-.228.61-.667.798-.934 1.138-.994 1.47-1.134 1.354-.875 1.692-.931 1.44-.639L43.9 1.44l1.704-.454 1.465-.28L48.73.602h1.523l1.713.103 1.72.28 1.68.454 2.268.774 1.99.977 1.848 1.193 1.528 1.134 1.367 1.327 1.147 1.335 1.548 2.002 1.244 1.887 1.054 1.648.952 1.67.985 1.735.986 2.336.802 2.047.82 2.224.605 2.27.535 2.435.488 2.248.149 1.79.221 1.883L76 35.98v3.029l-.096 1.507-.086 1.35-.135 1.28-.149 1.262-.186 1.008-.165.995-.296 1.356-.278 1.157-.29 1.163-.413 1.396-.358 1.118-.462 1.317-.458 1.174-.48 1.116-.513 1.18-.475.957-.533 1-.444.846-.544.907-.623 1.043-.395.633-.484.793-.563.752-.36.503h5.722a.87.87 0 0 1 .858.882.87.87 0 0 1-.858.881H3.31a.87.87 0 0 1-.857-.881.87.87 0 0 1 .857-.882h5.68zm51.476 0l.22-.316.407-.538.533-.804.59-1.023.572-1.138.58-1.173.665-1.668.498-1.378.298-1.361.336-1.752.254-1.866.098-1.897v-2.362l-.098-1.046-.11-.899-.144-.91-.117-.822-.219-.831-.298-.759-.498-.867-.507-.661-.523-.474-.493-.453-.517-.303-.518-.244H61.3l-.872.547-.802.453-.784.474-.885.394-.838.4-.973.321-.95.315-1.034.28-.65.152-.37.534-.558.837-.482.828-.462.878-.492 1.033-.453 1.044-.44 1.157-.311.984-.345 1.4-.294 1.029-.336 1.82-.143 2.003v2.544l.143 1.994.199 1.443.352 1.67.224 1.011h10.72zm-1.135-43.318c1.354 0 2.452-1.127 2.452-2.518 0-1.391-1.098-2.519-2.452-2.519-1.354 0-2.452 1.128-2.452 2.519 0 1.39 1.098 2.518 2.452 2.518z"/>
</svg>
