<svg xmlns="http://www.w3.org/2000/svg" width="90" height="90" viewBox="0 0 90 90">
    <g fill="#FFF" fill-rule="nonzero">
        <circle cx="45" cy="45" r="45" opacity=".3"/>
        <path d="M45 90C20.147 90 0 69.853 0 45S20.147 0 45 0s45 20.147 45 45-20.147 45-45 45zm0-86.46C24.554 3.52 7.153 18.426 4.034 38.633.915 58.84 13.011 78.299 32.512 84.445c19.5 6.146 40.568-2.86 49.6-21.205 9.03-18.343 3.32-40.533-13.442-52.24A41.51 41.51 0 0 0 45 3.54z" opacity=".35"/>
        <path d="M41.57 19.46H21.29a1.75 1.75 0 0 0-1.75 1.75V49c0 .966.784 1.75 1.75 1.75h20.28A1.75 1.75 0 0 0 43.32 49V21.21a1.75 1.75 0 0 0-1.75-1.75zm-1.75 27.8H23V23h16.82v24.26zM41.57 54.3H21.29a1.75 1.75 0 0 0-1.75 1.75v12.66a1.76 1.76 0 0 0 1.75 1.75h20.28a1.75 1.75 0 0 0 1.75-1.75V56.05a1.75 1.75 0 0 0-1.75-1.75zM39.82 67H23v-9.2h16.82V67zM68.79 39.16H48.51a1.75 1.75 0 0 0-1.75 1.75v27.8c0 .966.784 1.75 1.75 1.75h20.28a1.75 1.75 0 0 0 1.75-1.75v-27.8a1.75 1.75 0 0 0-1.75-1.75zM67 67H50.26V42.66H67V67zM68.79 19.46H48.51a1.75 1.75 0 0 0-1.75 1.75v12.66c0 .966.784 1.75 1.75 1.75h20.28a1.75 1.75 0 0 0 1.75-1.75V21.21a1.75 1.75 0 0 0-1.75-1.75zM67 32.12H50.26V23H67v9.12z"/>
    </g>
</svg>
