<svg xmlns="http://www.w3.org/2000/svg" width="90" height="90" viewBox="0 0 90 90">
    <g fill="#FFF" fill-rule="nonzero">
        <circle cx="45" cy="45" r="45" opacity=".3"/>
        <path d="M45 90C20.147 90 0 69.853 0 45S20.147 0 45 0s45 20.147 45 45-20.147 45-45 45zm0-86.46C24.554 3.52 7.153 18.426 4.034 38.633.915 58.84 13.011 78.299 32.512 84.445c19.5 6.146 40.568-2.86 49.6-21.205 9.03-18.343 3.32-40.533-13.442-52.24A41.51 41.51 0 0 0 45 3.54z" opacity=".35"/>
        <path d="M45 24.64c-9.9 0-18.27 8.81-18.27 19.25a18.09 18.09 0 0 0 2.61 9.4l1.92 2.75.15.22c2.93 3.78 4.73 6.42 5.13 11.25l.19 3.91v.39a8.33 8.33 0 0 0 16.52 0l.22-4.07v-.24c.4-4.83 2.2-7.47 5.13-11.25l2-3a18.093 18.093 0 0 0 2.61-9.4c.06-10.4-8.31-19.21-18.21-19.21zm.15 32.06c-1.61-.22-2.75-1-2.75-1.74 0-1 1.4-1 1.46-1 .45 0 1.5.12 1.5 1.24a5.09 5.09 0 0 1-.21 1.5zm4.88 10l-.11 2.3h-9.84L40 66.69l10.03.01zm-5 9a4.84 4.84 0 0 1-4.5-3.15h9A4.84 4.84 0 0 1 45 75.64l.03.06zM57 52.49l-.86 1.22-.35.51c-2.35 3-4.1 5.55-5.06 8.95h-4.9c.29-.72.644-1.414 1.06-2.07l.55-1a6.81 6.81 0 0 0 6-6.47 7.11 7.11 0 0 0-2.82-6.36 10.2 10.2 0 0 0-9.14-1.38 1.75 1.75 0 0 0 1.17 3.29 6.73 6.73 0 0 1 5.84.88A3.6 3.6 0 0 1 50 53.41a3.35 3.35 0 0 1-1.15 2.44v-.63a4.73 4.73 0 0 0-5-4.74c-2.83 0-5 1.93-5 4.48 0 2.32 1.89 4.25 4.63 5a11.43 11.43 0 0 0-1.33 3.25h-2.89c-.95-3.38-2.69-5.9-5-8.9l-.39-.56-.87-1.26a14.57 14.57 0 0 1-2.78-8.6c0-8.39 6.9-15.75 14.77-15.75 7.87 0 14.78 7.36 14.78 15.75a14.57 14.57 0 0 1-2.77 8.6zM45 21.31a1.76 1.76 0 0 0 1.75-1.75v-6.84a1.75 1.75 0 0 0-3.5 0v6.84c0 .966.784 1.75 1.75 1.75zM32.16 23a1.76 1.76 0 0 0 1.58 1 1.76 1.76 0 0 0 1.57-2.52l-3-6.14a1.75 1.75 0 1 0-3.14 1.54L32.16 23zM55.38 23.56c.239.11.498.167.76.17a1.76 1.76 0 0 0 1.58-1l3-6.16a1.753 1.753 0 0 0-3.16-1.52l-3 6.16a1.76 1.76 0 0 0 .82 2.35zM71.58 23.2a1.77 1.77 0 0 0-2.47-.2l-5.27 4.35A1.75 1.75 0 1 0 66.06 30l5.28-4.34c.734-.62.84-1.71.24-2.46zM26.31 27.73L21 23.4a1.752 1.752 0 0 0-2.22 2.71l5.29 4.33a1.752 1.752 0 0 0 2.22-2.71h.02z"/>
    </g>
</svg>
