<svg xmlns="http://www.w3.org/2000/svg" width="90" height="90" viewBox="0 0 90 90">
    <g fill="#FFF" fill-rule="nonzero">
        <circle cx="45" cy="45" r="45" opacity=".3"/>
        <path d="M45 90C20.147 90 0 69.853 0 45S20.147 0 45 0s45 20.147 45 45-20.147 45-45 45zm0-86.46C24.554 3.52 7.153 18.426 4.034 38.633.915 58.84 13.011 78.299 32.512 84.445c19.5 6.146 40.568-2.86 49.6-21.205 9.03-18.343 3.32-40.533-13.442-52.24A41.51 41.51 0 0 0 45 3.54z" opacity=".35"/>
        <path d="M73.77 35.62a1.72 1.72 0 0 0-.16-1.33L69 26.16a1.68 1.68 0 0 0-1-.83 1.72 1.72 0 0 0-1.33.16l-5.84 3.27a22.69 22.69 0 0 0-9.4-5.51v-6.69a1.76 1.76 0 0 0-1.75-1.75h-9.35a1.76 1.76 0 0 0-1.75 1.75v6.7a22.5 22.5 0 0 0-8.88 5L24 24.82a1.74 1.74 0 0 0-2.4.6l-4.82 8a1.74 1.74 0 0 0 .6 2.4l5.73 3.46a22.56 22.56 0 0 0-.72 6.51 23.54 23.54 0 0 0 .55 4.27l-5.84 3.27a1.76 1.76 0 0 0-.67 2.39L21 63.84a1.74 1.74 0 0 0 2.38.67l5.85-3.27a22.69 22.69 0 0 0 9.4 5.51v6.69c0 .966.784 1.75 1.75 1.75h9.33a1.75 1.75 0 0 0 1.75-1.75v-6.7a22.46 22.46 0 0 0 8.88-5L66 65.18a1.74 1.74 0 0 0 2.4-.6l4.82-8a1.7 1.7 0 0 0 .2-1.32 1.73 1.73 0 0 0-.79-1.08l-5.73-3.46A23 23 0 0 0 67.1 40l5.84-3.27a1.76 1.76 0 0 0 .83-1.11zm-9.56 1.94a1.75 1.75 0 0 0-.82 2v.12a19.62 19.62 0 0 1 .74 4.65 19.25 19.25 0 0 1-.91 6.54v.11A1.76 1.76 0 0 0 64 53l5.39 3.25-3 5L61 58a1.77 1.77 0 0 0-2.15.27l-.08.08a19.05 19.05 0 0 1-9.31 5.28h-.14a1.76 1.76 0 0 0-1.36 1.71v6.3h-5.87v-6.3a1.74 1.74 0 0 0-1.36-1.7h-.15a19.12 19.12 0 0 1-9.78-5.79 1.78 1.78 0 0 0-2.15-.34l-5.49 3.09-2.86-5.08 5.49-3.08a1.77 1.77 0 0 0 .83-2v-.11a19.34 19.34 0 0 1 .18-11.2v-.1A1.74 1.74 0 0 0 26 37l-5.39-3.25 3-5L29.05 32a1.77 1.77 0 0 0 2.16-.28l.08-.09a19.13 19.13 0 0 1 9.3-5.27h.14a1.74 1.74 0 0 0 1.35-1.7v-6.3h5.84v6.3a1.74 1.74 0 0 0 1.35 1.7h.12A19.09 19.09 0 0 1 59.12 32l.09.09a1.74 1.74 0 0 0 2.14.35l5.5-3.09 2.85 5.09-5.49 3.12z"/>
        <path d="M56.66 44c-.536-6.317-6.002-11.06-12.331-10.701-6.33.359-11.224 5.69-11.042 12.027C33.468 51.663 38.66 56.704 45 56.7h1c6.45-.566 11.22-6.25 10.66-12.7zm-10.94 9.2a8.202 8.202 0 1 1-1.44-16.34h.73a8.2 8.2 0 0 1 .71 16.37v-.03z"/>
    </g>
</svg>
