<svg xmlns="http://www.w3.org/2000/svg" width="90" height="90" viewBox="0 0 90 90">
    <g fill="#FFF" fill-rule="nonzero">
        <circle cx="45" cy="45" r="45" opacity=".3"/>
        <path d="M45 90C20.147 90 0 69.853 0 45S20.147 0 45 0s45 20.147 45 45-20.147 45-45 45zm0-86.46C24.554 3.52 7.153 18.426 4.034 38.633.915 58.84 13.011 78.299 32.512 84.445c19.5 6.146 40.568-2.86 49.6-21.205 9.03-18.343 3.32-40.533-13.442-52.24A41.51 41.51 0 0 0 45 3.54z" opacity=".35"/>
        <path d="M73 30.32a1.75 1.75 0 0 0-1.37-.67H27.39l-1.31-9.11A1.76 1.76 0 0 0 24.34 19h-6a1.75 1.75 0 0 0 0 3.5h4.5l1.31 9.08v.07l3.21 22.17h-1.64A1.74 1.74 0 0 0 24 55.29l-2.16 11.85a1.77 1.77 0 0 0 .38 1.44c.334.4.829.632 1.35.63H28a6.37 6.37 0 0 0 12.25 0H55a6.38 6.38 0 1 0 0-3.5H40.28a6.37 6.37 0 0 0-12.25 0h-2.37l1.52-8.35H66A1.74 1.74 0 0 0 67.71 56l5.66-24.2a1.75 1.75 0 0 0-.37-1.48zM61 64.58a2.88 2.88 0 1 1-2.008.815 2.88 2.88 0 0 1 2.088-.815H61zm-26.93 0a2.88 2.88 0 1 1-2.002.818 2.88 2.88 0 0 1 2.082-.818h-.08zm35.39-31.43l-2.1 9H29.2l-1.3-9h41.56zm-4.84 20.71H30.89l-1.19-8.24h36.85l-1.93 8.24z"/>
    </g>
</svg>
