<svg xmlns="http://www.w3.org/2000/svg" width="90" height="90" viewBox="0 0 90 90">
    <g fill="#FFF" fill-rule="nonzero">
        <circle cx="45" cy="45" r="45" opacity=".3"/>
        <path d="M45 90C20.147 90 0 69.853 0 45S20.147 0 45 0s45 20.147 45 45-20.147 45-45 45zm0-86.46C24.554 3.52 7.153 18.426 4.034 38.633.915 58.84 13.011 78.299 32.512 84.445c19.5 6.146 40.568-2.86 49.6-21.205 9.03-18.343 3.32-40.533-13.442-52.24A41.51 41.51 0 0 0 45 3.54z" opacity=".35"/>
        <path d="M73 42.93h-9.7v-7.85a1.76 1.76 0 0 0-.07-.45v-.11a2.17 2.17 0 0 0-.19-.41 1.64 1.64 0 0 0-.21-.25l-5.52-5.52a1.75 1.75 0 0 0-2.47 0l-11.9 11.85a1.754 1.754 0 1 0 2.48 2.48L56 32l3 3-12 12.17a1.75 1.75 0 0 0 0 2.47l5.87 5.87-10.59 10.58a1.76 1.76 0 0 0 1.24 3 1.72 1.72 0 0 0 1.24-.52l11.81-11.82a1.75 1.75 0 0 0 0-2.47l-5.87-5.87 9.1-9.1v5.37c0 .966.784 1.75 1.75 1.75H73a1.75 1.75 0 0 0 0-3.5z"/>
        <path d="M44.76 51.88a1.74 1.74 0 0 0-2.48 0L28 66.15a1.75 1.75 0 0 0 1.24 3 1.74 1.74 0 0 0 1.23-.51l14.29-14.29a1.75 1.75 0 0 0 0-2.47zM68.36 34.31a5.62 5.62 0 1 0 .02-11.24 5.62 5.62 0 0 0-.02 11.24zm0-7.73a2.12 2.12 0 1 1 .02 4.24 2.12 2.12 0 0 1-.02-4.24zM20.79 43.18H36a1.75 1.75 0 0 0 0-3.5H20.79a1.75 1.75 0 0 0 0 3.5zM30.79 30.44h15.5a1.75 1.75 0 0 0 0-3.5h-15.5a1.75 1.75 0 0 0 0 3.5zM31 55.58a1.76 1.76 0 0 0-1.75-1.75h-14.5a1.75 1.75 0 0 0 0 3.5h14.5A1.75 1.75 0 0 0 31 55.58z"/>
    </g>
</svg>
