<svg xmlns="http://www.w3.org/2000/svg" width="217" height="200" viewBox="0 0 217 200">
    <g fill="#FFF" fill-rule="nonzero">
        <g transform="translate(-.267 .333)">
            <path d="M216.46 140.024a48.637 48.637 0 0 1-81.987 35.42l-4.293-3.71a22.877 22.877 0 0 0-33.657 2.207l-4.017 4.692a50.983 50.983 0 1 1-68.402-73.347l3.243-2.445.077-.062a12.673 12.673 0 0 0 2.76-18.4l-.108-.13-4.3-5.52a47.533 47.533 0 1 1 73.507-60.23l3.12 3.443a13.148 13.148 0 0 0 19.842-.192l1.855-2.039a41.247 41.247 0 1 1 59.294 56.833l-1.31 1.449a9.852 9.852 0 0 0 1.962 15.663l.176.092 3.067 1.687a48.662 48.662 0 0 1 29.172 44.589z" opacity=".25"/>
            <circle cx="14.099" cy="90.39" r="12.635" opacity=".32"/>
            <circle cx="195.385" cy="84.993" r="8.939" opacity=".32"/>
            <circle cx="113.206" cy="9.146" r="8.939" opacity=".32"/>
            <path d="M20.953 117.814h79.48v42.933h-79.48z" opacity=".32"/>
            <path d="M60.015 20.738c-13.126 0-23.767 10.641-23.767 23.767s10.64 23.767 23.767 23.767c13.126 0 23.766-10.641 23.766-23.767a23.767 23.767 0 0 0-23.766-23.767zm0 34.654c-6.029 0-10.916-4.887-10.918-10.915-.001-6.029 4.884-10.917 10.913-10.92 6.028-.003 10.918 4.881 10.922 10.91a10.91 10.91 0 0 1-10.917 10.925z" opacity=".21"/>
            <path d="M54.61 12.198h9.453V20.8H54.61zM54.74 68.525h9.453v8.602H54.74zM91.87 39.867v9.453h-8.602v-9.453zM35.535 39.997v9.453h-8.602v-9.453zM78.975 18.32l6.684 6.685-6.083 6.083-6.684-6.685zM39.234 58.243l6.684 6.685-6.082 6.082-6.684-6.684zM85.753 64.234l-6.685 6.685-6.082-6.083 6.684-6.684zM45.823 24.49l-6.684 6.685-6.082-6.083 6.684-6.684z" opacity=".21"/>
            <path d="M163.108 106.95s-31.84 35.366-7.666 67.229c0 0 7.482 9.054 15.149 1.388 7.667-7.667 16.483-19.359 5.75-53.667l-13.417-15.847.184.897z" opacity=".32"/>
        </g>
        <g transform="translate(17.367 8.767)">
            <path d="M181.516 30.007L148.81 6.241a2.3 2.3 0 0 0-2.706 0l-14.299 10.396V8.54a2.3 2.3 0 1 0-4.6 0v11.438l-13.8 10.028a2.3 2.3 0 0 0 2.691 3.726l4.93-3.58V56.22h-13.693a2.3 2.3 0 0 0-2.3 2.3v26.963H44.681V71.607h3.067a2.3 2.3 0 0 0 2.3-2.3v-9.384a25.5 25.5 0 0 0 3.833-1.587l6.64 6.647a2.3 2.3 0 0 0 1.625.667 2.3 2.3 0 0 0 1.625-.667l7.583-7.583a2.3 2.3 0 0 0 0-3.25l-6.678-6.617a25.131 25.131 0 0 0 1.58-3.833h9.391a2.3 2.3 0 0 0 2.3-2.3V30.667a2.3 2.3 0 0 0-2.3-2.3h-9.392c-.421-1.319-.95-2.6-1.579-3.834L71.3 17.94a2.3 2.3 0 0 0 0-3.258l-7.582-7.575a2.361 2.361 0 0 0-3.251 0l-6.64 6.64a25.461 25.461 0 0 0-3.833-1.58V2.775a2.3 2.3 0 0 0-2.3-2.3H36.961a2.3 2.3 0 0 0-2.3 2.3v9.392c-1.32.42-2.601.948-3.833 1.58l-6.647-6.64a2.3 2.3 0 0 0-3.251 0l-7.582 7.575a2.3 2.3 0 0 0 0 3.258l6.647 6.64a25.5 25.5 0 0 0-1.587 3.833H9.116a2.3 2.3 0 0 0-2.3 2.3V41.4a2.3 2.3 0 0 0 2.3 2.3H18.5c.422 1.32.953 2.601 1.587 3.833L13.44 54.18a2.3 2.3 0 0 0 0 3.251l7.582 7.582a2.3 2.3 0 0 0 3.25 0l6.648-6.647a24.365 24.365 0 0 0 3.833 1.58v9.36a2.3 2.3 0 0 0 2.3 2.3h3.067v16.177a2.3 2.3 0 0 0 2.3 2.3h62.613v43.57h-18.4V109.12a2.3 2.3 0 0 0-2.3-2.3H2.737a2.3 2.3 0 0 0-2.3 2.3v53.666a2.3 2.3 0 0 0 2.3 2.3h30.667c.766 1.089 1.978 4.11-1.058 10.297a2.3 2.3 0 0 0 2.07 3.312h16.636a2.3 2.3 0 0 0 2.063-3.312c-3.067-6.226-1.794-9.246-1.074-10.297h32.292a2.3 2.3 0 0 0 2.3-2.3v-24.533h40.143v.767a50.086 50.086 0 0 0 2.944 17.633 32.583 32.583 0 0 0-11.117 24.372 2.3 2.3 0 0 0 1.304 2.07c.31.15.651.23.996.232a2.312 2.312 0 0 0 1.434-.508c3.695-2.951 14.406-10.45 20.585-10.526a8.564 8.564 0 0 0 7.283 0c6.187.077 16.867 7.567 20.593 10.526a2.3 2.3 0 0 0 3.741-1.794 32.576 32.576 0 0 0-11.132-24.38 50.086 50.086 0 0 0 2.937-17.633c0-23.383-17.365-42.167-18.101-42.972l-.062-.046-.046-.061-.168-.1-.192-.145-.192-.108-.207-.1a1.756 1.756 0 0 0-.214-.068 1.027 1.027 0 0 0-.207-.054h-.882c-.07.01-.14.029-.207.054-.069 0-.146.038-.215.069l-.199.1-.2.107-.183.145-.123.092-.054.062-.053.046c-.683.728-15.495 16.774-17.795 37.605h-17.41V60.804h61.954a2.3 2.3 0 0 0 2.3-2.3V30.138l4.93 3.595a2.3 2.3 0 0 0 2.698-3.726zM21.904 36.033c0-11.31 9.168-20.477 20.477-20.477 11.31 0 20.478 9.168 20.478 20.477 0 11.31-9.168 20.478-20.478 20.478-11.304-.013-20.465-9.173-20.477-20.478zM62.1 60.1l-4.155-4.132 4.331-4.324 4.163 4.163-4.339 4.293zm5.367-27.132h5.888V39.1h-5.888v-6.133zm-5.367-21l4.332 4.332-4.163 4.156-4.332-4.324 4.163-4.163zm-22.778-1.004V5.075h6.134v5.888h-6.134zm-16.675 1.02l4.186 4.163-4.347 4.324-4.163-4.155 4.324-4.332zM17.304 39.1h-5.888v-6.133h5.888V39.1zm5.366 20.999l-4.324-4.324 4.163-4.163 4.324 4.355-4.163 4.132zm16.675 1.02h6.134v5.888h-6.134v-5.888zM5.06 111.412h76.973v38.333H5.037l.023-38.333zm42.527 62.621h-9.744c1.341-3.956 1.188-6.9.552-9.008h8.64c-.636 2.108-.79 5.075.552 9.008zm34.446-13.585H5.037v-6.133h76.996v6.133zm41.569 15.732a28.19 28.19 0 0 1 8.08-15.073 29.049 29.049 0 0 0 5.804 7.667c-5.006 1.625-10.296 4.914-13.884 7.406zm45.877 0c-3.588-2.492-8.885-5.773-13.892-7.414a28.873 28.873 0 0 0 5.804-7.666 28.512 28.512 0 0 1 8.088 15.072v.008zm-10.932-19.78c-.033.07-.061.141-.085.215-3.787 8.678-9.79 11.944-11.921 11.944a5.436 5.436 0 0 1-2.086-.575c-2.752-1.272-6.9-4.707-9.752-11.216a2.545 2.545 0 0 0-.184-.452c-1.84-4.34-3.135-9.967-3.135-17.266 0-17.418 10.925-32.59 15.187-37.858 4.263 5.252 15.18 20.401 15.18 37.858-.03 7.284-1.334 12.972-3.204 17.35zM146.433 56.189h-8.878V43.156h8.878v13.033zm22.878 0h-18.278V40.856a2.3 2.3 0 0 0-2.3-2.3h-13.478a2.3 2.3 0 0 0-2.3 2.3v15.333h-7.329V26.833l21.827-15.862 21.835 15.862.023 29.356z"/>
            <circle cx="147.454" cy="25.882" r="3.987" transform="rotate(-13.28 147.454 25.882)"/>
            <circle cx="146.538" cy="130.624" r="3.987" transform="rotate(-13.28 146.538 130.624)"/>
            <circle cx="146.542" cy="143.622" r="3.987" transform="rotate(-45 146.542 143.622)"/>
            <path d="M42.381 21.59a14.46 14.46 0 1 0 14.452 14.443c-.017-7.973-6.478-14.431-14.452-14.444zm0 24.31c-5.445.005-9.862-4.406-9.867-9.851-.004-5.445 4.407-9.863 9.852-9.867 5.445-.005 9.863 4.406 9.867 9.851-.004 5.442-4.41 9.855-9.852 9.867z"/>
        </g>
    </g>
</svg>
