<svg xmlns="http://www.w3.org/2000/svg" width="199" height="187" viewBox="0 0 199 187">
    <g fill="#FFF" fill-rule="nonzero">
        <g transform="translate(.467 7.433)">
            <path d="M195.899 94.568a42.236 42.236 0 0 1-52.348 53.498l-4.6-1.111a31.809 31.809 0 0 0-12.512-1.058c-.537.061-1.066.138-1.603.222-.536.084-1.088.2-1.633.322a36.08 36.08 0 0 0-2.3.583c-.766.222-1.663.536-2.468.85a19.81 19.81 0 0 0-1.71.767c-.747.334-1.476.705-2.185 1.112l-.92.537-.767.49c-.513.338-1.027.69-1.533 1.058-.498.368-.989.767-1.457 1.143a33.981 33.981 0 0 0-2.062 1.863c-.291.276-.567.56-.843.858a30.812 30.812 0 0 0-2.3 2.768l-.215.276-4.056 5.26a32.967 32.967 0 1 1-51.435-40.864l2.982-3.396a15.533 15.533 0 0 0-9.583-26.228l-3.443-.414h-.053C19.475 91.422 3.749 76.72.769 57.497-2.211 38.273 8.325 19.5 26.286 12.029 44.248 4.56 64.99 10.323 76.521 25.99l2.438 3.013a17.419 17.419 0 0 0 30.667-6.294l1.349-4.554v-.092a25.062 25.062 0 1 1 47.702 15.333l-1.096 3.389-.054.16c-4.012 11.765 1.21 24.692 12.267 30.368h.069l4.393 2.346a42.167 42.167 0 0 1 21.643 24.91z" opacity=".1"/>
            <circle cx="94.637" cy="82.869" r="56.764" opacity=".25"/>
            <circle cx="179.469" cy="46.084" r="15.418" opacity=".32"/>
            <circle cx="11.155" cy="98.394" r="6.954" opacity=".32"/>
            <circle cx="128.041" cy="165.646" r="13.294" opacity=".2"/>
            <circle cx="92.767" cy="15.809" r="12.635" opacity=".32"/>
            <circle cx="32.706" cy="116.25" r="12.635" opacity=".32"/>
            <path d="M195.899 94.867a42.236 42.236 0 0 1-52.348 53.498l-4.6-1.111a31.809 31.809 0 0 0-12.512-1.058c-.537.061-1.066.145-1.603.23-.536.084-1.088.191-1.633.314-.766.169-1.533.368-2.3.59-.766.223-1.663.53-2.468.851-.575.223-1.143.468-1.71.729-.767.337-1.472.705-2.185 1.111l-.92.537-.767.498c-.513.338-1.027.683-1.533 1.05-.498.361-.989.767-1.457 1.135a33.982 33.982 0 0 0-2.062 1.863c-.291.276-.567.56-.843.859a30.812 30.812 0 0 0-2.3 2.768 3.79 3.79 0 0 1-.215.276l-4.056 5.259a32.967 32.967 0 1 1-51.512-40.833l2.982-3.388a15.54 15.54 0 0 0-9.583-26.236l-3.442-.414h-.054C19.395 91.716 3.667 77.014.686 57.788c-2.98-19.226 7.558-38 25.522-45.47 17.965-7.47 38.707-1.7 50.236 13.971l2.438 3.013a17.411 17.411 0 0 0 30.667-6.294l1.35-4.6v-.085A25.062 25.062 0 1 1 158.6 33.657l-1.096 3.388-.054.169c-4.008 11.762 1.213 24.684 12.267 30.36l.069.038 4.393 2.346a42.167 42.167 0 0 1 21.72 24.91z" opacity=".2"/>
            <circle cx="179.469" cy="46.084" r="15.418" opacity=".32"/>
            <circle cx="11.155" cy="98.394" r="6.954" opacity=".32"/>
            <circle cx="128.041" cy="165.646" r="13.294" opacity=".2"/>
            <circle cx="92.767" cy="15.809" r="12.635" opacity=".32"/>
            <circle cx="32.706" cy="116.25" r="12.635" opacity=".32"/>
        </g>
        <path d="M174.722 5.739a14.843 14.843 0 0 1-20.408 20.416A14.85 14.85 0 1 0 174.722 5.74z" opacity=".4"/>
        <path d="M176.923 13.49c0-2.738-.762-5.421-2.2-7.751a14.835 14.835 0 0 0-20.41 20.416 14.843 14.843 0 0 0 22.61-12.665z" opacity=".6"/>
        <path d="M176.923 13.49c0-2.738-.762-5.421-2.2-7.751a14.835 14.835 0 0 0-20.41 20.416 14.843 14.843 0 0 0 22.61-12.665z" opacity=".55"/>
        <path d="M174.722 149.535a14.843 14.843 0 0 1-20.408 20.432 14.85 14.85 0 1 0 20.408-20.417v-.015z" opacity=".4"/>
        <path d="M176.923 157.286c0-2.738-.762-5.421-2.2-7.751a14.835 14.835 0 0 0-20.41 20.432 14.843 14.843 0 0 0 22.61-12.666v-.015z" opacity=".6"/>
        <path d="M176.923 157.286c0-2.738-.762-5.421-2.2-7.751a14.835 14.835 0 0 0-20.41 20.432 14.843 14.843 0 0 0 22.61-12.666v-.015z" opacity=".55"/>
        <path d="M30.972 149.535a14.843 14.843 0 0 1-20.408 20.432 14.85 14.85 0 1 0 20.408-20.417v-.015z" opacity=".4"/>
        <path d="M33.173 157.286c0-2.738-.762-5.421-2.2-7.751a14.835 14.835 0 0 0-20.41 20.432 14.843 14.843 0 0 0 22.61-12.666v-.015z" opacity=".6"/>
        <path d="M33.173 157.286c0-2.738-.762-5.421-2.2-7.751a14.835 14.835 0 0 0-20.41 20.432 14.843 14.843 0 0 0 22.61-12.666v-.015z" opacity=".55"/>
        <path d="M30.972 5.739a14.843 14.843 0 0 1-20.408 20.416A14.85 14.85 0 1 0 30.972 5.74z" opacity=".4"/>
        <path d="M33.173 13.49c0-2.738-.762-5.421-2.2-7.751a14.835 14.835 0 0 0-20.41 20.416 14.843 14.843 0 0 0 22.61-12.665z" opacity=".6"/>
        <path d="M33.173 13.49c0-2.738-.762-5.421-2.2-7.751a14.835 14.835 0 0 0-20.41 20.416 14.843 14.843 0 0 0 22.61-12.665z" opacity=".55"/>
        <g>
            <path d="M166.979 144.276a17.848 17.848 0 0 0-10.289 3.258l-23.935-23.943a50.301 50.301 0 0 0 11.025-45.962 3.067 3.067 0 1 0-5.934 1.534 44.16 44.16 0 1 1-85.484 0 3.067 3.067 0 1 0-5.934-1.534 50.224 50.224 0 0 0 11.025 45.962L33.51 147.534c-7.632-5.356-18.093-3.983-24.084 3.161-5.99 7.145-5.52 17.685 1.085 24.266 6.605 6.581 17.147 7.015 24.27 1 7.123-6.017 8.46-16.483 3.076-24.095L61.8 127.93c19 16.889 47.631 16.889 66.631 0l23.928 23.936a17.917 17.917 0 1 0 14.635-7.59h-.015zm-143.75 29.723a11.799 11.799 0 1 1 11.791-11.791c-.008 6.509-5.282 11.783-11.791 11.791zm143.75 0a11.799 11.799 0 1 1 11.791-11.791c-.008 6.509-5.282 11.783-11.791 11.791zM23.229 36.337a17.825 17.825 0 0 0 10.312-3.282l23.912 23.92a50.37 50.37 0 0 0-5.788 7.958A3.067 3.067 0 0 0 56.962 68a44.175 44.175 0 0 1 76.284 0 3.067 3.067 0 0 0 5.29-3.067 49.895 49.895 0 0 0-5.789-7.965l23.913-23.92c7.621 5.372 18.086 4.02 24.092-3.114 6.005-7.133 5.553-17.676-1.04-24.27-6.594-6.593-17.137-7.045-24.27-1.04-7.134 6.005-8.487 16.47-3.114 24.092L128.4 52.666c-19.003-16.849-47.597-16.849-66.6 0l-23.92-23.95a17.917 17.917 0 1 0-14.651 7.62zm143.75-29.724a11.799 11.799 0 1 1-11.799 11.791c.008-6.511 5.287-11.787 11.799-11.791zm-143.75 0a11.784 11.784 0 0 1 8.433 20.048.621.621 0 0 1-.076.07.368.368 0 0 0-.07.084A11.791 11.791 0 1 1 23.23 6.613z"/>
            <path d="M87.805 68.836a3.067 3.067 0 0 0-3.066 3.066v15.334h-2.576a3.067 3.067 0 0 0 0 6.133h2.576v15.333a3.067 3.067 0 0 0 6.133 0v-2.507h4.247v2.438a3.067 3.067 0 0 0 6.134 0v-2.714a9.46 9.46 0 0 0 4.661-15.601 9.453 9.453 0 0 0-4.661-15.594v-2.89a3.067 3.067 0 1 0-6.134 0v2.598h-4.247v-2.514a3.067 3.067 0 0 0-3.067-3.082zm11.148 31.226h-.054a3.128 3.128 0 0 0-.713-.092 3.067 3.067 0 0 0-.705.092h-6.609v-6.693h8.08a3.35 3.35 0 0 1 0 6.693zm0-19.512a3.343 3.343 0 1 1 0 6.686h-8.081V80.55h8.08z"/>
            <path d="M70.67 112.037a3.071 3.071 0 0 0-4.6 4.071 38.816 38.816 0 0 0 58.022 0 3.074 3.074 0 0 0-4.6-4.078 32.69 32.69 0 0 1-48.86 0l.038.007zM127.818 105.084c.328.111.672.168 1.02.168a3.067 3.067 0 0 0 2.897-2.047c5.66-16.086.16-33.983-13.555-44.117s-32.437-10.134-46.152 0c-13.715 10.134-19.214 28.03-13.555 44.117a3.067 3.067 0 1 0 5.78-2.039 32.698 32.698 0 1 1 61.694 0 3.067 3.067 0 0 0 1.87 3.918z"/>
        </g>
    </g>
</svg>
