<svg xmlns="http://www.w3.org/2000/svg" width="203" height="213" viewBox="0 0 203 213">
    <g fill="none" fill-rule="evenodd">
        <g fill="#FFF" fill-rule="nonzero" transform="translate(.5 -.267)">
            <circle cx="180.466" cy="117.338" r="6.402" opacity=".32"/>
            <circle cx="149.899" cy="192.265" r="10.772" opacity=".32"/>
            <circle cx="28.19" cy="79.534" r="6.402" opacity=".32"/>
            <path d="M62.353 39.33h13.256l-2.3-.33H60.053l-6.133 1.097-3.266 5.136-2.17.974-1.403 5.482v4.278c0-6.134 4.8-16.637 15.272-16.637z" opacity=".25"/>
            <path d="M48.714 174.969c0-9.768-1.633-118.006-1.633-119.025v34.438c-30.935 9.009-52.54 40.45-45.862 72.542a62.338 62.338 0 0 0 106.881 29.57H69.268c-19.435 0-20.554-7.727-20.554-17.525zM200.537 44.252a54.786 54.786 0 0 0-92.567-27.385l-5.237-.108H92.544l-4.99 1.273-4.148 3.182-2.14 4.853-.06 1.042c2.506-4.692 7.298-8.977 14.643-8.977h47.065c19.328 0 23.522 3.32 23.522 13.033v122.636c0 5.811-1.403 9.867-3.535 12.604l1.534-1.12 2.438-7.244 1.012-52.003c24.31-10.082 38.018-36.022 32.652-61.786z" opacity=".25"/>
            <path d="M149.722 171.22h-21.344v.107h23.844a13.14 13.14 0 0 0 10.656-4.922l-4.945 3.619-8.21 1.196z"/>
            <path d="M154.207 17.863h-61.67c-6.28 0-11.37 5.09-11.37 11.37V39H60.084c-6.28 0-11.37 5.09-11.37 11.37v130.563c0 6.28 5.09 11.37 11.37 11.37h55.292c6.279 0 11.37-5.09 11.37-11.37v-9.805h27.461a11.37 11.37 0 0 0 11.393-11.37V29.233a11.37 11.37 0 0 0-11.393-11.37z" opacity=".1"/>
        </g>
        <g fill="#FFF" fill-rule="nonzero" opacity=".19" transform="translate(48.8 15.833)">
            <rect width="78.031" height="153.264" x=".414" y="22.9" rx="16.57"/>
            <path d="M106.92.66H44.243c-6.41 0-11.607 5.196-11.607 11.607v9.407c11.186-.307 43.37-.683 45.732 7.298 2.806 9.461.605 34.163 1.004 34.692.314.414.13 63.771.038 90.26h27.508c6.41 0 11.608-5.197 11.608-11.608V12.266c0-6.41-5.197-11.607-11.608-11.607z"/>
        </g>
        <g transform="translate(46.5 13.533)">
            <path stroke="#FFF" stroke-linecap="round" stroke-linejoin="round" stroke-width="6" d="M33.181 34.538h12.942" opacity=".58"/>
            <circle cx="54.219" cy="34.538" r="2.116" fill="#FFF" fill-rule="nonzero" opacity=".82"/>
            <circle cx="41.73" cy="165.646" r="7.069" fill="#FFF" fill-rule="nonzero" opacity=".28"/>
            <circle cx="41.73" cy="165.646" r="4.7" fill="#FFF" fill-rule="nonzero" opacity=".82"/>
            <path fill="#FFF" fill-rule="nonzero" d="M15.709 48.538h52.034v37.904H15.709zM15.671 124.208h52.034v10.979H15.671zM15.671 142.071h7.598v7.598h-7.598zM27.286 142.071h7.598v7.598h-7.598zM38.648 142.071h7.598v7.598h-7.598zM15.533 92.805h52.034v6.348H15.533zM15.671 114.134h17.396v6.348H15.671zM37.406 114.18h30.23v6.348h-30.23zM15.709 103.538H50.5v6.348H15.709zM54.801 103.538h12.773v6.348H54.801z" opacity=".48"/>
            <path stroke="#FFF" stroke-linecap="round" stroke-linejoin="round" stroke-width="6" d="M67.796 12.297h12.95" opacity=".58"/>
            <circle cx="88.834" cy="12.297" r="2.116" fill="#FFF" fill-rule="nonzero" opacity=".82"/>
            <path fill="#FFF" fill-rule="nonzero" d="M80.745 124.254h23.153v10.979H80.745zM81.826 80.692h22.072v6.348H81.826zM81.826 69.276h22.072v6.348H81.826zM81.535 114.18h22.218v6.348H81.535zM81.535 103.538H97.06v6.348H81.535zM74.29 26.297c4.025 1.886 7.145 5.412 7.322 11.806a226.78 226.78 0 0 1-.997 26.067h23.284V26.297H74.29z" opacity=".48"/>
            <circle cx="4.523" cy="5.006" r="4.347" fill="#FFF" fill-rule="nonzero" opacity=".9" transform="translate(63.633 149.5)"/>
            <circle cx="4.086" cy="4.6" r="3.918" fill="#FFF" fill-rule="nonzero" opacity=".9" transform="translate(12.267 35.267)"/>
            <circle cx="5.083" cy="5.497" r="4.776" fill="#FFF" fill-rule="nonzero" opacity=".9" transform="translate(102.733 11.5)"/>
            <path fill="#FFF" fill-rule="nonzero" d="M108.867.66H46.92c-7.885.008-14.275 6.398-14.283 14.282V22.9H15.832C7.314 22.91.414 29.816.414 38.333v127.022c.013 8.508 6.91 15.401 15.418 15.41h51.796c8.508-.009 15.405-6.902 15.417-15.41v-6.831h25.822c7.884-.009 14.274-6.399 14.283-14.283V14.942C123.14 7.058 116.75.668 108.867.66zM78.445 165.354c-.008 5.97-4.848 10.805-10.817 10.81H15.832c-5.97-.005-10.81-4.84-10.818-10.81V38.333c.008-5.97 4.848-10.805 10.818-10.81h51.796c5.97.005 10.809 4.84 10.817 10.81v127.022zm40.082-21.114a9.69 9.69 0 0 1-9.66 9.683H83.045V38.334c-.012-8.51-6.909-15.402-15.417-15.41H37.237v-7.982A9.69 9.69 0 0 1 46.92 5.26h61.947a9.698 9.698 0 0 1 9.66 9.683v129.299z"/>
        </g>
    </g>
</svg>
