<svg xmlns="http://www.w3.org/2000/svg" width="214" height="205" viewBox="0 0 214 205">
    <g fill="#FFF" fill-rule="nonzero">
        <g transform="translate(.067 .5)">
            <path d="M213.133 61.333c0-37.98-32.345-61.103-71.3-61.103-38.954 0-69.766 23.146-69.766 61.103a66.792 66.792 0 0 0 2.445 18.01l1.94 7.789c.092.314.169.628.238.943v.23l-46.606.13-7.16.054-1.388 3.833-.07 25.139a47.035 47.035 0 1 0 63.105 68.233l3.603-3.833.07-.077a20.6 20.6 0 0 1 34.998 4.685l2.468 5.274a10.166 10.166 0 0 0 19.55-3.894 10.043 10.043 0 0 0-1.978-6.019l-2.054-2.974a30.667 30.667 0 0 1 14.927-49.703l2.215-.767a70.832 70.832 0 0 0 16.468-5.873l28.75-1.725 5.022-1.993 2.3-5.367.767-38.502a67.344 67.344 0 0 0 1.456-13.593z" opacity=".25"/>
            <circle cx="52.241" cy="71.683" r="10.864" opacity=".32"/>
            <circle cx="161.989" cy="156.024" r="16.552" opacity=".32"/>
            <circle cx="102.994" cy="191.444" r="7.682" opacity=".32"/>
        </g>
        <path d="M35.716 108.232h26.45v4.6h-26.45zM111.363 78.961h31.165v4.6h-31.165zM155.615 86.712h7.268v4.6h-7.268zM166.042 86.712h12.39v4.6h-12.39zM145.68 78.961h32.743v4.6H145.68zM35.716 116.159h28.566v4.6H35.716zM35.716 124.087h22.302v4.6H35.716zM35.716 132.006H63.17v4.6H35.716zM76.994 108.232h34.37v19.197h-34.37zM111.363 53.998h42.68v19.197h-42.68zM157.195 53.998h21.237v19.197h-21.237zM77.07 132.006h19.19v13.67H77.07zM100.837 132.006h10.526v13.67h-10.526zM35.716 142.479h12.451v3.197h-12.45zM127.08 94.478c.085.89.146 1.894.154 3.067v1.533h51.182v-4.6H127.08zM116.309 86.712v1.955h6.041s1.986-.997 3.105 2.614h27.025v-4.6l-36.171.03z" opacity=".48"/>
        <circle cx="5.229" cy="5.367" r="4.723" opacity=".9" transform="translate(190.2 48.8)"/>
        <circle cx="4.079" cy="3.45" r="3.343" opacity=".9" transform="translate(91.3 68.733)"/>
        <circle cx="3.58" cy="3.971" r="3.343" opacity=".9" transform="translate(106.633 98.633)"/>
        <circle cx="3.45" cy="3.458" r="3.343" opacity=".9" transform="translate(50.667 136.967)"/>
        <g transform="translate(12.333 33.467)">
            <path d="M193.085.391H72.174a7.927 7.927 0 0 0-7.92 7.92v44.88H14.283A7.39 7.39 0 0 0 6.9 60.567v63.503l-6.432 8.563-.046.062-.062.1a2.99 2.99 0 0 0-.145.268l-.046.092a3.067 3.067 0 0 0-.115.375v.085c-.006.115-.006.23 0 .345v5.428a6.133 6.133 0 0 0 6.133 6.133h110.776a6.133 6.133 0 0 0 6.133-6.133v-5.451a2.637 2.637 0 0 0-.038-.345v-.085a1.633 1.633 0 0 0-.115-.375l-.046-.092a1.771 1.771 0 0 0-.138-.269l-.092-.138-.039-.061-6.44-8.518v-3.687a59.585 59.585 0 0 0 16.445 2.468c13.57 0 27.6-4.017 27.6-10.733 0-5.543-8.947-7.981-15.065-8.993-3.312-6.708-2.093-11.17-1.265-12.98h47.457a9.652 9.652 0 0 0 9.645-9.629V8.31a7.927 7.927 0 0 0-7.92-7.919zm-124.2 7.92a3.32 3.32 0 0 1 3.32-3.32h120.88a3.32 3.32 0 0 1 3.32 3.32v65.688h-80.24V60.567c0-4.075-3.3-7.38-7.375-7.383H68.854l.031-44.873zm52.501 81.818c.828 1.81 2.055 6.272-1.272 12.988-1.38.23-2.691.498-3.918.766v-13.8l5.19.046zM10.342 127.152H112.7l3.427 4.53H6.9l3.442-4.53zM11.5 60.567a2.79 2.79 0 0 1 2.783-2.783h94.507a2.783 2.783 0 0 1 2.775 2.783v61.977H11.5V60.567zm105.463 80.316H6.133a1.533 1.533 0 0 1-1.533-1.534v-3.066h113.865v3.066c0 .835-.667 1.517-1.502 1.534zm38.67-28.781c0 1.533-8.157 6.133-23 6.133a55.967 55.967 0 0 1-16.46-2.675v-6.9l.613-.154a2.3 2.3 0 0 0 1.127 3.067 41.239 41.239 0 0 0 15.694 3.228 29.279 29.279 0 0 0 13.884-3.29 2.3 2.3 0 0 0 .997-3.005c5.313 1.38 7.145 3.105 7.145 3.596zm-12.673-3.58c-7.904 3.066-16.383 1.15-20.539-.184.46-.729.867-1.442 1.242-2.14 3.872-7.183 3.527-12.703 2.553-16.061h12.811c-1.027 3.703-1.387 10.059 3.933 18.385zm48.4-23h-75.195v-6.9h80.24V80.5a5.052 5.052 0 0 1-5.045 5.03v-.008z"/>
            <path d="M132.633 80.899a1.28 1.28 0 1 0 0 2.56 1.28 1.28 0 0 0 0-2.56zM132.794 14.275a2.76 2.76 0 1 0-2.92-2.591 2.768 2.768 0 0 0 2.92 2.591zM125.074 12.62a1.104 1.104 0 1 0-.127-2.205 1.104 1.104 0 0 0 .127 2.204zM140.3 12.635a1.104 1.104 0 1 0-.128-2.205 1.104 1.104 0 0 0 .128 2.205z"/>
            <circle cx="56.733" cy="63.84" r="1.28"/>
            <path d="M52.333 62.69a1.158 1.158 0 1 0 1.157 1.15 1.15 1.15 0 0 0-1.157-1.15zM66.838 62.568H60.95a1.28 1.28 0 1 0 0 2.553h5.888a1.28 1.28 0 1 0 0-2.553z"/>
        </g>
    </g>
</svg>
