<svg xmlns="http://www.w3.org/2000/svg" width="113" height="89" viewBox="0 0 113 89">
    <g fill="#363645">
        <path stroke="#363645" stroke-width=".89" d="M83.019 0H61.236c-1.96 0-3.555 1.59-3.555 3.546v.075h-1.285c-1.96 0-3.555 1.591-3.555 3.546V16.9h-2.572v-3.697c0-1.955-1.594-3.546-3.555-3.546H27.352c-1.96 0-3.555 1.59-3.555 3.546v9.657c0 1.955 1.595 3.546 3.555 3.546h19.362c1.96 0 3.555-1.59 3.555-3.546v-3.697h2.572v9.733c0 1.955 1.594 3.545 3.555 3.545h1.285v.076c0 1.955 1.595 3.546 3.555 3.546H83.02c1.96 0 3.554-1.59 3.554-3.546v-2.414c0-1.956-1.594-3.546-3.554-3.546H61.236c-1.96 0-3.555 1.59-3.555 3.546v.075h-1.285c-.71 0-1.286-.575-1.286-1.282v-9.733h2.571v.076c0 1.955 1.595 3.545 3.555 3.545H83.02c1.96 0 3.554-1.59 3.554-3.545v-2.415c0-1.955-1.594-3.546-3.554-3.546H61.236c-1.96 0-3.555 1.591-3.555 3.546v.076H55.11V7.167c0-.707.577-1.282 1.286-1.282h1.285v.075c0 1.955 1.595 3.546 3.555 3.546H83.02c1.96 0 3.554-1.59 3.554-3.546V3.546C86.573 1.59 84.98 0 83.02 0zM48 22.86c0 .707-.577 1.282-1.286 1.282H27.352c-.709 0-1.286-.575-1.286-1.282v-9.657c0-.707.577-1.283 1.286-1.283h19.362c.71 0 1.286.576 1.286 1.283v9.657zm11.95 7.243c0-.708.577-1.283 1.286-1.283H83.02c.709 0 1.285.575 1.285 1.283v2.414c0 .707-.576 1.282-1.285 1.282H61.236c-.709 0-1.286-.575-1.286-1.282v-2.414zm0-13.279c0-.707.577-1.282 1.286-1.282H83.02c.709 0 1.285.575 1.285 1.282v2.415c0 .707-.576 1.282-1.285 1.282H61.236c-.709 0-1.286-.575-1.286-1.282v-2.415zM84.304 5.96c0 .707-.576 1.283-1.285 1.283H61.236c-.709 0-1.286-.576-1.286-1.283V3.546c0-.707.577-1.283 1.286-1.283H83.02c.709 0 1.285.576 1.285 1.283V5.96z" transform="translate(-1.44 .91)"/>
        <path stroke="#363645" stroke-width="1.336" d="M112.99 33.391c-1.317-1.105-3.412-.082-4.1.255-1.474.72-3.288 1.955-5.391 3.67-4.233 3.452-9.14 8.424-13.82 14-1.938 2.311-3.802 4.684-5.539 7.053-3.396 4.634-6.012 8.844-7.436 11.96-1.9-.031-3.71.784-4.95 2.263-2.024 2.412-3.434 11.862-3.588 12.932-.049.335.08.67.341.887.2.166.455.244.707.222.077-.007.153-.023.228-.048 1.017-.345 10-3.436 12.021-5.845 1.21-1.441 1.707-3.322 1.39-5.15 2.826-1.937 6.534-5.254 10.53-9.424 2.04-2.129 4.06-4.384 6.005-6.702 4.679-5.577 8.723-11.274 11.386-16.042 1.324-2.37 2.225-4.371 2.678-5.948.212-.737.856-2.977-.462-4.083zM79.971 79.488c-1.096 1.306-5.978 3.384-9.627 4.714.645-3.85 1.806-9.053 2.902-10.358.759-.905 1.825-1.451 2.97-1.552.32-.028.647-.02.975.023.824.109 1.598.45 2.239.988.665.558 1.145 1.292 1.388 2.122v.001c.417 1.415.1 2.933-.847 4.062zm2.223-5.816c-.378-.707-.888-1.338-1.512-1.861-.594-.499-1.269-.88-1.991-1.131 1.335-2.78 3.655-6.507 6.54-10.5 1.192.608 2.317 1.35 3.35 2.217 1.062.892 2.012 1.901 2.834 3.004-3.44 3.543-6.713 6.476-9.221 8.27zm26.88-31.2c-2.568 4.597-6.642 10.334-11.178 15.74-1.663 1.982-3.381 3.916-5.119 5.763-.865-1.121-1.851-2.152-2.945-3.07-1.063-.892-2.215-1.666-3.433-2.314 1.513-2.025 3.114-4.047 4.772-6.022 4.537-5.407 9.478-10.416 13.558-13.743 4.93-4.02 6.783-4.133 7.01-3.943.226.19.437 2.035-2.665 7.589z" transform="translate(-1.44 .91)"/>
        <path d="M6.956 53.94c1.532-.505 2.577-1.933 2.612-3.566l5.998-1.95c-3.85 4.477-5.234 10.615-3.691 16.38-1.487 1.124-1.949 3.174-1.093 4.857.855 1.682 2.778 2.507 4.554 1.952 1.776-.554 2.888-2.326 2.634-4.196-.255-1.87-1.802-3.293-3.664-3.371-1.639-6.622 1.15-13.516 6.888-17.029 1.013 1.075 2.54 1.472 3.928 1.02 1.388-.45 2.39-1.669 2.578-3.134 6.708-.53 13.018 3.41 15.583 9.733-1.46 1.158-1.875 3.219-.982 4.881.893 1.663 2.834 2.442 4.597 1.847 1.762-.596 2.834-2.393 2.537-4.257-.297-1.864-1.876-3.252-3.74-3.286-2.139-5.573-6.867-9.729-12.615-11.087l5.998-1.949c1.14 1.501 3.176 1.962 4.821 1.092 1.646-.87 2.422-2.819 1.839-4.614-.584-1.796-2.357-2.916-4.2-2.653-1.843.263-3.218 1.833-3.258 3.717l-11.345 3.686c-.984-1.308-2.673-1.85-4.21-1.35-1.536.499-2.584 1.93-2.61 3.567L8.768 47.916c-1.192-1.562-3.344-1.98-5.003-.973-1.658 1.008-2.294 3.122-1.478 4.912.816 1.79 2.825 2.687 4.668 2.084zm7.613 15.188c-.669.218-1.39-.156-1.61-.835-.22-.679.143-1.405.811-1.622.67-.218 1.39.156 1.61.835.221.679-.142 1.405-.811 1.622zm31.487-10.23c-.669.217-1.39-.157-1.61-.836-.22-.679.143-1.405.811-1.622.67-.218 1.39.157 1.61.835.221.679-.142 1.405-.81 1.623zM41.69 37.219c.669-.217 1.39.157 1.61.835.22.68-.143 1.406-.811 1.623-.67.217-1.39-.157-1.61-.836-.221-.678.142-1.405.811-1.622zm-18.166 5.902c.67-.217 1.39.157 1.61.836.221.679-.142 1.405-.811 1.622-.669.218-1.39-.156-1.61-.835-.22-.679.143-1.405.811-1.623zM5.36 49.024c.669-.218 1.39.157 1.61.835.22.679-.143 1.405-.812 1.623-.668.217-1.39-.157-1.61-.836-.22-.678.143-1.405.812-1.622z" transform="translate(-1.44 .91)"/>
    </g>
</svg>
