<svg xmlns="http://www.w3.org/2000/svg" width="92" height="85" viewBox="0 0 92 85">
    <g fill="#363645">
        <path d="M78.752 63.266c-1.615-.63-3.414-.591-5 .106-1.587.697-2.831 1.996-3.46 3.611-.276.711-.427 1.464-.445 2.226L51.47 74.205c-1.104-1.867-3.064-3.064-5.23-3.194-2.165-.129-4.253.826-5.571 2.548l-18.749-7.408c.118-1.123-.06-2.257-.516-3.29-1.315-2.979-4.624-4.533-7.756-3.643-3.132.89-5.128 3.952-4.68 7.177.449 3.225 3.205 5.626 6.461 5.628 2.032-.004 3.946-.952 5.182-2.564l18.73 7.417c-.304 2.92 1.38 5.683 4.115 6.75 1.99.78 4.235.537 6.011-.652 1.776-1.189 2.857-3.173 2.893-5.31l18.406-4.99c1.175 1.994 3.32 3.216 5.636 3.21.905 0 1.8-.19 2.627-.557 2.419-1.061 3.96-3.476 3.903-6.117-.056-2.641-1.7-4.988-4.161-5.944h-.018zm-62.13 4.942c-1.102.477-2.383.243-3.245-.593-.862-.836-1.134-2.11-.69-3.225.445-1.116 1.518-1.853 2.719-1.868 1.18.002 2.247.7 2.72 1.781.317.72.334 1.537.049 2.27-.286.733-.851 1.323-1.572 1.64l.018-.005zm31.975 10.409c-.545 1.392-2.041 2.16-3.49 1.792-1.449-.368-2.398-1.756-2.213-3.24.184-1.483 1.443-2.597 2.938-2.6.369.003.734.072 1.078.206 1.526.596 2.28 2.315 1.687 3.842zm28.98-6.55c-1.107.48-2.393.243-3.255-.6-.862-.844-1.126-2.126-.67-3.242.456-1.116 1.543-1.844 2.749-1.843.368 0 .734.069 1.077.2 1.12.437 1.865 1.504 1.89 2.705.025 1.2-.675 2.298-1.774 2.78h-.018zM44.643 50.755h14.862c.983 0 1.78-.797 1.78-1.78 0-.984-.797-1.782-1.78-1.782H44.643c-.983 0-1.78.798-1.78 1.781 0 .984.797 1.781 1.78 1.781zM44.643 57.01h14.862c.983 0 1.78-.797 1.78-1.78 0-.984-.797-1.781-1.78-1.781H44.643c-.983 0-1.78.797-1.78 1.78 0 .984.797 1.781 1.78 1.781z" transform="translate(.383 .347)"/>
        <path d="M44.643 63.261h5.713c.983 0 1.78-.797 1.78-1.78 0-.984-.797-1.781-1.78-1.781h-5.713c-.983 0-1.78.797-1.78 1.78 0 .984.797 1.781 1.78 1.781zM55.03 60.884c-.322.927.166 1.94 1.092 2.265.925.326 1.94-.159 2.268-1.083.33-.925-.152-1.941-1.076-2.273-.447-.16-.94-.136-1.37.07-.428.204-.757.572-.914 1.02zM52.366 10.147c-.509.476-.72 1.183-.556 1.855.165.671.682 1.205 1.356 1.4.674.195 1.403.022 1.912-.454 2.883-2.694 7.442-2.584 10.186.246.75.78 1.999.814 2.791.078.793-.737.828-1.965.079-2.743-2.039-2.107-4.846-3.33-7.804-3.402-2.957-.072-5.822 1.015-7.964 3.02z" transform="translate(.383 .347)"/>
        <path d="M90.73 42.595l-9.906-10.33c-.36-.375-.854-.592-1.375-.605-.518-.008-1.02.184-1.399.536l-1.153 1.092-3.928-4.079c4.437-5.225 5.46-12.513 2.633-18.743C72.774 4.236 66.597.168 59.715.005c-7.23-.167-13.851 4.003-16.778 10.569-2.927 6.565-1.585 14.234 3.401 19.434 3.265 3.425 7.775 5.41 12.523 5.512h.452c3.917.012 7.728-1.263 10.839-3.626l3.927 4.079-1.178 1.091c-.784.742-.815 1.974-.069 2.754l9.901 10.33c.36.376.854.594 1.375.607.522.012 1.027-.181 1.404-.538l5.15-4.873c.783-.742.814-1.974.068-2.754v.005zM58.96 31.626c-7.714-.091-13.892-6.373-13.8-14.03.092-7.656 6.42-13.79 14.133-13.698h.353c5.65.137 10.66 3.64 12.692 8.874s.687 11.168-3.409 15.034c-2.674 2.547-6.265 3.923-9.97 3.82zM84.225 46.05l-7.202-7.51 2.308-2.177 7.196 7.509-2.302 2.178zM10.013 26.987c1.504 0 2.96-.534 4.105-1.51 2.58 2.189 6.421 1.978 8.747-.479 2.326-2.457 2.326-6.303 0-8.76s-6.167-2.667-8.747-.48c-2.15-1.818-5.24-2.007-7.597-.464-2.357 1.542-3.42 4.45-2.614 7.148.806 2.7 3.29 4.548 6.106 4.545zm8.232-9.172c1.488.084 2.651 1.315 2.651 2.805 0 1.49-1.163 2.721-2.65 2.805-.822.004-1.603-.357-2.133-.984.356-1.189.356-2.457 0-3.646.53-.625 1.312-.984 2.132-.98zm-8.232 0c1.552 0 2.81 1.258 2.81 2.81 0 1.551-1.258 2.81-2.81 2.81s-2.81-1.259-2.81-2.81c0-.745.297-1.46.824-1.987.526-.526 1.24-.822 1.986-.822zM18.245 40.53h8.228c.983 0 1.78-.797 1.78-1.78.006-3.4-1.718-6.57-4.574-8.415-2.857-1.845-6.455-2.111-9.552-.708-3.097-1.403-6.695-1.137-9.552.708C1.719 32.18-.005 35.35 0 38.75c0 .983.797 1.78 1.78 1.78h16.465zm6.198-3.561H19.86c-.31-1.71-1.06-3.308-2.177-4.64.187 0 .37-.026.561-.026 2.87.008 5.392 1.908 6.189 4.666h.009zm-14.43-4.67c2.875.004 5.401 1.908 6.197 4.67H3.811c.797-2.764 3.325-4.668 6.202-4.67z" transform="translate(.383 .347)"/>
    </g>
</svg>
