<svg xmlns="http://www.w3.org/2000/svg" width="52" height="60" viewBox="0 0 52 60">
    <g fill="none">
        <path fill="#005288" d="M48.05 42.202l-3.583 3.583-13.12 13.12c-.985.986-2.596.986-3.582 0l-2.38-2.382c-.983-.985-.983-2.596 0-3.581l3.376-3.376c.983-.986 2.594-2.596 3.58-3.583l6.165-6.16c.985-.987.985-2.598 0-3.584l-6.164-6.16-3.583-3.583-3.373-3.376c-.985-.987-.985-2.596 0-3.583l2.38-2.38c.987-.981 2.597-.981 3.583.004l13.12 13.12 3.582 3.581 2.381 2.381c.985.985.985 2.596 0 3.58l-2.382 2.379z"/>
        <path fill="#3E7DE4" d="M12.661 19.82c-.985.986-.985 2.597 0 3.583l6.164 6.165 3.583 3.582 3.376 3.376c.986.986.986 2.596 0 3.579l-2.383 2.38c-.987.985-2.597.985-3.583 0L6.702 29.364c-.985-.987-2.596-2.598-3.582-3.583l-2.38-2.38c-.987-.981-.987-2.593 0-3.579l2.38-2.38c.986-.986 2.597-2.597 3.582-3.58L19.82.74c.986-.986 2.597-.986 3.583-.003l2.383 2.38c.986.986.986 2.597 0 3.582l-3.375 3.375-3.583 3.583-6.166 6.163z"/>
    </g>
</svg>
