<svg xmlns="http://www.w3.org/2000/svg" width="90" height="24" viewBox="0 0 90 24">
    <g fill="#FCE556">
        <path d="M3.565 9.815l-.81 4.975c-.065.396.357.692.705.498l4.215-2.333 4.215 2.334c.345.192.77-.099.705-.498l-.81-4.975 3.428-3.52c.272-.278.115-.75-.27-.81l-4.72-.721L8.109.253c-.157-.337-.71-.337-.867 0L5.126 4.764l-4.719.722c-.387.06-.542.532-.27.81l3.428 3.52zM22.204 9.815l-.81 4.975c-.065.396.356.692.705.498l4.214-2.333 4.215 2.334c.345.192.77-.099.706-.498l-.81-4.975 3.427-3.52c.272-.278.116-.75-.27-.81l-4.719-.721L26.747.253c-.158-.337-.71-.337-.868 0l-2.114 4.511-4.719.722c-.388.06-.542.532-.27.81l3.428 3.52zM40.842 9.815l-.81 4.975c-.065.396.357.692.705.498l4.215-2.333 4.215 2.334c.345.192.77-.099.705-.498l-.81-4.975 3.428-3.52c.272-.278.116-.75-.27-.81l-4.72-.721L45.387.253c-.158-.337-.71-.337-.868 0l-2.115 4.511-4.718.722c-.388.06-.543.532-.27.81l3.427 3.52zM59.48 9.815l-.81 4.975c-.064.396.357.692.706.498l4.215-2.333 4.214 2.334c.346.192.77-.099.706-.498l-.81-4.975 3.427-3.52c.272-.278.116-.75-.27-.81l-4.719-.721L64.024.253c-.158-.337-.71-.337-.868 0l-2.114 4.511-4.719.722c-.387.06-.542.532-.27.81l3.428 3.52zM78.12 9.815l-.811 4.975c-.065.396.357.692.705.498l4.215-2.333 4.215 2.334c.345.192.77-.099.705-.498l-.81-4.975 3.428-3.52c.272-.278.116-.75-.27-.81l-4.72-.721L82.664.253c-.158-.337-.71-.337-.868 0L79.68 4.764l-4.718.722c-.388.06-.543.532-.27.81l3.427 3.52z" transform="translate(0 4)"/>
    </g>
</svg>
