<svg xmlns="http://www.w3.org/2000/svg" width="60" height="60" viewBox="0 0 60 60">
    <g fill="none" fill-rule="evenodd">
        <g fill="#FFF" fill-rule="nonzero" transform="translate(2 1)">
            <circle cx="28" cy="28.5" r="27.63" opacity=".3"/>
            <path d="M11.72 51.5s1.53-17.79 16.78-17.79c15.25 0 15.57 18.92 15.57 18.92s-9.91 5.25-16.18 5.25-16.17-6.38-16.17-6.38z" opacity=".35"/>
            <circle cx="28.5" cy="18" r="9.75" opacity=".35"/>
        </g>
        <g fill="#FFF" fill-rule="nonzero">
            <path d="M30 3c14.912 0 27 12.088 27 27S44.912 57 30 57 3 44.912 3 30 15.088 3 30 3zm0-3C13.431 0 0 13.431 0 30c0 16.569 13.431 30 30 30 16.569 0 30-13.431 30-30A30 30 0 0 0 30 0z"/>
            <path d="M30 11.34a8.22 8.22 0 1 1-8.22 8.22A8.23 8.23 0 0 1 30 11.34zm0-3c-6.197 0-11.22 5.023-11.22 11.22 0 6.197 5.023 11.22 11.22 11.22 6.197 0 11.22-5.023 11.22-11.22A11.22 11.22 0 0 0 30 8.34z"/>
        </g>
        <path stroke="#FFF" stroke-width="3" d="M13.93 53.63c-.14-.87-.21-1.75-.21-2.63 0-8.991 7.289-16.28 16.28-16.28 8.991 0 16.28 7.289 16.28 16.28a16.5 16.5 0 0 1-.21 2.64"/>
    </g>
</svg>
