<svg xmlns="http://www.w3.org/2000/svg" width="29" height="23" viewBox="0 0 29 23">
    <path fill="#363646" fill-rule="nonzero" d="M29 2.721a12.105 12.105 0 0 1-3.416.915A5.86 5.86 0 0 0 28.2.425a12.17 12.17 0 0 1-3.78 1.41A6 6 0 0 0 20.077 0c-3.286 0-5.95 2.601-5.95 5.807 0 .455.053.899.155 1.324C9.338 6.888 4.954 4.576 2.02 1.06a5.66 5.66 0 0 0-.805 2.92c0 2.015 1.051 3.794 2.646 4.834a6.06 6.06 0 0 1-2.695-.729v.073c0 2.813 2.051 5.16 4.771 5.695a6.163 6.163 0 0 1-1.567.204c-.384 0-.756-.038-1.12-.108.757 2.309 2.954 3.988 5.556 4.034a12.12 12.12 0 0 1-7.388 2.482c-.48 0-.953-.028-1.419-.08A17.112 17.112 0 0 0 9.119 23c10.943 0 16.925-8.85 16.925-16.526l-.02-.752a11.73 11.73 0 0 0 2.976-3z"/>
</svg>
