<svg xmlns="http://www.w3.org/2000/svg" width="90" height="90" viewBox="0 0 90 90">
    <g fill="#FFF" fill-rule="nonzero">
        <circle cx="45" cy="45" r="45" opacity=".3"/>
        <path d="M45 90C20.147 90 0 69.853 0 45S20.147 0 45 0s45 20.147 45 45-20.147 45-45 45zm0-86.46C24.554 3.52 7.153 18.426 4.034 38.633.915 58.84 13.011 78.299 32.512 84.445c19.5 6.146 40.568-2.86 49.6-21.205 9.03-18.343 3.32-40.533-13.442-52.24A41.51 41.51 0 0 0 45 3.54z" opacity=".35"/>
        <path d="M72 23.66a4.17 4.17 0 0 0-4.12-4.12c-4.94-.1-19.52 2.51-26.36 9.35a29.44 29.44 0 0 0-2.61 3c-2.23.29-8.26 1.42-12.22 5.38l-1.1 1.1a1.75 1.75 0 0 0 0 2.47l6.67 6.67-3.15 5.56a1.76 1.76 0 0 0 .28 2.1l7 7a1.75 1.75 0 0 0 2.1.28l5.55-3.15 6.6 6.6a1.76 1.76 0 0 0 2.48 0l1.1-1.11c4-3.94 5.1-9.9 5.4-12.11a29 29 0 0 0 3-2.65c6.91-6.85 9.49-21.44 9.38-26.37zM36.36 36a27.9 27.9 0 0 0-2.73 7.91l-4.29-4.28A16.4 16.4 0 0 1 36.36 36zM38 58.74l-5.1-5.1 2-3.56 2.1 2.1 1.2 1.2 3.32 3.31L38 58.74zm14 3.43L47.68 58a28.47 28.47 0 0 0 7.87-2.7 16.31 16.31 0 0 1-3.64 6.87H52zm5.23-12a2.62 2.62 0 0 0-.32.23 24.66 24.66 0 0 1-12.28 4.43l-3.03-2.96-.94-.95L36.77 47a24.29 24.29 0 0 1 4.42-12.28 1.88 1.88 0 0 0 .29-.39 25.35 25.35 0 0 1 2.55-3C49.5 25.9 62.34 23 67.66 23h.21a.68.68 0 0 1 .67.67c.08 5.18-2.79 18.3-8.33 23.84a26.5 26.5 0 0 1-3.07 2.64l.09.02zM20.68 65.67a1.75 1.75 0 0 0 1.24-.51l4.33-4.33a1.75 1.75 0 0 0-2.47-2.48l-4.34 4.33a1.75 1.75 0 0 0 1.24 3v-.01zM29.72 66.41l-4.1 4.1A1.757 1.757 0 0 0 28.1 73l4.09-4.09a1.75 1.75 0 0 0-2.47-2.48v-.02zM19.43 69.67l-.27.27a1.754 1.754 0 0 0 2.48 2.48l.26-.27a1.75 1.75 0 1 0-2.47-2.48zM31.11 62.94a1.75 1.75 0 0 0-2.48-2.47l-4.92 4.93a1.75 1.75 0 0 0 2.47 2.47l4.93-4.93z"/>
        <path d="M60.24 29.59h-5.19a1.75 1.75 0 0 0 0 3.5h3.44v3.43a1.75 1.75 0 0 0 3.5 0v-5.18a1.75 1.75 0 0 0-1.75-1.75zM50.33 44.68H46.9v-3.44a1.75 1.75 0 0 0-3.5 0v5.19c0 .966.784 1.75 1.75 1.75h5.18a1.75 1.75 0 0 0 0-3.5zM53.39 34.29a1.75 1.75 0 0 0-3.4.82l2 8.36a1.75 1.75 0 0 0 3.195.504 1.74 1.74 0 0 0 .205-1.324l-2-8.36z"/>
    </g>
</svg>
