<svg xmlns="http://www.w3.org/2000/svg" width="90" height="90" viewBox="0 0 90 90">
    <g fill="#FFF" fill-rule="nonzero">
        <circle cx="45" cy="45" r="45" opacity=".3"/>
        <path d="M45 90C20.147 90 0 69.853 0 45S20.147 0 45 0s45 20.147 45 45-20.147 45-45 45zm0-86.46C24.554 3.52 7.153 18.426 4.034 38.633.915 58.84 13.011 78.299 32.512 84.445c19.5 6.146 40.568-2.86 49.6-21.205 9.03-18.343 3.32-40.533-13.442-52.24A41.51 41.51 0 0 0 45 3.54z" opacity=".35"/>
        <path d="M32.94 21.35H23.1a1.76 1.76 0 0 0-1.75 1.75v9.84a1.76 1.76 0 0 0 1.75 1.75h9.84a1.76 1.76 0 0 0 1.75-1.75V23.1a1.76 1.76 0 0 0-1.75-1.75zm-1.75 9.84h-6.34v-6.34h6.34v6.34zM32.94 38.4H23.1a1.75 1.75 0 0 0-1.75 1.75V50a1.76 1.76 0 0 0 1.75 1.75h9.84A1.76 1.76 0 0 0 34.69 50v-9.85a1.75 1.75 0 0 0-1.75-1.75zm-1.75 9.83h-6.34V41.9h6.34v6.33zM32.94 55.31H23.1a1.76 1.76 0 0 0-1.75 1.75v9.84a1.76 1.76 0 0 0 1.75 1.75h9.84a1.76 1.76 0 0 0 1.75-1.75v-9.84a1.76 1.76 0 0 0-1.75-1.75zm-1.75 9.84h-6.34v-6.34h6.34v6.34zM66.9 21.35H40a1.75 1.75 0 0 0-1.75 1.75v9.84c0 .966.784 1.75 1.75 1.75h26.9a1.76 1.76 0 0 0 1.75-1.75V23.1a1.76 1.76 0 0 0-1.75-1.75zm-1.75 9.84h-23.4v-6.34h23.4v6.34zM66.9 38.4H40a1.75 1.75 0 0 0-1.75 1.75V50A1.75 1.75 0 0 0 40 51.73h26.9A1.76 1.76 0 0 0 68.65 50v-9.85a1.75 1.75 0 0 0-1.75-1.75zm-1.75 9.83h-23.4V41.9h23.4v6.33zM66.9 55.31H40a1.75 1.75 0 0 0-1.75 1.75v9.84c0 .966.784 1.75 1.75 1.75h26.9a1.76 1.76 0 0 0 1.75-1.75v-9.84a1.76 1.76 0 0 0-1.75-1.75zm-1.75 9.84h-23.4v-6.34h23.4v6.34z"/>
    </g>
</svg>
