<svg xmlns="http://www.w3.org/2000/svg" width="90" height="90" viewBox="0 0 90 90">
    <g fill="#FFF" fill-rule="nonzero">
        <circle cx="45" cy="45" r="45" opacity=".3"/>
        <path d="M45 90C20.147 90 0 69.853 0 45S20.147 0 45 0s45 20.147 45 45-20.147 45-45 45zm0-86.46C24.554 3.52 7.153 18.426 4.034 38.633.915 58.84 13.011 78.299 32.512 84.445c19.5 6.146 40.568-2.86 49.6-21.205 9.03-18.343 3.32-40.533-13.442-52.24A41.51 41.51 0 0 0 45 3.54z" opacity=".35"/>
        <path d="M44.82 43.46a2.46 2.46 0 1 1 0-4.91A2.43 2.43 0 0 1 47 39.87a1.753 1.753 0 1 0 3.11-1.62 6 6 0 0 0-3.55-2.94v-2a1.75 1.75 0 0 0-1.75-1.74A1.74 1.74 0 0 0 43 33.29v2a6 6 0 0 0-2.46 1.49A6 6 0 0 0 44.8 47a2.37 2.37 0 0 1 1.74.71 2.46 2.46 0 0 1 0 3.47 2.42 2.42 0 0 1-1.74.73 2.46 2.46 0 0 1-2-1A1.75 1.75 0 0 0 40.08 53a5.81 5.81 0 0 0 3 2.08v2.07a1.75 1.75 0 0 0 3.5 0V55.1a6 6 0 0 0-1.76-11.64z"/>
        <path d="M65.53 19.65A32.62 32.62 0 1 0 45 77.63a32.63 32.63 0 0 0 20.46-58l.07.02zm8.1 30.67a29.12 29.12 0 0 1-33.95 23.31c-15.809-2.943-26.242-18.14-23.31-33.95 2.938-15.812 18.138-26.248 33.95-23.31 15.812 2.938 26.248 18.138 23.31 33.95z"/>
        <path d="M49.42 21.21a24.25 24.25 0 0 0-4.88-.41 1.76 1.76 0 0 0-1.72 1.78 1.74 1.74 0 0 0 1.78 1.72 21.71 21.71 0 0 1 4.18.35c.11.01.22.01.33 0a1.75 1.75 0 0 0 .31-3.47v.03zM33.5 62.22a21.5 21.5 0 0 1-3.32-2.77 20.73 20.73 0 0 1-2.84-25.26 1.754 1.754 0 1 0-3-1.82 24.2 24.2 0 0 0 3.31 29.52 24.6 24.6 0 0 0 3.89 3.24 1.72 1.72 0 0 0 1 .29 1.75 1.75 0 0 0 1-3.2h-.04zM45.49 65.7a20.81 20.81 0 0 1-4.24-.35 1.75 1.75 0 1 0-.64 3.44 24.62 24.62 0 0 0 4.39.41h.51a1.75 1.75 0 0 0 0-3.5h-.02zM60.23 26.19A1.758 1.758 0 1 0 58 28.91c7.884 6.376 10 17.519 5 26.34a1.75 1.75 0 0 0 1.51 2.62A1.78 1.78 0 0 0 66 57c5.852-10.305 3.4-23.33-5.8-30.8l.03-.01z"/>
    </g>
</svg>
