<svg xmlns="http://www.w3.org/2000/svg" width="90" height="90" viewBox="0 0 90 90">
    <g fill="#FFF" fill-rule="nonzero">
        <circle cx="45" cy="45" r="45" opacity=".3"/>
        <path d="M45 90C20.147 90 0 69.853 0 45S20.147 0 45 0s45 20.147 45 45-20.147 45-45 45zm0-86.46C24.554 3.52 7.153 18.426 4.034 38.633.915 58.84 13.011 78.299 32.512 84.445c19.5 6.146 40.568-2.86 49.6-21.205 9.03-18.343 3.32-40.533-13.442-52.24A41.51 41.51 0 0 0 45 3.54z" opacity=".35"/>
        <path d="M64.25 30.39H51.36a1.75 1.75 0 0 0-1.75 1.75v9.13H38.47A1.75 1.75 0 0 0 36.72 43v8.71H25.57a1.75 1.75 0 0 0-1.75 1.75V68.7a1.76 1.76 0 0 0 1.75 1.75h38.68A1.75 1.75 0 0 0 66 68.7V32.14a1.75 1.75 0 0 0-1.75-1.75zM27.32 55.23h9.4V67h-9.4V55.23zm12.9-1.75v-8.71h9.39V67h-9.39V53.48zM62.5 67h-9.39V33.89h9.39V67zM25.53 43.35l12.08-12.08 2.91 2.9a1.75 1.75 0 0 0 2.51 0l12.19-12.96v2.08a1.75 1.75 0 0 0 3.5 0V16.9A1.75 1.75 0 0 0 57 15.15h-5.95a1.75 1.75 0 0 0 0 3.5h1.77l-11.1 11.77-2.87-2.87a1.75 1.75 0 0 0-2.47 0L23.05 40.88a1.75 1.75 0 0 0 0 2.47 1.74 1.74 0 0 0 2.48 0z"/>
    </g>
</svg>
