<svg xmlns="http://www.w3.org/2000/svg" viewBox="0 0 883 38">
  <path fill="#FFF" d="M0.00390625,36.4666872 L0.00390625,1.00010967 L7.57306089,1.00010967 L7.57306089,36.4666872 L0.00390625,36.4666872 Z M40.7767448,1.00010967 L48.1993997,1.00010967 L48.1993997,36.4666872 L41.875493,36.4666872 L26.0046849,14.3062594 L26.0046849,36.4666872 L18.5820301,36.4666872 L18.5820301,1.00010967 L25.4186859,1.00010967 L40.7767448,22.6411524 L40.7767448,1.00010967 Z M75.2256767,37.2333984 C72.7026125,37.2333984 70.3220151,36.7593613 68.0838131,35.8112728 C65.845611,34.8631842 63.9289249,33.5729788 62.3336972,31.9406177 C60.7384695,30.3082566 59.4769564,28.3502771 58.5491199,26.0666204 C57.6212834,23.7829637 57.1573721,21.3550691 57.1573721,18.7828637 C57.1573721,16.1776813 57.6212834,13.7291764 58.5491199,11.4372754 C59.4769564,9.1453745 60.7384695,7.18327291 62.3336972,5.55091181 C63.9289249,3.9185507 65.845611,2.62834525 68.0838131,1.68025673 C70.3220151,0.732168207 72.7026125,0.258131058 75.2256767,0.258131058 C79.4741912,0.258131058 83.1569957,1.5607027 86.2742008,4.16588507 C89.3914059,6.77106743 91.3569248,10.1758908 92.1708164,14.3804573 L84.5772452,14.3804573 C83.8447427,12.2699298 82.6524093,10.6087387 81.0002092,9.39683427 C79.3480091,8.18492981 77.4231842,7.57898667 75.2256767,7.57898667 C72.263111,7.57898667 69.7889175,8.64660077 67.8030218,10.781861 C65.8171262,12.9171212 64.8241932,15.5840955 64.8241932,18.7828637 C64.8241932,21.9651434 65.8171262,24.6156294 67.8030218,26.7344011 C69.7889175,28.8531728 72.263111,29.9125428 75.2256767,29.9125428 C77.5208512,29.9125428 79.5067171,29.2571349 81.1833339,27.9462995 C82.8599507,26.6354641 84.0156596,24.8506112 84.6504951,22.5916872 L92.2928996,22.5916872 C91.4952857,26.9776271 89.5338363,30.5143565 86.4084923,33.2019813 C83.2831483,35.8896062 79.5555804,37.2333984 75.2256767,37.2333984 Z M120.002842,36.4666872 L113.166186,24.3724359 L108.307277,24.3724359 L108.307277,36.4666872 L100.738123,36.4666872 L100.738123,1.00010967 L114.87535,1.00010967 C118.391362,1.00010967 121.30912,2.10894439 123.628711,4.3266471 C125.948303,6.54434981 127.108081,9.35147415 127.108081,12.7481043 C127.108081,15.0400053 126.538365,17.0886702 125.398917,18.8941605 C124.259469,20.6996508 122.704959,22.0887857 120.735341,23.061607 L128.475412,36.4666872 L120.002842,36.4666872 Z M108.307277,8.0983717 L108.307277,17.2741738 L114.362601,17.2741738 C115.925273,17.2741738 117.16237,16.8496014 118.073929,16.0004439 C118.985487,15.1512863 119.44126,14.0506958 119.44126,12.6986391 C119.44126,11.3465824 118.985487,10.2418697 118.073929,9.38446796 C117.16237,8.52706616 115.925273,8.0983717 114.362601,8.0983717 L108.307277,8.0983717 Z M144.34329,29.3189599 L158.334018,29.3189599 L158.334018,36.4666872 L136.774136,36.4666872 L136.774136,1.00010967 L157.796852,1.00010967 L157.796852,8.0983717 L144.34329,8.0983717 L144.34329,15.0977033 L156.478354,15.0977033 L156.478354,22.0475696 L144.34329,22.0475696 L144.34329,29.3189599 Z M190.951703,36.4666872 L188.51004,29.7394145 L174.568145,29.7394145 L172.175316,36.4666872 L164.142245,36.4666872 L177.86439,1.00010967 L184.994046,1.00010967 L199.15569,36.4666872 L190.951703,36.4666872 Z M181.502468,10.3737728 L176.936558,23.061607 L186.11721,23.061607 L181.502468,10.3737728 Z M216.879232,37.1592006 C212.809773,37.1592006 209.529839,36.0668541 207.039331,33.8821284 C204.548822,31.6974027 203.303586,28.7253958 203.303586,24.9660188 L210.921574,24.9660188 C210.921574,26.5983799 211.49129,27.8556088 212.630738,28.7377434 C213.770187,29.6198779 215.170059,30.0609385 216.830398,30.0609385 C218.344237,30.0609385 219.662722,29.6817088 220.785892,28.923238 C221.909063,28.1647672 222.470639,27.1507399 222.470639,25.8811257 C222.470639,25.4359363 222.393321,25.0319742 222.238681,24.6692273 C222.084042,24.3064804 221.823601,23.9849596 221.457349,23.7046551 C221.091098,23.4243507 220.74113,23.1852711 220.407434,22.9874091 C220.115451,22.8142799 219.701961,22.641153 219.166956,22.4680243 L218.401034,22.2353352 C218.150889,22.1616422 217.92242,22.0962776 217.715626,22.0392413 L217.330939,21.9362728 C216.915854,21.8290975 216.293237,21.6765812 215.463067,21.4787193 L214.564856,21.2509865 C212.096583,20.6096269 210.279894,20.0012735 209.114744,19.4259118 C206.021956,17.9254587 204.280254,15.6171039 203.889586,12.5007781 C203.824474,12.0061232 203.791919,11.4949875 203.791919,10.9673557 C203.791919,7.60370247 204.927281,4.99443712 207.198039,3.13948133 C209.468796,1.28452553 212.565608,0.357061539 216.488566,0.357061539 C220.492913,0.357061539 223.597863,1.36696677 225.803509,3.38680753 C228.009155,5.40664829 229.111962,8.19728437 229.111962,11.7587995 L221.616057,11.7587995 C221.616057,10.3078119 221.107383,9.19897714 220.090018,8.43226207 C219.072654,7.66554701 217.807071,7.28219523 216.293233,7.28219523 C214.942172,7.28219523 213.782394,7.57073958 212.813863,8.14783694 C211.845332,8.7249343 211.361074,9.55759086 211.361074,10.6458316 C211.361074,11.123998 211.487225,11.5609366 211.739531,11.9566605 C211.991838,12.3523844 212.288904,12.6739052 212.630738,12.9212327 C212.972573,13.1685601 213.485317,13.4200059 214.168986,13.6755776 C214.852655,13.9311493 215.442717,14.1248862 215.939191,14.2567942 L217.793648,14.7257976 L217.793648,14.7257976 L219.380982,15.1235952 L219.380982,15.1235952 L219.943518,15.2708316 C220.320961,15.3718236 220.83237,15.5233096 221.477759,15.7252932 L221.762557,15.8149492 C222.543893,16.0622767 223.162442,16.2889901 223.618221,16.4950963 L224.034799,16.6899289 C224.403539,16.8674314 224.82626,17.0827892 225.302968,17.3360054 C225.970359,17.6905081 226.50345,18.0450054 226.902257,18.3995081 C227.301064,18.7540107 227.73242,19.1950714 228.196339,19.7227033 C228.660257,20.2503351 229.014294,20.8026915 229.258462,21.3797888 C229.502629,21.9568862 229.710169,22.6246602 229.881086,23.3831311 C230.052003,24.1416019 230.137461,24.9495261 230.137461,25.8069278 C230.137461,27.6701279 229.787492,29.335441 229.087546,30.8029172 C228.387599,32.2703933 227.43129,33.4616693 226.218592,34.3767808 C225.005893,35.2918923 223.60602,35.9843988 222.018932,36.4543209 C220.431843,36.924243 218.718627,37.1592006 216.879232,37.1592006 Z M239.193099,36.4666872 L239.193099,1.00010967 L246.762254,1.00010967 L246.762254,36.4666872 L239.193099,36.4666872 Z M279.965938,1.00010967 L287.388593,1.00010967 L287.388593,36.4666872 L281.064686,36.4666872 L265.193878,14.3062594 L265.193878,36.4666872 L257.771223,36.4666872 L257.771223,1.00010967 L264.607879,1.00010967 L279.965938,22.6411524 L279.965938,1.00010967 Z M313.731204,17.9419546 L332.361091,17.9419546 C332.361091,21.6024007 331.608253,24.9000504 330.102553,27.8350027 C328.596854,30.769955 326.480767,33.0700657 323.75423,34.7354038 C321.027693,36.4007419 317.93902,37.2333984 314.48812,37.2333984 C311.948778,37.2333984 309.560042,36.7676054 307.32184,35.8360054 C305.083637,34.9044054 303.158813,33.6265661 301.547307,32.0024492 C299.935802,30.3783324 298.66615,28.4244749 297.738313,26.1408182 C296.810477,23.8571615 296.346565,21.4045345 296.346565,18.7828637 C296.346565,16.1611928 296.802338,13.7044438 297.713896,11.4125428 C298.625455,9.12064188 299.870691,7.15441823 301.449641,5.51381288 C303.02859,3.87320753 304.933068,2.58300207 307.163131,1.6431578 C309.393195,0.703313524 311.786,0.233398438 314.34162,0.233398438 C317.206519,0.233398438 319.880113,0.806365079 322.362482,1.95231555 C324.844852,3.09826602 326.920244,4.69762614 328.588722,6.75044389 C330.2572,8.80326164 331.360007,11.1404709 331.897175,13.7621418 L324.083855,13.7621418 C323.335074,11.8659647 322.097977,10.361412 320.372527,9.24843854 C318.647077,8.13546507 316.685627,7.57898667 314.48812,7.57898667 C311.395331,7.57898667 308.876375,8.61774634 306.931173,10.6952968 C304.985972,12.7728473 304.013386,15.468676 304.013386,18.7828637 C304.013386,22.0805629 304.973764,24.7599033 306.894549,26.8209653 C308.815333,28.8820273 311.346498,29.9125428 314.48812,29.9125428 C316.750739,29.9125428 318.777298,29.3560644 320.56786,28.243091 C322.358422,27.1301175 323.579241,25.6585413 324.230354,23.8283182 L313.731204,23.8283182 L313.731204,17.9419546 Z M394.617632,1.00010967 L402.52862,1.00010967 L391.73647,36.4666872 L384.997481,36.4666872 L377.18416,16.5816605 L369.590589,36.4666872 L362.8516,36.4666872 L351.815284,1.00010967 L359.848354,1.00010967 L366.709427,24.5702968 L375.914495,1.37109897 L378.453825,1.37109897 L387.90306,24.5702968 L394.617632,1.00010967 Z M425.965653,37.2333984 C423.328644,37.2333984 420.85445,36.7593613 418.542998,35.8112728 C416.231545,34.8631842 414.249749,33.5729788 412.597549,31.9406177 C410.945349,30.3082566 409.643142,28.346155 408.690888,26.0542541 C407.738635,23.7623531 407.262516,21.3220923 407.262516,18.7333984 C407.262516,16.1447046 407.738635,13.7044438 408.690888,11.4125428 C409.643142,9.12064188 410.945349,7.15854029 412.597549,5.52617919 C414.249749,3.89381808 416.231545,2.60361263 418.542998,1.65552411 C420.85445,0.707435587 423.328644,0.233398438 425.965653,0.233398438 C428.586384,0.233398438 431.048369,0.703313524 433.351683,1.6431578 C435.654996,2.58300207 437.624584,3.87320753 439.260506,5.51381288 C440.896429,7.15441823 442.186428,9.11651982 443.130542,11.4001765 C444.074656,13.6838332 444.546706,16.1282161 444.546706,18.7333984 C444.546706,21.3385808 444.074656,23.7829637 443.130542,26.0666204 C442.186428,28.3502771 440.896429,30.3123786 439.260506,31.952984 C437.624584,33.5935893 435.654996,34.8837948 433.351683,35.8236391 C431.048369,36.7634834 428.586384,37.2333984 425.965653,37.2333984 Z M418.127915,26.7715 C420.244033,28.931493 422.856586,30.0114733 425.965653,30.0114733 C429.074719,30.0114733 431.670994,28.9356151 433.754557,26.7838664 C435.83812,24.6321176 436.879885,21.9486552 436.879885,18.7333984 C436.879885,15.5181417 435.83812,12.8388013 433.754557,10.6952968 C431.670994,8.55179235 429.074719,7.48005619 425.965653,7.48005619 C422.856586,7.48005619 420.244033,8.56003648 418.127915,10.7200295 C416.011797,12.8800224 414.953753,15.5511187 414.953753,18.7333984 C414.953753,21.9156782 416.011797,24.5950186 418.127915,26.7715 Z M472.744982,36.4666872 L465.908326,24.3724359 L461.049417,24.3724359 L461.049417,36.4666872 L453.480262,36.4666872 L453.480262,1.00010967 L467.61749,1.00010967 C471.133502,1.00010967 474.05126,2.10894439 476.370851,4.3266471 C478.690442,6.54434981 479.85022,9.35147415 479.85022,12.7481043 C479.85022,15.0400053 479.280505,17.0886702 478.141056,18.8941605 C477.001608,20.6996508 475.447098,22.0887857 473.47748,23.061607 L481.217551,36.4666872 L472.744982,36.4666872 Z M461.049417,8.0983717 L461.049417,17.2741738 L467.104741,17.2741738 C468.667413,17.2741738 469.904509,16.8496014 470.816068,16.0004439 C471.727627,15.1512863 472.183399,14.0506958 472.183399,12.6986391 C472.183399,11.3465824 471.727627,10.2418697 470.816068,9.38446796 C469.904509,8.52706616 468.667413,8.0983717 467.104741,8.0983717 L461.049417,8.0983717 Z M497.08543,29.3436926 L510.514575,29.3436926 L510.514575,36.4666872 L489.516275,36.4666872 L489.516275,1.00010967 L497.08543,1.00010967 L497.08543,29.3436926 Z M531.851778,1.00010967 C534.39112,1.00010967 536.763578,1.44529238 538.969225,2.33567116 C541.174871,3.22604995 543.054933,4.45030241 544.609466,6.00846528 C546.163999,7.56662815 547.384818,9.44216644 548.27196,11.6351364 C549.159102,13.8281064 549.602666,16.1859259 549.602666,18.7086658 C549.602666,21.2478942 549.155032,23.6180799 548.259752,25.8192942 C547.364471,28.0205084 546.139582,29.9001687 544.585049,31.4583316 C543.030516,33.0164945 541.150454,34.2407469 538.944808,35.1311257 C536.739162,36.0215045 534.374842,36.4666872 531.851778,36.4666872 L518.617965,36.4666872 L518.617965,1.00010967 L531.851778,1.00010967 Z M531.680861,29.3436926 C534.675983,29.3436926 537.12169,28.3502756 539.018058,26.3634118 C540.914426,24.376548 541.862595,21.8249916 541.862595,18.7086658 C541.862595,15.5923401 540.914426,13.0490277 539.018058,11.0786524 C537.12169,9.10827718 534.675983,8.12310432 531.680861,8.12310432 L526.18712,8.12310432 L526.18712,29.3436926 L531.680861,29.3436926 Z M581.167506,29.3189599 L595.158234,29.3189599 L595.158234,36.4666872 L573.598351,36.4666872 L573.598351,1.00010967 L594.621068,1.00010967 L594.621068,8.0983717 L581.167506,8.0983717 L581.167506,15.0977033 L593.30257,15.0977033 L593.30257,22.0475696 L581.167506,22.0475696 L581.167506,29.3189599 Z M625.431922,8.14783694 L612.100443,8.14783694 L612.100443,15.9386123 L624.137841,15.9386123 L624.137841,22.8884787 L612.100443,22.8884787 L612.100443,36.4666872 L604.531289,36.4666872 L604.531289,1.00010967 L625.431922,1.00010967 L625.431922,8.14783694 Z M655.168445,8.14783694 L641.836966,8.14783694 L641.836966,15.9386123 L653.874364,15.9386123 L653.874364,22.8884787 L641.836966,22.8884787 L641.836966,36.4666872 L634.267812,36.4666872 L634.267812,1.00010967 L655.168445,1.00010967 L655.168445,8.14783694 Z M664.004334,36.4666872 L664.004334,1.00010967 L671.573489,1.00010967 L671.573489,36.4666872 L664.004334,36.4666872 Z M698.624183,37.2333984 C696.101118,37.2333984 693.720521,36.7593613 691.482319,35.8112728 C689.244117,34.8631842 687.327431,33.5729788 685.732203,31.9406177 C684.136975,30.3082566 682.875462,28.3502771 681.947626,26.0666204 C681.019789,23.7829637 680.555878,21.3550691 680.555878,18.7828637 C680.555878,16.1776813 681.019789,13.7291764 681.947626,11.4372754 C682.875462,9.1453745 684.136975,7.18327291 685.732203,5.55091181 C687.327431,3.9185507 689.244117,2.62834525 691.482319,1.68025673 C693.720521,0.732168207 696.101118,0.258131058 698.624183,0.258131058 C702.872697,0.258131058 706.555502,1.5607027 709.672707,4.16588507 C712.789912,6.77106743 714.755431,10.1758908 715.569322,14.3804573 L707.975751,14.3804573 C707.243249,12.2699298 706.050915,10.6087387 704.398715,9.39683427 C702.746515,8.18492981 700.82169,7.57898667 698.624183,7.57898667 C695.661617,7.57898667 693.187423,8.64660077 691.201528,10.781861 C689.215632,12.9171212 688.222699,15.5840955 688.222699,18.7828637 C688.222699,21.9651434 689.215632,24.6156294 691.201528,26.7344011 C693.187423,28.8531728 695.661617,29.9125428 698.624183,29.9125428 C700.919357,29.9125428 702.905223,29.2571349 704.58184,27.9462995 C706.258457,26.6354641 707.414165,24.8506112 708.049001,22.5916872 L715.691405,22.5916872 C714.893792,26.9776271 712.932342,30.5143565 709.806998,33.2019813 C706.681654,35.8896062 702.954086,37.2333984 698.624183,37.2333984 Z M724.136629,36.4666872 L724.136629,1.00010967 L731.705783,1.00010967 L731.705783,36.4666872 L724.136629,36.4666872 Z M750.283907,29.3189599 L764.274635,29.3189599 L764.274635,36.4666872 L742.714753,36.4666872 L742.714753,1.00010967 L763.737469,1.00010967 L763.737469,8.0983717 L750.283907,8.0983717 L750.283907,15.0977033 L762.418971,15.0977033 L762.418971,22.0475696 L750.283907,22.0475696 L750.283907,29.3189599 Z M795.842405,1.00010967 L803.26506,1.00010967 L803.26506,36.4666872 L796.941153,36.4666872 L781.070345,14.3062594 L781.070345,36.4666872 L773.64769,36.4666872 L773.64769,1.00010967 L780.484346,1.00010967 L795.842405,22.6411524 L795.842405,1.00010967 Z M830.291337,37.2333984 C827.768273,37.2333984 825.387675,36.7593613 823.149473,35.8112728 C820.911271,34.8631842 818.994585,33.5729788 817.399357,31.9406177 C815.80413,30.3082566 814.542616,28.3502771 813.61478,26.0666204 C812.686943,23.7829637 812.223032,21.3550691 812.223032,18.7828637 C812.223032,16.1776813 812.686943,13.7291764 813.61478,11.4372754 C814.542616,9.1453745 815.80413,7.18327291 817.399357,5.55091181 C818.994585,3.9185507 820.911271,2.62834525 823.149473,1.68025673 C825.387675,0.732168207 827.768273,0.258131058 830.291337,0.258131058 C834.539851,0.258131058 838.222656,1.5607027 841.339861,4.16588507 C844.457066,6.77106743 846.422585,10.1758908 847.236476,14.3804573 L839.642905,14.3804573 C838.910403,12.2699298 837.718069,10.6087387 836.065869,9.39683427 C834.413669,8.18492981 832.488844,7.57898667 830.291337,7.57898667 C827.328771,7.57898667 824.854577,8.64660077 822.868682,10.781861 C820.882786,12.9171212 819.889853,15.5840955 819.889853,18.7828637 C819.889853,21.9651434 820.882786,24.6156294 822.868682,26.7344011 C824.854577,28.8531728 827.328771,29.9125428 830.291337,29.9125428 C832.586511,29.9125428 834.572377,29.2571349 836.248994,27.9462995 C837.925611,26.6354641 839.08132,24.8506112 839.716155,22.5916872 L847.35856,22.5916872 C846.560946,26.9776271 844.599496,30.5143565 841.474152,33.2019813 C838.348808,35.8896062 834.62124,37.2333984 830.291337,37.2333984 Z M883.003906,1.00010967 L870.673509,22.1465 L870.673509,36.4666872 L862.909022,36.4666872 L862.909022,22.0970348 L850.700708,1.00010967 L858.758195,1.00010967 L866.840099,15.1966337 L874.946419,1.00010967 L883.003906,1.00010967 Z"/>
</svg>
